%TF.GenerationSoftware,KiCad,Pcbnew,7.0.10*%
%TF.CreationDate,2024-02-26T12:00:29-08:00*%
%TF.ProjectId,vgaterm-bottom,76676174-6572-46d2-9d62-6f74746f6d2e,rev?*%
%TF.SameCoordinates,Original*%
%TF.FileFunction,Soldermask,Top*%
%TF.FilePolarity,Negative*%
%FSLAX46Y46*%
G04 Gerber Fmt 4.6, Leading zero omitted, Abs format (unit mm)*
G04 Created by KiCad (PCBNEW 7.0.10) date 2024-02-26 12:00:29*
%MOMM*%
%LPD*%
G01*
G04 APERTURE LIST*
G04 Aperture macros list*
%AMRoundRect*
0 Rectangle with rounded corners*
0 $1 Rounding radius*
0 $2 $3 $4 $5 $6 $7 $8 $9 X,Y pos of 4 corners*
0 Add a 4 corners polygon primitive as box body*
4,1,4,$2,$3,$4,$5,$6,$7,$8,$9,$2,$3,0*
0 Add four circle primitives for the rounded corners*
1,1,$1+$1,$2,$3*
1,1,$1+$1,$4,$5*
1,1,$1+$1,$6,$7*
1,1,$1+$1,$8,$9*
0 Add four rect primitives between the rounded corners*
20,1,$1+$1,$2,$3,$4,$5,0*
20,1,$1+$1,$4,$5,$6,$7,0*
20,1,$1+$1,$6,$7,$8,$9,0*
20,1,$1+$1,$8,$9,$2,$3,0*%
G04 Aperture macros list end*
%ADD10R,1.700000X1.700000*%
%ADD11O,1.700000X1.700000*%
%ADD12C,2.200000*%
%ADD13RoundRect,0.100000X0.100000X-0.637500X0.100000X0.637500X-0.100000X0.637500X-0.100000X-0.637500X0*%
%ADD14C,3.250000*%
%ADD15R,1.500000X1.500000*%
%ADD16C,1.500000*%
%ADD17C,2.300000*%
%ADD18RoundRect,0.250000X-0.450000X0.325000X-0.450000X-0.325000X0.450000X-0.325000X0.450000X0.325000X0*%
%ADD19RoundRect,0.250000X0.350000X0.450000X-0.350000X0.450000X-0.350000X-0.450000X0.350000X-0.450000X0*%
%ADD20RoundRect,0.250000X-0.337500X-0.475000X0.337500X-0.475000X0.337500X0.475000X-0.337500X0.475000X0*%
%ADD21C,4.000000*%
%ADD22R,1.600000X1.600000*%
%ADD23C,1.600000*%
%ADD24RoundRect,0.250000X-0.450000X0.350000X-0.450000X-0.350000X0.450000X-0.350000X0.450000X0.350000X0*%
%ADD25RoundRect,0.250000X0.337500X0.475000X-0.337500X0.475000X-0.337500X-0.475000X0.337500X-0.475000X0*%
%ADD26R,1.800000X1.800000*%
%ADD27C,1.800000*%
%ADD28RoundRect,0.162500X-0.162500X-0.837500X0.162500X-0.837500X0.162500X0.837500X-0.162500X0.837500X0*%
%ADD29RoundRect,0.162500X-0.837500X-0.162500X0.837500X-0.162500X0.837500X0.162500X-0.837500X0.162500X0*%
%ADD30R,1.350000X0.400000*%
%ADD31O,1.900000X1.200000*%
%ADD32R,1.900000X1.200000*%
%ADD33C,1.450000*%
%ADD34R,1.900000X1.500000*%
%ADD35RoundRect,0.150000X0.150000X-0.825000X0.150000X0.825000X-0.150000X0.825000X-0.150000X-0.825000X0*%
%ADD36C,1.700000*%
%ADD37R,1.000000X1.900000*%
%ADD38RoundRect,0.100000X0.637500X0.100000X-0.637500X0.100000X-0.637500X-0.100000X0.637500X-0.100000X0*%
%ADD39RoundRect,0.250000X0.450000X-0.350000X0.450000X0.350000X-0.450000X0.350000X-0.450000X-0.350000X0*%
%ADD40RoundRect,0.150000X0.150000X-0.875000X0.150000X0.875000X-0.150000X0.875000X-0.150000X-0.875000X0*%
%ADD41RoundRect,0.250000X0.475000X-0.337500X0.475000X0.337500X-0.475000X0.337500X-0.475000X-0.337500X0*%
%ADD42O,1.600000X1.600000*%
G04 APERTURE END LIST*
D10*
%TO.C,J8*%
X157734000Y-125476000D03*
D11*
X160274000Y-125476000D03*
X162814000Y-125476000D03*
X165354000Y-125476000D03*
X167894000Y-125476000D03*
%TD*%
D12*
%TO.C,H4*%
X91000000Y-81000000D03*
%TD*%
D13*
%TO.C,U2*%
X156038000Y-109542500D03*
X156688000Y-109542500D03*
X157338000Y-109542500D03*
X157988000Y-109542500D03*
X158638000Y-109542500D03*
X159288000Y-109542500D03*
X159938000Y-109542500D03*
X159938000Y-103817500D03*
X159288000Y-103817500D03*
X158638000Y-103817500D03*
X157988000Y-103817500D03*
X157338000Y-103817500D03*
X156688000Y-103817500D03*
X156038000Y-103817500D03*
%TD*%
D14*
%TO.C,J4*%
X134108000Y-137922000D03*
X121408000Y-137922000D03*
D15*
X131318000Y-135382000D03*
D16*
X130302000Y-133602000D03*
X129286000Y-135382000D03*
X128270000Y-133602000D03*
X127254000Y-135382000D03*
X126238000Y-133602000D03*
X125222000Y-135382000D03*
X124206000Y-133602000D03*
X134618000Y-128782000D03*
X132328000Y-128782000D03*
X123188000Y-128782000D03*
X120898000Y-128782000D03*
D17*
X135888000Y-134492000D03*
X119628000Y-134492000D03*
%TD*%
D18*
%TO.C,D3*%
X99568000Y-135618000D03*
X99568000Y-137668000D03*
%TD*%
D19*
%TO.C,R5*%
X85217000Y-81153000D03*
X83217000Y-81153000D03*
%TD*%
D20*
%TO.C,C10*%
X171026000Y-114554000D03*
X173101000Y-114554000D03*
%TD*%
D12*
%TO.C,H1*%
X129000000Y-92000000D03*
%TD*%
D15*
%TO.C,Clk_{pixel}*%
X109728000Y-130302000D03*
%TD*%
D21*
%TO.C,J3*%
X146504000Y-132184000D03*
X171504000Y-132184000D03*
D22*
X164544000Y-130764000D03*
D23*
X161774000Y-130764000D03*
X159004000Y-130764000D03*
X156234000Y-130764000D03*
X153464000Y-130764000D03*
X163159000Y-133604000D03*
X160389000Y-133604000D03*
X157619000Y-133604000D03*
X154849000Y-133604000D03*
%TD*%
D12*
%TO.C,H3*%
X171000000Y-99000000D03*
%TD*%
D24*
%TO.C,R6*%
X96774000Y-135627000D03*
X96774000Y-137627000D03*
%TD*%
D25*
%TO.C,C1*%
X157374500Y-121158000D03*
X155299500Y-121158000D03*
%TD*%
D26*
%TO.C,D1*%
X114046000Y-137160000D03*
D27*
X116586000Y-137160000D03*
%TD*%
D28*
%TO.C,U7*%
X125133798Y-102905500D03*
X123854632Y-102905500D03*
X122575466Y-102905500D03*
X121296300Y-102905500D03*
D29*
X119558000Y-104563000D03*
X119558000Y-105854250D03*
X119558000Y-107145500D03*
X119558000Y-108436750D03*
X119558000Y-109728000D03*
X119558000Y-111019250D03*
X119558000Y-112310500D03*
X119558000Y-113601750D03*
X119558000Y-114893000D03*
D28*
X121296300Y-116580500D03*
X122575466Y-116580500D03*
X123854632Y-116580500D03*
X125133798Y-116580500D03*
X126412964Y-116580500D03*
X127692130Y-116580500D03*
X128971300Y-116580500D03*
D29*
X130683000Y-114893000D03*
X130683000Y-113601750D03*
X130683000Y-112310500D03*
X130683000Y-111019250D03*
X130683000Y-109728000D03*
X130683000Y-108436750D03*
X130683000Y-107145500D03*
X130683000Y-105854250D03*
X130683000Y-104563000D03*
D28*
X128971300Y-102905500D03*
X127692130Y-102905500D03*
X126412964Y-102905500D03*
%TD*%
D10*
%TO.C,J7*%
X166624000Y-103378000D03*
D11*
X166624000Y-105918000D03*
X166624000Y-108458000D03*
X166624000Y-110998000D03*
X166624000Y-113538000D03*
X166624000Y-116078000D03*
X166624000Y-118618000D03*
%TD*%
D26*
%TO.C,D2*%
X138938000Y-137160000D03*
D27*
X141478000Y-137160000D03*
%TD*%
D30*
%TO.C,J6*%
X172466000Y-122752000D03*
X172466000Y-122102000D03*
X172466000Y-121452000D03*
X172466000Y-120802000D03*
X172466000Y-120152000D03*
D31*
X175166000Y-124952000D03*
D32*
X175166000Y-124352000D03*
D33*
X172466000Y-123952000D03*
D34*
X175166000Y-122452000D03*
X175166000Y-120452000D03*
D33*
X172466000Y-118952000D03*
D32*
X175166000Y-118552000D03*
D31*
X175166000Y-117952000D03*
%TD*%
D35*
%TO.C,U1*%
X154178000Y-117980000D03*
X155448000Y-117980000D03*
X156718000Y-117980000D03*
X157988000Y-117980000D03*
X159258000Y-117980000D03*
X160528000Y-117980000D03*
X161798000Y-117980000D03*
X163068000Y-117980000D03*
X163068000Y-113030000D03*
X161798000Y-113030000D03*
X160528000Y-113030000D03*
X159258000Y-113030000D03*
X157988000Y-113030000D03*
X156718000Y-113030000D03*
X155448000Y-113030000D03*
X154178000Y-113030000D03*
%TD*%
D36*
%TO.C,U4*%
X84201000Y-91821000D03*
X84201000Y-94361000D03*
X84201000Y-96901000D03*
X84201000Y-99441000D03*
X84201000Y-101981000D03*
X84201000Y-104521000D03*
X84201000Y-107061000D03*
X84201000Y-109601000D03*
X84201000Y-112141000D03*
X84201000Y-114681000D03*
X84201000Y-117221000D03*
X84201000Y-119761000D03*
X84201000Y-122301000D03*
X84201000Y-124841000D03*
X84201000Y-127381000D03*
X107061000Y-127381000D03*
X107061000Y-124841000D03*
X107061000Y-122301000D03*
X107061000Y-119761000D03*
X107061000Y-117221000D03*
X107061000Y-114681000D03*
X107061000Y-112141000D03*
X107061000Y-109601000D03*
X107061000Y-107061000D03*
X107061000Y-104521000D03*
X107061000Y-101981000D03*
X107061000Y-99441000D03*
X107061000Y-96901000D03*
X107061000Y-94361000D03*
X107061000Y-91821000D03*
%TD*%
D15*
%TO.C,Vis*%
X104140000Y-130302000D03*
%TD*%
D12*
%TO.C,H2*%
X105000000Y-136144000D03*
%TD*%
D10*
%TO.C,J1*%
X115570000Y-126238000D03*
D11*
X115570000Y-128778000D03*
X115570000Y-131318000D03*
X115570000Y-133858000D03*
%TD*%
D37*
%TO.C,J10*%
X172593000Y-83058000D03*
X170053000Y-86358000D03*
X167513000Y-83058000D03*
X164973000Y-86358000D03*
X162433000Y-83058000D03*
X159893000Y-86358000D03*
X157353000Y-83058000D03*
X154813000Y-86358000D03*
X152273000Y-83058000D03*
X149733000Y-86358000D03*
X147193000Y-83058000D03*
X144653000Y-86358000D03*
X142113000Y-83058000D03*
X139573000Y-86358000D03*
%TD*%
D10*
%TO.C,J12*%
X84201000Y-87249000D03*
D11*
X84201000Y-84709000D03*
%TD*%
D15*
%TO.C,Clk*%
X106934000Y-130302000D03*
%TD*%
D38*
%TO.C,U6*%
X123131500Y-97794000D03*
X123131500Y-97144000D03*
X123131500Y-96494000D03*
X123131500Y-95844000D03*
X123131500Y-95194000D03*
X123131500Y-94544000D03*
X123131500Y-93894000D03*
X123131500Y-93244000D03*
X123131500Y-92594000D03*
X123131500Y-91944000D03*
X117406500Y-91944000D03*
X117406500Y-92594000D03*
X117406500Y-93244000D03*
X117406500Y-93894000D03*
X117406500Y-94544000D03*
X117406500Y-95194000D03*
X117406500Y-95844000D03*
X117406500Y-96494000D03*
X117406500Y-97144000D03*
X117406500Y-97794000D03*
%TD*%
D25*
%TO.C,C2*%
X162603000Y-121158000D03*
X160528000Y-121158000D03*
%TD*%
D39*
%TO.C,R3*%
X112522000Y-134588000D03*
X112522000Y-132588000D03*
%TD*%
D10*
%TO.C,J2*%
X140970000Y-126238000D03*
D11*
X140970000Y-128778000D03*
X140970000Y-131318000D03*
X140970000Y-133858000D03*
%TD*%
D10*
%TO.C,J9*%
X113284000Y-103378000D03*
D11*
X113284000Y-105918000D03*
X113284000Y-108458000D03*
X113284000Y-110998000D03*
X113284000Y-113538000D03*
X113284000Y-116078000D03*
X113284000Y-118618000D03*
%TD*%
D40*
%TO.C,U8*%
X139446000Y-113948000D03*
X140716000Y-113948000D03*
X141986000Y-113948000D03*
X143256000Y-113948000D03*
X144526000Y-113948000D03*
X145796000Y-113948000D03*
X147066000Y-113948000D03*
X148336000Y-113948000D03*
X149606000Y-113948000D03*
X150876000Y-113948000D03*
X150876000Y-104648000D03*
X149606000Y-104648000D03*
X148336000Y-104648000D03*
X147066000Y-104648000D03*
X145796000Y-104648000D03*
X144526000Y-104648000D03*
X143256000Y-104648000D03*
X141986000Y-104648000D03*
X140716000Y-104648000D03*
X139446000Y-104648000D03*
%TD*%
D41*
%TO.C,C9*%
X170180000Y-94382500D03*
X170180000Y-92307500D03*
%TD*%
D12*
%TO.C,H5*%
X144526000Y-121412000D03*
%TD*%
D21*
%TO.C,J5*%
X133165000Y-83885331D03*
X108165000Y-83885331D03*
D22*
X116350000Y-86445331D03*
D23*
X118640000Y-86445331D03*
X120930000Y-86445331D03*
X123220000Y-86445331D03*
X125510000Y-86445331D03*
X115205000Y-83905331D03*
X117495000Y-83905331D03*
X119785000Y-83905331D03*
X122075000Y-83905331D03*
X124365000Y-83905331D03*
X116350000Y-81365331D03*
X118640000Y-81365331D03*
X120930000Y-81365331D03*
X123220000Y-81365331D03*
X125510000Y-81365331D03*
%TD*%
D22*
%TO.C,U9*%
X165100000Y-99695000D03*
D42*
X162560000Y-99695000D03*
X160020000Y-99695000D03*
X157480000Y-99695000D03*
X154940000Y-99695000D03*
X152400000Y-99695000D03*
X149860000Y-99695000D03*
X147320000Y-99695000D03*
X144780000Y-99695000D03*
X142240000Y-99695000D03*
X139700000Y-99695000D03*
X137160000Y-99695000D03*
X137160000Y-92075000D03*
X139700000Y-92075000D03*
X142240000Y-92075000D03*
X144780000Y-92075000D03*
X147320000Y-92075000D03*
X149860000Y-92075000D03*
X152400000Y-92075000D03*
X154940000Y-92075000D03*
X157480000Y-92075000D03*
X160020000Y-92075000D03*
X162560000Y-92075000D03*
X165100000Y-92075000D03*
%TD*%
D22*
%TO.C,U5*%
X91948000Y-117094000D03*
D42*
X91948000Y-114554000D03*
X91948000Y-112014000D03*
X91948000Y-109474000D03*
X91948000Y-106934000D03*
X91948000Y-104394000D03*
X91948000Y-101854000D03*
X91948000Y-99314000D03*
X91948000Y-96774000D03*
X91948000Y-94234000D03*
X91948000Y-91694000D03*
X91948000Y-89154000D03*
X99568000Y-89154000D03*
X99568000Y-91694000D03*
X99568000Y-94234000D03*
X99568000Y-96774000D03*
X99568000Y-99314000D03*
X99568000Y-101854000D03*
X99568000Y-104394000D03*
X99568000Y-106934000D03*
X99568000Y-109474000D03*
X99568000Y-112014000D03*
X99568000Y-114554000D03*
X99568000Y-117094000D03*
%TD*%
M02*
