%TF.GenerationSoftware,KiCad,Pcbnew,7.0.10*%
%TF.CreationDate,2024-02-26T12:00:29-08:00*%
%TF.ProjectId,vgaterm-bottom,76676174-6572-46d2-9d62-6f74746f6d2e,rev?*%
%TF.SameCoordinates,Original*%
%TF.FileFunction,Soldermask,Bot*%
%TF.FilePolarity,Negative*%
%FSLAX46Y46*%
G04 Gerber Fmt 4.6, Leading zero omitted, Abs format (unit mm)*
G04 Created by KiCad (PCBNEW 7.0.10) date 2024-02-26 12:00:29*
%MOMM*%
%LPD*%
G01*
G04 APERTURE LIST*
G04 Aperture macros list*
%AMRoundRect*
0 Rectangle with rounded corners*
0 $1 Rounding radius*
0 $2 $3 $4 $5 $6 $7 $8 $9 X,Y pos of 4 corners*
0 Add a 4 corners polygon primitive as box body*
4,1,4,$2,$3,$4,$5,$6,$7,$8,$9,$2,$3,0*
0 Add four circle primitives for the rounded corners*
1,1,$1+$1,$2,$3*
1,1,$1+$1,$4,$5*
1,1,$1+$1,$6,$7*
1,1,$1+$1,$8,$9*
0 Add four rect primitives between the rounded corners*
20,1,$1+$1,$2,$3,$4,$5,0*
20,1,$1+$1,$4,$5,$6,$7,0*
20,1,$1+$1,$6,$7,$8,$9,0*
20,1,$1+$1,$8,$9,$2,$3,0*%
G04 Aperture macros list end*
%ADD10R,1.700000X1.700000*%
%ADD11O,1.700000X1.700000*%
%ADD12C,2.200000*%
%ADD13C,3.250000*%
%ADD14R,1.500000X1.500000*%
%ADD15C,1.500000*%
%ADD16C,2.300000*%
%ADD17C,4.000000*%
%ADD18R,1.600000X1.600000*%
%ADD19C,1.600000*%
%ADD20R,1.800000X1.800000*%
%ADD21C,1.800000*%
%ADD22O,1.900000X1.200000*%
%ADD23C,1.450000*%
%ADD24C,1.700000*%
%ADD25RoundRect,0.250000X-0.350000X-0.450000X0.350000X-0.450000X0.350000X0.450000X-0.350000X0.450000X0*%
%ADD26RoundRect,0.250000X-0.450000X0.350000X-0.450000X-0.350000X0.450000X-0.350000X0.450000X0.350000X0*%
%ADD27RoundRect,0.250000X0.475000X-0.337500X0.475000X0.337500X-0.475000X0.337500X-0.475000X-0.337500X0*%
%ADD28RoundRect,0.250000X0.350000X0.450000X-0.350000X0.450000X-0.350000X-0.450000X0.350000X-0.450000X0*%
%ADD29RoundRect,0.250000X-0.475000X0.337500X-0.475000X-0.337500X0.475000X-0.337500X0.475000X0.337500X0*%
%ADD30RoundRect,0.250000X0.337500X0.475000X-0.337500X0.475000X-0.337500X-0.475000X0.337500X-0.475000X0*%
%ADD31RoundRect,0.250000X-0.337500X-0.475000X0.337500X-0.475000X0.337500X0.475000X-0.337500X0.475000X0*%
%ADD32RoundRect,0.200000X-0.200000X-0.600000X0.200000X-0.600000X0.200000X0.600000X-0.200000X0.600000X0*%
%ADD33RoundRect,0.250001X-0.799999X-1.249999X0.799999X-1.249999X0.799999X1.249999X-0.799999X1.249999X0*%
%ADD34O,1.600000X1.600000*%
%ADD35RoundRect,0.100000X0.637500X0.100000X-0.637500X0.100000X-0.637500X-0.100000X0.637500X-0.100000X0*%
%ADD36RoundRect,0.200000X0.600000X-0.200000X0.600000X0.200000X-0.600000X0.200000X-0.600000X-0.200000X0*%
%ADD37RoundRect,0.250001X1.249999X-0.799999X1.249999X0.799999X-1.249999X0.799999X-1.249999X-0.799999X0*%
G04 APERTURE END LIST*
D10*
%TO.C,J8*%
X157734000Y-125476000D03*
D11*
X160274000Y-125476000D03*
X162814000Y-125476000D03*
X165354000Y-125476000D03*
X167894000Y-125476000D03*
%TD*%
D12*
%TO.C,H4*%
X91000000Y-81000000D03*
%TD*%
D13*
%TO.C,J4*%
X134108000Y-137922000D03*
X121408000Y-137922000D03*
D14*
X131318000Y-135382000D03*
D15*
X130302000Y-133602000D03*
X129286000Y-135382000D03*
X128270000Y-133602000D03*
X127254000Y-135382000D03*
X126238000Y-133602000D03*
X125222000Y-135382000D03*
X124206000Y-133602000D03*
X134618000Y-128782000D03*
X132328000Y-128782000D03*
X123188000Y-128782000D03*
X120898000Y-128782000D03*
D16*
X135888000Y-134492000D03*
X119628000Y-134492000D03*
%TD*%
D12*
%TO.C,H1*%
X129000000Y-92000000D03*
%TD*%
D14*
%TO.C,Clk_{pixel}*%
X109728000Y-130302000D03*
%TD*%
D17*
%TO.C,J3*%
X146504000Y-132184000D03*
X171504000Y-132184000D03*
D18*
X164544000Y-130764000D03*
D19*
X161774000Y-130764000D03*
X159004000Y-130764000D03*
X156234000Y-130764000D03*
X153464000Y-130764000D03*
X163159000Y-133604000D03*
X160389000Y-133604000D03*
X157619000Y-133604000D03*
X154849000Y-133604000D03*
%TD*%
D12*
%TO.C,H3*%
X171000000Y-99000000D03*
%TD*%
D20*
%TO.C,D1*%
X114046000Y-137160000D03*
D21*
X116586000Y-137160000D03*
%TD*%
D10*
%TO.C,J7*%
X166624000Y-103378000D03*
D11*
X166624000Y-105918000D03*
X166624000Y-108458000D03*
X166624000Y-110998000D03*
X166624000Y-113538000D03*
X166624000Y-116078000D03*
X166624000Y-118618000D03*
%TD*%
D20*
%TO.C,D2*%
X138938000Y-137160000D03*
D21*
X141478000Y-137160000D03*
%TD*%
D22*
%TO.C,J6*%
X175166000Y-124952000D03*
D23*
X172466000Y-123952000D03*
X172466000Y-118952000D03*
D22*
X175166000Y-117952000D03*
%TD*%
D24*
%TO.C,U4*%
X84201000Y-91821000D03*
X84201000Y-94361000D03*
X84201000Y-96901000D03*
X84201000Y-99441000D03*
X84201000Y-101981000D03*
X84201000Y-104521000D03*
X84201000Y-107061000D03*
X84201000Y-109601000D03*
X84201000Y-112141000D03*
X84201000Y-114681000D03*
X84201000Y-117221000D03*
X84201000Y-119761000D03*
X84201000Y-122301000D03*
X84201000Y-124841000D03*
X84201000Y-127381000D03*
X107061000Y-127381000D03*
X107061000Y-124841000D03*
X107061000Y-122301000D03*
X107061000Y-119761000D03*
X107061000Y-117221000D03*
X107061000Y-114681000D03*
X107061000Y-112141000D03*
X107061000Y-109601000D03*
X107061000Y-107061000D03*
X107061000Y-104521000D03*
X107061000Y-101981000D03*
X107061000Y-99441000D03*
X107061000Y-96901000D03*
X107061000Y-94361000D03*
X107061000Y-91821000D03*
%TD*%
D14*
%TO.C,Vis*%
X104140000Y-130302000D03*
%TD*%
D12*
%TO.C,H2*%
X105000000Y-136144000D03*
%TD*%
D10*
%TO.C,J1*%
X115570000Y-126238000D03*
D11*
X115570000Y-128778000D03*
X115570000Y-131318000D03*
X115570000Y-133858000D03*
%TD*%
D10*
%TO.C,J12*%
X84201000Y-87249000D03*
D11*
X84201000Y-84709000D03*
%TD*%
D14*
%TO.C,Clk*%
X106934000Y-130302000D03*
%TD*%
D10*
%TO.C,J2*%
X140970000Y-126238000D03*
D11*
X140970000Y-128778000D03*
X140970000Y-131318000D03*
X140970000Y-133858000D03*
%TD*%
D10*
%TO.C,J9*%
X113284000Y-103378000D03*
D11*
X113284000Y-105918000D03*
X113284000Y-108458000D03*
X113284000Y-110998000D03*
X113284000Y-113538000D03*
X113284000Y-116078000D03*
X113284000Y-118618000D03*
%TD*%
D12*
%TO.C,H5*%
X144526000Y-121412000D03*
%TD*%
D17*
%TO.C,J5*%
X133165000Y-83885331D03*
X108165000Y-83885331D03*
D18*
X116350000Y-86445331D03*
D19*
X118640000Y-86445331D03*
X120930000Y-86445331D03*
X123220000Y-86445331D03*
X125510000Y-86445331D03*
X115205000Y-83905331D03*
X117495000Y-83905331D03*
X119785000Y-83905331D03*
X122075000Y-83905331D03*
X124365000Y-83905331D03*
X116350000Y-81365331D03*
X118640000Y-81365331D03*
X120930000Y-81365331D03*
X123220000Y-81365331D03*
X125510000Y-81365331D03*
%TD*%
D25*
%TO.C,R10*%
X167164000Y-128778000D03*
X169164000Y-128778000D03*
%TD*%
D26*
%TO.C,R11*%
X103124000Y-113284000D03*
X103124000Y-115284000D03*
%TD*%
D27*
%TO.C,C8*%
X139446000Y-105961000D03*
X139446000Y-103886000D03*
%TD*%
D26*
%TO.C,R2*%
X125857000Y-128302000D03*
X125857000Y-130302000D03*
%TD*%
D28*
%TO.C,R9*%
X151130000Y-119126000D03*
X149130000Y-119126000D03*
%TD*%
D29*
%TO.C,C12*%
X153416000Y-104118500D03*
X153416000Y-106193500D03*
%TD*%
D26*
%TO.C,R1*%
X129286000Y-128302000D03*
X129286000Y-130302000D03*
%TD*%
D30*
%TO.C,C6*%
X115740000Y-99822000D03*
X113665000Y-99822000D03*
%TD*%
D31*
%TO.C,C5*%
X97620000Y-120142000D03*
X99695000Y-120142000D03*
%TD*%
D32*
%TO.C,J11*%
X164134000Y-88244000D03*
X165384000Y-88244000D03*
X166634000Y-88244000D03*
X167884000Y-88244000D03*
D33*
X161584000Y-85344000D03*
X170434000Y-85344000D03*
%TD*%
D27*
%TO.C,C4*%
X161798000Y-123190000D03*
X161798000Y-121115000D03*
%TD*%
D26*
%TO.C,R7*%
X149606000Y-127000000D03*
X149606000Y-129000000D03*
%TD*%
D29*
%TO.C,C11*%
X103124000Y-117602000D03*
X103124000Y-119677000D03*
%TD*%
D18*
%TO.C,U9*%
X165100000Y-99695000D03*
D34*
X162560000Y-99695000D03*
X160020000Y-99695000D03*
X157480000Y-99695000D03*
X154940000Y-99695000D03*
X152400000Y-99695000D03*
X149860000Y-99695000D03*
X147320000Y-99695000D03*
X144780000Y-99695000D03*
X142240000Y-99695000D03*
X139700000Y-99695000D03*
X137160000Y-99695000D03*
X137160000Y-92075000D03*
X139700000Y-92075000D03*
X142240000Y-92075000D03*
X144780000Y-92075000D03*
X147320000Y-92075000D03*
X149860000Y-92075000D03*
X152400000Y-92075000D03*
X154940000Y-92075000D03*
X157480000Y-92075000D03*
X160020000Y-92075000D03*
X162560000Y-92075000D03*
X165100000Y-92075000D03*
%TD*%
D31*
%TO.C,C3*%
X153648500Y-121031000D03*
X155723500Y-121031000D03*
%TD*%
D25*
%TO.C,R4*%
X144542000Y-128270000D03*
X146542000Y-128270000D03*
%TD*%
D18*
%TO.C,U5*%
X91948000Y-117094000D03*
D34*
X91948000Y-114554000D03*
X91948000Y-112014000D03*
X91948000Y-109474000D03*
X91948000Y-106934000D03*
X91948000Y-104394000D03*
X91948000Y-101854000D03*
X91948000Y-99314000D03*
X91948000Y-96774000D03*
X91948000Y-94234000D03*
X91948000Y-91694000D03*
X91948000Y-89154000D03*
X99568000Y-89154000D03*
X99568000Y-91694000D03*
X99568000Y-94234000D03*
X99568000Y-96774000D03*
X99568000Y-99314000D03*
X99568000Y-101854000D03*
X99568000Y-104394000D03*
X99568000Y-106934000D03*
X99568000Y-109474000D03*
X99568000Y-112014000D03*
X99568000Y-114554000D03*
X99568000Y-117094000D03*
%TD*%
D35*
%TO.C,U3*%
X136466500Y-121240000D03*
X136466500Y-121890000D03*
X136466500Y-122540000D03*
X136466500Y-123190000D03*
X136466500Y-123840000D03*
X136466500Y-124490000D03*
X136466500Y-125140000D03*
X130741500Y-125140000D03*
X130741500Y-124490000D03*
X130741500Y-123840000D03*
X130741500Y-123190000D03*
X130741500Y-122540000D03*
X130741500Y-121890000D03*
X130741500Y-121240000D03*
%TD*%
D36*
%TO.C,J13*%
X91800000Y-135118000D03*
X91800000Y-133868000D03*
X91800000Y-132618000D03*
X91800000Y-131368000D03*
D37*
X88900000Y-137668000D03*
X88900000Y-128818000D03*
%TD*%
D31*
%TO.C,C7*%
X124692500Y-99822000D03*
X126767500Y-99822000D03*
%TD*%
D28*
%TO.C,R8*%
X151130000Y-121412000D03*
X149130000Y-121412000D03*
%TD*%
M02*
