%TF.GenerationSoftware,KiCad,Pcbnew,7.0.10*%
%TF.CreationDate,2024-02-26T12:00:29-08:00*%
%TF.ProjectId,vgaterm-bottom,76676174-6572-46d2-9d62-6f74746f6d2e,rev?*%
%TF.SameCoordinates,Original*%
%TF.FileFunction,Legend,Top*%
%TF.FilePolarity,Positive*%
%FSLAX46Y46*%
G04 Gerber Fmt 4.6, Leading zero omitted, Abs format (unit mm)*
G04 Created by KiCad (PCBNEW 7.0.10) date 2024-02-26 12:00:29*
%MOMM*%
%LPD*%
G01*
G04 APERTURE LIST*
%ADD10C,0.150000*%
%ADD11C,0.300000*%
%ADD12C,0.120000*%
%ADD13C,0.127000*%
%ADD14C,0.200010*%
G04 APERTURE END LIST*
D10*
X86667620Y-136652000D02*
G75*
G03*
X83004380Y-136652000I-1831620J0D01*
G01*
X83004380Y-136652000D02*
G75*
G03*
X86667620Y-136652000I1831620J0D01*
G01*
X112776000Y-120269000D02*
X112522000Y-120523000D01*
X113538000Y-126492000D02*
X113284000Y-126238000D01*
X112776000Y-120269000D02*
X113030000Y-120523000D01*
X113538000Y-126492000D02*
X113284000Y-126746000D01*
X112776000Y-121539000D02*
X112776000Y-120269000D01*
X112268000Y-126492000D02*
X113538000Y-126492000D01*
X138258779Y-82927819D02*
X138258779Y-81927819D01*
X138258779Y-81927819D02*
X138496874Y-81927819D01*
X138496874Y-81927819D02*
X138639731Y-81975438D01*
X138639731Y-81975438D02*
X138734969Y-82070676D01*
X138734969Y-82070676D02*
X138782588Y-82165914D01*
X138782588Y-82165914D02*
X138830207Y-82356390D01*
X138830207Y-82356390D02*
X138830207Y-82499247D01*
X138830207Y-82499247D02*
X138782588Y-82689723D01*
X138782588Y-82689723D02*
X138734969Y-82784961D01*
X138734969Y-82784961D02*
X138639731Y-82880200D01*
X138639731Y-82880200D02*
X138496874Y-82927819D01*
X138496874Y-82927819D02*
X138258779Y-82927819D01*
X139211160Y-82642104D02*
X139687350Y-82642104D01*
X139115922Y-82927819D02*
X139449255Y-81927819D01*
X139449255Y-81927819D02*
X139782588Y-82927819D01*
X140687350Y-82832580D02*
X140639731Y-82880200D01*
X140639731Y-82880200D02*
X140496874Y-82927819D01*
X140496874Y-82927819D02*
X140401636Y-82927819D01*
X140401636Y-82927819D02*
X140258779Y-82880200D01*
X140258779Y-82880200D02*
X140163541Y-82784961D01*
X140163541Y-82784961D02*
X140115922Y-82689723D01*
X140115922Y-82689723D02*
X140068303Y-82499247D01*
X140068303Y-82499247D02*
X140068303Y-82356390D01*
X140068303Y-82356390D02*
X140115922Y-82165914D01*
X140115922Y-82165914D02*
X140163541Y-82070676D01*
X140163541Y-82070676D02*
X140258779Y-81975438D01*
X140258779Y-81975438D02*
X140401636Y-81927819D01*
X140401636Y-81927819D02*
X140496874Y-81927819D01*
X140496874Y-81927819D02*
X140639731Y-81975438D01*
X140639731Y-81975438D02*
X140687350Y-82023057D01*
X168484779Y-119249819D02*
X168484779Y-118249819D01*
X168484779Y-118726009D02*
X169056207Y-118726009D01*
X169056207Y-119249819D02*
X169056207Y-118249819D01*
X169389541Y-118249819D02*
X169722874Y-119249819D01*
X169722874Y-119249819D02*
X170056207Y-118249819D01*
X170389541Y-119249819D02*
X170389541Y-118583152D01*
X170389541Y-118249819D02*
X170341922Y-118297438D01*
X170341922Y-118297438D02*
X170389541Y-118345057D01*
X170389541Y-118345057D02*
X170437160Y-118297438D01*
X170437160Y-118297438D02*
X170389541Y-118249819D01*
X170389541Y-118249819D02*
X170389541Y-118345057D01*
X170818112Y-119202200D02*
X170913350Y-119249819D01*
X170913350Y-119249819D02*
X171103826Y-119249819D01*
X171103826Y-119249819D02*
X171199064Y-119202200D01*
X171199064Y-119202200D02*
X171246683Y-119106961D01*
X171246683Y-119106961D02*
X171246683Y-119059342D01*
X171246683Y-119059342D02*
X171199064Y-118964104D01*
X171199064Y-118964104D02*
X171103826Y-118916485D01*
X171103826Y-118916485D02*
X170960969Y-118916485D01*
X170960969Y-118916485D02*
X170865731Y-118868866D01*
X170865731Y-118868866D02*
X170818112Y-118773628D01*
X170818112Y-118773628D02*
X170818112Y-118726009D01*
X170818112Y-118726009D02*
X170865731Y-118630771D01*
X170865731Y-118630771D02*
X170960969Y-118583152D01*
X170960969Y-118583152D02*
X171103826Y-118583152D01*
X171103826Y-118583152D02*
X171199064Y-118630771D01*
X86236180Y-84220207D02*
X86712371Y-83886874D01*
X86236180Y-83648779D02*
X87236180Y-83648779D01*
X87236180Y-83648779D02*
X87236180Y-84029731D01*
X87236180Y-84029731D02*
X87188561Y-84124969D01*
X87188561Y-84124969D02*
X87140942Y-84172588D01*
X87140942Y-84172588D02*
X87045704Y-84220207D01*
X87045704Y-84220207D02*
X86902847Y-84220207D01*
X86902847Y-84220207D02*
X86807609Y-84172588D01*
X86807609Y-84172588D02*
X86759990Y-84124969D01*
X86759990Y-84124969D02*
X86712371Y-84029731D01*
X86712371Y-84029731D02*
X86712371Y-83648779D01*
X86283800Y-84601160D02*
X86236180Y-84696398D01*
X86236180Y-84696398D02*
X86236180Y-84886874D01*
X86236180Y-84886874D02*
X86283800Y-84982112D01*
X86283800Y-84982112D02*
X86379038Y-85029731D01*
X86379038Y-85029731D02*
X86426657Y-85029731D01*
X86426657Y-85029731D02*
X86521895Y-84982112D01*
X86521895Y-84982112D02*
X86569514Y-84886874D01*
X86569514Y-84886874D02*
X86569514Y-84744017D01*
X86569514Y-84744017D02*
X86617133Y-84648779D01*
X86617133Y-84648779D02*
X86712371Y-84601160D01*
X86712371Y-84601160D02*
X86759990Y-84601160D01*
X86759990Y-84601160D02*
X86855228Y-84648779D01*
X86855228Y-84648779D02*
X86902847Y-84744017D01*
X86902847Y-84744017D02*
X86902847Y-84886874D01*
X86902847Y-84886874D02*
X86855228Y-84982112D01*
X86902847Y-85315446D02*
X86902847Y-85696398D01*
X87236180Y-85458303D02*
X86379038Y-85458303D01*
X86379038Y-85458303D02*
X86283800Y-85505922D01*
X86283800Y-85505922D02*
X86236180Y-85601160D01*
X86236180Y-85601160D02*
X86236180Y-85696398D01*
G36*
X111099657Y-120689402D02*
G01*
X109386323Y-120689402D01*
X109386323Y-120472684D01*
X110806800Y-120472684D01*
X110824347Y-120520893D01*
X110868776Y-120546545D01*
X110919300Y-120537636D01*
X110952277Y-120498336D01*
X110956800Y-120472684D01*
X110956800Y-118552684D01*
X110939253Y-118504475D01*
X110894824Y-118478823D01*
X110844300Y-118487732D01*
X110811323Y-118527032D01*
X110806800Y-118552684D01*
X110806800Y-120472684D01*
X109386323Y-120472684D01*
X109386323Y-120035374D01*
X109530319Y-120035374D01*
X109539228Y-120085898D01*
X109578528Y-120118875D01*
X109604180Y-120123398D01*
X109861115Y-120123398D01*
X109863616Y-120125648D01*
X109562220Y-120329091D01*
X109532079Y-120370607D01*
X109535674Y-120421783D01*
X109571325Y-120458676D01*
X109622348Y-120464021D01*
X109646140Y-120453419D01*
X109978520Y-120229063D01*
X110220675Y-120447002D01*
X110268247Y-120466210D01*
X110317035Y-120450346D01*
X110344212Y-120406832D01*
X110337061Y-120356030D01*
X110321020Y-120335508D01*
X110085342Y-120123398D01*
X110604180Y-120123398D01*
X110652389Y-120105851D01*
X110678041Y-120061422D01*
X110669132Y-120010898D01*
X110629832Y-119977921D01*
X110604180Y-119973398D01*
X109604180Y-119973398D01*
X109555971Y-119990945D01*
X109530319Y-120035374D01*
X109386323Y-120035374D01*
X109386323Y-119719781D01*
X109530545Y-119719781D01*
X109556925Y-119763782D01*
X109605417Y-119780531D01*
X109653330Y-119762192D01*
X109669742Y-119741965D01*
X109705274Y-119678006D01*
X109763136Y-119651969D01*
X110604180Y-119651969D01*
X110652389Y-119634422D01*
X110678041Y-119589993D01*
X110669132Y-119539469D01*
X110629832Y-119506492D01*
X110604180Y-119501969D01*
X109747038Y-119501969D01*
X109744307Y-119502963D01*
X109741510Y-119502173D01*
X109716261Y-119508575D01*
X109621023Y-119551432D01*
X109613047Y-119559195D01*
X109602650Y-119563175D01*
X109586239Y-119583402D01*
X109538618Y-119669117D01*
X109530545Y-119719781D01*
X109386323Y-119719781D01*
X109386323Y-119019826D01*
X109529180Y-119019826D01*
X109529256Y-119020037D01*
X109529181Y-119020249D01*
X109533849Y-119045875D01*
X109581469Y-119174447D01*
X109584856Y-119178437D01*
X109585586Y-119183623D01*
X109601628Y-119204145D01*
X109649247Y-119247002D01*
X109696819Y-119266210D01*
X109745607Y-119250346D01*
X109772784Y-119206832D01*
X109765633Y-119156030D01*
X109749591Y-119135508D01*
X109715711Y-119105016D01*
X109679180Y-119006383D01*
X109679180Y-118947554D01*
X109715711Y-118848923D01*
X109788500Y-118783411D01*
X109866137Y-118748475D01*
X110041086Y-118709112D01*
X110167275Y-118709112D01*
X110342225Y-118748475D01*
X110419858Y-118783410D01*
X110492649Y-118848923D01*
X110529180Y-118947554D01*
X110529180Y-119006384D01*
X110492649Y-119105016D01*
X110458770Y-119135508D01*
X110434675Y-119180801D01*
X110445329Y-119230985D01*
X110485750Y-119262579D01*
X110537022Y-119260800D01*
X110559114Y-119247002D01*
X110606733Y-119204145D01*
X110609191Y-119199523D01*
X110613741Y-119196931D01*
X110626892Y-119174446D01*
X110674511Y-119045874D01*
X110674512Y-119045650D01*
X110674657Y-119045478D01*
X110679180Y-119019826D01*
X110679180Y-118934112D01*
X110679103Y-118933900D01*
X110679179Y-118933689D01*
X110674511Y-118908063D01*
X110626892Y-118779492D01*
X110623504Y-118775501D01*
X110622775Y-118770316D01*
X110606733Y-118749794D01*
X110511496Y-118664079D01*
X110509516Y-118663279D01*
X110492101Y-118651432D01*
X110396862Y-118608575D01*
X110393359Y-118608316D01*
X110382548Y-118603798D01*
X110192072Y-118560941D01*
X110188548Y-118561393D01*
X110175609Y-118559112D01*
X110032752Y-118559112D01*
X110029415Y-118560326D01*
X110016289Y-118560941D01*
X109825813Y-118603798D01*
X109822854Y-118605695D01*
X109811499Y-118608575D01*
X109716261Y-118651432D01*
X109714732Y-118652920D01*
X109696865Y-118664079D01*
X109601627Y-118749794D01*
X109599167Y-118754416D01*
X109594620Y-118757008D01*
X109581469Y-118779492D01*
X109533849Y-118908063D01*
X109533847Y-118908287D01*
X109533703Y-118908460D01*
X109529180Y-118934112D01*
X109529180Y-119019826D01*
X109386323Y-119019826D01*
X109386323Y-118335966D01*
X111099657Y-118335966D01*
X111099657Y-120689402D01*
G37*
X110556561Y-113560398D02*
X110604180Y-113474684D01*
X110604180Y-113474684D02*
X110604180Y-113346112D01*
X110604180Y-113346112D02*
X110556561Y-113217541D01*
X110556561Y-113217541D02*
X110461323Y-113131826D01*
X110461323Y-113131826D02*
X110366085Y-113088969D01*
X110366085Y-113088969D02*
X110175609Y-113046112D01*
X110175609Y-113046112D02*
X110032752Y-113046112D01*
X110032752Y-113046112D02*
X109842276Y-113088969D01*
X109842276Y-113088969D02*
X109747038Y-113131826D01*
X109747038Y-113131826D02*
X109651800Y-113217541D01*
X109651800Y-113217541D02*
X109604180Y-113346112D01*
X109604180Y-113346112D02*
X109604180Y-113431826D01*
X109604180Y-113431826D02*
X109651800Y-113560398D01*
X109651800Y-113560398D02*
X109699419Y-113603255D01*
X109699419Y-113603255D02*
X110032752Y-113603255D01*
X110032752Y-113603255D02*
X110032752Y-113431826D01*
X109604180Y-113988969D02*
X110604180Y-113988969D01*
X110604180Y-113988969D02*
X109604180Y-114503255D01*
X109604180Y-114503255D02*
X110604180Y-114503255D01*
X109604180Y-114931826D02*
X110604180Y-114931826D01*
X110604180Y-114931826D02*
X110604180Y-115146112D01*
X110604180Y-115146112D02*
X110556561Y-115274683D01*
X110556561Y-115274683D02*
X110461323Y-115360398D01*
X110461323Y-115360398D02*
X110366085Y-115403255D01*
X110366085Y-115403255D02*
X110175609Y-115446112D01*
X110175609Y-115446112D02*
X110032752Y-115446112D01*
X110032752Y-115446112D02*
X109842276Y-115403255D01*
X109842276Y-115403255D02*
X109747038Y-115360398D01*
X109747038Y-115360398D02*
X109651800Y-115274683D01*
X109651800Y-115274683D02*
X109604180Y-115146112D01*
X109604180Y-115146112D02*
X109604180Y-114931826D01*
G36*
X109884039Y-105882577D02*
G01*
X109910133Y-105929547D01*
X109910133Y-106124398D01*
X109912233Y-106130168D01*
X109911277Y-106135113D01*
X109695930Y-106135113D01*
X109679180Y-106104962D01*
X109679180Y-105929548D01*
X109705274Y-105882578D01*
X109763136Y-105856541D01*
X109826179Y-105856541D01*
X109884039Y-105882577D01*
G37*
G36*
X111099657Y-107626831D02*
G01*
X109386323Y-107626831D01*
X109386323Y-107410113D01*
X109529180Y-107410113D01*
X109546727Y-107458322D01*
X109591156Y-107483974D01*
X109641680Y-107475065D01*
X109674657Y-107435765D01*
X109679180Y-107410113D01*
X109679180Y-107343834D01*
X109705274Y-107296864D01*
X109763136Y-107270827D01*
X110195847Y-107270827D01*
X110195847Y-107410113D01*
X110213394Y-107458322D01*
X110257823Y-107483974D01*
X110308347Y-107475065D01*
X110341324Y-107435765D01*
X110345847Y-107410113D01*
X110345847Y-107405828D01*
X110806800Y-107405828D01*
X110824347Y-107454037D01*
X110868776Y-107479689D01*
X110919300Y-107470780D01*
X110952277Y-107431480D01*
X110956800Y-107405828D01*
X110956800Y-104328684D01*
X110939253Y-104280475D01*
X110894824Y-104254823D01*
X110844300Y-104263732D01*
X110811323Y-104303032D01*
X110806800Y-104328684D01*
X110806800Y-107405828D01*
X110345847Y-107405828D01*
X110345847Y-107270827D01*
X110604180Y-107270827D01*
X110652389Y-107253280D01*
X110678041Y-107208851D01*
X110669132Y-107158327D01*
X110629832Y-107125350D01*
X110604180Y-107120827D01*
X110345847Y-107120827D01*
X110345847Y-107067256D01*
X110328300Y-107019047D01*
X110283871Y-106993395D01*
X110233347Y-107002304D01*
X110200370Y-107041604D01*
X110195847Y-107067256D01*
X110195847Y-107120827D01*
X109747038Y-107120827D01*
X109744307Y-107121821D01*
X109741510Y-107121031D01*
X109716261Y-107127433D01*
X109621023Y-107170290D01*
X109613047Y-107178053D01*
X109602650Y-107182033D01*
X109586239Y-107202260D01*
X109538618Y-107287975D01*
X109537651Y-107294041D01*
X109533703Y-107298747D01*
X109529180Y-107324399D01*
X109529180Y-107410113D01*
X109386323Y-107410113D01*
X109386323Y-106625660D01*
X109530319Y-106625660D01*
X109539228Y-106676184D01*
X109578528Y-106709161D01*
X109604180Y-106713684D01*
X110064274Y-106713684D01*
X110134144Y-106745125D01*
X110163747Y-106771767D01*
X110195847Y-106829547D01*
X110195847Y-106895827D01*
X110213394Y-106944036D01*
X110257823Y-106969688D01*
X110308347Y-106960779D01*
X110341324Y-106921479D01*
X110345847Y-106895827D01*
X110345847Y-106810113D01*
X110343746Y-106804341D01*
X110344913Y-106798310D01*
X110336409Y-106773689D01*
X110297652Y-106703927D01*
X110319056Y-106696137D01*
X110344708Y-106651708D01*
X110335799Y-106601184D01*
X110296499Y-106568207D01*
X110270847Y-106563684D01*
X109604180Y-106563684D01*
X109555971Y-106581231D01*
X109530319Y-106625660D01*
X109386323Y-106625660D01*
X109386323Y-106124398D01*
X109529180Y-106124398D01*
X109531280Y-106130169D01*
X109530114Y-106136201D01*
X109538618Y-106160822D01*
X109544816Y-106171979D01*
X109530319Y-106197089D01*
X109539228Y-106247613D01*
X109578528Y-106280590D01*
X109604180Y-106285113D01*
X110127990Y-106285113D01*
X110130721Y-106284118D01*
X110133519Y-106284909D01*
X110158768Y-106278507D01*
X110254006Y-106235649D01*
X110261981Y-106227885D01*
X110272378Y-106223906D01*
X110288790Y-106203678D01*
X110336409Y-106117965D01*
X110337375Y-106111898D01*
X110341324Y-106107193D01*
X110345847Y-106081541D01*
X110345847Y-105910113D01*
X110343746Y-105904341D01*
X110344913Y-105898310D01*
X110336409Y-105873690D01*
X110288790Y-105787975D01*
X110250039Y-105754354D01*
X110198743Y-105753507D01*
X110158904Y-105785831D01*
X110149162Y-105836200D01*
X110157666Y-105860821D01*
X110195847Y-105929547D01*
X110195847Y-106062106D01*
X110169753Y-106109074D01*
X110111892Y-106135113D01*
X110076883Y-106135113D01*
X110060133Y-106104963D01*
X110060133Y-105910113D01*
X110058032Y-105904341D01*
X110059199Y-105898310D01*
X110050695Y-105873690D01*
X110003076Y-105787975D01*
X109994668Y-105780680D01*
X109989828Y-105770655D01*
X109968292Y-105756004D01*
X109873053Y-105713147D01*
X109870155Y-105712932D01*
X109867928Y-105711064D01*
X109842276Y-105706541D01*
X109747038Y-105706541D01*
X109744307Y-105707535D01*
X109741510Y-105706745D01*
X109716261Y-105713147D01*
X109621023Y-105756004D01*
X109613047Y-105763767D01*
X109602650Y-105767747D01*
X109586239Y-105787974D01*
X109538618Y-105873689D01*
X109537651Y-105879755D01*
X109533703Y-105884461D01*
X109529180Y-105910113D01*
X109529180Y-106124398D01*
X109386323Y-106124398D01*
X109386323Y-105524398D01*
X109529180Y-105524398D01*
X109546727Y-105572607D01*
X109591156Y-105598259D01*
X109641680Y-105589350D01*
X109674657Y-105550050D01*
X109679180Y-105524398D01*
X109679180Y-105458119D01*
X109705274Y-105411149D01*
X109763136Y-105385112D01*
X110195847Y-105385112D01*
X110195847Y-105524398D01*
X110213394Y-105572607D01*
X110257823Y-105598259D01*
X110308347Y-105589350D01*
X110341324Y-105550050D01*
X110345847Y-105524398D01*
X110345847Y-105385112D01*
X110604180Y-105385112D01*
X110652389Y-105367565D01*
X110678041Y-105323136D01*
X110669132Y-105272612D01*
X110629832Y-105239635D01*
X110604180Y-105235112D01*
X110345847Y-105235112D01*
X110345847Y-105181541D01*
X110328300Y-105133332D01*
X110283871Y-105107680D01*
X110233347Y-105116589D01*
X110200370Y-105155889D01*
X110195847Y-105181541D01*
X110195847Y-105235112D01*
X109747038Y-105235112D01*
X109744307Y-105236106D01*
X109741510Y-105235316D01*
X109716261Y-105241718D01*
X109621023Y-105284575D01*
X109613047Y-105292338D01*
X109602650Y-105296318D01*
X109586239Y-105316545D01*
X109538618Y-105402260D01*
X109537651Y-105408326D01*
X109533703Y-105413032D01*
X109529180Y-105438684D01*
X109529180Y-105524398D01*
X109386323Y-105524398D01*
X109386323Y-104752969D01*
X109529180Y-104752969D01*
X109531280Y-104758740D01*
X109530114Y-104764772D01*
X109538618Y-104789393D01*
X109586239Y-104875108D01*
X109587122Y-104875874D01*
X109601628Y-104894431D01*
X109649247Y-104937288D01*
X109651224Y-104938086D01*
X109668642Y-104949935D01*
X109763880Y-104992792D01*
X109766777Y-104993006D01*
X109769005Y-104994875D01*
X109794657Y-104999398D01*
X109889895Y-104999398D01*
X109892626Y-104998403D01*
X109895424Y-104999194D01*
X109920672Y-104992792D01*
X110015911Y-104949935D01*
X110017441Y-104948444D01*
X110035305Y-104937288D01*
X110082924Y-104894431D01*
X110083474Y-104893395D01*
X110098314Y-104875107D01*
X110145933Y-104789392D01*
X110146486Y-104785918D01*
X110152635Y-104773042D01*
X110197872Y-104610186D01*
X110235089Y-104543194D01*
X110264690Y-104516554D01*
X110334564Y-104485112D01*
X110397607Y-104485112D01*
X110467479Y-104516554D01*
X110497080Y-104543194D01*
X110529180Y-104600975D01*
X110529180Y-104782384D01*
X110486230Y-104898350D01*
X110485941Y-104949652D01*
X110518695Y-104989138D01*
X110569168Y-104998331D01*
X110613741Y-104972931D01*
X110626892Y-104950446D01*
X110674511Y-104821874D01*
X110674512Y-104821650D01*
X110674657Y-104821478D01*
X110679180Y-104795826D01*
X110679180Y-104581541D01*
X110677079Y-104575769D01*
X110678246Y-104569738D01*
X110669742Y-104545118D01*
X110622123Y-104459403D01*
X110621238Y-104458635D01*
X110606733Y-104440079D01*
X110559114Y-104397222D01*
X110557136Y-104396423D01*
X110539720Y-104384575D01*
X110444481Y-104341718D01*
X110441583Y-104341503D01*
X110439356Y-104339635D01*
X110413704Y-104335112D01*
X110318466Y-104335112D01*
X110315735Y-104336106D01*
X110312938Y-104335316D01*
X110287689Y-104341718D01*
X110192451Y-104384575D01*
X110190922Y-104386062D01*
X110173056Y-104397222D01*
X110125437Y-104440079D01*
X110124887Y-104441111D01*
X110110047Y-104459403D01*
X110062428Y-104545118D01*
X110061874Y-104548591D01*
X110055726Y-104561468D01*
X110010488Y-104724323D01*
X109973271Y-104791315D01*
X109943670Y-104817955D01*
X109873798Y-104849398D01*
X109810755Y-104849398D01*
X109740881Y-104817955D01*
X109711280Y-104791314D01*
X109679180Y-104733533D01*
X109679180Y-104552126D01*
X109722131Y-104436161D01*
X109722420Y-104384859D01*
X109689666Y-104345373D01*
X109639193Y-104336179D01*
X109594620Y-104361579D01*
X109581469Y-104384063D01*
X109533849Y-104512635D01*
X109533847Y-104512859D01*
X109533703Y-104513032D01*
X109529180Y-104538684D01*
X109529180Y-104752969D01*
X109386323Y-104752969D01*
X109386323Y-104111966D01*
X111099657Y-104111966D01*
X111099657Y-107626831D01*
G37*
X164373160Y-123520200D02*
X164516017Y-123567819D01*
X164516017Y-123567819D02*
X164754112Y-123567819D01*
X164754112Y-123567819D02*
X164849350Y-123520200D01*
X164849350Y-123520200D02*
X164896969Y-123472580D01*
X164896969Y-123472580D02*
X164944588Y-123377342D01*
X164944588Y-123377342D02*
X164944588Y-123282104D01*
X164944588Y-123282104D02*
X164896969Y-123186866D01*
X164896969Y-123186866D02*
X164849350Y-123139247D01*
X164849350Y-123139247D02*
X164754112Y-123091628D01*
X164754112Y-123091628D02*
X164563636Y-123044009D01*
X164563636Y-123044009D02*
X164468398Y-122996390D01*
X164468398Y-122996390D02*
X164420779Y-122948771D01*
X164420779Y-122948771D02*
X164373160Y-122853533D01*
X164373160Y-122853533D02*
X164373160Y-122758295D01*
X164373160Y-122758295D02*
X164420779Y-122663057D01*
X164420779Y-122663057D02*
X164468398Y-122615438D01*
X164468398Y-122615438D02*
X164563636Y-122567819D01*
X164563636Y-122567819D02*
X164801731Y-122567819D01*
X164801731Y-122567819D02*
X164944588Y-122615438D01*
X165277922Y-122567819D02*
X165896969Y-122567819D01*
X165896969Y-122567819D02*
X165563636Y-122948771D01*
X165563636Y-122948771D02*
X165706493Y-122948771D01*
X165706493Y-122948771D02*
X165801731Y-122996390D01*
X165801731Y-122996390D02*
X165849350Y-123044009D01*
X165849350Y-123044009D02*
X165896969Y-123139247D01*
X165896969Y-123139247D02*
X165896969Y-123377342D01*
X165896969Y-123377342D02*
X165849350Y-123472580D01*
X165849350Y-123472580D02*
X165801731Y-123520200D01*
X165801731Y-123520200D02*
X165706493Y-123567819D01*
X165706493Y-123567819D02*
X165420779Y-123567819D01*
X165420779Y-123567819D02*
X165325541Y-123520200D01*
X165325541Y-123520200D02*
X165277922Y-123472580D01*
G36*
X173051739Y-104306517D02*
G01*
X168520922Y-104306517D01*
X168520922Y-103755819D01*
X168663779Y-103755819D01*
X168681326Y-103804028D01*
X168725755Y-103829680D01*
X168776279Y-103820771D01*
X168809256Y-103781471D01*
X168813779Y-103755819D01*
X168813779Y-103307009D01*
X169235207Y-103307009D01*
X169235207Y-103755819D01*
X169252754Y-103804028D01*
X169297183Y-103829680D01*
X169347707Y-103820771D01*
X169380684Y-103781471D01*
X169385207Y-103755819D01*
X169385207Y-103041533D01*
X169663779Y-103041533D01*
X169665312Y-103045746D01*
X169664271Y-103050107D01*
X169671697Y-103075074D01*
X169719316Y-103170312D01*
X169720505Y-103171437D01*
X169733365Y-103189804D01*
X169780984Y-103237423D01*
X169782465Y-103238114D01*
X169800476Y-103251472D01*
X169895714Y-103299091D01*
X169899242Y-103299497D01*
X169911065Y-103304770D01*
X170093555Y-103350392D01*
X170170542Y-103388886D01*
X170200949Y-103419293D01*
X170235207Y-103487809D01*
X170235207Y-103547637D01*
X170200948Y-103616153D01*
X170170541Y-103646561D01*
X170102026Y-103680819D01*
X169893806Y-103680819D01*
X169762496Y-103637049D01*
X169711212Y-103638450D01*
X169672827Y-103672487D01*
X169665302Y-103723236D01*
X169692157Y-103766948D01*
X169715062Y-103779351D01*
X169857918Y-103826970D01*
X169859553Y-103826925D01*
X169881636Y-103830819D01*
X170119731Y-103830819D01*
X170123944Y-103829285D01*
X170128305Y-103830327D01*
X170153272Y-103822901D01*
X170248510Y-103775282D01*
X170249634Y-103774094D01*
X170268003Y-103761232D01*
X170315621Y-103713613D01*
X170316311Y-103712131D01*
X170329670Y-103694121D01*
X170377289Y-103598883D01*
X170377801Y-103594429D01*
X170380684Y-103590994D01*
X170385207Y-103565342D01*
X170385207Y-103470104D01*
X170383673Y-103465890D01*
X170384715Y-103461529D01*
X170377289Y-103436563D01*
X170329670Y-103341325D01*
X170328480Y-103340199D01*
X170315621Y-103321833D01*
X170268002Y-103274214D01*
X170266520Y-103273523D01*
X170248510Y-103260165D01*
X170153272Y-103212546D01*
X170149743Y-103212139D01*
X170137921Y-103206867D01*
X169955431Y-103161244D01*
X169878444Y-103122751D01*
X169848037Y-103092344D01*
X169846214Y-103088698D01*
X170568542Y-103088698D01*
X170572910Y-103114377D01*
X170801459Y-103754316D01*
X170722479Y-103951766D01*
X170694352Y-103979894D01*
X170610000Y-104022070D01*
X170574728Y-104059324D01*
X170571653Y-104110535D01*
X170602217Y-104151740D01*
X170652115Y-104163660D01*
X170677082Y-104156234D01*
X170772320Y-104108615D01*
X170773445Y-104107425D01*
X170791812Y-104094566D01*
X170839431Y-104046947D01*
X170840362Y-104044948D01*
X170842307Y-104043906D01*
X170856034Y-104021768D01*
X170951272Y-103783673D01*
X170951301Y-103782740D01*
X170952267Y-103781044D01*
X170961276Y-103755819D01*
X171425684Y-103755819D01*
X171443231Y-103804028D01*
X171487660Y-103829680D01*
X171538184Y-103820771D01*
X171571161Y-103781471D01*
X171575684Y-103755819D01*
X171575684Y-103215456D01*
X171592730Y-103198410D01*
X171661246Y-103164152D01*
X171768693Y-103164152D01*
X171825734Y-103192672D01*
X171854255Y-103249714D01*
X171854255Y-103755819D01*
X171871802Y-103804028D01*
X171916231Y-103829680D01*
X171966755Y-103820771D01*
X171999732Y-103781471D01*
X172004255Y-103755819D01*
X172004255Y-103565342D01*
X172282827Y-103565342D01*
X172284360Y-103569555D01*
X172283319Y-103573916D01*
X172290745Y-103598883D01*
X172338364Y-103694121D01*
X172339552Y-103695246D01*
X172352412Y-103713612D01*
X172400031Y-103761232D01*
X172401512Y-103761922D01*
X172419524Y-103775282D01*
X172514762Y-103822901D01*
X172519215Y-103823413D01*
X172522651Y-103826296D01*
X172548303Y-103830819D01*
X172738779Y-103830819D01*
X172742992Y-103829285D01*
X172747353Y-103830327D01*
X172772320Y-103822901D01*
X172867558Y-103775282D01*
X172902830Y-103738028D01*
X172905905Y-103686818D01*
X172875341Y-103645612D01*
X172825442Y-103633692D01*
X172800476Y-103641118D01*
X172721074Y-103680819D01*
X172566008Y-103680819D01*
X172497492Y-103646561D01*
X172467085Y-103616153D01*
X172432827Y-103547637D01*
X172432827Y-103297333D01*
X172467085Y-103228817D01*
X172497492Y-103198410D01*
X172566008Y-103164152D01*
X172721074Y-103164152D01*
X172800476Y-103203853D01*
X172851442Y-103209718D01*
X172894255Y-103181452D01*
X172908882Y-103132277D01*
X172888479Y-103085206D01*
X172867558Y-103069689D01*
X172772320Y-103022070D01*
X172767866Y-103021557D01*
X172764431Y-103018675D01*
X172738779Y-103014152D01*
X172548303Y-103014152D01*
X172544089Y-103015685D01*
X172539728Y-103014644D01*
X172514762Y-103022070D01*
X172419524Y-103069689D01*
X172418398Y-103070878D01*
X172400032Y-103083738D01*
X172352413Y-103131357D01*
X172351722Y-103132838D01*
X172338364Y-103150849D01*
X172290745Y-103246087D01*
X172290232Y-103250540D01*
X172287350Y-103253976D01*
X172282827Y-103279628D01*
X172282827Y-103565342D01*
X172004255Y-103565342D01*
X172004255Y-103232009D01*
X172002721Y-103227795D01*
X172003763Y-103223434D01*
X171996337Y-103198468D01*
X171948718Y-103103230D01*
X171940564Y-103095510D01*
X171936098Y-103085206D01*
X171915177Y-103069689D01*
X171819939Y-103022070D01*
X171815485Y-103021557D01*
X171812050Y-103018675D01*
X171786398Y-103014152D01*
X171643541Y-103014152D01*
X171639327Y-103015685D01*
X171634966Y-103014644D01*
X171610000Y-103022070D01*
X171560310Y-103046914D01*
X171558137Y-103040943D01*
X171513708Y-103015291D01*
X171463184Y-103024200D01*
X171430207Y-103063500D01*
X171425684Y-103089152D01*
X171425684Y-103755819D01*
X170961276Y-103755819D01*
X171190362Y-103114377D01*
X171190051Y-103063075D01*
X171156838Y-103023975D01*
X171106261Y-103015372D01*
X171061987Y-103041291D01*
X171049100Y-103063927D01*
X170881636Y-103532826D01*
X170714172Y-103063927D01*
X170681432Y-103024428D01*
X170630964Y-103015214D01*
X170586380Y-103040597D01*
X170568542Y-103088698D01*
X169846214Y-103088698D01*
X169813779Y-103023828D01*
X169813779Y-102964000D01*
X169848037Y-102895484D01*
X169878444Y-102865077D01*
X169946960Y-102830819D01*
X170155180Y-102830819D01*
X170286489Y-102874589D01*
X170337773Y-102873188D01*
X170376159Y-102839150D01*
X170383684Y-102788402D01*
X170356829Y-102744689D01*
X170333924Y-102732287D01*
X170191067Y-102684668D01*
X170189432Y-102684712D01*
X170167350Y-102680819D01*
X169929255Y-102680819D01*
X169925041Y-102682352D01*
X169920680Y-102681311D01*
X169895714Y-102688737D01*
X169800476Y-102736356D01*
X169799350Y-102737545D01*
X169780984Y-102750405D01*
X169733365Y-102798024D01*
X169732674Y-102799505D01*
X169719316Y-102817516D01*
X169671697Y-102912754D01*
X169671184Y-102917207D01*
X169668302Y-102920643D01*
X169663779Y-102946295D01*
X169663779Y-103041533D01*
X169385207Y-103041533D01*
X169385207Y-102755819D01*
X169367660Y-102707610D01*
X169323231Y-102681958D01*
X169272707Y-102690867D01*
X169239730Y-102730167D01*
X169235207Y-102755819D01*
X169235207Y-103157009D01*
X168813779Y-103157009D01*
X168813779Y-102755819D01*
X168796232Y-102707610D01*
X168751803Y-102681958D01*
X168701279Y-102690867D01*
X168668302Y-102730167D01*
X168663779Y-102755819D01*
X168663779Y-103755819D01*
X168520922Y-103755819D01*
X168520922Y-102537962D01*
X173051739Y-102537962D01*
X173051739Y-104306517D01*
G37*
D11*
X84398320Y-136836209D02*
X85350701Y-136836209D01*
X84207844Y-137407638D02*
X84874510Y-135407638D01*
X84874510Y-135407638D02*
X85541177Y-137407638D01*
D10*
X167484588Y-122615438D02*
X167389350Y-122567819D01*
X167389350Y-122567819D02*
X167246493Y-122567819D01*
X167246493Y-122567819D02*
X167103636Y-122615438D01*
X167103636Y-122615438D02*
X167008398Y-122710676D01*
X167008398Y-122710676D02*
X166960779Y-122805914D01*
X166960779Y-122805914D02*
X166913160Y-122996390D01*
X166913160Y-122996390D02*
X166913160Y-123139247D01*
X166913160Y-123139247D02*
X166960779Y-123329723D01*
X166960779Y-123329723D02*
X167008398Y-123424961D01*
X167008398Y-123424961D02*
X167103636Y-123520200D01*
X167103636Y-123520200D02*
X167246493Y-123567819D01*
X167246493Y-123567819D02*
X167341731Y-123567819D01*
X167341731Y-123567819D02*
X167484588Y-123520200D01*
X167484588Y-123520200D02*
X167532207Y-123472580D01*
X167532207Y-123472580D02*
X167532207Y-123139247D01*
X167532207Y-123139247D02*
X167341731Y-123139247D01*
X167960779Y-123567819D02*
X167960779Y-122567819D01*
X167960779Y-122567819D02*
X168532207Y-123567819D01*
X168532207Y-123567819D02*
X168532207Y-122567819D01*
X169008398Y-123567819D02*
X169008398Y-122567819D01*
X169008398Y-122567819D02*
X169246493Y-122567819D01*
X169246493Y-122567819D02*
X169389350Y-122615438D01*
X169389350Y-122615438D02*
X169484588Y-122710676D01*
X169484588Y-122710676D02*
X169532207Y-122805914D01*
X169532207Y-122805914D02*
X169579826Y-122996390D01*
X169579826Y-122996390D02*
X169579826Y-123139247D01*
X169579826Y-123139247D02*
X169532207Y-123329723D01*
X169532207Y-123329723D02*
X169484588Y-123424961D01*
X169484588Y-123424961D02*
X169389350Y-123520200D01*
X169389350Y-123520200D02*
X169246493Y-123567819D01*
X169246493Y-123567819D02*
X169008398Y-123567819D01*
X110604180Y-108388398D02*
X109604180Y-108688398D01*
X109604180Y-108688398D02*
X110604180Y-108988398D01*
X109604180Y-109288398D02*
X110270847Y-109288398D01*
X110604180Y-109288398D02*
X110556561Y-109245541D01*
X110556561Y-109245541D02*
X110508942Y-109288398D01*
X110508942Y-109288398D02*
X110556561Y-109331255D01*
X110556561Y-109331255D02*
X110604180Y-109288398D01*
X110604180Y-109288398D02*
X110508942Y-109288398D01*
X109651800Y-109674112D02*
X109604180Y-109759826D01*
X109604180Y-109759826D02*
X109604180Y-109931255D01*
X109604180Y-109931255D02*
X109651800Y-110016969D01*
X109651800Y-110016969D02*
X109747038Y-110059826D01*
X109747038Y-110059826D02*
X109794657Y-110059826D01*
X109794657Y-110059826D02*
X109889895Y-110016969D01*
X109889895Y-110016969D02*
X109937514Y-109931255D01*
X109937514Y-109931255D02*
X109937514Y-109802684D01*
X109937514Y-109802684D02*
X109985133Y-109716969D01*
X109985133Y-109716969D02*
X110080371Y-109674112D01*
X110080371Y-109674112D02*
X110127990Y-109674112D01*
X110127990Y-109674112D02*
X110223228Y-109716969D01*
X110223228Y-109716969D02*
X110270847Y-109802684D01*
X110270847Y-109802684D02*
X110270847Y-109931255D01*
X110270847Y-109931255D02*
X110223228Y-110016969D01*
X110881800Y-108392684D02*
X110881800Y-110141255D01*
X109699419Y-116651255D02*
X109651800Y-116608398D01*
X109651800Y-116608398D02*
X109604180Y-116479826D01*
X109604180Y-116479826D02*
X109604180Y-116394112D01*
X109604180Y-116394112D02*
X109651800Y-116265541D01*
X109651800Y-116265541D02*
X109747038Y-116179826D01*
X109747038Y-116179826D02*
X109842276Y-116136969D01*
X109842276Y-116136969D02*
X110032752Y-116094112D01*
X110032752Y-116094112D02*
X110175609Y-116094112D01*
X110175609Y-116094112D02*
X110366085Y-116136969D01*
X110366085Y-116136969D02*
X110461323Y-116179826D01*
X110461323Y-116179826D02*
X110556561Y-116265541D01*
X110556561Y-116265541D02*
X110604180Y-116394112D01*
X110604180Y-116394112D02*
X110604180Y-116479826D01*
X110604180Y-116479826D02*
X110556561Y-116608398D01*
X110556561Y-116608398D02*
X110508942Y-116651255D01*
X109604180Y-117165541D02*
X109651800Y-117079826D01*
X109651800Y-117079826D02*
X109747038Y-117036969D01*
X109747038Y-117036969D02*
X110604180Y-117036969D01*
X109604180Y-117508398D02*
X110604180Y-117508398D01*
X109985133Y-117594113D02*
X109604180Y-117851255D01*
X110270847Y-117851255D02*
X109889895Y-117508398D01*
X169484561Y-113382588D02*
X169532180Y-113287350D01*
X169532180Y-113287350D02*
X169532180Y-113144493D01*
X169532180Y-113144493D02*
X169484561Y-113001636D01*
X169484561Y-113001636D02*
X169389323Y-112906398D01*
X169389323Y-112906398D02*
X169294085Y-112858779D01*
X169294085Y-112858779D02*
X169103609Y-112811160D01*
X169103609Y-112811160D02*
X168960752Y-112811160D01*
X168960752Y-112811160D02*
X168770276Y-112858779D01*
X168770276Y-112858779D02*
X168675038Y-112906398D01*
X168675038Y-112906398D02*
X168579800Y-113001636D01*
X168579800Y-113001636D02*
X168532180Y-113144493D01*
X168532180Y-113144493D02*
X168532180Y-113239731D01*
X168532180Y-113239731D02*
X168579800Y-113382588D01*
X168579800Y-113382588D02*
X168627419Y-113430207D01*
X168627419Y-113430207D02*
X168960752Y-113430207D01*
X168960752Y-113430207D02*
X168960752Y-113239731D01*
X168532180Y-113858779D02*
X169532180Y-113858779D01*
X169532180Y-113858779D02*
X168532180Y-114430207D01*
X168532180Y-114430207D02*
X169532180Y-114430207D01*
X168532180Y-114906398D02*
X169532180Y-114906398D01*
X169532180Y-114906398D02*
X169532180Y-115144493D01*
X169532180Y-115144493D02*
X169484561Y-115287350D01*
X169484561Y-115287350D02*
X169389323Y-115382588D01*
X169389323Y-115382588D02*
X169294085Y-115430207D01*
X169294085Y-115430207D02*
X169103609Y-115477826D01*
X169103609Y-115477826D02*
X168960752Y-115477826D01*
X168960752Y-115477826D02*
X168770276Y-115430207D01*
X168770276Y-115430207D02*
X168675038Y-115382588D01*
X168675038Y-115382588D02*
X168579800Y-115287350D01*
X168579800Y-115287350D02*
X168532180Y-115144493D01*
X168532180Y-115144493D02*
X168532180Y-114906398D01*
X168675255Y-116217819D02*
X168865731Y-116217819D01*
X168865731Y-116217819D02*
X168960969Y-116265438D01*
X168960969Y-116265438D02*
X169056207Y-116360676D01*
X169056207Y-116360676D02*
X169103826Y-116551152D01*
X169103826Y-116551152D02*
X169103826Y-116884485D01*
X169103826Y-116884485D02*
X169056207Y-117074961D01*
X169056207Y-117074961D02*
X168960969Y-117170200D01*
X168960969Y-117170200D02*
X168865731Y-117217819D01*
X168865731Y-117217819D02*
X168675255Y-117217819D01*
X168675255Y-117217819D02*
X168580017Y-117170200D01*
X168580017Y-117170200D02*
X168484779Y-117074961D01*
X168484779Y-117074961D02*
X168437160Y-116884485D01*
X168437160Y-116884485D02*
X168437160Y-116551152D01*
X168437160Y-116551152D02*
X168484779Y-116360676D01*
X168484779Y-116360676D02*
X168580017Y-116265438D01*
X168580017Y-116265438D02*
X168675255Y-116217819D01*
X169389541Y-116551152D02*
X169770493Y-116551152D01*
X169532398Y-116217819D02*
X169532398Y-117074961D01*
X169532398Y-117074961D02*
X169580017Y-117170200D01*
X169580017Y-117170200D02*
X169675255Y-117217819D01*
X169675255Y-117217819D02*
X169770493Y-117217819D01*
X170103827Y-117217819D02*
X170103827Y-116217819D01*
X170532398Y-117217819D02*
X170532398Y-116694009D01*
X170532398Y-116694009D02*
X170484779Y-116598771D01*
X170484779Y-116598771D02*
X170389541Y-116551152D01*
X170389541Y-116551152D02*
X170246684Y-116551152D01*
X170246684Y-116551152D02*
X170151446Y-116598771D01*
X170151446Y-116598771D02*
X170103827Y-116646390D01*
X171008589Y-117217819D02*
X171008589Y-116551152D01*
X171008589Y-116741628D02*
X171056208Y-116646390D01*
X171056208Y-116646390D02*
X171103827Y-116598771D01*
X171103827Y-116598771D02*
X171199065Y-116551152D01*
X171199065Y-116551152D02*
X171294303Y-116551152D01*
X159293160Y-123520200D02*
X159436017Y-123567819D01*
X159436017Y-123567819D02*
X159674112Y-123567819D01*
X159674112Y-123567819D02*
X159769350Y-123520200D01*
X159769350Y-123520200D02*
X159816969Y-123472580D01*
X159816969Y-123472580D02*
X159864588Y-123377342D01*
X159864588Y-123377342D02*
X159864588Y-123282104D01*
X159864588Y-123282104D02*
X159816969Y-123186866D01*
X159816969Y-123186866D02*
X159769350Y-123139247D01*
X159769350Y-123139247D02*
X159674112Y-123091628D01*
X159674112Y-123091628D02*
X159483636Y-123044009D01*
X159483636Y-123044009D02*
X159388398Y-122996390D01*
X159388398Y-122996390D02*
X159340779Y-122948771D01*
X159340779Y-122948771D02*
X159293160Y-122853533D01*
X159293160Y-122853533D02*
X159293160Y-122758295D01*
X159293160Y-122758295D02*
X159340779Y-122663057D01*
X159340779Y-122663057D02*
X159388398Y-122615438D01*
X159388398Y-122615438D02*
X159483636Y-122567819D01*
X159483636Y-122567819D02*
X159721731Y-122567819D01*
X159721731Y-122567819D02*
X159864588Y-122615438D01*
X160816969Y-123567819D02*
X160245541Y-123567819D01*
X160531255Y-123567819D02*
X160531255Y-122567819D01*
X160531255Y-122567819D02*
X160436017Y-122710676D01*
X160436017Y-122710676D02*
X160340779Y-122805914D01*
X160340779Y-122805914D02*
X160245541Y-122853533D01*
X138957922Y-88992104D02*
X139396017Y-88992104D01*
X138870303Y-89277819D02*
X139176969Y-88277819D01*
X139176969Y-88277819D02*
X139483636Y-89277819D01*
X140096969Y-88754009D02*
X140228397Y-88801628D01*
X140228397Y-88801628D02*
X140272207Y-88849247D01*
X140272207Y-88849247D02*
X140316016Y-88944485D01*
X140316016Y-88944485D02*
X140316016Y-89087342D01*
X140316016Y-89087342D02*
X140272207Y-89182580D01*
X140272207Y-89182580D02*
X140228397Y-89230200D01*
X140228397Y-89230200D02*
X140140778Y-89277819D01*
X140140778Y-89277819D02*
X139790302Y-89277819D01*
X139790302Y-89277819D02*
X139790302Y-88277819D01*
X139790302Y-88277819D02*
X140096969Y-88277819D01*
X140096969Y-88277819D02*
X140184588Y-88325438D01*
X140184588Y-88325438D02*
X140228397Y-88373057D01*
X140228397Y-88373057D02*
X140272207Y-88468295D01*
X140272207Y-88468295D02*
X140272207Y-88563533D01*
X140272207Y-88563533D02*
X140228397Y-88658771D01*
X140228397Y-88658771D02*
X140184588Y-88706390D01*
X140184588Y-88706390D02*
X140096969Y-88754009D01*
X140096969Y-88754009D02*
X139790302Y-88754009D01*
X141717921Y-88754009D02*
X141849349Y-88801628D01*
X141849349Y-88801628D02*
X141893159Y-88849247D01*
X141893159Y-88849247D02*
X141936968Y-88944485D01*
X141936968Y-88944485D02*
X141936968Y-89087342D01*
X141936968Y-89087342D02*
X141893159Y-89182580D01*
X141893159Y-89182580D02*
X141849349Y-89230200D01*
X141849349Y-89230200D02*
X141761730Y-89277819D01*
X141761730Y-89277819D02*
X141411254Y-89277819D01*
X141411254Y-89277819D02*
X141411254Y-88277819D01*
X141411254Y-88277819D02*
X141717921Y-88277819D01*
X141717921Y-88277819D02*
X141805540Y-88325438D01*
X141805540Y-88325438D02*
X141849349Y-88373057D01*
X141849349Y-88373057D02*
X141893159Y-88468295D01*
X141893159Y-88468295D02*
X141893159Y-88563533D01*
X141893159Y-88563533D02*
X141849349Y-88658771D01*
X141849349Y-88658771D02*
X141805540Y-88706390D01*
X141805540Y-88706390D02*
X141717921Y-88754009D01*
X141717921Y-88754009D02*
X141411254Y-88754009D01*
X142287445Y-88373057D02*
X142331254Y-88325438D01*
X142331254Y-88325438D02*
X142418873Y-88277819D01*
X142418873Y-88277819D02*
X142637921Y-88277819D01*
X142637921Y-88277819D02*
X142725540Y-88325438D01*
X142725540Y-88325438D02*
X142769349Y-88373057D01*
X142769349Y-88373057D02*
X142813159Y-88468295D01*
X142813159Y-88468295D02*
X142813159Y-88563533D01*
X142813159Y-88563533D02*
X142769349Y-88706390D01*
X142769349Y-88706390D02*
X142243635Y-89277819D01*
X142243635Y-89277819D02*
X142813159Y-89277819D01*
X144215063Y-88754009D02*
X144346491Y-88801628D01*
X144346491Y-88801628D02*
X144390301Y-88849247D01*
X144390301Y-88849247D02*
X144434110Y-88944485D01*
X144434110Y-88944485D02*
X144434110Y-89087342D01*
X144434110Y-89087342D02*
X144390301Y-89182580D01*
X144390301Y-89182580D02*
X144346491Y-89230200D01*
X144346491Y-89230200D02*
X144258872Y-89277819D01*
X144258872Y-89277819D02*
X143908396Y-89277819D01*
X143908396Y-89277819D02*
X143908396Y-88277819D01*
X143908396Y-88277819D02*
X144215063Y-88277819D01*
X144215063Y-88277819D02*
X144302682Y-88325438D01*
X144302682Y-88325438D02*
X144346491Y-88373057D01*
X144346491Y-88373057D02*
X144390301Y-88468295D01*
X144390301Y-88468295D02*
X144390301Y-88563533D01*
X144390301Y-88563533D02*
X144346491Y-88658771D01*
X144346491Y-88658771D02*
X144302682Y-88706390D01*
X144302682Y-88706390D02*
X144215063Y-88754009D01*
X144215063Y-88754009D02*
X143908396Y-88754009D01*
X145310301Y-89277819D02*
X144784587Y-89277819D01*
X145047444Y-89277819D02*
X145047444Y-88277819D01*
X145047444Y-88277819D02*
X144959825Y-88420676D01*
X144959825Y-88420676D02*
X144872206Y-88515914D01*
X144872206Y-88515914D02*
X144784587Y-88563533D01*
X146712205Y-88754009D02*
X146843633Y-88801628D01*
X146843633Y-88801628D02*
X146887443Y-88849247D01*
X146887443Y-88849247D02*
X146931252Y-88944485D01*
X146931252Y-88944485D02*
X146931252Y-89087342D01*
X146931252Y-89087342D02*
X146887443Y-89182580D01*
X146887443Y-89182580D02*
X146843633Y-89230200D01*
X146843633Y-89230200D02*
X146756014Y-89277819D01*
X146756014Y-89277819D02*
X146405538Y-89277819D01*
X146405538Y-89277819D02*
X146405538Y-88277819D01*
X146405538Y-88277819D02*
X146712205Y-88277819D01*
X146712205Y-88277819D02*
X146799824Y-88325438D01*
X146799824Y-88325438D02*
X146843633Y-88373057D01*
X146843633Y-88373057D02*
X146887443Y-88468295D01*
X146887443Y-88468295D02*
X146887443Y-88563533D01*
X146887443Y-88563533D02*
X146843633Y-88658771D01*
X146843633Y-88658771D02*
X146799824Y-88706390D01*
X146799824Y-88706390D02*
X146712205Y-88754009D01*
X146712205Y-88754009D02*
X146405538Y-88754009D01*
X147500776Y-88277819D02*
X147588395Y-88277819D01*
X147588395Y-88277819D02*
X147676014Y-88325438D01*
X147676014Y-88325438D02*
X147719824Y-88373057D01*
X147719824Y-88373057D02*
X147763633Y-88468295D01*
X147763633Y-88468295D02*
X147807443Y-88658771D01*
X147807443Y-88658771D02*
X147807443Y-88896866D01*
X147807443Y-88896866D02*
X147763633Y-89087342D01*
X147763633Y-89087342D02*
X147719824Y-89182580D01*
X147719824Y-89182580D02*
X147676014Y-89230200D01*
X147676014Y-89230200D02*
X147588395Y-89277819D01*
X147588395Y-89277819D02*
X147500776Y-89277819D01*
X147500776Y-89277819D02*
X147413157Y-89230200D01*
X147413157Y-89230200D02*
X147369348Y-89182580D01*
X147369348Y-89182580D02*
X147325538Y-89087342D01*
X147325538Y-89087342D02*
X147281729Y-88896866D01*
X147281729Y-88896866D02*
X147281729Y-88658771D01*
X147281729Y-88658771D02*
X147325538Y-88468295D01*
X147325538Y-88468295D02*
X147369348Y-88373057D01*
X147369348Y-88373057D02*
X147413157Y-88325438D01*
X147413157Y-88325438D02*
X147500776Y-88277819D01*
X148858871Y-88992104D02*
X149296966Y-88992104D01*
X148771252Y-89277819D02*
X149077918Y-88277819D01*
X149077918Y-88277819D02*
X149384585Y-89277819D01*
X150173156Y-88325438D02*
X150085537Y-88277819D01*
X150085537Y-88277819D02*
X149954108Y-88277819D01*
X149954108Y-88277819D02*
X149822680Y-88325438D01*
X149822680Y-88325438D02*
X149735061Y-88420676D01*
X149735061Y-88420676D02*
X149691251Y-88515914D01*
X149691251Y-88515914D02*
X149647442Y-88706390D01*
X149647442Y-88706390D02*
X149647442Y-88849247D01*
X149647442Y-88849247D02*
X149691251Y-89039723D01*
X149691251Y-89039723D02*
X149735061Y-89134961D01*
X149735061Y-89134961D02*
X149822680Y-89230200D01*
X149822680Y-89230200D02*
X149954108Y-89277819D01*
X149954108Y-89277819D02*
X150041727Y-89277819D01*
X150041727Y-89277819D02*
X150173156Y-89230200D01*
X150173156Y-89230200D02*
X150216965Y-89182580D01*
X150216965Y-89182580D02*
X150216965Y-88849247D01*
X150216965Y-88849247D02*
X150041727Y-88849247D01*
X151794108Y-88325438D02*
X151706489Y-88277819D01*
X151706489Y-88277819D02*
X151575060Y-88277819D01*
X151575060Y-88277819D02*
X151443632Y-88325438D01*
X151443632Y-88325438D02*
X151356013Y-88420676D01*
X151356013Y-88420676D02*
X151312203Y-88515914D01*
X151312203Y-88515914D02*
X151268394Y-88706390D01*
X151268394Y-88706390D02*
X151268394Y-88849247D01*
X151268394Y-88849247D02*
X151312203Y-89039723D01*
X151312203Y-89039723D02*
X151356013Y-89134961D01*
X151356013Y-89134961D02*
X151443632Y-89230200D01*
X151443632Y-89230200D02*
X151575060Y-89277819D01*
X151575060Y-89277819D02*
X151662679Y-89277819D01*
X151662679Y-89277819D02*
X151794108Y-89230200D01*
X151794108Y-89230200D02*
X151837917Y-89182580D01*
X151837917Y-89182580D02*
X151837917Y-88849247D01*
X151837917Y-88849247D02*
X151662679Y-88849247D01*
X152188394Y-88373057D02*
X152232203Y-88325438D01*
X152232203Y-88325438D02*
X152319822Y-88277819D01*
X152319822Y-88277819D02*
X152538870Y-88277819D01*
X152538870Y-88277819D02*
X152626489Y-88325438D01*
X152626489Y-88325438D02*
X152670298Y-88373057D01*
X152670298Y-88373057D02*
X152714108Y-88468295D01*
X152714108Y-88468295D02*
X152714108Y-88563533D01*
X152714108Y-88563533D02*
X152670298Y-88706390D01*
X152670298Y-88706390D02*
X152144584Y-89277819D01*
X152144584Y-89277819D02*
X152714108Y-89277819D01*
X154291250Y-88325438D02*
X154203631Y-88277819D01*
X154203631Y-88277819D02*
X154072202Y-88277819D01*
X154072202Y-88277819D02*
X153940774Y-88325438D01*
X153940774Y-88325438D02*
X153853155Y-88420676D01*
X153853155Y-88420676D02*
X153809345Y-88515914D01*
X153809345Y-88515914D02*
X153765536Y-88706390D01*
X153765536Y-88706390D02*
X153765536Y-88849247D01*
X153765536Y-88849247D02*
X153809345Y-89039723D01*
X153809345Y-89039723D02*
X153853155Y-89134961D01*
X153853155Y-89134961D02*
X153940774Y-89230200D01*
X153940774Y-89230200D02*
X154072202Y-89277819D01*
X154072202Y-89277819D02*
X154159821Y-89277819D01*
X154159821Y-89277819D02*
X154291250Y-89230200D01*
X154291250Y-89230200D02*
X154335059Y-89182580D01*
X154335059Y-89182580D02*
X154335059Y-88849247D01*
X154335059Y-88849247D02*
X154159821Y-88849247D01*
X155211250Y-89277819D02*
X154685536Y-89277819D01*
X154948393Y-89277819D02*
X154948393Y-88277819D01*
X154948393Y-88277819D02*
X154860774Y-88420676D01*
X154860774Y-88420676D02*
X154773155Y-88515914D01*
X154773155Y-88515914D02*
X154685536Y-88563533D01*
X156788392Y-88325438D02*
X156700773Y-88277819D01*
X156700773Y-88277819D02*
X156569344Y-88277819D01*
X156569344Y-88277819D02*
X156437916Y-88325438D01*
X156437916Y-88325438D02*
X156350297Y-88420676D01*
X156350297Y-88420676D02*
X156306487Y-88515914D01*
X156306487Y-88515914D02*
X156262678Y-88706390D01*
X156262678Y-88706390D02*
X156262678Y-88849247D01*
X156262678Y-88849247D02*
X156306487Y-89039723D01*
X156306487Y-89039723D02*
X156350297Y-89134961D01*
X156350297Y-89134961D02*
X156437916Y-89230200D01*
X156437916Y-89230200D02*
X156569344Y-89277819D01*
X156569344Y-89277819D02*
X156656963Y-89277819D01*
X156656963Y-89277819D02*
X156788392Y-89230200D01*
X156788392Y-89230200D02*
X156832201Y-89182580D01*
X156832201Y-89182580D02*
X156832201Y-88849247D01*
X156832201Y-88849247D02*
X156656963Y-88849247D01*
X157401725Y-88277819D02*
X157489344Y-88277819D01*
X157489344Y-88277819D02*
X157576963Y-88325438D01*
X157576963Y-88325438D02*
X157620773Y-88373057D01*
X157620773Y-88373057D02*
X157664582Y-88468295D01*
X157664582Y-88468295D02*
X157708392Y-88658771D01*
X157708392Y-88658771D02*
X157708392Y-88896866D01*
X157708392Y-88896866D02*
X157664582Y-89087342D01*
X157664582Y-89087342D02*
X157620773Y-89182580D01*
X157620773Y-89182580D02*
X157576963Y-89230200D01*
X157576963Y-89230200D02*
X157489344Y-89277819D01*
X157489344Y-89277819D02*
X157401725Y-89277819D01*
X157401725Y-89277819D02*
X157314106Y-89230200D01*
X157314106Y-89230200D02*
X157270297Y-89182580D01*
X157270297Y-89182580D02*
X157226487Y-89087342D01*
X157226487Y-89087342D02*
X157182678Y-88896866D01*
X157182678Y-88896866D02*
X157182678Y-88658771D01*
X157182678Y-88658771D02*
X157226487Y-88468295D01*
X157226487Y-88468295D02*
X157270297Y-88373057D01*
X157270297Y-88373057D02*
X157314106Y-88325438D01*
X157314106Y-88325438D02*
X157401725Y-88277819D01*
X158759820Y-88992104D02*
X159197915Y-88992104D01*
X158672201Y-89277819D02*
X158978867Y-88277819D01*
X158978867Y-88277819D02*
X159285534Y-89277819D01*
X160117914Y-89277819D02*
X159811248Y-88801628D01*
X159592200Y-89277819D02*
X159592200Y-88277819D01*
X159592200Y-88277819D02*
X159942676Y-88277819D01*
X159942676Y-88277819D02*
X160030295Y-88325438D01*
X160030295Y-88325438D02*
X160074105Y-88373057D01*
X160074105Y-88373057D02*
X160117914Y-88468295D01*
X160117914Y-88468295D02*
X160117914Y-88611152D01*
X160117914Y-88611152D02*
X160074105Y-88706390D01*
X160074105Y-88706390D02*
X160030295Y-88754009D01*
X160030295Y-88754009D02*
X159942676Y-88801628D01*
X159942676Y-88801628D02*
X159592200Y-88801628D01*
X161738866Y-89277819D02*
X161432200Y-88801628D01*
X161213152Y-89277819D02*
X161213152Y-88277819D01*
X161213152Y-88277819D02*
X161563628Y-88277819D01*
X161563628Y-88277819D02*
X161651247Y-88325438D01*
X161651247Y-88325438D02*
X161695057Y-88373057D01*
X161695057Y-88373057D02*
X161738866Y-88468295D01*
X161738866Y-88468295D02*
X161738866Y-88611152D01*
X161738866Y-88611152D02*
X161695057Y-88706390D01*
X161695057Y-88706390D02*
X161651247Y-88754009D01*
X161651247Y-88754009D02*
X161563628Y-88801628D01*
X161563628Y-88801628D02*
X161213152Y-88801628D01*
X162089343Y-88373057D02*
X162133152Y-88325438D01*
X162133152Y-88325438D02*
X162220771Y-88277819D01*
X162220771Y-88277819D02*
X162439819Y-88277819D01*
X162439819Y-88277819D02*
X162527438Y-88325438D01*
X162527438Y-88325438D02*
X162571247Y-88373057D01*
X162571247Y-88373057D02*
X162615057Y-88468295D01*
X162615057Y-88468295D02*
X162615057Y-88563533D01*
X162615057Y-88563533D02*
X162571247Y-88706390D01*
X162571247Y-88706390D02*
X162045533Y-89277819D01*
X162045533Y-89277819D02*
X162615057Y-89277819D01*
X164236008Y-89277819D02*
X163929342Y-88801628D01*
X163710294Y-89277819D02*
X163710294Y-88277819D01*
X163710294Y-88277819D02*
X164060770Y-88277819D01*
X164060770Y-88277819D02*
X164148389Y-88325438D01*
X164148389Y-88325438D02*
X164192199Y-88373057D01*
X164192199Y-88373057D02*
X164236008Y-88468295D01*
X164236008Y-88468295D02*
X164236008Y-88611152D01*
X164236008Y-88611152D02*
X164192199Y-88706390D01*
X164192199Y-88706390D02*
X164148389Y-88754009D01*
X164148389Y-88754009D02*
X164060770Y-88801628D01*
X164060770Y-88801628D02*
X163710294Y-88801628D01*
X165112199Y-89277819D02*
X164586485Y-89277819D01*
X164849342Y-89277819D02*
X164849342Y-88277819D01*
X164849342Y-88277819D02*
X164761723Y-88420676D01*
X164761723Y-88420676D02*
X164674104Y-88515914D01*
X164674104Y-88515914D02*
X164586485Y-88563533D01*
X166733150Y-89277819D02*
X166426484Y-88801628D01*
X166207436Y-89277819D02*
X166207436Y-88277819D01*
X166207436Y-88277819D02*
X166557912Y-88277819D01*
X166557912Y-88277819D02*
X166645531Y-88325438D01*
X166645531Y-88325438D02*
X166689341Y-88373057D01*
X166689341Y-88373057D02*
X166733150Y-88468295D01*
X166733150Y-88468295D02*
X166733150Y-88611152D01*
X166733150Y-88611152D02*
X166689341Y-88706390D01*
X166689341Y-88706390D02*
X166645531Y-88754009D01*
X166645531Y-88754009D02*
X166557912Y-88801628D01*
X166557912Y-88801628D02*
X166207436Y-88801628D01*
X167302674Y-88277819D02*
X167390293Y-88277819D01*
X167390293Y-88277819D02*
X167477912Y-88325438D01*
X167477912Y-88325438D02*
X167521722Y-88373057D01*
X167521722Y-88373057D02*
X167565531Y-88468295D01*
X167565531Y-88468295D02*
X167609341Y-88658771D01*
X167609341Y-88658771D02*
X167609341Y-88896866D01*
X167609341Y-88896866D02*
X167565531Y-89087342D01*
X167565531Y-89087342D02*
X167521722Y-89182580D01*
X167521722Y-89182580D02*
X167477912Y-89230200D01*
X167477912Y-89230200D02*
X167390293Y-89277819D01*
X167390293Y-89277819D02*
X167302674Y-89277819D01*
X167302674Y-89277819D02*
X167215055Y-89230200D01*
X167215055Y-89230200D02*
X167171246Y-89182580D01*
X167171246Y-89182580D02*
X167127436Y-89087342D01*
X167127436Y-89087342D02*
X167083627Y-88896866D01*
X167083627Y-88896866D02*
X167083627Y-88658771D01*
X167083627Y-88658771D02*
X167127436Y-88468295D01*
X167127436Y-88468295D02*
X167171246Y-88373057D01*
X167171246Y-88373057D02*
X167215055Y-88325438D01*
X167215055Y-88325438D02*
X167302674Y-88277819D01*
X169186483Y-88325438D02*
X169098864Y-88277819D01*
X169098864Y-88277819D02*
X168967435Y-88277819D01*
X168967435Y-88277819D02*
X168836007Y-88325438D01*
X168836007Y-88325438D02*
X168748388Y-88420676D01*
X168748388Y-88420676D02*
X168704578Y-88515914D01*
X168704578Y-88515914D02*
X168660769Y-88706390D01*
X168660769Y-88706390D02*
X168660769Y-88849247D01*
X168660769Y-88849247D02*
X168704578Y-89039723D01*
X168704578Y-89039723D02*
X168748388Y-89134961D01*
X168748388Y-89134961D02*
X168836007Y-89230200D01*
X168836007Y-89230200D02*
X168967435Y-89277819D01*
X168967435Y-89277819D02*
X169055054Y-89277819D01*
X169055054Y-89277819D02*
X169186483Y-89230200D01*
X169186483Y-89230200D02*
X169230292Y-89182580D01*
X169230292Y-89182580D02*
X169230292Y-88849247D01*
X169230292Y-88849247D02*
X169055054Y-88849247D01*
X169624578Y-89277819D02*
X169624578Y-88277819D01*
X169624578Y-88277819D02*
X170150292Y-89277819D01*
X170150292Y-89277819D02*
X170150292Y-88277819D01*
X170588388Y-89277819D02*
X170588388Y-88277819D01*
X170588388Y-88277819D02*
X170807436Y-88277819D01*
X170807436Y-88277819D02*
X170938864Y-88325438D01*
X170938864Y-88325438D02*
X171026483Y-88420676D01*
X171026483Y-88420676D02*
X171070293Y-88515914D01*
X171070293Y-88515914D02*
X171114102Y-88706390D01*
X171114102Y-88706390D02*
X171114102Y-88849247D01*
X171114102Y-88849247D02*
X171070293Y-89039723D01*
X171070293Y-89039723D02*
X171026483Y-89134961D01*
X171026483Y-89134961D02*
X170938864Y-89230200D01*
X170938864Y-89230200D02*
X170807436Y-89277819D01*
X170807436Y-89277819D02*
X170588388Y-89277819D01*
X172077912Y-88277819D02*
X172384578Y-89277819D01*
X172384578Y-89277819D02*
X172691245Y-88277819D01*
X173523625Y-89182580D02*
X173479816Y-89230200D01*
X173479816Y-89230200D02*
X173348387Y-89277819D01*
X173348387Y-89277819D02*
X173260768Y-89277819D01*
X173260768Y-89277819D02*
X173129340Y-89230200D01*
X173129340Y-89230200D02*
X173041721Y-89134961D01*
X173041721Y-89134961D02*
X172997911Y-89039723D01*
X172997911Y-89039723D02*
X172954102Y-88849247D01*
X172954102Y-88849247D02*
X172954102Y-88706390D01*
X172954102Y-88706390D02*
X172997911Y-88515914D01*
X172997911Y-88515914D02*
X173041721Y-88420676D01*
X173041721Y-88420676D02*
X173129340Y-88325438D01*
X173129340Y-88325438D02*
X173260768Y-88277819D01*
X173260768Y-88277819D02*
X173348387Y-88277819D01*
X173348387Y-88277819D02*
X173479816Y-88325438D01*
X173479816Y-88325438D02*
X173523625Y-88373057D01*
X174443625Y-89182580D02*
X174399816Y-89230200D01*
X174399816Y-89230200D02*
X174268387Y-89277819D01*
X174268387Y-89277819D02*
X174180768Y-89277819D01*
X174180768Y-89277819D02*
X174049340Y-89230200D01*
X174049340Y-89230200D02*
X173961721Y-89134961D01*
X173961721Y-89134961D02*
X173917911Y-89039723D01*
X173917911Y-89039723D02*
X173874102Y-88849247D01*
X173874102Y-88849247D02*
X173874102Y-88706390D01*
X173874102Y-88706390D02*
X173917911Y-88515914D01*
X173917911Y-88515914D02*
X173961721Y-88420676D01*
X173961721Y-88420676D02*
X174049340Y-88325438D01*
X174049340Y-88325438D02*
X174180768Y-88277819D01*
X174180768Y-88277819D02*
X174268387Y-88277819D01*
X174268387Y-88277819D02*
X174399816Y-88325438D01*
X174399816Y-88325438D02*
X174443625Y-88373057D01*
X168595922Y-110375819D02*
X168929255Y-111375819D01*
X168929255Y-111375819D02*
X169262588Y-110375819D01*
X169453065Y-110375819D02*
X169786398Y-111375819D01*
X169786398Y-111375819D02*
X170119731Y-110375819D01*
X170453065Y-111375819D02*
X170453065Y-110709152D01*
X170453065Y-110375819D02*
X170405446Y-110423438D01*
X170405446Y-110423438D02*
X170453065Y-110471057D01*
X170453065Y-110471057D02*
X170500684Y-110423438D01*
X170500684Y-110423438D02*
X170453065Y-110375819D01*
X170453065Y-110375819D02*
X170453065Y-110471057D01*
X170881636Y-111328200D02*
X170976874Y-111375819D01*
X170976874Y-111375819D02*
X171167350Y-111375819D01*
X171167350Y-111375819D02*
X171262588Y-111328200D01*
X171262588Y-111328200D02*
X171310207Y-111232961D01*
X171310207Y-111232961D02*
X171310207Y-111185342D01*
X171310207Y-111185342D02*
X171262588Y-111090104D01*
X171262588Y-111090104D02*
X171167350Y-111042485D01*
X171167350Y-111042485D02*
X171024493Y-111042485D01*
X171024493Y-111042485D02*
X170929255Y-110994866D01*
X170929255Y-110994866D02*
X170881636Y-110899628D01*
X170881636Y-110899628D02*
X170881636Y-110852009D01*
X170881636Y-110852009D02*
X170929255Y-110756771D01*
X170929255Y-110756771D02*
X171024493Y-110709152D01*
X171024493Y-110709152D02*
X171167350Y-110709152D01*
X171167350Y-110709152D02*
X171262588Y-110756771D01*
X156753160Y-123520200D02*
X156896017Y-123567819D01*
X156896017Y-123567819D02*
X157134112Y-123567819D01*
X157134112Y-123567819D02*
X157229350Y-123520200D01*
X157229350Y-123520200D02*
X157276969Y-123472580D01*
X157276969Y-123472580D02*
X157324588Y-123377342D01*
X157324588Y-123377342D02*
X157324588Y-123282104D01*
X157324588Y-123282104D02*
X157276969Y-123186866D01*
X157276969Y-123186866D02*
X157229350Y-123139247D01*
X157229350Y-123139247D02*
X157134112Y-123091628D01*
X157134112Y-123091628D02*
X156943636Y-123044009D01*
X156943636Y-123044009D02*
X156848398Y-122996390D01*
X156848398Y-122996390D02*
X156800779Y-122948771D01*
X156800779Y-122948771D02*
X156753160Y-122853533D01*
X156753160Y-122853533D02*
X156753160Y-122758295D01*
X156753160Y-122758295D02*
X156800779Y-122663057D01*
X156800779Y-122663057D02*
X156848398Y-122615438D01*
X156848398Y-122615438D02*
X156943636Y-122567819D01*
X156943636Y-122567819D02*
X157181731Y-122567819D01*
X157181731Y-122567819D02*
X157324588Y-122615438D01*
X157943636Y-122567819D02*
X158038874Y-122567819D01*
X158038874Y-122567819D02*
X158134112Y-122615438D01*
X158134112Y-122615438D02*
X158181731Y-122663057D01*
X158181731Y-122663057D02*
X158229350Y-122758295D01*
X158229350Y-122758295D02*
X158276969Y-122948771D01*
X158276969Y-122948771D02*
X158276969Y-123186866D01*
X158276969Y-123186866D02*
X158229350Y-123377342D01*
X158229350Y-123377342D02*
X158181731Y-123472580D01*
X158181731Y-123472580D02*
X158134112Y-123520200D01*
X158134112Y-123520200D02*
X158038874Y-123567819D01*
X158038874Y-123567819D02*
X157943636Y-123567819D01*
X157943636Y-123567819D02*
X157848398Y-123520200D01*
X157848398Y-123520200D02*
X157800779Y-123472580D01*
X157800779Y-123472580D02*
X157753160Y-123377342D01*
X157753160Y-123377342D02*
X157705541Y-123186866D01*
X157705541Y-123186866D02*
X157705541Y-122948771D01*
X157705541Y-122948771D02*
X157753160Y-122758295D01*
X157753160Y-122758295D02*
X157800779Y-122663057D01*
X157800779Y-122663057D02*
X157848398Y-122615438D01*
X157848398Y-122615438D02*
X157943636Y-122567819D01*
X82124779Y-132117819D02*
X82124779Y-131117819D01*
X82124779Y-131117819D02*
X82362874Y-131117819D01*
X82362874Y-131117819D02*
X82505731Y-131165438D01*
X82505731Y-131165438D02*
X82600969Y-131260676D01*
X82600969Y-131260676D02*
X82648588Y-131355914D01*
X82648588Y-131355914D02*
X82696207Y-131546390D01*
X82696207Y-131546390D02*
X82696207Y-131689247D01*
X82696207Y-131689247D02*
X82648588Y-131879723D01*
X82648588Y-131879723D02*
X82600969Y-131974961D01*
X82600969Y-131974961D02*
X82505731Y-132070200D01*
X82505731Y-132070200D02*
X82362874Y-132117819D01*
X82362874Y-132117819D02*
X82124779Y-132117819D01*
X83505731Y-132070200D02*
X83410493Y-132117819D01*
X83410493Y-132117819D02*
X83220017Y-132117819D01*
X83220017Y-132117819D02*
X83124779Y-132070200D01*
X83124779Y-132070200D02*
X83077160Y-131974961D01*
X83077160Y-131974961D02*
X83077160Y-131594009D01*
X83077160Y-131594009D02*
X83124779Y-131498771D01*
X83124779Y-131498771D02*
X83220017Y-131451152D01*
X83220017Y-131451152D02*
X83410493Y-131451152D01*
X83410493Y-131451152D02*
X83505731Y-131498771D01*
X83505731Y-131498771D02*
X83553350Y-131594009D01*
X83553350Y-131594009D02*
X83553350Y-131689247D01*
X83553350Y-131689247D02*
X83077160Y-131784485D01*
X83934303Y-132070200D02*
X84029541Y-132117819D01*
X84029541Y-132117819D02*
X84220017Y-132117819D01*
X84220017Y-132117819D02*
X84315255Y-132070200D01*
X84315255Y-132070200D02*
X84362874Y-131974961D01*
X84362874Y-131974961D02*
X84362874Y-131927342D01*
X84362874Y-131927342D02*
X84315255Y-131832104D01*
X84315255Y-131832104D02*
X84220017Y-131784485D01*
X84220017Y-131784485D02*
X84077160Y-131784485D01*
X84077160Y-131784485D02*
X83981922Y-131736866D01*
X83981922Y-131736866D02*
X83934303Y-131641628D01*
X83934303Y-131641628D02*
X83934303Y-131594009D01*
X83934303Y-131594009D02*
X83981922Y-131498771D01*
X83981922Y-131498771D02*
X84077160Y-131451152D01*
X84077160Y-131451152D02*
X84220017Y-131451152D01*
X84220017Y-131451152D02*
X84315255Y-131498771D01*
X84791446Y-132117819D02*
X84791446Y-131451152D01*
X84791446Y-131117819D02*
X84743827Y-131165438D01*
X84743827Y-131165438D02*
X84791446Y-131213057D01*
X84791446Y-131213057D02*
X84839065Y-131165438D01*
X84839065Y-131165438D02*
X84791446Y-131117819D01*
X84791446Y-131117819D02*
X84791446Y-131213057D01*
X85696207Y-131451152D02*
X85696207Y-132260676D01*
X85696207Y-132260676D02*
X85648588Y-132355914D01*
X85648588Y-132355914D02*
X85600969Y-132403533D01*
X85600969Y-132403533D02*
X85505731Y-132451152D01*
X85505731Y-132451152D02*
X85362874Y-132451152D01*
X85362874Y-132451152D02*
X85267636Y-132403533D01*
X85696207Y-132070200D02*
X85600969Y-132117819D01*
X85600969Y-132117819D02*
X85410493Y-132117819D01*
X85410493Y-132117819D02*
X85315255Y-132070200D01*
X85315255Y-132070200D02*
X85267636Y-132022580D01*
X85267636Y-132022580D02*
X85220017Y-131927342D01*
X85220017Y-131927342D02*
X85220017Y-131641628D01*
X85220017Y-131641628D02*
X85267636Y-131546390D01*
X85267636Y-131546390D02*
X85315255Y-131498771D01*
X85315255Y-131498771D02*
X85410493Y-131451152D01*
X85410493Y-131451152D02*
X85600969Y-131451152D01*
X85600969Y-131451152D02*
X85696207Y-131498771D01*
X86172398Y-131451152D02*
X86172398Y-132117819D01*
X86172398Y-131546390D02*
X86220017Y-131498771D01*
X86220017Y-131498771D02*
X86315255Y-131451152D01*
X86315255Y-131451152D02*
X86458112Y-131451152D01*
X86458112Y-131451152D02*
X86553350Y-131498771D01*
X86553350Y-131498771D02*
X86600969Y-131594009D01*
X86600969Y-131594009D02*
X86600969Y-132117819D01*
X87458112Y-132070200D02*
X87362874Y-132117819D01*
X87362874Y-132117819D02*
X87172398Y-132117819D01*
X87172398Y-132117819D02*
X87077160Y-132070200D01*
X87077160Y-132070200D02*
X87029541Y-131974961D01*
X87029541Y-131974961D02*
X87029541Y-131594009D01*
X87029541Y-131594009D02*
X87077160Y-131498771D01*
X87077160Y-131498771D02*
X87172398Y-131451152D01*
X87172398Y-131451152D02*
X87362874Y-131451152D01*
X87362874Y-131451152D02*
X87458112Y-131498771D01*
X87458112Y-131498771D02*
X87505731Y-131594009D01*
X87505731Y-131594009D02*
X87505731Y-131689247D01*
X87505731Y-131689247D02*
X87029541Y-131784485D01*
X88362874Y-132117819D02*
X88362874Y-131117819D01*
X88362874Y-132070200D02*
X88267636Y-132117819D01*
X88267636Y-132117819D02*
X88077160Y-132117819D01*
X88077160Y-132117819D02*
X87981922Y-132070200D01*
X87981922Y-132070200D02*
X87934303Y-132022580D01*
X87934303Y-132022580D02*
X87886684Y-131927342D01*
X87886684Y-131927342D02*
X87886684Y-131641628D01*
X87886684Y-131641628D02*
X87934303Y-131546390D01*
X87934303Y-131546390D02*
X87981922Y-131498771D01*
X87981922Y-131498771D02*
X88077160Y-131451152D01*
X88077160Y-131451152D02*
X88267636Y-131451152D01*
X88267636Y-131451152D02*
X88362874Y-131498771D01*
X89600970Y-132117819D02*
X89600970Y-131117819D01*
X89600970Y-131498771D02*
X89696208Y-131451152D01*
X89696208Y-131451152D02*
X89886684Y-131451152D01*
X89886684Y-131451152D02*
X89981922Y-131498771D01*
X89981922Y-131498771D02*
X90029541Y-131546390D01*
X90029541Y-131546390D02*
X90077160Y-131641628D01*
X90077160Y-131641628D02*
X90077160Y-131927342D01*
X90077160Y-131927342D02*
X90029541Y-132022580D01*
X90029541Y-132022580D02*
X89981922Y-132070200D01*
X89981922Y-132070200D02*
X89886684Y-132117819D01*
X89886684Y-132117819D02*
X89696208Y-132117819D01*
X89696208Y-132117819D02*
X89600970Y-132070200D01*
X90410494Y-131451152D02*
X90648589Y-132117819D01*
X90886684Y-131451152D02*
X90648589Y-132117819D01*
X90648589Y-132117819D02*
X90553351Y-132355914D01*
X90553351Y-132355914D02*
X90505732Y-132403533D01*
X90505732Y-132403533D02*
X90410494Y-132451152D01*
X91981923Y-132070200D02*
X92124780Y-132117819D01*
X92124780Y-132117819D02*
X92362875Y-132117819D01*
X92362875Y-132117819D02*
X92458113Y-132070200D01*
X92458113Y-132070200D02*
X92505732Y-132022580D01*
X92505732Y-132022580D02*
X92553351Y-131927342D01*
X92553351Y-131927342D02*
X92553351Y-131832104D01*
X92553351Y-131832104D02*
X92505732Y-131736866D01*
X92505732Y-131736866D02*
X92458113Y-131689247D01*
X92458113Y-131689247D02*
X92362875Y-131641628D01*
X92362875Y-131641628D02*
X92172399Y-131594009D01*
X92172399Y-131594009D02*
X92077161Y-131546390D01*
X92077161Y-131546390D02*
X92029542Y-131498771D01*
X92029542Y-131498771D02*
X91981923Y-131403533D01*
X91981923Y-131403533D02*
X91981923Y-131308295D01*
X91981923Y-131308295D02*
X92029542Y-131213057D01*
X92029542Y-131213057D02*
X92077161Y-131165438D01*
X92077161Y-131165438D02*
X92172399Y-131117819D01*
X92172399Y-131117819D02*
X92410494Y-131117819D01*
X92410494Y-131117819D02*
X92553351Y-131165438D01*
X93362875Y-132070200D02*
X93267637Y-132117819D01*
X93267637Y-132117819D02*
X93077161Y-132117819D01*
X93077161Y-132117819D02*
X92981923Y-132070200D01*
X92981923Y-132070200D02*
X92934304Y-131974961D01*
X92934304Y-131974961D02*
X92934304Y-131594009D01*
X92934304Y-131594009D02*
X92981923Y-131498771D01*
X92981923Y-131498771D02*
X93077161Y-131451152D01*
X93077161Y-131451152D02*
X93267637Y-131451152D01*
X93267637Y-131451152D02*
X93362875Y-131498771D01*
X93362875Y-131498771D02*
X93410494Y-131594009D01*
X93410494Y-131594009D02*
X93410494Y-131689247D01*
X93410494Y-131689247D02*
X92934304Y-131784485D01*
X93696209Y-131451152D02*
X94077161Y-131451152D01*
X93839066Y-131117819D02*
X93839066Y-131974961D01*
X93839066Y-131974961D02*
X93886685Y-132070200D01*
X93886685Y-132070200D02*
X93981923Y-132117819D01*
X93981923Y-132117819D02*
X94077161Y-132117819D01*
X94410495Y-132117819D02*
X94410495Y-131117819D01*
X94839066Y-132117819D02*
X94839066Y-131594009D01*
X94839066Y-131594009D02*
X94791447Y-131498771D01*
X94791447Y-131498771D02*
X94696209Y-131451152D01*
X94696209Y-131451152D02*
X94553352Y-131451152D01*
X94553352Y-131451152D02*
X94458114Y-131498771D01*
X94458114Y-131498771D02*
X94410495Y-131546390D01*
X96505733Y-132117819D02*
X96505733Y-131594009D01*
X96505733Y-131594009D02*
X96458114Y-131498771D01*
X96458114Y-131498771D02*
X96362876Y-131451152D01*
X96362876Y-131451152D02*
X96172400Y-131451152D01*
X96172400Y-131451152D02*
X96077162Y-131498771D01*
X96505733Y-132070200D02*
X96410495Y-132117819D01*
X96410495Y-132117819D02*
X96172400Y-132117819D01*
X96172400Y-132117819D02*
X96077162Y-132070200D01*
X96077162Y-132070200D02*
X96029543Y-131974961D01*
X96029543Y-131974961D02*
X96029543Y-131879723D01*
X96029543Y-131879723D02*
X96077162Y-131784485D01*
X96077162Y-131784485D02*
X96172400Y-131736866D01*
X96172400Y-131736866D02*
X96410495Y-131736866D01*
X96410495Y-131736866D02*
X96505733Y-131689247D01*
X96981924Y-131451152D02*
X96981924Y-132117819D01*
X96981924Y-131546390D02*
X97029543Y-131498771D01*
X97029543Y-131498771D02*
X97124781Y-131451152D01*
X97124781Y-131451152D02*
X97267638Y-131451152D01*
X97267638Y-131451152D02*
X97362876Y-131498771D01*
X97362876Y-131498771D02*
X97410495Y-131594009D01*
X97410495Y-131594009D02*
X97410495Y-132117819D01*
X98315257Y-132117819D02*
X98315257Y-131117819D01*
X98315257Y-132070200D02*
X98220019Y-132117819D01*
X98220019Y-132117819D02*
X98029543Y-132117819D01*
X98029543Y-132117819D02*
X97934305Y-132070200D01*
X97934305Y-132070200D02*
X97886686Y-132022580D01*
X97886686Y-132022580D02*
X97839067Y-131927342D01*
X97839067Y-131927342D02*
X97839067Y-131641628D01*
X97839067Y-131641628D02*
X97886686Y-131546390D01*
X97886686Y-131546390D02*
X97934305Y-131498771D01*
X97934305Y-131498771D02*
X98029543Y-131451152D01*
X98029543Y-131451152D02*
X98220019Y-131451152D01*
X98220019Y-131451152D02*
X98315257Y-131498771D01*
X99553353Y-131594009D02*
X99886686Y-131594009D01*
X100029543Y-132117819D02*
X99553353Y-132117819D01*
X99553353Y-132117819D02*
X99553353Y-131117819D01*
X99553353Y-131117819D02*
X100029543Y-131117819D01*
X100458115Y-132117819D02*
X100458115Y-131451152D01*
X100458115Y-131641628D02*
X100505734Y-131546390D01*
X100505734Y-131546390D02*
X100553353Y-131498771D01*
X100553353Y-131498771D02*
X100648591Y-131451152D01*
X100648591Y-131451152D02*
X100743829Y-131451152D01*
X101077163Y-132117819D02*
X101077163Y-131451152D01*
X101077163Y-131117819D02*
X101029544Y-131165438D01*
X101029544Y-131165438D02*
X101077163Y-131213057D01*
X101077163Y-131213057D02*
X101124782Y-131165438D01*
X101124782Y-131165438D02*
X101077163Y-131117819D01*
X101077163Y-131117819D02*
X101077163Y-131213057D01*
X101981924Y-132070200D02*
X101886686Y-132117819D01*
X101886686Y-132117819D02*
X101696210Y-132117819D01*
X101696210Y-132117819D02*
X101600972Y-132070200D01*
X101600972Y-132070200D02*
X101553353Y-132022580D01*
X101553353Y-132022580D02*
X101505734Y-131927342D01*
X101505734Y-131927342D02*
X101505734Y-131641628D01*
X101505734Y-131641628D02*
X101553353Y-131546390D01*
X101553353Y-131546390D02*
X101600972Y-131498771D01*
X101600972Y-131498771D02*
X101696210Y-131451152D01*
X101696210Y-131451152D02*
X101886686Y-131451152D01*
X101886686Y-131451152D02*
X101981924Y-131498771D01*
X93696211Y-133727819D02*
X93600973Y-133680200D01*
X93600973Y-133680200D02*
X93553354Y-133632580D01*
X93553354Y-133632580D02*
X93505735Y-133537342D01*
X93505735Y-133537342D02*
X93505735Y-133251628D01*
X93505735Y-133251628D02*
X93553354Y-133156390D01*
X93553354Y-133156390D02*
X93600973Y-133108771D01*
X93600973Y-133108771D02*
X93696211Y-133061152D01*
X93696211Y-133061152D02*
X93839068Y-133061152D01*
X93839068Y-133061152D02*
X93934306Y-133108771D01*
X93934306Y-133108771D02*
X93981925Y-133156390D01*
X93981925Y-133156390D02*
X94029544Y-133251628D01*
X94029544Y-133251628D02*
X94029544Y-133537342D01*
X94029544Y-133537342D02*
X93981925Y-133632580D01*
X93981925Y-133632580D02*
X93934306Y-133680200D01*
X93934306Y-133680200D02*
X93839068Y-133727819D01*
X93839068Y-133727819D02*
X93696211Y-133727819D01*
X94315259Y-133061152D02*
X94696211Y-133061152D01*
X94458116Y-133727819D02*
X94458116Y-132870676D01*
X94458116Y-132870676D02*
X94505735Y-132775438D01*
X94505735Y-132775438D02*
X94600973Y-132727819D01*
X94600973Y-132727819D02*
X94696211Y-132727819D01*
X96362878Y-133727819D02*
X96029545Y-133251628D01*
X95791450Y-133727819D02*
X95791450Y-132727819D01*
X95791450Y-132727819D02*
X96172402Y-132727819D01*
X96172402Y-132727819D02*
X96267640Y-132775438D01*
X96267640Y-132775438D02*
X96315259Y-132823057D01*
X96315259Y-132823057D02*
X96362878Y-132918295D01*
X96362878Y-132918295D02*
X96362878Y-133061152D01*
X96362878Y-133061152D02*
X96315259Y-133156390D01*
X96315259Y-133156390D02*
X96267640Y-133204009D01*
X96267640Y-133204009D02*
X96172402Y-133251628D01*
X96172402Y-133251628D02*
X95791450Y-133251628D01*
X97220021Y-133061152D02*
X97220021Y-133727819D01*
X96791450Y-133061152D02*
X96791450Y-133584961D01*
X96791450Y-133584961D02*
X96839069Y-133680200D01*
X96839069Y-133680200D02*
X96934307Y-133727819D01*
X96934307Y-133727819D02*
X97077164Y-133727819D01*
X97077164Y-133727819D02*
X97172402Y-133680200D01*
X97172402Y-133680200D02*
X97220021Y-133632580D01*
X97648593Y-133680200D02*
X97743831Y-133727819D01*
X97743831Y-133727819D02*
X97934307Y-133727819D01*
X97934307Y-133727819D02*
X98029545Y-133680200D01*
X98029545Y-133680200D02*
X98077164Y-133584961D01*
X98077164Y-133584961D02*
X98077164Y-133537342D01*
X98077164Y-133537342D02*
X98029545Y-133442104D01*
X98029545Y-133442104D02*
X97934307Y-133394485D01*
X97934307Y-133394485D02*
X97791450Y-133394485D01*
X97791450Y-133394485D02*
X97696212Y-133346866D01*
X97696212Y-133346866D02*
X97648593Y-133251628D01*
X97648593Y-133251628D02*
X97648593Y-133204009D01*
X97648593Y-133204009D02*
X97696212Y-133108771D01*
X97696212Y-133108771D02*
X97791450Y-133061152D01*
X97791450Y-133061152D02*
X97934307Y-133061152D01*
X97934307Y-133061152D02*
X98029545Y-133108771D01*
X98362879Y-133061152D02*
X98743831Y-133061152D01*
X98505736Y-132727819D02*
X98505736Y-133584961D01*
X98505736Y-133584961D02*
X98553355Y-133680200D01*
X98553355Y-133680200D02*
X98648593Y-133727819D01*
X98648593Y-133727819D02*
X98743831Y-133727819D01*
X99077165Y-133727819D02*
X99077165Y-132727819D01*
X99077165Y-133108771D02*
X99172403Y-133061152D01*
X99172403Y-133061152D02*
X99362879Y-133061152D01*
X99362879Y-133061152D02*
X99458117Y-133108771D01*
X99458117Y-133108771D02*
X99505736Y-133156390D01*
X99505736Y-133156390D02*
X99553355Y-133251628D01*
X99553355Y-133251628D02*
X99553355Y-133537342D01*
X99553355Y-133537342D02*
X99505736Y-133632580D01*
X99505736Y-133632580D02*
X99458117Y-133680200D01*
X99458117Y-133680200D02*
X99362879Y-133727819D01*
X99362879Y-133727819D02*
X99172403Y-133727819D01*
X99172403Y-133727819D02*
X99077165Y-133680200D01*
X100124784Y-133727819D02*
X100029546Y-133680200D01*
X100029546Y-133680200D02*
X99981927Y-133632580D01*
X99981927Y-133632580D02*
X99934308Y-133537342D01*
X99934308Y-133537342D02*
X99934308Y-133251628D01*
X99934308Y-133251628D02*
X99981927Y-133156390D01*
X99981927Y-133156390D02*
X100029546Y-133108771D01*
X100029546Y-133108771D02*
X100124784Y-133061152D01*
X100124784Y-133061152D02*
X100267641Y-133061152D01*
X100267641Y-133061152D02*
X100362879Y-133108771D01*
X100362879Y-133108771D02*
X100410498Y-133156390D01*
X100410498Y-133156390D02*
X100458117Y-133251628D01*
X100458117Y-133251628D02*
X100458117Y-133537342D01*
X100458117Y-133537342D02*
X100410498Y-133632580D01*
X100410498Y-133632580D02*
X100362879Y-133680200D01*
X100362879Y-133680200D02*
X100267641Y-133727819D01*
X100267641Y-133727819D02*
X100124784Y-133727819D01*
X100791451Y-133727819D02*
X101315260Y-133061152D01*
X100791451Y-133061152D02*
X101315260Y-133727819D01*
G36*
X172861263Y-106846517D02*
G01*
X168378093Y-106846517D01*
X168378093Y-105293770D01*
X168520950Y-105293770D01*
X168524771Y-105319536D01*
X168858104Y-106319536D01*
X168859446Y-106321227D01*
X168859505Y-106323386D01*
X168875254Y-106341147D01*
X168889995Y-106359722D01*
X168892108Y-106360154D01*
X168893542Y-106361771D01*
X168917012Y-106365251D01*
X168940256Y-106370008D01*
X168942155Y-106368979D01*
X168944291Y-106369296D01*
X168964504Y-106356877D01*
X168985370Y-106345579D01*
X168986163Y-106343571D01*
X168988003Y-106342441D01*
X169000406Y-106319536D01*
X169246407Y-105581533D01*
X169473303Y-105581533D01*
X169474836Y-105585746D01*
X169473795Y-105590107D01*
X169481221Y-105615074D01*
X169528840Y-105710312D01*
X169530029Y-105711437D01*
X169542889Y-105729804D01*
X169590508Y-105777423D01*
X169591989Y-105778114D01*
X169610000Y-105791472D01*
X169705238Y-105839091D01*
X169708766Y-105839497D01*
X169720589Y-105844770D01*
X169903079Y-105890392D01*
X169980066Y-105928886D01*
X170010473Y-105959293D01*
X170044731Y-106027809D01*
X170044731Y-106087637D01*
X170010472Y-106156153D01*
X169980065Y-106186561D01*
X169911550Y-106220819D01*
X169703330Y-106220819D01*
X169572020Y-106177049D01*
X169520736Y-106178450D01*
X169482351Y-106212487D01*
X169474826Y-106263236D01*
X169501681Y-106306948D01*
X169524586Y-106319351D01*
X169667442Y-106366970D01*
X169669077Y-106366925D01*
X169691160Y-106370819D01*
X169929255Y-106370819D01*
X169933468Y-106369285D01*
X169937829Y-106370327D01*
X169962796Y-106362901D01*
X170058034Y-106315282D01*
X170059158Y-106314094D01*
X170077527Y-106301232D01*
X170125145Y-106253613D01*
X170125835Y-106252131D01*
X170139194Y-106234121D01*
X170186813Y-106138883D01*
X170187325Y-106134429D01*
X170190208Y-106130994D01*
X170194731Y-106105342D01*
X170194731Y-106010104D01*
X170193197Y-106005890D01*
X170194239Y-106001529D01*
X170186813Y-105976563D01*
X170139194Y-105881325D01*
X170138004Y-105880199D01*
X170125145Y-105861833D01*
X170077526Y-105814214D01*
X170076044Y-105813523D01*
X170058034Y-105800165D01*
X169962796Y-105752546D01*
X169959267Y-105752139D01*
X169947445Y-105746867D01*
X169764955Y-105701244D01*
X169687968Y-105662751D01*
X169657561Y-105632344D01*
X169655738Y-105628698D01*
X170378066Y-105628698D01*
X170382434Y-105654377D01*
X170610983Y-106294316D01*
X170532003Y-106491766D01*
X170503876Y-106519894D01*
X170419524Y-106562070D01*
X170384252Y-106599324D01*
X170381177Y-106650535D01*
X170411741Y-106691740D01*
X170461639Y-106703660D01*
X170486606Y-106696234D01*
X170581844Y-106648615D01*
X170582969Y-106647425D01*
X170601336Y-106634566D01*
X170648955Y-106586947D01*
X170649886Y-106584948D01*
X170651831Y-106583906D01*
X170665558Y-106561768D01*
X170760796Y-106323673D01*
X170760825Y-106322740D01*
X170761791Y-106321044D01*
X170770800Y-106295819D01*
X171235208Y-106295819D01*
X171252755Y-106344028D01*
X171297184Y-106369680D01*
X171347708Y-106360771D01*
X171380685Y-106321471D01*
X171385208Y-106295819D01*
X171385208Y-105755456D01*
X171402254Y-105738410D01*
X171470770Y-105704152D01*
X171578217Y-105704152D01*
X171635258Y-105732672D01*
X171663779Y-105789714D01*
X171663779Y-106295819D01*
X171681326Y-106344028D01*
X171725755Y-106369680D01*
X171776279Y-106360771D01*
X171809256Y-106321471D01*
X171813779Y-106295819D01*
X171813779Y-106105342D01*
X172092351Y-106105342D01*
X172093884Y-106109555D01*
X172092843Y-106113916D01*
X172100269Y-106138883D01*
X172147888Y-106234121D01*
X172149076Y-106235246D01*
X172161936Y-106253612D01*
X172209555Y-106301232D01*
X172211036Y-106301922D01*
X172229048Y-106315282D01*
X172324286Y-106362901D01*
X172328739Y-106363413D01*
X172332175Y-106366296D01*
X172357827Y-106370819D01*
X172548303Y-106370819D01*
X172552516Y-106369285D01*
X172556877Y-106370327D01*
X172581844Y-106362901D01*
X172677082Y-106315282D01*
X172712354Y-106278028D01*
X172715429Y-106226818D01*
X172684865Y-106185612D01*
X172634966Y-106173692D01*
X172610000Y-106181118D01*
X172530598Y-106220819D01*
X172375532Y-106220819D01*
X172307016Y-106186561D01*
X172276609Y-106156153D01*
X172242351Y-106087637D01*
X172242351Y-105837333D01*
X172276609Y-105768817D01*
X172307016Y-105738410D01*
X172375532Y-105704152D01*
X172530598Y-105704152D01*
X172610000Y-105743853D01*
X172660966Y-105749718D01*
X172703779Y-105721452D01*
X172718406Y-105672277D01*
X172698003Y-105625206D01*
X172677082Y-105609689D01*
X172581844Y-105562070D01*
X172577390Y-105561557D01*
X172573955Y-105558675D01*
X172548303Y-105554152D01*
X172357827Y-105554152D01*
X172353613Y-105555685D01*
X172349252Y-105554644D01*
X172324286Y-105562070D01*
X172229048Y-105609689D01*
X172227922Y-105610878D01*
X172209556Y-105623738D01*
X172161937Y-105671357D01*
X172161246Y-105672838D01*
X172147888Y-105690849D01*
X172100269Y-105786087D01*
X172099756Y-105790540D01*
X172096874Y-105793976D01*
X172092351Y-105819628D01*
X172092351Y-106105342D01*
X171813779Y-106105342D01*
X171813779Y-105772009D01*
X171812245Y-105767795D01*
X171813287Y-105763434D01*
X171805861Y-105738468D01*
X171758242Y-105643230D01*
X171750088Y-105635510D01*
X171745622Y-105625206D01*
X171724701Y-105609689D01*
X171629463Y-105562070D01*
X171625009Y-105561557D01*
X171621574Y-105558675D01*
X171595922Y-105554152D01*
X171453065Y-105554152D01*
X171448851Y-105555685D01*
X171444490Y-105554644D01*
X171419524Y-105562070D01*
X171369834Y-105586914D01*
X171367661Y-105580943D01*
X171323232Y-105555291D01*
X171272708Y-105564200D01*
X171239731Y-105603500D01*
X171235208Y-105629152D01*
X171235208Y-106295819D01*
X170770800Y-106295819D01*
X170999886Y-105654377D01*
X170999575Y-105603075D01*
X170966362Y-105563975D01*
X170915785Y-105555372D01*
X170871511Y-105581291D01*
X170858624Y-105603927D01*
X170691160Y-106072826D01*
X170523696Y-105603927D01*
X170490956Y-105564428D01*
X170440488Y-105555214D01*
X170395904Y-105580597D01*
X170378066Y-105628698D01*
X169655738Y-105628698D01*
X169623303Y-105563828D01*
X169623303Y-105504000D01*
X169657561Y-105435484D01*
X169687968Y-105405077D01*
X169756484Y-105370819D01*
X169964704Y-105370819D01*
X170096013Y-105414589D01*
X170147297Y-105413188D01*
X170185683Y-105379150D01*
X170193208Y-105328402D01*
X170166353Y-105284689D01*
X170143448Y-105272287D01*
X170000591Y-105224668D01*
X169998956Y-105224712D01*
X169976874Y-105220819D01*
X169738779Y-105220819D01*
X169734565Y-105222352D01*
X169730204Y-105221311D01*
X169705238Y-105228737D01*
X169610000Y-105276356D01*
X169608874Y-105277545D01*
X169590508Y-105290405D01*
X169542889Y-105338024D01*
X169542198Y-105339505D01*
X169528840Y-105357516D01*
X169481221Y-105452754D01*
X169480708Y-105457207D01*
X169477826Y-105460643D01*
X169473303Y-105486295D01*
X169473303Y-105581533D01*
X169246407Y-105581533D01*
X169333739Y-105319536D01*
X169332338Y-105268253D01*
X169298300Y-105229867D01*
X169247552Y-105222342D01*
X169203839Y-105249197D01*
X169191437Y-105272102D01*
X168929255Y-106058648D01*
X168667073Y-105272102D01*
X168635182Y-105231916D01*
X168584921Y-105221630D01*
X168539807Y-105246059D01*
X168520950Y-105293770D01*
X168378093Y-105293770D01*
X168378093Y-105077962D01*
X172861263Y-105077962D01*
X172861263Y-106846517D01*
G37*
X110604180Y-101276398D02*
X109604180Y-101576398D01*
X109604180Y-101576398D02*
X110604180Y-101876398D01*
X109651800Y-102562113D02*
X109604180Y-102476398D01*
X109604180Y-102476398D02*
X109604180Y-102304970D01*
X109604180Y-102304970D02*
X109651800Y-102219255D01*
X109651800Y-102219255D02*
X109699419Y-102176398D01*
X109699419Y-102176398D02*
X109794657Y-102133541D01*
X109794657Y-102133541D02*
X110080371Y-102133541D01*
X110080371Y-102133541D02*
X110175609Y-102176398D01*
X110175609Y-102176398D02*
X110223228Y-102219255D01*
X110223228Y-102219255D02*
X110270847Y-102304970D01*
X110270847Y-102304970D02*
X110270847Y-102476398D01*
X110270847Y-102476398D02*
X110223228Y-102562113D01*
X109651800Y-103333542D02*
X109604180Y-103247827D01*
X109604180Y-103247827D02*
X109604180Y-103076399D01*
X109604180Y-103076399D02*
X109651800Y-102990684D01*
X109651800Y-102990684D02*
X109699419Y-102947827D01*
X109699419Y-102947827D02*
X109794657Y-102904970D01*
X109794657Y-102904970D02*
X110080371Y-102904970D01*
X110080371Y-102904970D02*
X110175609Y-102947827D01*
X110175609Y-102947827D02*
X110223228Y-102990684D01*
X110223228Y-102990684D02*
X110270847Y-103076399D01*
X110270847Y-103076399D02*
X110270847Y-103247827D01*
X110270847Y-103247827D02*
X110223228Y-103333542D01*
X113642969Y-121076628D02*
X113771541Y-121119485D01*
X113771541Y-121119485D02*
X113814398Y-121162342D01*
X113814398Y-121162342D02*
X113857255Y-121248057D01*
X113857255Y-121248057D02*
X113857255Y-121376628D01*
X113857255Y-121376628D02*
X113814398Y-121462342D01*
X113814398Y-121462342D02*
X113771541Y-121505200D01*
X113771541Y-121505200D02*
X113685826Y-121548057D01*
X113685826Y-121548057D02*
X113342969Y-121548057D01*
X113342969Y-121548057D02*
X113342969Y-120648057D01*
X113342969Y-120648057D02*
X113642969Y-120648057D01*
X113642969Y-120648057D02*
X113728684Y-120690914D01*
X113728684Y-120690914D02*
X113771541Y-120733771D01*
X113771541Y-120733771D02*
X113814398Y-120819485D01*
X113814398Y-120819485D02*
X113814398Y-120905200D01*
X113814398Y-120905200D02*
X113771541Y-120990914D01*
X113771541Y-120990914D02*
X113728684Y-121033771D01*
X113728684Y-121033771D02*
X113642969Y-121076628D01*
X113642969Y-121076628D02*
X113342969Y-121076628D01*
X112284112Y-125608914D02*
X112712684Y-125608914D01*
X112198398Y-125866057D02*
X112498398Y-124966057D01*
X112498398Y-124966057D02*
X112798398Y-125866057D01*
X113569827Y-125866057D02*
X113055541Y-125866057D01*
X113312684Y-125866057D02*
X113312684Y-124966057D01*
X113312684Y-124966057D02*
X113226970Y-125094628D01*
X113226970Y-125094628D02*
X113141255Y-125180342D01*
X113141255Y-125180342D02*
X113055541Y-125223200D01*
X161833160Y-123520200D02*
X161976017Y-123567819D01*
X161976017Y-123567819D02*
X162214112Y-123567819D01*
X162214112Y-123567819D02*
X162309350Y-123520200D01*
X162309350Y-123520200D02*
X162356969Y-123472580D01*
X162356969Y-123472580D02*
X162404588Y-123377342D01*
X162404588Y-123377342D02*
X162404588Y-123282104D01*
X162404588Y-123282104D02*
X162356969Y-123186866D01*
X162356969Y-123186866D02*
X162309350Y-123139247D01*
X162309350Y-123139247D02*
X162214112Y-123091628D01*
X162214112Y-123091628D02*
X162023636Y-123044009D01*
X162023636Y-123044009D02*
X161928398Y-122996390D01*
X161928398Y-122996390D02*
X161880779Y-122948771D01*
X161880779Y-122948771D02*
X161833160Y-122853533D01*
X161833160Y-122853533D02*
X161833160Y-122758295D01*
X161833160Y-122758295D02*
X161880779Y-122663057D01*
X161880779Y-122663057D02*
X161928398Y-122615438D01*
X161928398Y-122615438D02*
X162023636Y-122567819D01*
X162023636Y-122567819D02*
X162261731Y-122567819D01*
X162261731Y-122567819D02*
X162404588Y-122615438D01*
X162785541Y-122663057D02*
X162833160Y-122615438D01*
X162833160Y-122615438D02*
X162928398Y-122567819D01*
X162928398Y-122567819D02*
X163166493Y-122567819D01*
X163166493Y-122567819D02*
X163261731Y-122615438D01*
X163261731Y-122615438D02*
X163309350Y-122663057D01*
X163309350Y-122663057D02*
X163356969Y-122758295D01*
X163356969Y-122758295D02*
X163356969Y-122853533D01*
X163356969Y-122853533D02*
X163309350Y-122996390D01*
X163309350Y-122996390D02*
X162737922Y-123567819D01*
X162737922Y-123567819D02*
X163356969Y-123567819D01*
X81981922Y-129171819D02*
X82315255Y-130171819D01*
X82315255Y-130171819D02*
X82648588Y-129171819D01*
X83410493Y-129505152D02*
X83410493Y-130314676D01*
X83410493Y-130314676D02*
X83362874Y-130409914D01*
X83362874Y-130409914D02*
X83315255Y-130457533D01*
X83315255Y-130457533D02*
X83220017Y-130505152D01*
X83220017Y-130505152D02*
X83077160Y-130505152D01*
X83077160Y-130505152D02*
X82981922Y-130457533D01*
X83410493Y-130124200D02*
X83315255Y-130171819D01*
X83315255Y-130171819D02*
X83124779Y-130171819D01*
X83124779Y-130171819D02*
X83029541Y-130124200D01*
X83029541Y-130124200D02*
X82981922Y-130076580D01*
X82981922Y-130076580D02*
X82934303Y-129981342D01*
X82934303Y-129981342D02*
X82934303Y-129695628D01*
X82934303Y-129695628D02*
X82981922Y-129600390D01*
X82981922Y-129600390D02*
X83029541Y-129552771D01*
X83029541Y-129552771D02*
X83124779Y-129505152D01*
X83124779Y-129505152D02*
X83315255Y-129505152D01*
X83315255Y-129505152D02*
X83410493Y-129552771D01*
X84315255Y-130171819D02*
X84315255Y-129648009D01*
X84315255Y-129648009D02*
X84267636Y-129552771D01*
X84267636Y-129552771D02*
X84172398Y-129505152D01*
X84172398Y-129505152D02*
X83981922Y-129505152D01*
X83981922Y-129505152D02*
X83886684Y-129552771D01*
X84315255Y-130124200D02*
X84220017Y-130171819D01*
X84220017Y-130171819D02*
X83981922Y-130171819D01*
X83981922Y-130171819D02*
X83886684Y-130124200D01*
X83886684Y-130124200D02*
X83839065Y-130028961D01*
X83839065Y-130028961D02*
X83839065Y-129933723D01*
X83839065Y-129933723D02*
X83886684Y-129838485D01*
X83886684Y-129838485D02*
X83981922Y-129790866D01*
X83981922Y-129790866D02*
X84220017Y-129790866D01*
X84220017Y-129790866D02*
X84315255Y-129743247D01*
X84648589Y-129505152D02*
X85029541Y-129505152D01*
X84791446Y-129171819D02*
X84791446Y-130028961D01*
X84791446Y-130028961D02*
X84839065Y-130124200D01*
X84839065Y-130124200D02*
X84934303Y-130171819D01*
X84934303Y-130171819D02*
X85029541Y-130171819D01*
X85743827Y-130124200D02*
X85648589Y-130171819D01*
X85648589Y-130171819D02*
X85458113Y-130171819D01*
X85458113Y-130171819D02*
X85362875Y-130124200D01*
X85362875Y-130124200D02*
X85315256Y-130028961D01*
X85315256Y-130028961D02*
X85315256Y-129648009D01*
X85315256Y-129648009D02*
X85362875Y-129552771D01*
X85362875Y-129552771D02*
X85458113Y-129505152D01*
X85458113Y-129505152D02*
X85648589Y-129505152D01*
X85648589Y-129505152D02*
X85743827Y-129552771D01*
X85743827Y-129552771D02*
X85791446Y-129648009D01*
X85791446Y-129648009D02*
X85791446Y-129743247D01*
X85791446Y-129743247D02*
X85315256Y-129838485D01*
X86220018Y-130171819D02*
X86220018Y-129505152D01*
X86220018Y-129695628D02*
X86267637Y-129600390D01*
X86267637Y-129600390D02*
X86315256Y-129552771D01*
X86315256Y-129552771D02*
X86410494Y-129505152D01*
X86410494Y-129505152D02*
X86505732Y-129505152D01*
X86839066Y-130171819D02*
X86839066Y-129505152D01*
X86839066Y-129600390D02*
X86886685Y-129552771D01*
X86886685Y-129552771D02*
X86981923Y-129505152D01*
X86981923Y-129505152D02*
X87124780Y-129505152D01*
X87124780Y-129505152D02*
X87220018Y-129552771D01*
X87220018Y-129552771D02*
X87267637Y-129648009D01*
X87267637Y-129648009D02*
X87267637Y-130171819D01*
X87267637Y-129648009D02*
X87315256Y-129552771D01*
X87315256Y-129552771D02*
X87410494Y-129505152D01*
X87410494Y-129505152D02*
X87553351Y-129505152D01*
X87553351Y-129505152D02*
X87648590Y-129552771D01*
X87648590Y-129552771D02*
X87696209Y-129648009D01*
X87696209Y-129648009D02*
X87696209Y-130171819D01*
X88934304Y-129790866D02*
X89696209Y-129790866D01*
X90886685Y-129267057D02*
X90934304Y-129219438D01*
X90934304Y-129219438D02*
X91029542Y-129171819D01*
X91029542Y-129171819D02*
X91267637Y-129171819D01*
X91267637Y-129171819D02*
X91362875Y-129219438D01*
X91362875Y-129219438D02*
X91410494Y-129267057D01*
X91410494Y-129267057D02*
X91458113Y-129362295D01*
X91458113Y-129362295D02*
X91458113Y-129457533D01*
X91458113Y-129457533D02*
X91410494Y-129600390D01*
X91410494Y-129600390D02*
X90839066Y-130171819D01*
X90839066Y-130171819D02*
X91458113Y-130171819D01*
X92077161Y-129171819D02*
X92172399Y-129171819D01*
X92172399Y-129171819D02*
X92267637Y-129219438D01*
X92267637Y-129219438D02*
X92315256Y-129267057D01*
X92315256Y-129267057D02*
X92362875Y-129362295D01*
X92362875Y-129362295D02*
X92410494Y-129552771D01*
X92410494Y-129552771D02*
X92410494Y-129790866D01*
X92410494Y-129790866D02*
X92362875Y-129981342D01*
X92362875Y-129981342D02*
X92315256Y-130076580D01*
X92315256Y-130076580D02*
X92267637Y-130124200D01*
X92267637Y-130124200D02*
X92172399Y-130171819D01*
X92172399Y-130171819D02*
X92077161Y-130171819D01*
X92077161Y-130171819D02*
X91981923Y-130124200D01*
X91981923Y-130124200D02*
X91934304Y-130076580D01*
X91934304Y-130076580D02*
X91886685Y-129981342D01*
X91886685Y-129981342D02*
X91839066Y-129790866D01*
X91839066Y-129790866D02*
X91839066Y-129552771D01*
X91839066Y-129552771D02*
X91886685Y-129362295D01*
X91886685Y-129362295D02*
X91934304Y-129267057D01*
X91934304Y-129267057D02*
X91981923Y-129219438D01*
X91981923Y-129219438D02*
X92077161Y-129171819D01*
X92791447Y-129267057D02*
X92839066Y-129219438D01*
X92839066Y-129219438D02*
X92934304Y-129171819D01*
X92934304Y-129171819D02*
X93172399Y-129171819D01*
X93172399Y-129171819D02*
X93267637Y-129219438D01*
X93267637Y-129219438D02*
X93315256Y-129267057D01*
X93315256Y-129267057D02*
X93362875Y-129362295D01*
X93362875Y-129362295D02*
X93362875Y-129457533D01*
X93362875Y-129457533D02*
X93315256Y-129600390D01*
X93315256Y-129600390D02*
X92743828Y-130171819D01*
X92743828Y-130171819D02*
X93362875Y-130171819D01*
X94220018Y-129505152D02*
X94220018Y-130171819D01*
X93981923Y-129124200D02*
X93743828Y-129838485D01*
X93743828Y-129838485D02*
X94362875Y-129838485D01*
X94743828Y-129790866D02*
X95505733Y-129790866D01*
X96172399Y-129171819D02*
X96267637Y-129171819D01*
X96267637Y-129171819D02*
X96362875Y-129219438D01*
X96362875Y-129219438D02*
X96410494Y-129267057D01*
X96410494Y-129267057D02*
X96458113Y-129362295D01*
X96458113Y-129362295D02*
X96505732Y-129552771D01*
X96505732Y-129552771D02*
X96505732Y-129790866D01*
X96505732Y-129790866D02*
X96458113Y-129981342D01*
X96458113Y-129981342D02*
X96410494Y-130076580D01*
X96410494Y-130076580D02*
X96362875Y-130124200D01*
X96362875Y-130124200D02*
X96267637Y-130171819D01*
X96267637Y-130171819D02*
X96172399Y-130171819D01*
X96172399Y-130171819D02*
X96077161Y-130124200D01*
X96077161Y-130124200D02*
X96029542Y-130076580D01*
X96029542Y-130076580D02*
X95981923Y-129981342D01*
X95981923Y-129981342D02*
X95934304Y-129790866D01*
X95934304Y-129790866D02*
X95934304Y-129552771D01*
X95934304Y-129552771D02*
X95981923Y-129362295D01*
X95981923Y-129362295D02*
X96029542Y-129267057D01*
X96029542Y-129267057D02*
X96077161Y-129219438D01*
X96077161Y-129219438D02*
X96172399Y-129171819D01*
X97458113Y-130171819D02*
X96886685Y-130171819D01*
X97172399Y-130171819D02*
X97172399Y-129171819D01*
X97172399Y-129171819D02*
X97077161Y-129314676D01*
X97077161Y-129314676D02*
X96981923Y-129409914D01*
X96981923Y-129409914D02*
X96886685Y-129457533D01*
X97886685Y-129790866D02*
X98648590Y-129790866D01*
X99315256Y-129171819D02*
X99410494Y-129171819D01*
X99410494Y-129171819D02*
X99505732Y-129219438D01*
X99505732Y-129219438D02*
X99553351Y-129267057D01*
X99553351Y-129267057D02*
X99600970Y-129362295D01*
X99600970Y-129362295D02*
X99648589Y-129552771D01*
X99648589Y-129552771D02*
X99648589Y-129790866D01*
X99648589Y-129790866D02*
X99600970Y-129981342D01*
X99600970Y-129981342D02*
X99553351Y-130076580D01*
X99553351Y-130076580D02*
X99505732Y-130124200D01*
X99505732Y-130124200D02*
X99410494Y-130171819D01*
X99410494Y-130171819D02*
X99315256Y-130171819D01*
X99315256Y-130171819D02*
X99220018Y-130124200D01*
X99220018Y-130124200D02*
X99172399Y-130076580D01*
X99172399Y-130076580D02*
X99124780Y-129981342D01*
X99124780Y-129981342D02*
X99077161Y-129790866D01*
X99077161Y-129790866D02*
X99077161Y-129552771D01*
X99077161Y-129552771D02*
X99124780Y-129362295D01*
X99124780Y-129362295D02*
X99172399Y-129267057D01*
X99172399Y-129267057D02*
X99220018Y-129219438D01*
X99220018Y-129219438D02*
X99315256Y-129171819D01*
X100600970Y-130171819D02*
X100029542Y-130171819D01*
X100315256Y-130171819D02*
X100315256Y-129171819D01*
X100315256Y-129171819D02*
X100220018Y-129314676D01*
X100220018Y-129314676D02*
X100124780Y-129409914D01*
X100124780Y-129409914D02*
X100029542Y-129457533D01*
X168595922Y-107835819D02*
X168929255Y-108835819D01*
X168929255Y-108835819D02*
X169262588Y-107835819D01*
X170024493Y-108788200D02*
X169929255Y-108835819D01*
X169929255Y-108835819D02*
X169738779Y-108835819D01*
X169738779Y-108835819D02*
X169643541Y-108788200D01*
X169643541Y-108788200D02*
X169595922Y-108740580D01*
X169595922Y-108740580D02*
X169548303Y-108645342D01*
X169548303Y-108645342D02*
X169548303Y-108359628D01*
X169548303Y-108359628D02*
X169595922Y-108264390D01*
X169595922Y-108264390D02*
X169643541Y-108216771D01*
X169643541Y-108216771D02*
X169738779Y-108169152D01*
X169738779Y-108169152D02*
X169929255Y-108169152D01*
X169929255Y-108169152D02*
X170024493Y-108216771D01*
X170881636Y-108788200D02*
X170786398Y-108835819D01*
X170786398Y-108835819D02*
X170595922Y-108835819D01*
X170595922Y-108835819D02*
X170500684Y-108788200D01*
X170500684Y-108788200D02*
X170453065Y-108740580D01*
X170453065Y-108740580D02*
X170405446Y-108645342D01*
X170405446Y-108645342D02*
X170405446Y-108359628D01*
X170405446Y-108359628D02*
X170453065Y-108264390D01*
X170453065Y-108264390D02*
X170500684Y-108216771D01*
X170500684Y-108216771D02*
X170595922Y-108169152D01*
X170595922Y-108169152D02*
X170786398Y-108169152D01*
X170786398Y-108169152D02*
X170881636Y-108216771D01*
G36*
X110821526Y-112563683D02*
G01*
X109386323Y-112563683D01*
X109386323Y-112217255D01*
X109529180Y-112217255D01*
X109531280Y-112223026D01*
X109530114Y-112229059D01*
X109538619Y-112253679D01*
X109586239Y-112339393D01*
X109594645Y-112346686D01*
X109599486Y-112356712D01*
X109621023Y-112371363D01*
X109716261Y-112414220D01*
X109719158Y-112414434D01*
X109721386Y-112416303D01*
X109747038Y-112420826D01*
X109794657Y-112420826D01*
X109797388Y-112419831D01*
X109800186Y-112420622D01*
X109825434Y-112414220D01*
X109920673Y-112371363D01*
X109928648Y-112363599D01*
X109939045Y-112359620D01*
X109955457Y-112339392D01*
X110003076Y-112253679D01*
X110004042Y-112247612D01*
X110007991Y-112242907D01*
X110012514Y-112217255D01*
X110012514Y-112108118D01*
X110038607Y-112061149D01*
X110096469Y-112035112D01*
X110111893Y-112035112D01*
X110169753Y-112061148D01*
X110195847Y-112108118D01*
X110195847Y-112197820D01*
X110157666Y-112266546D01*
X110149593Y-112317210D01*
X110175973Y-112361210D01*
X110224465Y-112377959D01*
X110272378Y-112359620D01*
X110288790Y-112339392D01*
X110336409Y-112253679D01*
X110337375Y-112247612D01*
X110341324Y-112242907D01*
X110345847Y-112217255D01*
X110345847Y-112088684D01*
X110343746Y-112082912D01*
X110344913Y-112076881D01*
X110336409Y-112052261D01*
X110288790Y-111966546D01*
X110280382Y-111959251D01*
X110275542Y-111949226D01*
X110254006Y-111934575D01*
X110158767Y-111891718D01*
X110155869Y-111891503D01*
X110153642Y-111889635D01*
X110127990Y-111885112D01*
X110080371Y-111885112D01*
X110077640Y-111886106D01*
X110074843Y-111885316D01*
X110049594Y-111891718D01*
X109954356Y-111934575D01*
X109946380Y-111942338D01*
X109935982Y-111946319D01*
X109919571Y-111966546D01*
X109871952Y-112052261D01*
X109870985Y-112058326D01*
X109867037Y-112063032D01*
X109862514Y-112088684D01*
X109862514Y-112197820D01*
X109836420Y-112244788D01*
X109778560Y-112270826D01*
X109763136Y-112270826D01*
X109705274Y-112244788D01*
X109679180Y-112197820D01*
X109679180Y-112065260D01*
X109717362Y-111996536D01*
X109725436Y-111945872D01*
X109699056Y-111901871D01*
X109650563Y-111885122D01*
X109602650Y-111903461D01*
X109586239Y-111923688D01*
X109538619Y-112009402D01*
X109537652Y-112015467D01*
X109533703Y-112020174D01*
X109529180Y-112045826D01*
X109529180Y-112217255D01*
X109386323Y-112217255D01*
X109386323Y-111561374D01*
X109530319Y-111561374D01*
X109539228Y-111611898D01*
X109578528Y-111644875D01*
X109604180Y-111649398D01*
X110270847Y-111649398D01*
X110319056Y-111631851D01*
X110344708Y-111587422D01*
X110340568Y-111563944D01*
X110434675Y-111563944D01*
X110439491Y-111586633D01*
X110442728Y-111609623D01*
X110443839Y-111611045D01*
X110443990Y-111611898D01*
X110445043Y-111612781D01*
X110445329Y-111614128D01*
X110447695Y-111615977D01*
X110458770Y-111630145D01*
X110506389Y-111673002D01*
X110520974Y-111678891D01*
X110533369Y-111688579D01*
X110544050Y-111688208D01*
X110553961Y-111692210D01*
X110568921Y-111687345D01*
X110584641Y-111686800D01*
X110599890Y-111677275D01*
X110602749Y-111676346D01*
X110603625Y-111674943D01*
X110606733Y-111673002D01*
X110654352Y-111630145D01*
X110665247Y-111609665D01*
X110677545Y-111589975D01*
X110677353Y-111588613D01*
X110678041Y-111587422D01*
X110677801Y-111586066D01*
X110678448Y-111584852D01*
X110673628Y-111562154D01*
X110670394Y-111539173D01*
X110669282Y-111537750D01*
X110669132Y-111536898D01*
X110668078Y-111536014D01*
X110667793Y-111534668D01*
X110665426Y-111532818D01*
X110654352Y-111518651D01*
X110606733Y-111475794D01*
X110592149Y-111469905D01*
X110579754Y-111460217D01*
X110569071Y-111460587D01*
X110559161Y-111456586D01*
X110544202Y-111461449D01*
X110528482Y-111461995D01*
X110513230Y-111471520D01*
X110510373Y-111472450D01*
X110509496Y-111473852D01*
X110506389Y-111475794D01*
X110458770Y-111518651D01*
X110447877Y-111539125D01*
X110435577Y-111558821D01*
X110435768Y-111560182D01*
X110435081Y-111561374D01*
X110435320Y-111562731D01*
X110434675Y-111563944D01*
X110340568Y-111563944D01*
X110335799Y-111536898D01*
X110296499Y-111503921D01*
X110270847Y-111499398D01*
X109604180Y-111499398D01*
X109555971Y-111516945D01*
X109530319Y-111561374D01*
X109386323Y-111561374D01*
X109386323Y-110983147D01*
X109529692Y-110983147D01*
X109531717Y-110987175D01*
X109531192Y-110991653D01*
X109543045Y-111009699D01*
X109552743Y-111028980D01*
X109556882Y-111030762D01*
X109559358Y-111034532D01*
X109582629Y-111046235D01*
X110582629Y-111346235D01*
X110633847Y-111343281D01*
X110671184Y-111308097D01*
X110677169Y-111257143D01*
X110649002Y-111214264D01*
X110625731Y-111202561D01*
X109865187Y-110974398D01*
X110625731Y-110746235D01*
X110666865Y-110715575D01*
X110678669Y-110665649D01*
X110655618Y-110619816D01*
X110608499Y-110599522D01*
X110582629Y-110602561D01*
X109582629Y-110902561D01*
X109579014Y-110905255D01*
X109574513Y-110905515D01*
X109558797Y-110920324D01*
X109541495Y-110933221D01*
X109540458Y-110937605D01*
X109537176Y-110940699D01*
X109534657Y-110962142D01*
X109529692Y-110983147D01*
X109386323Y-110983147D01*
X109386323Y-110456665D01*
X110821526Y-110456665D01*
X110821526Y-112563683D01*
G37*
X154858819Y-125809333D02*
X155573104Y-125809333D01*
X155573104Y-125809333D02*
X155715961Y-125856952D01*
X155715961Y-125856952D02*
X155811200Y-125952190D01*
X155811200Y-125952190D02*
X155858819Y-126095047D01*
X155858819Y-126095047D02*
X155858819Y-126190285D01*
X155287390Y-125190285D02*
X155239771Y-125285523D01*
X155239771Y-125285523D02*
X155192152Y-125333142D01*
X155192152Y-125333142D02*
X155096914Y-125380761D01*
X155096914Y-125380761D02*
X155049295Y-125380761D01*
X155049295Y-125380761D02*
X154954057Y-125333142D01*
X154954057Y-125333142D02*
X154906438Y-125285523D01*
X154906438Y-125285523D02*
X154858819Y-125190285D01*
X154858819Y-125190285D02*
X154858819Y-124999809D01*
X154858819Y-124999809D02*
X154906438Y-124904571D01*
X154906438Y-124904571D02*
X154954057Y-124856952D01*
X154954057Y-124856952D02*
X155049295Y-124809333D01*
X155049295Y-124809333D02*
X155096914Y-124809333D01*
X155096914Y-124809333D02*
X155192152Y-124856952D01*
X155192152Y-124856952D02*
X155239771Y-124904571D01*
X155239771Y-124904571D02*
X155287390Y-124999809D01*
X155287390Y-124999809D02*
X155287390Y-125190285D01*
X155287390Y-125190285D02*
X155335009Y-125285523D01*
X155335009Y-125285523D02*
X155382628Y-125333142D01*
X155382628Y-125333142D02*
X155477866Y-125380761D01*
X155477866Y-125380761D02*
X155668342Y-125380761D01*
X155668342Y-125380761D02*
X155763580Y-125333142D01*
X155763580Y-125333142D02*
X155811200Y-125285523D01*
X155811200Y-125285523D02*
X155858819Y-125190285D01*
X155858819Y-125190285D02*
X155858819Y-124999809D01*
X155858819Y-124999809D02*
X155811200Y-124904571D01*
X155811200Y-124904571D02*
X155763580Y-124856952D01*
X155763580Y-124856952D02*
X155668342Y-124809333D01*
X155668342Y-124809333D02*
X155477866Y-124809333D01*
X155477866Y-124809333D02*
X155382628Y-124856952D01*
X155382628Y-124856952D02*
X155335009Y-124904571D01*
X155335009Y-124904571D02*
X155287390Y-124999809D01*
X153992819Y-107441904D02*
X154802342Y-107441904D01*
X154802342Y-107441904D02*
X154897580Y-107394285D01*
X154897580Y-107394285D02*
X154945200Y-107346666D01*
X154945200Y-107346666D02*
X154992819Y-107251428D01*
X154992819Y-107251428D02*
X154992819Y-107060952D01*
X154992819Y-107060952D02*
X154945200Y-106965714D01*
X154945200Y-106965714D02*
X154897580Y-106918095D01*
X154897580Y-106918095D02*
X154802342Y-106870476D01*
X154802342Y-106870476D02*
X153992819Y-106870476D01*
X154088057Y-106441904D02*
X154040438Y-106394285D01*
X154040438Y-106394285D02*
X153992819Y-106299047D01*
X153992819Y-106299047D02*
X153992819Y-106060952D01*
X153992819Y-106060952D02*
X154040438Y-105965714D01*
X154040438Y-105965714D02*
X154088057Y-105918095D01*
X154088057Y-105918095D02*
X154183295Y-105870476D01*
X154183295Y-105870476D02*
X154278533Y-105870476D01*
X154278533Y-105870476D02*
X154421390Y-105918095D01*
X154421390Y-105918095D02*
X154992819Y-106489523D01*
X154992819Y-106489523D02*
X154992819Y-105870476D01*
X127424666Y-144336819D02*
X127424666Y-145051104D01*
X127424666Y-145051104D02*
X127377047Y-145193961D01*
X127377047Y-145193961D02*
X127281809Y-145289200D01*
X127281809Y-145289200D02*
X127138952Y-145336819D01*
X127138952Y-145336819D02*
X127043714Y-145336819D01*
X128329428Y-144670152D02*
X128329428Y-145336819D01*
X128091333Y-144289200D02*
X127853238Y-145003485D01*
X127853238Y-145003485D02*
X128472285Y-145003485D01*
X98829905Y-139637819D02*
X98829905Y-138637819D01*
X98829905Y-138637819D02*
X99068000Y-138637819D01*
X99068000Y-138637819D02*
X99210857Y-138685438D01*
X99210857Y-138685438D02*
X99306095Y-138780676D01*
X99306095Y-138780676D02*
X99353714Y-138875914D01*
X99353714Y-138875914D02*
X99401333Y-139066390D01*
X99401333Y-139066390D02*
X99401333Y-139209247D01*
X99401333Y-139209247D02*
X99353714Y-139399723D01*
X99353714Y-139399723D02*
X99306095Y-139494961D01*
X99306095Y-139494961D02*
X99210857Y-139590200D01*
X99210857Y-139590200D02*
X99068000Y-139637819D01*
X99068000Y-139637819D02*
X98829905Y-139637819D01*
X99734667Y-138637819D02*
X100353714Y-138637819D01*
X100353714Y-138637819D02*
X100020381Y-139018771D01*
X100020381Y-139018771D02*
X100163238Y-139018771D01*
X100163238Y-139018771D02*
X100258476Y-139066390D01*
X100258476Y-139066390D02*
X100306095Y-139114009D01*
X100306095Y-139114009D02*
X100353714Y-139209247D01*
X100353714Y-139209247D02*
X100353714Y-139447342D01*
X100353714Y-139447342D02*
X100306095Y-139542580D01*
X100306095Y-139542580D02*
X100258476Y-139590200D01*
X100258476Y-139590200D02*
X100163238Y-139637819D01*
X100163238Y-139637819D02*
X99877524Y-139637819D01*
X99877524Y-139637819D02*
X99782286Y-139590200D01*
X99782286Y-139590200D02*
X99734667Y-139542580D01*
X86955333Y-81607819D02*
X86622000Y-81131628D01*
X86383905Y-81607819D02*
X86383905Y-80607819D01*
X86383905Y-80607819D02*
X86764857Y-80607819D01*
X86764857Y-80607819D02*
X86860095Y-80655438D01*
X86860095Y-80655438D02*
X86907714Y-80703057D01*
X86907714Y-80703057D02*
X86955333Y-80798295D01*
X86955333Y-80798295D02*
X86955333Y-80941152D01*
X86955333Y-80941152D02*
X86907714Y-81036390D01*
X86907714Y-81036390D02*
X86860095Y-81084009D01*
X86860095Y-81084009D02*
X86764857Y-81131628D01*
X86764857Y-81131628D02*
X86383905Y-81131628D01*
X87860095Y-80607819D02*
X87383905Y-80607819D01*
X87383905Y-80607819D02*
X87336286Y-81084009D01*
X87336286Y-81084009D02*
X87383905Y-81036390D01*
X87383905Y-81036390D02*
X87479143Y-80988771D01*
X87479143Y-80988771D02*
X87717238Y-80988771D01*
X87717238Y-80988771D02*
X87812476Y-81036390D01*
X87812476Y-81036390D02*
X87860095Y-81084009D01*
X87860095Y-81084009D02*
X87907714Y-81179247D01*
X87907714Y-81179247D02*
X87907714Y-81417342D01*
X87907714Y-81417342D02*
X87860095Y-81512580D01*
X87860095Y-81512580D02*
X87812476Y-81560200D01*
X87812476Y-81560200D02*
X87717238Y-81607819D01*
X87717238Y-81607819D02*
X87479143Y-81607819D01*
X87479143Y-81607819D02*
X87383905Y-81560200D01*
X87383905Y-81560200D02*
X87336286Y-81512580D01*
X173841580Y-112656857D02*
X173889200Y-112704476D01*
X173889200Y-112704476D02*
X173936819Y-112847333D01*
X173936819Y-112847333D02*
X173936819Y-112942571D01*
X173936819Y-112942571D02*
X173889200Y-113085428D01*
X173889200Y-113085428D02*
X173793961Y-113180666D01*
X173793961Y-113180666D02*
X173698723Y-113228285D01*
X173698723Y-113228285D02*
X173508247Y-113275904D01*
X173508247Y-113275904D02*
X173365390Y-113275904D01*
X173365390Y-113275904D02*
X173174914Y-113228285D01*
X173174914Y-113228285D02*
X173079676Y-113180666D01*
X173079676Y-113180666D02*
X172984438Y-113085428D01*
X172984438Y-113085428D02*
X172936819Y-112942571D01*
X172936819Y-112942571D02*
X172936819Y-112847333D01*
X172936819Y-112847333D02*
X172984438Y-112704476D01*
X172984438Y-112704476D02*
X173032057Y-112656857D01*
X173936819Y-111704476D02*
X173936819Y-112275904D01*
X173936819Y-111990190D02*
X172936819Y-111990190D01*
X172936819Y-111990190D02*
X173079676Y-112085428D01*
X173079676Y-112085428D02*
X173174914Y-112180666D01*
X173174914Y-112180666D02*
X173222533Y-112275904D01*
X172936819Y-111085428D02*
X172936819Y-110990190D01*
X172936819Y-110990190D02*
X172984438Y-110894952D01*
X172984438Y-110894952D02*
X173032057Y-110847333D01*
X173032057Y-110847333D02*
X173127295Y-110799714D01*
X173127295Y-110799714D02*
X173317771Y-110752095D01*
X173317771Y-110752095D02*
X173555866Y-110752095D01*
X173555866Y-110752095D02*
X173746342Y-110799714D01*
X173746342Y-110799714D02*
X173841580Y-110847333D01*
X173841580Y-110847333D02*
X173889200Y-110894952D01*
X173889200Y-110894952D02*
X173936819Y-110990190D01*
X173936819Y-110990190D02*
X173936819Y-111085428D01*
X173936819Y-111085428D02*
X173889200Y-111180666D01*
X173889200Y-111180666D02*
X173841580Y-111228285D01*
X173841580Y-111228285D02*
X173746342Y-111275904D01*
X173746342Y-111275904D02*
X173555866Y-111323523D01*
X173555866Y-111323523D02*
X173317771Y-111323523D01*
X173317771Y-111323523D02*
X173127295Y-111275904D01*
X173127295Y-111275904D02*
X173032057Y-111228285D01*
X173032057Y-111228285D02*
X172984438Y-111180666D01*
X172984438Y-111180666D02*
X172936819Y-111085428D01*
X128238095Y-89704819D02*
X128238095Y-88704819D01*
X128238095Y-89181009D02*
X128809523Y-89181009D01*
X128809523Y-89704819D02*
X128809523Y-88704819D01*
X129809523Y-89704819D02*
X129238095Y-89704819D01*
X129523809Y-89704819D02*
X129523809Y-88704819D01*
X129523809Y-88704819D02*
X129428571Y-88847676D01*
X129428571Y-88847676D02*
X129333333Y-88942914D01*
X129333333Y-88942914D02*
X129238095Y-88990533D01*
X110087580Y-136151714D02*
X110135200Y-136199333D01*
X110135200Y-136199333D02*
X110182819Y-136342190D01*
X110182819Y-136342190D02*
X110182819Y-136437428D01*
X110182819Y-136437428D02*
X110135200Y-136580285D01*
X110135200Y-136580285D02*
X110039961Y-136675523D01*
X110039961Y-136675523D02*
X109944723Y-136723142D01*
X109944723Y-136723142D02*
X109754247Y-136770761D01*
X109754247Y-136770761D02*
X109611390Y-136770761D01*
X109611390Y-136770761D02*
X109420914Y-136723142D01*
X109420914Y-136723142D02*
X109325676Y-136675523D01*
X109325676Y-136675523D02*
X109230438Y-136580285D01*
X109230438Y-136580285D02*
X109182819Y-136437428D01*
X109182819Y-136437428D02*
X109182819Y-136342190D01*
X109182819Y-136342190D02*
X109230438Y-136199333D01*
X109230438Y-136199333D02*
X109278057Y-136151714D01*
X110182819Y-135580285D02*
X110135200Y-135675523D01*
X110135200Y-135675523D02*
X110039961Y-135723142D01*
X110039961Y-135723142D02*
X109182819Y-135723142D01*
X110182819Y-135199332D02*
X109182819Y-135199332D01*
X109801866Y-135104094D02*
X110182819Y-134818380D01*
X109516152Y-134818380D02*
X109897104Y-135199332D01*
X109759961Y-134437427D02*
X110559961Y-134437427D01*
X109798057Y-134437427D02*
X109759961Y-134361237D01*
X109759961Y-134361237D02*
X109759961Y-134208856D01*
X109759961Y-134208856D02*
X109798057Y-134132665D01*
X109798057Y-134132665D02*
X109836152Y-134094570D01*
X109836152Y-134094570D02*
X109912342Y-134056475D01*
X109912342Y-134056475D02*
X110140914Y-134056475D01*
X110140914Y-134056475D02*
X110217104Y-134094570D01*
X110217104Y-134094570D02*
X110255200Y-134132665D01*
X110255200Y-134132665D02*
X110293295Y-134208856D01*
X110293295Y-134208856D02*
X110293295Y-134361237D01*
X110293295Y-134361237D02*
X110255200Y-134437427D01*
X110293295Y-133713617D02*
X109759961Y-133713617D01*
X109493295Y-133713617D02*
X109531390Y-133751713D01*
X109531390Y-133751713D02*
X109569485Y-133713617D01*
X109569485Y-133713617D02*
X109531390Y-133675522D01*
X109531390Y-133675522D02*
X109493295Y-133713617D01*
X109493295Y-133713617D02*
X109569485Y-133713617D01*
X110293295Y-133408856D02*
X109759961Y-132989808D01*
X109759961Y-133408856D02*
X110293295Y-132989808D01*
X110255200Y-132380284D02*
X110293295Y-132456475D01*
X110293295Y-132456475D02*
X110293295Y-132608856D01*
X110293295Y-132608856D02*
X110255200Y-132685046D01*
X110255200Y-132685046D02*
X110179009Y-132723142D01*
X110179009Y-132723142D02*
X109874247Y-132723142D01*
X109874247Y-132723142D02*
X109798057Y-132685046D01*
X109798057Y-132685046D02*
X109759961Y-132608856D01*
X109759961Y-132608856D02*
X109759961Y-132456475D01*
X109759961Y-132456475D02*
X109798057Y-132380284D01*
X109798057Y-132380284D02*
X109874247Y-132342189D01*
X109874247Y-132342189D02*
X109950438Y-132342189D01*
X109950438Y-132342189D02*
X110026628Y-132723142D01*
X110293295Y-131885047D02*
X110255200Y-131961237D01*
X110255200Y-131961237D02*
X110179009Y-131999332D01*
X110179009Y-131999332D02*
X109493295Y-131999332D01*
X172122666Y-126518819D02*
X172122666Y-127233104D01*
X172122666Y-127233104D02*
X172075047Y-127375961D01*
X172075047Y-127375961D02*
X171979809Y-127471200D01*
X171979809Y-127471200D02*
X171836952Y-127518819D01*
X171836952Y-127518819D02*
X171741714Y-127518819D01*
X172503619Y-126518819D02*
X173122666Y-126518819D01*
X173122666Y-126518819D02*
X172789333Y-126899771D01*
X172789333Y-126899771D02*
X172932190Y-126899771D01*
X172932190Y-126899771D02*
X173027428Y-126947390D01*
X173027428Y-126947390D02*
X173075047Y-126995009D01*
X173075047Y-126995009D02*
X173122666Y-127090247D01*
X173122666Y-127090247D02*
X173122666Y-127328342D01*
X173122666Y-127328342D02*
X173075047Y-127423580D01*
X173075047Y-127423580D02*
X173027428Y-127471200D01*
X173027428Y-127471200D02*
X172932190Y-127518819D01*
X172932190Y-127518819D02*
X172646476Y-127518819D01*
X172646476Y-127518819D02*
X172551238Y-127471200D01*
X172551238Y-127471200D02*
X172503619Y-127423580D01*
X96607333Y-139637819D02*
X96274000Y-139161628D01*
X96035905Y-139637819D02*
X96035905Y-138637819D01*
X96035905Y-138637819D02*
X96416857Y-138637819D01*
X96416857Y-138637819D02*
X96512095Y-138685438D01*
X96512095Y-138685438D02*
X96559714Y-138733057D01*
X96559714Y-138733057D02*
X96607333Y-138828295D01*
X96607333Y-138828295D02*
X96607333Y-138971152D01*
X96607333Y-138971152D02*
X96559714Y-139066390D01*
X96559714Y-139066390D02*
X96512095Y-139114009D01*
X96512095Y-139114009D02*
X96416857Y-139161628D01*
X96416857Y-139161628D02*
X96035905Y-139161628D01*
X97464476Y-138637819D02*
X97274000Y-138637819D01*
X97274000Y-138637819D02*
X97178762Y-138685438D01*
X97178762Y-138685438D02*
X97131143Y-138733057D01*
X97131143Y-138733057D02*
X97035905Y-138875914D01*
X97035905Y-138875914D02*
X96988286Y-139066390D01*
X96988286Y-139066390D02*
X96988286Y-139447342D01*
X96988286Y-139447342D02*
X97035905Y-139542580D01*
X97035905Y-139542580D02*
X97083524Y-139590200D01*
X97083524Y-139590200D02*
X97178762Y-139637819D01*
X97178762Y-139637819D02*
X97369238Y-139637819D01*
X97369238Y-139637819D02*
X97464476Y-139590200D01*
X97464476Y-139590200D02*
X97512095Y-139542580D01*
X97512095Y-139542580D02*
X97559714Y-139447342D01*
X97559714Y-139447342D02*
X97559714Y-139209247D01*
X97559714Y-139209247D02*
X97512095Y-139114009D01*
X97512095Y-139114009D02*
X97464476Y-139066390D01*
X97464476Y-139066390D02*
X97369238Y-139018771D01*
X97369238Y-139018771D02*
X97178762Y-139018771D01*
X97178762Y-139018771D02*
X97083524Y-139066390D01*
X97083524Y-139066390D02*
X97035905Y-139114009D01*
X97035905Y-139114009D02*
X96988286Y-139209247D01*
X153249333Y-121517580D02*
X153201714Y-121565200D01*
X153201714Y-121565200D02*
X153058857Y-121612819D01*
X153058857Y-121612819D02*
X152963619Y-121612819D01*
X152963619Y-121612819D02*
X152820762Y-121565200D01*
X152820762Y-121565200D02*
X152725524Y-121469961D01*
X152725524Y-121469961D02*
X152677905Y-121374723D01*
X152677905Y-121374723D02*
X152630286Y-121184247D01*
X152630286Y-121184247D02*
X152630286Y-121041390D01*
X152630286Y-121041390D02*
X152677905Y-120850914D01*
X152677905Y-120850914D02*
X152725524Y-120755676D01*
X152725524Y-120755676D02*
X152820762Y-120660438D01*
X152820762Y-120660438D02*
X152963619Y-120612819D01*
X152963619Y-120612819D02*
X153058857Y-120612819D01*
X153058857Y-120612819D02*
X153201714Y-120660438D01*
X153201714Y-120660438D02*
X153249333Y-120708057D01*
X154201714Y-121612819D02*
X153630286Y-121612819D01*
X153916000Y-121612819D02*
X153916000Y-120612819D01*
X153916000Y-120612819D02*
X153820762Y-120755676D01*
X153820762Y-120755676D02*
X153725524Y-120850914D01*
X153725524Y-120850914D02*
X153630286Y-120898533D01*
X111261905Y-137614819D02*
X111261905Y-136614819D01*
X111261905Y-136614819D02*
X111500000Y-136614819D01*
X111500000Y-136614819D02*
X111642857Y-136662438D01*
X111642857Y-136662438D02*
X111738095Y-136757676D01*
X111738095Y-136757676D02*
X111785714Y-136852914D01*
X111785714Y-136852914D02*
X111833333Y-137043390D01*
X111833333Y-137043390D02*
X111833333Y-137186247D01*
X111833333Y-137186247D02*
X111785714Y-137376723D01*
X111785714Y-137376723D02*
X111738095Y-137471961D01*
X111738095Y-137471961D02*
X111642857Y-137567200D01*
X111642857Y-137567200D02*
X111500000Y-137614819D01*
X111500000Y-137614819D02*
X111261905Y-137614819D01*
X112785714Y-137614819D02*
X112214286Y-137614819D01*
X112500000Y-137614819D02*
X112500000Y-136614819D01*
X112500000Y-136614819D02*
X112404762Y-136757676D01*
X112404762Y-136757676D02*
X112309524Y-136852914D01*
X112309524Y-136852914D02*
X112214286Y-136900533D01*
X123923595Y-107342819D02*
X123923595Y-108152342D01*
X123923595Y-108152342D02*
X123971214Y-108247580D01*
X123971214Y-108247580D02*
X124018833Y-108295200D01*
X124018833Y-108295200D02*
X124114071Y-108342819D01*
X124114071Y-108342819D02*
X124304547Y-108342819D01*
X124304547Y-108342819D02*
X124399785Y-108295200D01*
X124399785Y-108295200D02*
X124447404Y-108247580D01*
X124447404Y-108247580D02*
X124495023Y-108152342D01*
X124495023Y-108152342D02*
X124495023Y-107342819D01*
X124875976Y-107342819D02*
X125542642Y-107342819D01*
X125542642Y-107342819D02*
X125114071Y-108342819D01*
X166290666Y-100062819D02*
X166290666Y-100777104D01*
X166290666Y-100777104D02*
X166243047Y-100919961D01*
X166243047Y-100919961D02*
X166147809Y-101015200D01*
X166147809Y-101015200D02*
X166004952Y-101062819D01*
X166004952Y-101062819D02*
X165909714Y-101062819D01*
X166671619Y-100062819D02*
X167338285Y-100062819D01*
X167338285Y-100062819D02*
X166909714Y-101062819D01*
X137691905Y-135074819D02*
X137691905Y-134074819D01*
X137691905Y-134074819D02*
X137930000Y-134074819D01*
X137930000Y-134074819D02*
X138072857Y-134122438D01*
X138072857Y-134122438D02*
X138168095Y-134217676D01*
X138168095Y-134217676D02*
X138215714Y-134312914D01*
X138215714Y-134312914D02*
X138263333Y-134503390D01*
X138263333Y-134503390D02*
X138263333Y-134646247D01*
X138263333Y-134646247D02*
X138215714Y-134836723D01*
X138215714Y-134836723D02*
X138168095Y-134931961D01*
X138168095Y-134931961D02*
X138072857Y-135027200D01*
X138072857Y-135027200D02*
X137930000Y-135074819D01*
X137930000Y-135074819D02*
X137691905Y-135074819D01*
X138644286Y-134170057D02*
X138691905Y-134122438D01*
X138691905Y-134122438D02*
X138787143Y-134074819D01*
X138787143Y-134074819D02*
X139025238Y-134074819D01*
X139025238Y-134074819D02*
X139120476Y-134122438D01*
X139120476Y-134122438D02*
X139168095Y-134170057D01*
X139168095Y-134170057D02*
X139215714Y-134265295D01*
X139215714Y-134265295D02*
X139215714Y-134360533D01*
X139215714Y-134360533D02*
X139168095Y-134503390D01*
X139168095Y-134503390D02*
X138596667Y-135074819D01*
X138596667Y-135074819D02*
X139215714Y-135074819D01*
X170270819Y-121785333D02*
X170985104Y-121785333D01*
X170985104Y-121785333D02*
X171127961Y-121832952D01*
X171127961Y-121832952D02*
X171223200Y-121928190D01*
X171223200Y-121928190D02*
X171270819Y-122071047D01*
X171270819Y-122071047D02*
X171270819Y-122166285D01*
X170270819Y-120880571D02*
X170270819Y-121071047D01*
X170270819Y-121071047D02*
X170318438Y-121166285D01*
X170318438Y-121166285D02*
X170366057Y-121213904D01*
X170366057Y-121213904D02*
X170508914Y-121309142D01*
X170508914Y-121309142D02*
X170699390Y-121356761D01*
X170699390Y-121356761D02*
X171080342Y-121356761D01*
X171080342Y-121356761D02*
X171175580Y-121309142D01*
X171175580Y-121309142D02*
X171223200Y-121261523D01*
X171223200Y-121261523D02*
X171270819Y-121166285D01*
X171270819Y-121166285D02*
X171270819Y-120975809D01*
X171270819Y-120975809D02*
X171223200Y-120880571D01*
X171223200Y-120880571D02*
X171175580Y-120832952D01*
X171175580Y-120832952D02*
X171080342Y-120785333D01*
X171080342Y-120785333D02*
X170842247Y-120785333D01*
X170842247Y-120785333D02*
X170747009Y-120832952D01*
X170747009Y-120832952D02*
X170699390Y-120880571D01*
X170699390Y-120880571D02*
X170651771Y-120975809D01*
X170651771Y-120975809D02*
X170651771Y-121166285D01*
X170651771Y-121166285D02*
X170699390Y-121261523D01*
X170699390Y-121261523D02*
X170747009Y-121309142D01*
X170747009Y-121309142D02*
X170842247Y-121356761D01*
X152177819Y-116266904D02*
X152987342Y-116266904D01*
X152987342Y-116266904D02*
X153082580Y-116219285D01*
X153082580Y-116219285D02*
X153130200Y-116171666D01*
X153130200Y-116171666D02*
X153177819Y-116076428D01*
X153177819Y-116076428D02*
X153177819Y-115885952D01*
X153177819Y-115885952D02*
X153130200Y-115790714D01*
X153130200Y-115790714D02*
X153082580Y-115743095D01*
X153082580Y-115743095D02*
X152987342Y-115695476D01*
X152987342Y-115695476D02*
X152177819Y-115695476D01*
X153177819Y-114695476D02*
X153177819Y-115266904D01*
X153177819Y-114981190D02*
X152177819Y-114981190D01*
X152177819Y-114981190D02*
X152320676Y-115076428D01*
X152320676Y-115076428D02*
X152415914Y-115171666D01*
X152415914Y-115171666D02*
X152463533Y-115266904D01*
X103594819Y-133564189D02*
X104594819Y-133230856D01*
X104594819Y-133230856D02*
X103594819Y-132897523D01*
X104594819Y-132564189D02*
X103928152Y-132564189D01*
X103594819Y-132564189D02*
X103642438Y-132611808D01*
X103642438Y-132611808D02*
X103690057Y-132564189D01*
X103690057Y-132564189D02*
X103642438Y-132516570D01*
X103642438Y-132516570D02*
X103594819Y-132564189D01*
X103594819Y-132564189D02*
X103690057Y-132564189D01*
X104547200Y-132135618D02*
X104594819Y-132040380D01*
X104594819Y-132040380D02*
X104594819Y-131849904D01*
X104594819Y-131849904D02*
X104547200Y-131754666D01*
X104547200Y-131754666D02*
X104451961Y-131707047D01*
X104451961Y-131707047D02*
X104404342Y-131707047D01*
X104404342Y-131707047D02*
X104309104Y-131754666D01*
X104309104Y-131754666D02*
X104261485Y-131849904D01*
X104261485Y-131849904D02*
X104261485Y-131992761D01*
X104261485Y-131992761D02*
X104213866Y-132087999D01*
X104213866Y-132087999D02*
X104118628Y-132135618D01*
X104118628Y-132135618D02*
X104071009Y-132135618D01*
X104071009Y-132135618D02*
X103975771Y-132087999D01*
X103975771Y-132087999D02*
X103928152Y-131992761D01*
X103928152Y-131992761D02*
X103928152Y-131849904D01*
X103928152Y-131849904D02*
X103975771Y-131754666D01*
X115236666Y-123362819D02*
X115236666Y-124077104D01*
X115236666Y-124077104D02*
X115189047Y-124219961D01*
X115189047Y-124219961D02*
X115093809Y-124315200D01*
X115093809Y-124315200D02*
X114950952Y-124362819D01*
X114950952Y-124362819D02*
X114855714Y-124362819D01*
X116236666Y-124362819D02*
X115665238Y-124362819D01*
X115950952Y-124362819D02*
X115950952Y-123362819D01*
X115950952Y-123362819D02*
X115855714Y-123505676D01*
X115855714Y-123505676D02*
X115760476Y-123600914D01*
X115760476Y-123600914D02*
X115665238Y-123648533D01*
X169370476Y-81750819D02*
X169370476Y-82465104D01*
X169370476Y-82465104D02*
X169322857Y-82607961D01*
X169322857Y-82607961D02*
X169227619Y-82703200D01*
X169227619Y-82703200D02*
X169084762Y-82750819D01*
X169084762Y-82750819D02*
X168989524Y-82750819D01*
X170370476Y-82750819D02*
X169799048Y-82750819D01*
X170084762Y-82750819D02*
X170084762Y-81750819D01*
X170084762Y-81750819D02*
X169989524Y-81893676D01*
X169989524Y-81893676D02*
X169894286Y-81988914D01*
X169894286Y-81988914D02*
X169799048Y-82036533D01*
X170989524Y-81750819D02*
X171084762Y-81750819D01*
X171084762Y-81750819D02*
X171180000Y-81798438D01*
X171180000Y-81798438D02*
X171227619Y-81846057D01*
X171227619Y-81846057D02*
X171275238Y-81941295D01*
X171275238Y-81941295D02*
X171322857Y-82131771D01*
X171322857Y-82131771D02*
X171322857Y-82369866D01*
X171322857Y-82369866D02*
X171275238Y-82560342D01*
X171275238Y-82560342D02*
X171227619Y-82655580D01*
X171227619Y-82655580D02*
X171180000Y-82703200D01*
X171180000Y-82703200D02*
X171084762Y-82750819D01*
X171084762Y-82750819D02*
X170989524Y-82750819D01*
X170989524Y-82750819D02*
X170894286Y-82703200D01*
X170894286Y-82703200D02*
X170846667Y-82655580D01*
X170846667Y-82655580D02*
X170799048Y-82560342D01*
X170799048Y-82560342D02*
X170751429Y-82369866D01*
X170751429Y-82369866D02*
X170751429Y-82131771D01*
X170751429Y-82131771D02*
X170799048Y-81941295D01*
X170799048Y-81941295D02*
X170846667Y-81846057D01*
X170846667Y-81846057D02*
X170894286Y-81798438D01*
X170894286Y-81798438D02*
X170989524Y-81750819D01*
X83391476Y-89033819D02*
X83391476Y-89748104D01*
X83391476Y-89748104D02*
X83343857Y-89890961D01*
X83343857Y-89890961D02*
X83248619Y-89986200D01*
X83248619Y-89986200D02*
X83105762Y-90033819D01*
X83105762Y-90033819D02*
X83010524Y-90033819D01*
X84391476Y-90033819D02*
X83820048Y-90033819D01*
X84105762Y-90033819D02*
X84105762Y-89033819D01*
X84105762Y-89033819D02*
X84010524Y-89176676D01*
X84010524Y-89176676D02*
X83915286Y-89271914D01*
X83915286Y-89271914D02*
X83820048Y-89319533D01*
X84772429Y-89129057D02*
X84820048Y-89081438D01*
X84820048Y-89081438D02*
X84915286Y-89033819D01*
X84915286Y-89033819D02*
X85153381Y-89033819D01*
X85153381Y-89033819D02*
X85248619Y-89081438D01*
X85248619Y-89081438D02*
X85296238Y-89129057D01*
X85296238Y-89129057D02*
X85343857Y-89224295D01*
X85343857Y-89224295D02*
X85343857Y-89319533D01*
X85343857Y-89319533D02*
X85296238Y-89462390D01*
X85296238Y-89462390D02*
X84724810Y-90033819D01*
X84724810Y-90033819D02*
X85343857Y-90033819D01*
X107293580Y-132945143D02*
X107341200Y-132992762D01*
X107341200Y-132992762D02*
X107388819Y-133135619D01*
X107388819Y-133135619D02*
X107388819Y-133230857D01*
X107388819Y-133230857D02*
X107341200Y-133373714D01*
X107341200Y-133373714D02*
X107245961Y-133468952D01*
X107245961Y-133468952D02*
X107150723Y-133516571D01*
X107150723Y-133516571D02*
X106960247Y-133564190D01*
X106960247Y-133564190D02*
X106817390Y-133564190D01*
X106817390Y-133564190D02*
X106626914Y-133516571D01*
X106626914Y-133516571D02*
X106531676Y-133468952D01*
X106531676Y-133468952D02*
X106436438Y-133373714D01*
X106436438Y-133373714D02*
X106388819Y-133230857D01*
X106388819Y-133230857D02*
X106388819Y-133135619D01*
X106388819Y-133135619D02*
X106436438Y-132992762D01*
X106436438Y-132992762D02*
X106484057Y-132945143D01*
X107388819Y-132373714D02*
X107341200Y-132468952D01*
X107341200Y-132468952D02*
X107245961Y-132516571D01*
X107245961Y-132516571D02*
X106388819Y-132516571D01*
X107388819Y-131992761D02*
X106388819Y-131992761D01*
X107007866Y-131897523D02*
X107388819Y-131611809D01*
X106722152Y-131611809D02*
X107103104Y-131992761D01*
X124460095Y-97244819D02*
X124460095Y-98054342D01*
X124460095Y-98054342D02*
X124507714Y-98149580D01*
X124507714Y-98149580D02*
X124555333Y-98197200D01*
X124555333Y-98197200D02*
X124650571Y-98244819D01*
X124650571Y-98244819D02*
X124841047Y-98244819D01*
X124841047Y-98244819D02*
X124936285Y-98197200D01*
X124936285Y-98197200D02*
X124983904Y-98149580D01*
X124983904Y-98149580D02*
X125031523Y-98054342D01*
X125031523Y-98054342D02*
X125031523Y-97244819D01*
X125936285Y-97244819D02*
X125745809Y-97244819D01*
X125745809Y-97244819D02*
X125650571Y-97292438D01*
X125650571Y-97292438D02*
X125602952Y-97340057D01*
X125602952Y-97340057D02*
X125507714Y-97482914D01*
X125507714Y-97482914D02*
X125460095Y-97673390D01*
X125460095Y-97673390D02*
X125460095Y-98054342D01*
X125460095Y-98054342D02*
X125507714Y-98149580D01*
X125507714Y-98149580D02*
X125555333Y-98197200D01*
X125555333Y-98197200D02*
X125650571Y-98244819D01*
X125650571Y-98244819D02*
X125841047Y-98244819D01*
X125841047Y-98244819D02*
X125936285Y-98197200D01*
X125936285Y-98197200D02*
X125983904Y-98149580D01*
X125983904Y-98149580D02*
X126031523Y-98054342D01*
X126031523Y-98054342D02*
X126031523Y-97816247D01*
X126031523Y-97816247D02*
X125983904Y-97721009D01*
X125983904Y-97721009D02*
X125936285Y-97673390D01*
X125936285Y-97673390D02*
X125841047Y-97625771D01*
X125841047Y-97625771D02*
X125650571Y-97625771D01*
X125650571Y-97625771D02*
X125555333Y-97673390D01*
X125555333Y-97673390D02*
X125507714Y-97721009D01*
X125507714Y-97721009D02*
X125460095Y-97816247D01*
X164171333Y-121517580D02*
X164123714Y-121565200D01*
X164123714Y-121565200D02*
X163980857Y-121612819D01*
X163980857Y-121612819D02*
X163885619Y-121612819D01*
X163885619Y-121612819D02*
X163742762Y-121565200D01*
X163742762Y-121565200D02*
X163647524Y-121469961D01*
X163647524Y-121469961D02*
X163599905Y-121374723D01*
X163599905Y-121374723D02*
X163552286Y-121184247D01*
X163552286Y-121184247D02*
X163552286Y-121041390D01*
X163552286Y-121041390D02*
X163599905Y-120850914D01*
X163599905Y-120850914D02*
X163647524Y-120755676D01*
X163647524Y-120755676D02*
X163742762Y-120660438D01*
X163742762Y-120660438D02*
X163885619Y-120612819D01*
X163885619Y-120612819D02*
X163980857Y-120612819D01*
X163980857Y-120612819D02*
X164123714Y-120660438D01*
X164123714Y-120660438D02*
X164171333Y-120708057D01*
X164552286Y-120708057D02*
X164599905Y-120660438D01*
X164599905Y-120660438D02*
X164695143Y-120612819D01*
X164695143Y-120612819D02*
X164933238Y-120612819D01*
X164933238Y-120612819D02*
X165028476Y-120660438D01*
X165028476Y-120660438D02*
X165076095Y-120708057D01*
X165076095Y-120708057D02*
X165123714Y-120803295D01*
X165123714Y-120803295D02*
X165123714Y-120898533D01*
X165123714Y-120898533D02*
X165076095Y-121041390D01*
X165076095Y-121041390D02*
X164504667Y-121612819D01*
X164504667Y-121612819D02*
X165123714Y-121612819D01*
X112976819Y-130722666D02*
X112500628Y-131055999D01*
X112976819Y-131294094D02*
X111976819Y-131294094D01*
X111976819Y-131294094D02*
X111976819Y-130913142D01*
X111976819Y-130913142D02*
X112024438Y-130817904D01*
X112024438Y-130817904D02*
X112072057Y-130770285D01*
X112072057Y-130770285D02*
X112167295Y-130722666D01*
X112167295Y-130722666D02*
X112310152Y-130722666D01*
X112310152Y-130722666D02*
X112405390Y-130770285D01*
X112405390Y-130770285D02*
X112453009Y-130817904D01*
X112453009Y-130817904D02*
X112500628Y-130913142D01*
X112500628Y-130913142D02*
X112500628Y-131294094D01*
X111976819Y-130389332D02*
X111976819Y-129770285D01*
X111976819Y-129770285D02*
X112357771Y-130103618D01*
X112357771Y-130103618D02*
X112357771Y-129960761D01*
X112357771Y-129960761D02*
X112405390Y-129865523D01*
X112405390Y-129865523D02*
X112453009Y-129817904D01*
X112453009Y-129817904D02*
X112548247Y-129770285D01*
X112548247Y-129770285D02*
X112786342Y-129770285D01*
X112786342Y-129770285D02*
X112881580Y-129817904D01*
X112881580Y-129817904D02*
X112929200Y-129865523D01*
X112929200Y-129865523D02*
X112976819Y-129960761D01*
X112976819Y-129960761D02*
X112976819Y-130246475D01*
X112976819Y-130246475D02*
X112929200Y-130341713D01*
X112929200Y-130341713D02*
X112881580Y-130389332D01*
X140636666Y-123362819D02*
X140636666Y-124077104D01*
X140636666Y-124077104D02*
X140589047Y-124219961D01*
X140589047Y-124219961D02*
X140493809Y-124315200D01*
X140493809Y-124315200D02*
X140350952Y-124362819D01*
X140350952Y-124362819D02*
X140255714Y-124362819D01*
X141065238Y-123458057D02*
X141112857Y-123410438D01*
X141112857Y-123410438D02*
X141208095Y-123362819D01*
X141208095Y-123362819D02*
X141446190Y-123362819D01*
X141446190Y-123362819D02*
X141541428Y-123410438D01*
X141541428Y-123410438D02*
X141589047Y-123458057D01*
X141589047Y-123458057D02*
X141636666Y-123553295D01*
X141636666Y-123553295D02*
X141636666Y-123648533D01*
X141636666Y-123648533D02*
X141589047Y-123791390D01*
X141589047Y-123791390D02*
X141017619Y-124362819D01*
X141017619Y-124362819D02*
X141636666Y-124362819D01*
X112950666Y-100062819D02*
X112950666Y-100777104D01*
X112950666Y-100777104D02*
X112903047Y-100919961D01*
X112903047Y-100919961D02*
X112807809Y-101015200D01*
X112807809Y-101015200D02*
X112664952Y-101062819D01*
X112664952Y-101062819D02*
X112569714Y-101062819D01*
X113474476Y-101062819D02*
X113664952Y-101062819D01*
X113664952Y-101062819D02*
X113760190Y-101015200D01*
X113760190Y-101015200D02*
X113807809Y-100967580D01*
X113807809Y-100967580D02*
X113903047Y-100824723D01*
X113903047Y-100824723D02*
X113950666Y-100634247D01*
X113950666Y-100634247D02*
X113950666Y-100253295D01*
X113950666Y-100253295D02*
X113903047Y-100158057D01*
X113903047Y-100158057D02*
X113855428Y-100110438D01*
X113855428Y-100110438D02*
X113760190Y-100062819D01*
X113760190Y-100062819D02*
X113569714Y-100062819D01*
X113569714Y-100062819D02*
X113474476Y-100110438D01*
X113474476Y-100110438D02*
X113426857Y-100158057D01*
X113426857Y-100158057D02*
X113379238Y-100253295D01*
X113379238Y-100253295D02*
X113379238Y-100491390D01*
X113379238Y-100491390D02*
X113426857Y-100586628D01*
X113426857Y-100586628D02*
X113474476Y-100634247D01*
X113474476Y-100634247D02*
X113569714Y-100681866D01*
X113569714Y-100681866D02*
X113760190Y-100681866D01*
X113760190Y-100681866D02*
X113855428Y-100634247D01*
X113855428Y-100634247D02*
X113903047Y-100586628D01*
X113903047Y-100586628D02*
X113950666Y-100491390D01*
X137265819Y-110059904D02*
X138075342Y-110059904D01*
X138075342Y-110059904D02*
X138170580Y-110012285D01*
X138170580Y-110012285D02*
X138218200Y-109964666D01*
X138218200Y-109964666D02*
X138265819Y-109869428D01*
X138265819Y-109869428D02*
X138265819Y-109678952D01*
X138265819Y-109678952D02*
X138218200Y-109583714D01*
X138218200Y-109583714D02*
X138170580Y-109536095D01*
X138170580Y-109536095D02*
X138075342Y-109488476D01*
X138075342Y-109488476D02*
X137265819Y-109488476D01*
X137694390Y-108869428D02*
X137646771Y-108964666D01*
X137646771Y-108964666D02*
X137599152Y-109012285D01*
X137599152Y-109012285D02*
X137503914Y-109059904D01*
X137503914Y-109059904D02*
X137456295Y-109059904D01*
X137456295Y-109059904D02*
X137361057Y-109012285D01*
X137361057Y-109012285D02*
X137313438Y-108964666D01*
X137313438Y-108964666D02*
X137265819Y-108869428D01*
X137265819Y-108869428D02*
X137265819Y-108678952D01*
X137265819Y-108678952D02*
X137313438Y-108583714D01*
X137313438Y-108583714D02*
X137361057Y-108536095D01*
X137361057Y-108536095D02*
X137456295Y-108488476D01*
X137456295Y-108488476D02*
X137503914Y-108488476D01*
X137503914Y-108488476D02*
X137599152Y-108536095D01*
X137599152Y-108536095D02*
X137646771Y-108583714D01*
X137646771Y-108583714D02*
X137694390Y-108678952D01*
X137694390Y-108678952D02*
X137694390Y-108869428D01*
X137694390Y-108869428D02*
X137742009Y-108964666D01*
X137742009Y-108964666D02*
X137789628Y-109012285D01*
X137789628Y-109012285D02*
X137884866Y-109059904D01*
X137884866Y-109059904D02*
X138075342Y-109059904D01*
X138075342Y-109059904D02*
X138170580Y-109012285D01*
X138170580Y-109012285D02*
X138218200Y-108964666D01*
X138218200Y-108964666D02*
X138265819Y-108869428D01*
X138265819Y-108869428D02*
X138265819Y-108678952D01*
X138265819Y-108678952D02*
X138218200Y-108583714D01*
X138218200Y-108583714D02*
X138170580Y-108536095D01*
X138170580Y-108536095D02*
X138075342Y-108488476D01*
X138075342Y-108488476D02*
X137884866Y-108488476D01*
X137884866Y-108488476D02*
X137789628Y-108536095D01*
X137789628Y-108536095D02*
X137742009Y-108583714D01*
X137742009Y-108583714D02*
X137694390Y-108678952D01*
X168859580Y-93511666D02*
X168907200Y-93559285D01*
X168907200Y-93559285D02*
X168954819Y-93702142D01*
X168954819Y-93702142D02*
X168954819Y-93797380D01*
X168954819Y-93797380D02*
X168907200Y-93940237D01*
X168907200Y-93940237D02*
X168811961Y-94035475D01*
X168811961Y-94035475D02*
X168716723Y-94083094D01*
X168716723Y-94083094D02*
X168526247Y-94130713D01*
X168526247Y-94130713D02*
X168383390Y-94130713D01*
X168383390Y-94130713D02*
X168192914Y-94083094D01*
X168192914Y-94083094D02*
X168097676Y-94035475D01*
X168097676Y-94035475D02*
X168002438Y-93940237D01*
X168002438Y-93940237D02*
X167954819Y-93797380D01*
X167954819Y-93797380D02*
X167954819Y-93702142D01*
X167954819Y-93702142D02*
X168002438Y-93559285D01*
X168002438Y-93559285D02*
X168050057Y-93511666D01*
X168954819Y-93035475D02*
X168954819Y-92844999D01*
X168954819Y-92844999D02*
X168907200Y-92749761D01*
X168907200Y-92749761D02*
X168859580Y-92702142D01*
X168859580Y-92702142D02*
X168716723Y-92606904D01*
X168716723Y-92606904D02*
X168526247Y-92559285D01*
X168526247Y-92559285D02*
X168145295Y-92559285D01*
X168145295Y-92559285D02*
X168050057Y-92606904D01*
X168050057Y-92606904D02*
X168002438Y-92654523D01*
X168002438Y-92654523D02*
X167954819Y-92749761D01*
X167954819Y-92749761D02*
X167954819Y-92940237D01*
X167954819Y-92940237D02*
X168002438Y-93035475D01*
X168002438Y-93035475D02*
X168050057Y-93083094D01*
X168050057Y-93083094D02*
X168145295Y-93130713D01*
X168145295Y-93130713D02*
X168383390Y-93130713D01*
X168383390Y-93130713D02*
X168478628Y-93083094D01*
X168478628Y-93083094D02*
X168526247Y-93035475D01*
X168526247Y-93035475D02*
X168573866Y-92940237D01*
X168573866Y-92940237D02*
X168573866Y-92749761D01*
X168573866Y-92749761D02*
X168526247Y-92654523D01*
X168526247Y-92654523D02*
X168478628Y-92606904D01*
X168478628Y-92606904D02*
X168383390Y-92559285D01*
X120331666Y-88862819D02*
X120331666Y-89577104D01*
X120331666Y-89577104D02*
X120284047Y-89719961D01*
X120284047Y-89719961D02*
X120188809Y-89815200D01*
X120188809Y-89815200D02*
X120045952Y-89862819D01*
X120045952Y-89862819D02*
X119950714Y-89862819D01*
X121284047Y-88862819D02*
X120807857Y-88862819D01*
X120807857Y-88862819D02*
X120760238Y-89339009D01*
X120760238Y-89339009D02*
X120807857Y-89291390D01*
X120807857Y-89291390D02*
X120903095Y-89243771D01*
X120903095Y-89243771D02*
X121141190Y-89243771D01*
X121141190Y-89243771D02*
X121236428Y-89291390D01*
X121236428Y-89291390D02*
X121284047Y-89339009D01*
X121284047Y-89339009D02*
X121331666Y-89434247D01*
X121331666Y-89434247D02*
X121331666Y-89672342D01*
X121331666Y-89672342D02*
X121284047Y-89767580D01*
X121284047Y-89767580D02*
X121236428Y-89815200D01*
X121236428Y-89815200D02*
X121141190Y-89862819D01*
X121141190Y-89862819D02*
X120903095Y-89862819D01*
X120903095Y-89862819D02*
X120807857Y-89815200D01*
X120807857Y-89815200D02*
X120760238Y-89767580D01*
D12*
%TO.C,J8*%
X156404000Y-126806000D02*
X156404000Y-125476000D01*
X157734000Y-126806000D02*
X156404000Y-126806000D01*
X159004000Y-126806000D02*
X169224000Y-126806000D01*
X159004000Y-126806000D02*
X159004000Y-124146000D01*
X169224000Y-126806000D02*
X169224000Y-124146000D01*
X159004000Y-124146000D02*
X169224000Y-124146000D01*
%TO.C,U2*%
X155378000Y-106680000D02*
X155378000Y-110280000D01*
X155378000Y-106680000D02*
X155378000Y-104480000D01*
X160598000Y-106680000D02*
X160598000Y-108880000D01*
X160598000Y-106680000D02*
X160598000Y-104480000D01*
%TO.C,J4*%
X136818000Y-136582000D02*
X136318000Y-136082000D01*
X136818000Y-135582000D02*
X136818000Y-136582000D01*
X136318000Y-136082000D02*
X136818000Y-135582000D01*
X136123000Y-143492000D02*
X136123000Y-135882000D01*
X136123000Y-143492000D02*
X119393000Y-143492000D01*
X136123000Y-127522000D02*
X136123000Y-133082000D01*
X136123000Y-127522000D02*
X119393000Y-127522000D01*
X119393000Y-143492000D02*
X119393000Y-135882000D01*
X119393000Y-127522000D02*
X119393000Y-133082000D01*
%TO.C,D3*%
X100528000Y-134783000D02*
X98608000Y-134783000D01*
X98608000Y-134783000D02*
X98608000Y-137643000D01*
X100528000Y-137643000D02*
X100528000Y-134783000D01*
%TO.C,R5*%
X84444064Y-81888000D02*
X83989936Y-81888000D01*
X84444064Y-80418000D02*
X83989936Y-80418000D01*
%TO.C,C10*%
X171802248Y-113819000D02*
X172324752Y-113819000D01*
X171802248Y-115289000D02*
X172324752Y-115289000D01*
%TO.C,Clk_{pixel}*%
X108778000Y-129352000D02*
X110678000Y-129352000D01*
X108778000Y-131252000D02*
X108778000Y-129352000D01*
X110678000Y-129352000D02*
X110678000Y-131252000D01*
X110678000Y-131252000D02*
X108778000Y-131252000D01*
%TO.C,J3*%
X143519000Y-128004000D02*
X174489000Y-128004000D01*
X143519000Y-138484000D02*
X143519000Y-128004000D01*
X164294000Y-127109662D02*
X164794000Y-127109662D01*
X164544000Y-127542675D02*
X164294000Y-127109662D01*
X164794000Y-127109662D02*
X164544000Y-127542675D01*
X174489000Y-128004000D02*
X174489000Y-138484000D01*
%TO.C,R6*%
X97509000Y-136399936D02*
X97509000Y-136854064D01*
X96039000Y-136399936D02*
X96039000Y-136854064D01*
%TO.C,C1*%
X156598252Y-121893000D02*
X156075748Y-121893000D01*
X156598252Y-120423000D02*
X156075748Y-120423000D01*
%TO.C,D1*%
X113606000Y-138370000D02*
X113606000Y-140090000D01*
X113606000Y-140090000D02*
X117026000Y-140090000D01*
X113726000Y-138370000D02*
X113726000Y-140090000D01*
X113846000Y-138370000D02*
X113846000Y-140090000D01*
X114046000Y-138240000D02*
X114046000Y-138240000D01*
X114046000Y-138240000D02*
X114046000Y-138370000D01*
X114046000Y-138370000D02*
X114046000Y-138240000D01*
X114046000Y-138370000D02*
X114046000Y-138370000D01*
X114356000Y-140090000D02*
X114356000Y-141490000D01*
X114356000Y-141490000D02*
X116276000Y-141490000D01*
X116276000Y-140090000D02*
X114356000Y-140090000D01*
X116276000Y-141490000D02*
X116276000Y-140090000D01*
X116586000Y-138240000D02*
X116586000Y-138240000D01*
X116586000Y-138240000D02*
X116586000Y-138370000D01*
X116586000Y-138370000D02*
X116586000Y-138240000D01*
X116586000Y-138370000D02*
X116586000Y-138370000D01*
X117026000Y-138370000D02*
X113606000Y-138370000D01*
X117026000Y-140090000D02*
X117026000Y-138370000D01*
D13*
%TO.C,U7*%
X116281300Y-101488000D02*
X116281300Y-119268000D01*
X116916300Y-119903000D02*
X133426300Y-119903000D01*
D12*
X118186300Y-99583000D02*
X116281300Y-101488000D01*
X119295500Y-103820218D02*
X119295500Y-104103000D01*
X119295500Y-116838000D02*
X119295500Y-115383000D01*
X120467718Y-102648000D02*
X119295500Y-103820218D01*
X120750500Y-102648000D02*
X120467718Y-102648000D01*
X120750500Y-116838000D02*
X119295500Y-116838000D01*
X129490500Y-102648000D02*
X130945500Y-102648000D01*
X129490500Y-116838000D02*
X130945500Y-116838000D01*
X130945500Y-102648000D02*
X130945500Y-104103000D01*
X130945500Y-116838000D02*
X130945500Y-115383000D01*
D13*
X133426300Y-99583000D02*
X118186300Y-99583000D01*
X134061300Y-119268000D02*
X134061300Y-100218000D01*
D12*
X116281300Y-119268000D02*
G75*
G03*
X116916300Y-119903000I634999J-1D01*
G01*
X134061300Y-100218000D02*
G75*
G03*
X133426300Y-99583000I-635000J0D01*
G01*
X133426300Y-119903000D02*
G75*
G03*
X134061300Y-119268000I0J635000D01*
G01*
D14*
X125166505Y-99033000D02*
G75*
G03*
X124966495Y-99033000I-100005J0D01*
G01*
X124966495Y-99033000D02*
G75*
G03*
X125166505Y-99033000I100005J0D01*
G01*
D12*
%TO.C,J7*%
X165294000Y-104648000D02*
X165294000Y-119948000D01*
X165294000Y-104648000D02*
X167954000Y-104648000D01*
X165294000Y-119948000D02*
X167954000Y-119948000D01*
X166624000Y-102048000D02*
X167954000Y-102048000D01*
X167954000Y-102048000D02*
X167954000Y-103378000D01*
X167954000Y-104648000D02*
X167954000Y-119948000D01*
%TO.C,D2*%
X138498000Y-138370000D02*
X138498000Y-140090000D01*
X138498000Y-140090000D02*
X141918000Y-140090000D01*
X138618000Y-138370000D02*
X138618000Y-140090000D01*
X138738000Y-138370000D02*
X138738000Y-140090000D01*
X138938000Y-138240000D02*
X138938000Y-138240000D01*
X138938000Y-138240000D02*
X138938000Y-138370000D01*
X138938000Y-138370000D02*
X138938000Y-138240000D01*
X138938000Y-138370000D02*
X138938000Y-138370000D01*
X139248000Y-140090000D02*
X139248000Y-141490000D01*
X139248000Y-141490000D02*
X141168000Y-141490000D01*
X141168000Y-140090000D02*
X139248000Y-140090000D01*
X141168000Y-141490000D02*
X141168000Y-140090000D01*
X141478000Y-138240000D02*
X141478000Y-138240000D01*
X141478000Y-138240000D02*
X141478000Y-138370000D01*
X141478000Y-138370000D02*
X141478000Y-138240000D01*
X141478000Y-138370000D02*
X141478000Y-138370000D01*
X141918000Y-138370000D02*
X138498000Y-138370000D01*
X141918000Y-140090000D02*
X141918000Y-138370000D01*
%TO.C,J6*%
X172166000Y-125352000D02*
X172166000Y-124902000D01*
X174016000Y-125352000D02*
X172166000Y-125352000D01*
X176566000Y-125352000D02*
X176316000Y-125352000D01*
X171616000Y-123152000D02*
X172066000Y-123152000D01*
X171616000Y-123152000D02*
X171616000Y-122702000D01*
X172166000Y-117552000D02*
X172166000Y-118002000D01*
X174016000Y-117552000D02*
X172166000Y-117552000D01*
X176566000Y-117552000D02*
X176316000Y-117552000D01*
%TO.C,U1*%
X153563000Y-115505000D02*
X153563000Y-118955000D01*
X153563000Y-115505000D02*
X153563000Y-113555000D01*
X163683000Y-115505000D02*
X163683000Y-117455000D01*
X163683000Y-115505000D02*
X163683000Y-113555000D01*
%TO.C,U4*%
X103251000Y-82931000D02*
X88011000Y-82931000D01*
X88011000Y-82931000D02*
X88011000Y-90551000D01*
X108331000Y-90551000D02*
X103251000Y-90551000D01*
X108331000Y-90551000D02*
X108331000Y-128651000D01*
X105791000Y-90551000D02*
X105791000Y-128651000D01*
X103251000Y-90551000D02*
X103251000Y-82931000D01*
X103251000Y-90551000D02*
X88011000Y-90551000D01*
X88011000Y-90551000D02*
X82931000Y-90551000D01*
X85471000Y-90551000D02*
X85471000Y-128651000D01*
X82931000Y-90551000D02*
X82931000Y-128651000D01*
X82931000Y-128651000D02*
X108331000Y-128651000D01*
%TO.C,Vis*%
X103190000Y-129352000D02*
X105090000Y-129352000D01*
X103190000Y-131252000D02*
X103190000Y-129352000D01*
X105090000Y-129352000D02*
X105090000Y-131252000D01*
X105090000Y-131252000D02*
X103190000Y-131252000D01*
%TO.C,J1*%
X114240000Y-124908000D02*
X115570000Y-124908000D01*
X114240000Y-126238000D02*
X114240000Y-124908000D01*
X114240000Y-127508000D02*
X114240000Y-135188000D01*
X114240000Y-127508000D02*
X116900000Y-127508000D01*
X114240000Y-135188000D02*
X116900000Y-135188000D01*
X116900000Y-127508000D02*
X116900000Y-135188000D01*
%TO.C,J10*%
X173353000Y-82168000D02*
X173353000Y-83378000D01*
X174023000Y-83378000D02*
X173353000Y-83378000D01*
X174023000Y-83378000D02*
X174023000Y-86038000D01*
X171833000Y-83378000D02*
X168273000Y-83378000D01*
X166753000Y-83378000D02*
X163193000Y-83378000D01*
X161673000Y-83378000D02*
X158113000Y-83378000D01*
X156593000Y-83378000D02*
X153033000Y-83378000D01*
X151513000Y-83378000D02*
X147953000Y-83378000D01*
X146433000Y-83378000D02*
X142873000Y-83378000D01*
X141353000Y-83378000D02*
X138143000Y-83378000D01*
X138143000Y-83378000D02*
X138143000Y-86038000D01*
X174023000Y-86038000D02*
X170813000Y-86038000D01*
X169293000Y-86038000D02*
X165733000Y-86038000D01*
X164213000Y-86038000D02*
X160653000Y-86038000D01*
X159133000Y-86038000D02*
X155573000Y-86038000D01*
X154053000Y-86038000D02*
X150493000Y-86038000D01*
X148973000Y-86038000D02*
X145413000Y-86038000D01*
X143893000Y-86038000D02*
X140333000Y-86038000D01*
X138813000Y-86038000D02*
X138143000Y-86038000D01*
%TO.C,J12*%
X85531000Y-88579000D02*
X84201000Y-88579000D01*
X85531000Y-87249000D02*
X85531000Y-88579000D01*
X85531000Y-85979000D02*
X85531000Y-83379000D01*
X85531000Y-85979000D02*
X82871000Y-85979000D01*
X85531000Y-83379000D02*
X82871000Y-83379000D01*
X82871000Y-85979000D02*
X82871000Y-83379000D01*
%TO.C,Clk*%
X105984000Y-129352000D02*
X107884000Y-129352000D01*
X105984000Y-131252000D02*
X105984000Y-129352000D01*
X107884000Y-129352000D02*
X107884000Y-131252000D01*
X107884000Y-131252000D02*
X105984000Y-131252000D01*
%TO.C,U6*%
X120269000Y-98254000D02*
X123869000Y-98254000D01*
X120269000Y-98254000D02*
X118069000Y-98254000D01*
X120269000Y-91484000D02*
X122469000Y-91484000D01*
X120269000Y-91484000D02*
X118069000Y-91484000D01*
%TO.C,C2*%
X161826752Y-121893000D02*
X161304248Y-121893000D01*
X161826752Y-120423000D02*
X161304248Y-120423000D01*
%TO.C,R3*%
X111787000Y-133815064D02*
X111787000Y-133360936D01*
X113257000Y-133815064D02*
X113257000Y-133360936D01*
%TO.C,J2*%
X139640000Y-124908000D02*
X140970000Y-124908000D01*
X139640000Y-126238000D02*
X139640000Y-124908000D01*
X139640000Y-127508000D02*
X139640000Y-135188000D01*
X139640000Y-127508000D02*
X142300000Y-127508000D01*
X139640000Y-135188000D02*
X142300000Y-135188000D01*
X142300000Y-127508000D02*
X142300000Y-135188000D01*
%TO.C,J9*%
X111954000Y-104648000D02*
X111954000Y-119948000D01*
X111954000Y-104648000D02*
X114614000Y-104648000D01*
X111954000Y-119948000D02*
X114614000Y-119948000D01*
X113284000Y-102048000D02*
X114614000Y-102048000D01*
X114614000Y-102048000D02*
X114614000Y-103378000D01*
X114614000Y-104648000D02*
X114614000Y-119948000D01*
%TO.C,U8*%
X138651000Y-113158000D02*
X138886000Y-113158000D01*
X138886000Y-113158000D02*
X138886000Y-114973000D01*
X151671000Y-113158000D02*
X151436000Y-113158000D01*
X138651000Y-109298000D02*
X138651000Y-113158000D01*
X138651000Y-109298000D02*
X138651000Y-105438000D01*
X151671000Y-109298000D02*
X151671000Y-113158000D01*
X151671000Y-109298000D02*
X151671000Y-105438000D01*
X138651000Y-105438000D02*
X138886000Y-105438000D01*
X151671000Y-105438000D02*
X151436000Y-105438000D01*
%TO.C,C9*%
X169445000Y-93606252D02*
X169445000Y-93083748D01*
X170915000Y-93606252D02*
X170915000Y-93083748D01*
%TO.C,J5*%
X136150000Y-88445331D02*
X105180000Y-88445331D01*
X136150000Y-74195331D02*
X136150000Y-88445331D01*
X116600000Y-88979669D02*
X116100000Y-88979669D01*
X116350000Y-88546656D02*
X116600000Y-88979669D01*
X116100000Y-88979669D02*
X116350000Y-88546656D01*
X105180000Y-88445331D02*
X105180000Y-74195331D01*
%TD*%
M02*
