%TF.GenerationSoftware,KiCad,Pcbnew,7.0.10*%
%TF.CreationDate,2024-02-26T12:00:29-08:00*%
%TF.ProjectId,vgaterm-bottom,76676174-6572-46d2-9d62-6f74746f6d2e,rev?*%
%TF.SameCoordinates,Original*%
%TF.FileFunction,Legend,Bot*%
%TF.FilePolarity,Positive*%
%FSLAX46Y46*%
G04 Gerber Fmt 4.6, Leading zero omitted, Abs format (unit mm)*
G04 Created by KiCad (PCBNEW 7.0.10) date 2024-02-26 12:00:29*
%MOMM*%
%LPD*%
G01*
G04 APERTURE LIST*
%ADD10C,0.150000*%
%ADD11C,0.120000*%
G04 APERTURE END LIST*
D10*
X120650000Y-79756000D02*
X120904000Y-80264000D01*
X122936000Y-79756000D02*
X123190000Y-80264000D01*
X123190000Y-80264000D02*
X123444000Y-79756000D01*
X120904000Y-80264000D02*
X121158000Y-79756000D01*
X167894000Y-82550000D02*
X167640000Y-82804000D01*
X167640000Y-82804000D02*
X167386000Y-82550000D01*
G36*
X127274085Y-79412956D02*
G01*
X122794736Y-79412956D01*
X122794736Y-78820694D01*
X122937593Y-78820694D01*
X122957996Y-78867765D01*
X122978917Y-78883282D01*
X123074155Y-78930901D01*
X123078608Y-78931413D01*
X123082044Y-78934296D01*
X123107696Y-78938819D01*
X123298172Y-78938819D01*
X123302385Y-78937285D01*
X123306746Y-78938327D01*
X123331713Y-78930901D01*
X123426951Y-78883282D01*
X123428075Y-78882094D01*
X123446444Y-78869232D01*
X123451857Y-78863819D01*
X123842220Y-78863819D01*
X123859767Y-78912028D01*
X123904196Y-78937680D01*
X123954720Y-78928771D01*
X123987697Y-78889471D01*
X123992220Y-78863819D01*
X123992220Y-78357714D01*
X124020740Y-78300672D01*
X124077782Y-78272152D01*
X124185229Y-78272152D01*
X124253745Y-78306410D01*
X124270791Y-78323456D01*
X124270791Y-78863819D01*
X124288338Y-78912028D01*
X124332767Y-78937680D01*
X124383291Y-78928771D01*
X124416268Y-78889471D01*
X124420791Y-78863819D01*
X124420791Y-78197152D01*
X124420626Y-78196698D01*
X124651745Y-78196698D01*
X124656113Y-78222377D01*
X124894208Y-78889044D01*
X124894516Y-78889415D01*
X124894519Y-78889896D01*
X124894933Y-78890384D01*
X124895203Y-78891673D01*
X124990441Y-79129768D01*
X124991911Y-79131412D01*
X124992104Y-79133610D01*
X125007044Y-79154947D01*
X125054663Y-79202566D01*
X125056144Y-79203257D01*
X125074155Y-79216615D01*
X125169393Y-79264234D01*
X125220359Y-79270099D01*
X125263172Y-79241833D01*
X125277799Y-79192658D01*
X125257396Y-79145587D01*
X125236475Y-79130070D01*
X125152123Y-79087894D01*
X125123995Y-79059766D01*
X125045015Y-78862316D01*
X125112506Y-78673342D01*
X125461268Y-78673342D01*
X125462801Y-78677555D01*
X125461760Y-78681916D01*
X125469186Y-78706883D01*
X125516805Y-78802121D01*
X125517993Y-78803246D01*
X125530853Y-78821612D01*
X125578472Y-78869232D01*
X125579953Y-78869922D01*
X125597965Y-78883282D01*
X125693203Y-78930901D01*
X125697656Y-78931413D01*
X125701092Y-78934296D01*
X125726744Y-78938819D01*
X125964839Y-78938819D01*
X125966377Y-78938258D01*
X125988556Y-78934970D01*
X126131413Y-78887351D01*
X126171599Y-78855460D01*
X126181885Y-78805199D01*
X126157456Y-78760085D01*
X126109744Y-78741228D01*
X126083978Y-78745049D01*
X125952669Y-78788819D01*
X125744449Y-78788819D01*
X125675933Y-78754561D01*
X125645526Y-78724153D01*
X125611268Y-78655637D01*
X125611268Y-78595809D01*
X125645526Y-78527293D01*
X125675933Y-78496886D01*
X125752920Y-78458392D01*
X125935410Y-78412770D01*
X125938354Y-78410781D01*
X125950761Y-78407091D01*
X126045999Y-78359472D01*
X126047124Y-78358282D01*
X126065491Y-78345423D01*
X126113110Y-78297804D01*
X126113801Y-78296322D01*
X126127159Y-78278312D01*
X126174778Y-78183074D01*
X126175290Y-78178620D01*
X126178173Y-78175185D01*
X126182696Y-78149533D01*
X126182696Y-78054295D01*
X126181162Y-78050081D01*
X126182204Y-78045720D01*
X126174778Y-78020754D01*
X126127159Y-77925516D01*
X126125969Y-77924390D01*
X126113110Y-77906024D01*
X126068856Y-77861770D01*
X126318439Y-77861770D01*
X126322260Y-77887536D01*
X126655593Y-78887536D01*
X126656935Y-78889227D01*
X126656994Y-78891386D01*
X126672743Y-78909147D01*
X126687484Y-78927722D01*
X126689597Y-78928154D01*
X126691031Y-78929771D01*
X126714501Y-78933251D01*
X126737745Y-78938008D01*
X126739644Y-78936979D01*
X126741780Y-78937296D01*
X126761993Y-78924877D01*
X126782859Y-78913579D01*
X126783652Y-78911571D01*
X126785492Y-78910441D01*
X126797895Y-78887536D01*
X127131228Y-77887536D01*
X127129827Y-77836253D01*
X127095789Y-77797867D01*
X127045041Y-77790342D01*
X127001328Y-77817197D01*
X126988926Y-77840102D01*
X126726744Y-78626648D01*
X126464562Y-77840102D01*
X126432671Y-77799916D01*
X126382410Y-77789630D01*
X126337296Y-77814059D01*
X126318439Y-77861770D01*
X126068856Y-77861770D01*
X126065491Y-77858405D01*
X126064009Y-77857714D01*
X126045999Y-77844356D01*
X125950761Y-77796737D01*
X125946307Y-77796224D01*
X125942872Y-77793342D01*
X125917220Y-77788819D01*
X125679125Y-77788819D01*
X125677587Y-77789378D01*
X125655407Y-77792668D01*
X125512551Y-77840287D01*
X125472365Y-77872178D01*
X125462079Y-77922439D01*
X125486508Y-77967553D01*
X125534219Y-77986410D01*
X125559985Y-77982589D01*
X125691295Y-77938819D01*
X125899515Y-77938819D01*
X125968031Y-77973077D01*
X125998438Y-78003484D01*
X126032696Y-78072000D01*
X126032696Y-78131828D01*
X125998438Y-78200344D01*
X125968031Y-78230751D01*
X125891044Y-78269244D01*
X125708554Y-78314867D01*
X125705609Y-78316855D01*
X125693203Y-78320546D01*
X125597965Y-78368165D01*
X125596839Y-78369354D01*
X125578473Y-78382214D01*
X125530854Y-78429833D01*
X125530163Y-78431314D01*
X125516805Y-78449325D01*
X125469186Y-78544563D01*
X125468673Y-78549016D01*
X125465791Y-78552452D01*
X125461268Y-78578104D01*
X125461268Y-78673342D01*
X125112506Y-78673342D01*
X125273565Y-78222377D01*
X125273254Y-78171075D01*
X125240041Y-78131975D01*
X125189464Y-78123372D01*
X125145190Y-78149291D01*
X125132303Y-78171927D01*
X124964839Y-78640826D01*
X124797375Y-78171927D01*
X124764635Y-78132428D01*
X124714167Y-78123214D01*
X124669583Y-78148597D01*
X124651745Y-78196698D01*
X124420626Y-78196698D01*
X124403244Y-78148943D01*
X124358815Y-78123291D01*
X124308291Y-78132200D01*
X124288324Y-78155994D01*
X124236475Y-78130070D01*
X124232021Y-78129557D01*
X124228586Y-78126675D01*
X124202934Y-78122152D01*
X124060077Y-78122152D01*
X124055863Y-78123685D01*
X124051502Y-78122644D01*
X124026536Y-78130070D01*
X123931298Y-78177689D01*
X123923578Y-78185842D01*
X123913274Y-78190309D01*
X123897757Y-78211230D01*
X123850138Y-78306468D01*
X123849625Y-78310921D01*
X123846743Y-78314357D01*
X123842220Y-78340009D01*
X123842220Y-78863819D01*
X123451857Y-78863819D01*
X123494062Y-78821613D01*
X123494752Y-78820131D01*
X123508111Y-78802121D01*
X123555730Y-78706883D01*
X123556242Y-78702429D01*
X123559125Y-78698994D01*
X123563648Y-78673342D01*
X123563648Y-78387628D01*
X123562114Y-78383414D01*
X123563156Y-78379053D01*
X123555730Y-78354087D01*
X123508111Y-78258849D01*
X123506921Y-78257723D01*
X123494062Y-78239357D01*
X123446443Y-78191738D01*
X123444961Y-78191047D01*
X123426951Y-78177689D01*
X123331713Y-78130070D01*
X123327259Y-78129557D01*
X123323824Y-78126675D01*
X123298172Y-78122152D01*
X123107696Y-78122152D01*
X123103482Y-78123685D01*
X123099121Y-78122644D01*
X123074155Y-78130070D01*
X122978917Y-78177689D01*
X122943645Y-78214943D01*
X122940570Y-78266154D01*
X122971134Y-78307359D01*
X123021032Y-78319279D01*
X123045999Y-78311853D01*
X123125401Y-78272152D01*
X123280467Y-78272152D01*
X123348983Y-78306410D01*
X123379390Y-78336817D01*
X123413648Y-78405333D01*
X123413648Y-78655637D01*
X123379389Y-78724153D01*
X123348982Y-78754561D01*
X123280467Y-78788819D01*
X123125401Y-78788819D01*
X123045999Y-78749118D01*
X122995032Y-78743253D01*
X122952219Y-78771519D01*
X122937593Y-78820694D01*
X122794736Y-78820694D01*
X122794736Y-77645962D01*
X127274085Y-77645962D01*
X127274085Y-79412956D01*
G37*
X95405411Y-130485438D02*
X95500649Y-130437819D01*
X95500649Y-130437819D02*
X95643506Y-130437819D01*
X95643506Y-130437819D02*
X95786363Y-130485438D01*
X95786363Y-130485438D02*
X95881601Y-130580676D01*
X95881601Y-130580676D02*
X95929220Y-130675914D01*
X95929220Y-130675914D02*
X95976839Y-130866390D01*
X95976839Y-130866390D02*
X95976839Y-131009247D01*
X95976839Y-131009247D02*
X95929220Y-131199723D01*
X95929220Y-131199723D02*
X95881601Y-131294961D01*
X95881601Y-131294961D02*
X95786363Y-131390200D01*
X95786363Y-131390200D02*
X95643506Y-131437819D01*
X95643506Y-131437819D02*
X95548268Y-131437819D01*
X95548268Y-131437819D02*
X95405411Y-131390200D01*
X95405411Y-131390200D02*
X95357792Y-131342580D01*
X95357792Y-131342580D02*
X95357792Y-131009247D01*
X95357792Y-131009247D02*
X95548268Y-131009247D01*
X94929220Y-131437819D02*
X94929220Y-130437819D01*
X94929220Y-130437819D02*
X94357792Y-131437819D01*
X94357792Y-131437819D02*
X94357792Y-130437819D01*
X93881601Y-131437819D02*
X93881601Y-130437819D01*
X93881601Y-130437819D02*
X93643506Y-130437819D01*
X93643506Y-130437819D02*
X93500649Y-130485438D01*
X93500649Y-130485438D02*
X93405411Y-130580676D01*
X93405411Y-130580676D02*
X93357792Y-130675914D01*
X93357792Y-130675914D02*
X93310173Y-130866390D01*
X93310173Y-130866390D02*
X93310173Y-131009247D01*
X93310173Y-131009247D02*
X93357792Y-131199723D01*
X93357792Y-131199723D02*
X93405411Y-131294961D01*
X93405411Y-131294961D02*
X93500649Y-131390200D01*
X93500649Y-131390200D02*
X93643506Y-131437819D01*
X93643506Y-131437819D02*
X93881601Y-131437819D01*
X96072077Y-132047819D02*
X95738744Y-133047819D01*
X95738744Y-133047819D02*
X95405411Y-132047819D01*
X94500649Y-132952580D02*
X94548268Y-133000200D01*
X94548268Y-133000200D02*
X94691125Y-133047819D01*
X94691125Y-133047819D02*
X94786363Y-133047819D01*
X94786363Y-133047819D02*
X94929220Y-133000200D01*
X94929220Y-133000200D02*
X95024458Y-132904961D01*
X95024458Y-132904961D02*
X95072077Y-132809723D01*
X95072077Y-132809723D02*
X95119696Y-132619247D01*
X95119696Y-132619247D02*
X95119696Y-132476390D01*
X95119696Y-132476390D02*
X95072077Y-132285914D01*
X95072077Y-132285914D02*
X95024458Y-132190676D01*
X95024458Y-132190676D02*
X94929220Y-132095438D01*
X94929220Y-132095438D02*
X94786363Y-132047819D01*
X94786363Y-132047819D02*
X94691125Y-132047819D01*
X94691125Y-132047819D02*
X94548268Y-132095438D01*
X94548268Y-132095438D02*
X94500649Y-132143057D01*
X93500649Y-132952580D02*
X93548268Y-133000200D01*
X93548268Y-133000200D02*
X93691125Y-133047819D01*
X93691125Y-133047819D02*
X93786363Y-133047819D01*
X93786363Y-133047819D02*
X93929220Y-133000200D01*
X93929220Y-133000200D02*
X94024458Y-132904961D01*
X94024458Y-132904961D02*
X94072077Y-132809723D01*
X94072077Y-132809723D02*
X94119696Y-132619247D01*
X94119696Y-132619247D02*
X94119696Y-132476390D01*
X94119696Y-132476390D02*
X94072077Y-132285914D01*
X94072077Y-132285914D02*
X94024458Y-132190676D01*
X94024458Y-132190676D02*
X93929220Y-132095438D01*
X93929220Y-132095438D02*
X93786363Y-132047819D01*
X93786363Y-132047819D02*
X93691125Y-132047819D01*
X93691125Y-132047819D02*
X93548268Y-132095438D01*
X93548268Y-132095438D02*
X93500649Y-132143057D01*
X96072077Y-133657819D02*
X95500649Y-133657819D01*
X95786363Y-134657819D02*
X95786363Y-133657819D01*
X95262553Y-134657819D02*
X94738744Y-133991152D01*
X95262553Y-133991152D02*
X94738744Y-134657819D01*
X95357792Y-136267819D02*
X95691125Y-135791628D01*
X95929220Y-136267819D02*
X95929220Y-135267819D01*
X95929220Y-135267819D02*
X95548268Y-135267819D01*
X95548268Y-135267819D02*
X95453030Y-135315438D01*
X95453030Y-135315438D02*
X95405411Y-135363057D01*
X95405411Y-135363057D02*
X95357792Y-135458295D01*
X95357792Y-135458295D02*
X95357792Y-135601152D01*
X95357792Y-135601152D02*
X95405411Y-135696390D01*
X95405411Y-135696390D02*
X95453030Y-135744009D01*
X95453030Y-135744009D02*
X95548268Y-135791628D01*
X95548268Y-135791628D02*
X95929220Y-135791628D01*
X95024458Y-136267819D02*
X94500649Y-135601152D01*
X95024458Y-135601152D02*
X94500649Y-136267819D01*
X118265411Y-87817438D02*
X118360649Y-87769819D01*
X118360649Y-87769819D02*
X118503506Y-87769819D01*
X118503506Y-87769819D02*
X118646363Y-87817438D01*
X118646363Y-87817438D02*
X118741601Y-87912676D01*
X118741601Y-87912676D02*
X118789220Y-88007914D01*
X118789220Y-88007914D02*
X118836839Y-88198390D01*
X118836839Y-88198390D02*
X118836839Y-88341247D01*
X118836839Y-88341247D02*
X118789220Y-88531723D01*
X118789220Y-88531723D02*
X118741601Y-88626961D01*
X118741601Y-88626961D02*
X118646363Y-88722200D01*
X118646363Y-88722200D02*
X118503506Y-88769819D01*
X118503506Y-88769819D02*
X118408268Y-88769819D01*
X118408268Y-88769819D02*
X118265411Y-88722200D01*
X118265411Y-88722200D02*
X118217792Y-88674580D01*
X118217792Y-88674580D02*
X118217792Y-88341247D01*
X118217792Y-88341247D02*
X118408268Y-88341247D01*
X165715792Y-82165819D02*
X166049125Y-81689628D01*
X166287220Y-82165819D02*
X166287220Y-81165819D01*
X166287220Y-81165819D02*
X165906268Y-81165819D01*
X165906268Y-81165819D02*
X165811030Y-81213438D01*
X165811030Y-81213438D02*
X165763411Y-81261057D01*
X165763411Y-81261057D02*
X165715792Y-81356295D01*
X165715792Y-81356295D02*
X165715792Y-81499152D01*
X165715792Y-81499152D02*
X165763411Y-81594390D01*
X165763411Y-81594390D02*
X165811030Y-81642009D01*
X165811030Y-81642009D02*
X165906268Y-81689628D01*
X165906268Y-81689628D02*
X166287220Y-81689628D01*
X164763411Y-81213438D02*
X164858649Y-81165819D01*
X164858649Y-81165819D02*
X165001506Y-81165819D01*
X165001506Y-81165819D02*
X165144363Y-81213438D01*
X165144363Y-81213438D02*
X165239601Y-81308676D01*
X165239601Y-81308676D02*
X165287220Y-81403914D01*
X165287220Y-81403914D02*
X165334839Y-81594390D01*
X165334839Y-81594390D02*
X165334839Y-81737247D01*
X165334839Y-81737247D02*
X165287220Y-81927723D01*
X165287220Y-81927723D02*
X165239601Y-82022961D01*
X165239601Y-82022961D02*
X165144363Y-82118200D01*
X165144363Y-82118200D02*
X165001506Y-82165819D01*
X165001506Y-82165819D02*
X164906268Y-82165819D01*
X164906268Y-82165819D02*
X164763411Y-82118200D01*
X164763411Y-82118200D02*
X164715792Y-82070580D01*
X164715792Y-82070580D02*
X164715792Y-81737247D01*
X164715792Y-81737247D02*
X164906268Y-81737247D01*
X163953887Y-81642009D02*
X163811030Y-81689628D01*
X163811030Y-81689628D02*
X163763411Y-81737247D01*
X163763411Y-81737247D02*
X163715792Y-81832485D01*
X163715792Y-81832485D02*
X163715792Y-81975342D01*
X163715792Y-81975342D02*
X163763411Y-82070580D01*
X163763411Y-82070580D02*
X163811030Y-82118200D01*
X163811030Y-82118200D02*
X163906268Y-82165819D01*
X163906268Y-82165819D02*
X164287220Y-82165819D01*
X164287220Y-82165819D02*
X164287220Y-81165819D01*
X164287220Y-81165819D02*
X163953887Y-81165819D01*
X163953887Y-81165819D02*
X163858649Y-81213438D01*
X163858649Y-81213438D02*
X163811030Y-81261057D01*
X163811030Y-81261057D02*
X163763411Y-81356295D01*
X163763411Y-81356295D02*
X163763411Y-81451533D01*
X163763411Y-81451533D02*
X163811030Y-81546771D01*
X163811030Y-81546771D02*
X163858649Y-81594390D01*
X163858649Y-81594390D02*
X163953887Y-81642009D01*
X163953887Y-81642009D02*
X164287220Y-81642009D01*
X85975819Y-130130779D02*
X84975819Y-130130779D01*
X85975819Y-130702207D02*
X85404390Y-130273636D01*
X84975819Y-130702207D02*
X85547247Y-130130779D01*
X85452009Y-131464112D02*
X85499628Y-131606969D01*
X85499628Y-131606969D02*
X85547247Y-131654588D01*
X85547247Y-131654588D02*
X85642485Y-131702207D01*
X85642485Y-131702207D02*
X85785342Y-131702207D01*
X85785342Y-131702207D02*
X85880580Y-131654588D01*
X85880580Y-131654588D02*
X85928200Y-131606969D01*
X85928200Y-131606969D02*
X85975819Y-131511731D01*
X85975819Y-131511731D02*
X85975819Y-131130779D01*
X85975819Y-131130779D02*
X84975819Y-131130779D01*
X84975819Y-131130779D02*
X84975819Y-131464112D01*
X84975819Y-131464112D02*
X85023438Y-131559350D01*
X85023438Y-131559350D02*
X85071057Y-131606969D01*
X85071057Y-131606969D02*
X85166295Y-131654588D01*
X85166295Y-131654588D02*
X85261533Y-131654588D01*
X85261533Y-131654588D02*
X85356771Y-131606969D01*
X85356771Y-131606969D02*
X85404390Y-131559350D01*
X85404390Y-131559350D02*
X85452009Y-131464112D01*
X85452009Y-131464112D02*
X85452009Y-131130779D01*
X169319411Y-81213438D02*
X169414649Y-81165819D01*
X169414649Y-81165819D02*
X169557506Y-81165819D01*
X169557506Y-81165819D02*
X169700363Y-81213438D01*
X169700363Y-81213438D02*
X169795601Y-81308676D01*
X169795601Y-81308676D02*
X169843220Y-81403914D01*
X169843220Y-81403914D02*
X169890839Y-81594390D01*
X169890839Y-81594390D02*
X169890839Y-81737247D01*
X169890839Y-81737247D02*
X169843220Y-81927723D01*
X169843220Y-81927723D02*
X169795601Y-82022961D01*
X169795601Y-82022961D02*
X169700363Y-82118200D01*
X169700363Y-82118200D02*
X169557506Y-82165819D01*
X169557506Y-82165819D02*
X169462268Y-82165819D01*
X169462268Y-82165819D02*
X169319411Y-82118200D01*
X169319411Y-82118200D02*
X169271792Y-82070580D01*
X169271792Y-82070580D02*
X169271792Y-81737247D01*
X169271792Y-81737247D02*
X169462268Y-81737247D01*
X168843220Y-82165819D02*
X168843220Y-81165819D01*
X168843220Y-81165819D02*
X168271792Y-82165819D01*
X168271792Y-82165819D02*
X168271792Y-81165819D01*
X167795601Y-82165819D02*
X167795601Y-81165819D01*
X167795601Y-81165819D02*
X167557506Y-81165819D01*
X167557506Y-81165819D02*
X167414649Y-81213438D01*
X167414649Y-81213438D02*
X167319411Y-81308676D01*
X167319411Y-81308676D02*
X167271792Y-81403914D01*
X167271792Y-81403914D02*
X167224173Y-81594390D01*
X167224173Y-81594390D02*
X167224173Y-81737247D01*
X167224173Y-81737247D02*
X167271792Y-81927723D01*
X167271792Y-81927723D02*
X167319411Y-82022961D01*
X167319411Y-82022961D02*
X167414649Y-82118200D01*
X167414649Y-82118200D02*
X167557506Y-82165819D01*
X167557506Y-82165819D02*
X167795601Y-82165819D01*
X120741887Y-88246009D02*
X120599030Y-88293628D01*
X120599030Y-88293628D02*
X120551411Y-88341247D01*
X120551411Y-88341247D02*
X120503792Y-88436485D01*
X120503792Y-88436485D02*
X120503792Y-88579342D01*
X120503792Y-88579342D02*
X120551411Y-88674580D01*
X120551411Y-88674580D02*
X120599030Y-88722200D01*
X120599030Y-88722200D02*
X120694268Y-88769819D01*
X120694268Y-88769819D02*
X121075220Y-88769819D01*
X121075220Y-88769819D02*
X121075220Y-87769819D01*
X121075220Y-87769819D02*
X120741887Y-87769819D01*
X120741887Y-87769819D02*
X120646649Y-87817438D01*
X120646649Y-87817438D02*
X120599030Y-87865057D01*
X120599030Y-87865057D02*
X120551411Y-87960295D01*
X120551411Y-87960295D02*
X120551411Y-88055533D01*
X120551411Y-88055533D02*
X120599030Y-88150771D01*
X120599030Y-88150771D02*
X120646649Y-88198390D01*
X120646649Y-88198390D02*
X120741887Y-88246009D01*
X120741887Y-88246009D02*
X121075220Y-88246009D01*
G36*
X121547077Y-79412956D02*
G01*
X117016260Y-79412956D01*
X117016260Y-78820694D01*
X117159117Y-78820694D01*
X117179520Y-78867765D01*
X117200441Y-78883282D01*
X117295679Y-78930901D01*
X117300132Y-78931413D01*
X117303568Y-78934296D01*
X117329220Y-78938819D01*
X117519696Y-78938819D01*
X117523909Y-78937285D01*
X117528270Y-78938327D01*
X117553237Y-78930901D01*
X117648475Y-78883282D01*
X117649599Y-78882094D01*
X117667968Y-78869232D01*
X117673381Y-78863819D01*
X118063744Y-78863819D01*
X118081291Y-78912028D01*
X118125720Y-78937680D01*
X118176244Y-78928771D01*
X118209221Y-78889471D01*
X118213744Y-78863819D01*
X118213744Y-78357714D01*
X118242264Y-78300672D01*
X118299306Y-78272152D01*
X118406753Y-78272152D01*
X118475269Y-78306410D01*
X118492315Y-78323456D01*
X118492315Y-78863819D01*
X118509862Y-78912028D01*
X118554291Y-78937680D01*
X118604815Y-78928771D01*
X118637792Y-78889471D01*
X118642315Y-78863819D01*
X118642315Y-78197152D01*
X118642150Y-78196698D01*
X118873269Y-78196698D01*
X118877637Y-78222377D01*
X119115732Y-78889044D01*
X119116040Y-78889415D01*
X119116043Y-78889896D01*
X119116457Y-78890384D01*
X119116727Y-78891673D01*
X119211965Y-79129768D01*
X119213435Y-79131412D01*
X119213628Y-79133610D01*
X119228568Y-79154947D01*
X119276187Y-79202566D01*
X119277668Y-79203257D01*
X119295679Y-79216615D01*
X119390917Y-79264234D01*
X119441883Y-79270099D01*
X119484696Y-79241833D01*
X119499323Y-79192658D01*
X119478920Y-79145587D01*
X119457999Y-79130070D01*
X119373647Y-79087894D01*
X119345519Y-79059766D01*
X119266539Y-78862316D01*
X119334030Y-78673342D01*
X119682792Y-78673342D01*
X119684325Y-78677555D01*
X119683284Y-78681916D01*
X119690710Y-78706883D01*
X119738329Y-78802121D01*
X119739517Y-78803246D01*
X119752377Y-78821612D01*
X119799996Y-78869232D01*
X119801477Y-78869922D01*
X119819489Y-78883282D01*
X119914727Y-78930901D01*
X119919180Y-78931413D01*
X119922616Y-78934296D01*
X119948268Y-78938819D01*
X120186363Y-78938819D01*
X120187901Y-78938258D01*
X120210080Y-78934970D01*
X120352937Y-78887351D01*
X120382590Y-78863819D01*
X120682792Y-78863819D01*
X120700339Y-78912028D01*
X120744768Y-78937680D01*
X120795292Y-78928771D01*
X120828269Y-78889471D01*
X120832792Y-78863819D01*
X120832792Y-78415009D01*
X121254220Y-78415009D01*
X121254220Y-78863819D01*
X121271767Y-78912028D01*
X121316196Y-78937680D01*
X121366720Y-78928771D01*
X121399697Y-78889471D01*
X121404220Y-78863819D01*
X121404220Y-77863819D01*
X121386673Y-77815610D01*
X121342244Y-77789958D01*
X121291720Y-77798867D01*
X121258743Y-77838167D01*
X121254220Y-77863819D01*
X121254220Y-78265009D01*
X120832792Y-78265009D01*
X120832792Y-77863819D01*
X120815245Y-77815610D01*
X120770816Y-77789958D01*
X120720292Y-77798867D01*
X120687315Y-77838167D01*
X120682792Y-77863819D01*
X120682792Y-78863819D01*
X120382590Y-78863819D01*
X120393123Y-78855460D01*
X120403409Y-78805199D01*
X120378980Y-78760085D01*
X120331268Y-78741228D01*
X120305502Y-78745049D01*
X120174193Y-78788819D01*
X119965973Y-78788819D01*
X119897457Y-78754561D01*
X119867050Y-78724153D01*
X119832792Y-78655637D01*
X119832792Y-78595809D01*
X119867050Y-78527293D01*
X119897457Y-78496886D01*
X119974444Y-78458392D01*
X120156934Y-78412770D01*
X120159878Y-78410781D01*
X120172285Y-78407091D01*
X120267523Y-78359472D01*
X120268648Y-78358282D01*
X120287015Y-78345423D01*
X120334634Y-78297804D01*
X120335325Y-78296322D01*
X120348683Y-78278312D01*
X120396302Y-78183074D01*
X120396814Y-78178620D01*
X120399697Y-78175185D01*
X120404220Y-78149533D01*
X120404220Y-78054295D01*
X120402686Y-78050081D01*
X120403728Y-78045720D01*
X120396302Y-78020754D01*
X120348683Y-77925516D01*
X120347493Y-77924390D01*
X120334634Y-77906024D01*
X120287015Y-77858405D01*
X120285533Y-77857714D01*
X120267523Y-77844356D01*
X120172285Y-77796737D01*
X120167831Y-77796224D01*
X120164396Y-77793342D01*
X120138744Y-77788819D01*
X119900649Y-77788819D01*
X119899111Y-77789378D01*
X119876931Y-77792668D01*
X119734075Y-77840287D01*
X119693889Y-77872178D01*
X119683603Y-77922439D01*
X119708032Y-77967553D01*
X119755743Y-77986410D01*
X119781509Y-77982589D01*
X119912819Y-77938819D01*
X120121039Y-77938819D01*
X120189555Y-77973077D01*
X120219962Y-78003484D01*
X120254220Y-78072000D01*
X120254220Y-78131828D01*
X120219962Y-78200344D01*
X120189555Y-78230751D01*
X120112568Y-78269244D01*
X119930078Y-78314867D01*
X119927133Y-78316855D01*
X119914727Y-78320546D01*
X119819489Y-78368165D01*
X119818363Y-78369354D01*
X119799997Y-78382214D01*
X119752378Y-78429833D01*
X119751687Y-78431314D01*
X119738329Y-78449325D01*
X119690710Y-78544563D01*
X119690197Y-78549016D01*
X119687315Y-78552452D01*
X119682792Y-78578104D01*
X119682792Y-78673342D01*
X119334030Y-78673342D01*
X119495089Y-78222377D01*
X119494778Y-78171075D01*
X119461565Y-78131975D01*
X119410988Y-78123372D01*
X119366714Y-78149291D01*
X119353827Y-78171927D01*
X119186363Y-78640826D01*
X119018899Y-78171927D01*
X118986159Y-78132428D01*
X118935691Y-78123214D01*
X118891107Y-78148597D01*
X118873269Y-78196698D01*
X118642150Y-78196698D01*
X118624768Y-78148943D01*
X118580339Y-78123291D01*
X118529815Y-78132200D01*
X118509848Y-78155994D01*
X118457999Y-78130070D01*
X118453545Y-78129557D01*
X118450110Y-78126675D01*
X118424458Y-78122152D01*
X118281601Y-78122152D01*
X118277387Y-78123685D01*
X118273026Y-78122644D01*
X118248060Y-78130070D01*
X118152822Y-78177689D01*
X118145102Y-78185842D01*
X118134798Y-78190309D01*
X118119281Y-78211230D01*
X118071662Y-78306468D01*
X118071149Y-78310921D01*
X118068267Y-78314357D01*
X118063744Y-78340009D01*
X118063744Y-78863819D01*
X117673381Y-78863819D01*
X117715586Y-78821613D01*
X117716276Y-78820131D01*
X117729635Y-78802121D01*
X117777254Y-78706883D01*
X117777766Y-78702429D01*
X117780649Y-78698994D01*
X117785172Y-78673342D01*
X117785172Y-78387628D01*
X117783638Y-78383414D01*
X117784680Y-78379053D01*
X117777254Y-78354087D01*
X117729635Y-78258849D01*
X117728445Y-78257723D01*
X117715586Y-78239357D01*
X117667967Y-78191738D01*
X117666485Y-78191047D01*
X117648475Y-78177689D01*
X117553237Y-78130070D01*
X117548783Y-78129557D01*
X117545348Y-78126675D01*
X117519696Y-78122152D01*
X117329220Y-78122152D01*
X117325006Y-78123685D01*
X117320645Y-78122644D01*
X117295679Y-78130070D01*
X117200441Y-78177689D01*
X117165169Y-78214943D01*
X117162094Y-78266154D01*
X117192658Y-78307359D01*
X117242556Y-78319279D01*
X117267523Y-78311853D01*
X117346925Y-78272152D01*
X117501991Y-78272152D01*
X117570507Y-78306410D01*
X117600914Y-78336817D01*
X117635172Y-78405333D01*
X117635172Y-78655637D01*
X117600913Y-78724153D01*
X117570506Y-78754561D01*
X117501991Y-78788819D01*
X117346925Y-78788819D01*
X117267523Y-78749118D01*
X117216556Y-78743253D01*
X117173743Y-78771519D01*
X117159117Y-78820694D01*
X117016260Y-78820694D01*
X117016260Y-77645962D01*
X121547077Y-77645962D01*
X121547077Y-79412956D01*
G37*
X115931792Y-88769819D02*
X116265125Y-88293628D01*
X116503220Y-88769819D02*
X116503220Y-87769819D01*
X116503220Y-87769819D02*
X116122268Y-87769819D01*
X116122268Y-87769819D02*
X116027030Y-87817438D01*
X116027030Y-87817438D02*
X115979411Y-87865057D01*
X115979411Y-87865057D02*
X115931792Y-87960295D01*
X115931792Y-87960295D02*
X115931792Y-88103152D01*
X115931792Y-88103152D02*
X115979411Y-88198390D01*
X115979411Y-88198390D02*
X116027030Y-88246009D01*
X116027030Y-88246009D02*
X116122268Y-88293628D01*
X116122268Y-88293628D02*
X116503220Y-88293628D01*
X165488857Y-129232819D02*
X165822190Y-128756628D01*
X166060285Y-129232819D02*
X166060285Y-128232819D01*
X166060285Y-128232819D02*
X165679333Y-128232819D01*
X165679333Y-128232819D02*
X165584095Y-128280438D01*
X165584095Y-128280438D02*
X165536476Y-128328057D01*
X165536476Y-128328057D02*
X165488857Y-128423295D01*
X165488857Y-128423295D02*
X165488857Y-128566152D01*
X165488857Y-128566152D02*
X165536476Y-128661390D01*
X165536476Y-128661390D02*
X165584095Y-128709009D01*
X165584095Y-128709009D02*
X165679333Y-128756628D01*
X165679333Y-128756628D02*
X166060285Y-128756628D01*
X164536476Y-129232819D02*
X165107904Y-129232819D01*
X164822190Y-129232819D02*
X164822190Y-128232819D01*
X164822190Y-128232819D02*
X164917428Y-128375676D01*
X164917428Y-128375676D02*
X165012666Y-128470914D01*
X165012666Y-128470914D02*
X165107904Y-128518533D01*
X163917428Y-128232819D02*
X163822190Y-128232819D01*
X163822190Y-128232819D02*
X163726952Y-128280438D01*
X163726952Y-128280438D02*
X163679333Y-128328057D01*
X163679333Y-128328057D02*
X163631714Y-128423295D01*
X163631714Y-128423295D02*
X163584095Y-128613771D01*
X163584095Y-128613771D02*
X163584095Y-128851866D01*
X163584095Y-128851866D02*
X163631714Y-129042342D01*
X163631714Y-129042342D02*
X163679333Y-129137580D01*
X163679333Y-129137580D02*
X163726952Y-129185200D01*
X163726952Y-129185200D02*
X163822190Y-129232819D01*
X163822190Y-129232819D02*
X163917428Y-129232819D01*
X163917428Y-129232819D02*
X164012666Y-129185200D01*
X164012666Y-129185200D02*
X164060285Y-129137580D01*
X164060285Y-129137580D02*
X164107904Y-129042342D01*
X164107904Y-129042342D02*
X164155523Y-128851866D01*
X164155523Y-128851866D02*
X164155523Y-128613771D01*
X164155523Y-128613771D02*
X164107904Y-128423295D01*
X164107904Y-128423295D02*
X164060285Y-128328057D01*
X164060285Y-128328057D02*
X164012666Y-128280438D01*
X164012666Y-128280438D02*
X163917428Y-128232819D01*
X105356819Y-113657142D02*
X104880628Y-113323809D01*
X105356819Y-113085714D02*
X104356819Y-113085714D01*
X104356819Y-113085714D02*
X104356819Y-113466666D01*
X104356819Y-113466666D02*
X104404438Y-113561904D01*
X104404438Y-113561904D02*
X104452057Y-113609523D01*
X104452057Y-113609523D02*
X104547295Y-113657142D01*
X104547295Y-113657142D02*
X104690152Y-113657142D01*
X104690152Y-113657142D02*
X104785390Y-113609523D01*
X104785390Y-113609523D02*
X104833009Y-113561904D01*
X104833009Y-113561904D02*
X104880628Y-113466666D01*
X104880628Y-113466666D02*
X104880628Y-113085714D01*
X105356819Y-114609523D02*
X105356819Y-114038095D01*
X105356819Y-114323809D02*
X104356819Y-114323809D01*
X104356819Y-114323809D02*
X104499676Y-114228571D01*
X104499676Y-114228571D02*
X104594914Y-114133333D01*
X104594914Y-114133333D02*
X104642533Y-114038095D01*
X105356819Y-115561904D02*
X105356819Y-114990476D01*
X105356819Y-115276190D02*
X104356819Y-115276190D01*
X104356819Y-115276190D02*
X104499676Y-115180952D01*
X104499676Y-115180952D02*
X104594914Y-115085714D01*
X104594914Y-115085714D02*
X104642533Y-114990476D01*
X141485580Y-104756833D02*
X141533200Y-104709214D01*
X141533200Y-104709214D02*
X141580819Y-104566357D01*
X141580819Y-104566357D02*
X141580819Y-104471119D01*
X141580819Y-104471119D02*
X141533200Y-104328262D01*
X141533200Y-104328262D02*
X141437961Y-104233024D01*
X141437961Y-104233024D02*
X141342723Y-104185405D01*
X141342723Y-104185405D02*
X141152247Y-104137786D01*
X141152247Y-104137786D02*
X141009390Y-104137786D01*
X141009390Y-104137786D02*
X140818914Y-104185405D01*
X140818914Y-104185405D02*
X140723676Y-104233024D01*
X140723676Y-104233024D02*
X140628438Y-104328262D01*
X140628438Y-104328262D02*
X140580819Y-104471119D01*
X140580819Y-104471119D02*
X140580819Y-104566357D01*
X140580819Y-104566357D02*
X140628438Y-104709214D01*
X140628438Y-104709214D02*
X140676057Y-104756833D01*
X141009390Y-105328262D02*
X140961771Y-105233024D01*
X140961771Y-105233024D02*
X140914152Y-105185405D01*
X140914152Y-105185405D02*
X140818914Y-105137786D01*
X140818914Y-105137786D02*
X140771295Y-105137786D01*
X140771295Y-105137786D02*
X140676057Y-105185405D01*
X140676057Y-105185405D02*
X140628438Y-105233024D01*
X140628438Y-105233024D02*
X140580819Y-105328262D01*
X140580819Y-105328262D02*
X140580819Y-105518738D01*
X140580819Y-105518738D02*
X140628438Y-105613976D01*
X140628438Y-105613976D02*
X140676057Y-105661595D01*
X140676057Y-105661595D02*
X140771295Y-105709214D01*
X140771295Y-105709214D02*
X140818914Y-105709214D01*
X140818914Y-105709214D02*
X140914152Y-105661595D01*
X140914152Y-105661595D02*
X140961771Y-105613976D01*
X140961771Y-105613976D02*
X141009390Y-105518738D01*
X141009390Y-105518738D02*
X141009390Y-105328262D01*
X141009390Y-105328262D02*
X141057009Y-105233024D01*
X141057009Y-105233024D02*
X141104628Y-105185405D01*
X141104628Y-105185405D02*
X141199866Y-105137786D01*
X141199866Y-105137786D02*
X141390342Y-105137786D01*
X141390342Y-105137786D02*
X141485580Y-105185405D01*
X141485580Y-105185405D02*
X141533200Y-105233024D01*
X141533200Y-105233024D02*
X141580819Y-105328262D01*
X141580819Y-105328262D02*
X141580819Y-105518738D01*
X141580819Y-105518738D02*
X141533200Y-105613976D01*
X141533200Y-105613976D02*
X141485580Y-105661595D01*
X141485580Y-105661595D02*
X141390342Y-105709214D01*
X141390342Y-105709214D02*
X141199866Y-105709214D01*
X141199866Y-105709214D02*
X141104628Y-105661595D01*
X141104628Y-105661595D02*
X141057009Y-105613976D01*
X141057009Y-105613976D02*
X141009390Y-105518738D01*
X126184819Y-126071333D02*
X125708628Y-125738000D01*
X126184819Y-125499905D02*
X125184819Y-125499905D01*
X125184819Y-125499905D02*
X125184819Y-125880857D01*
X125184819Y-125880857D02*
X125232438Y-125976095D01*
X125232438Y-125976095D02*
X125280057Y-126023714D01*
X125280057Y-126023714D02*
X125375295Y-126071333D01*
X125375295Y-126071333D02*
X125518152Y-126071333D01*
X125518152Y-126071333D02*
X125613390Y-126023714D01*
X125613390Y-126023714D02*
X125661009Y-125976095D01*
X125661009Y-125976095D02*
X125708628Y-125880857D01*
X125708628Y-125880857D02*
X125708628Y-125499905D01*
X125280057Y-126452286D02*
X125232438Y-126499905D01*
X125232438Y-126499905D02*
X125184819Y-126595143D01*
X125184819Y-126595143D02*
X125184819Y-126833238D01*
X125184819Y-126833238D02*
X125232438Y-126928476D01*
X125232438Y-126928476D02*
X125280057Y-126976095D01*
X125280057Y-126976095D02*
X125375295Y-127023714D01*
X125375295Y-127023714D02*
X125470533Y-127023714D01*
X125470533Y-127023714D02*
X125613390Y-126976095D01*
X125613390Y-126976095D02*
X126184819Y-126404667D01*
X126184819Y-126404667D02*
X126184819Y-127023714D01*
X147232666Y-119580819D02*
X147565999Y-119104628D01*
X147804094Y-119580819D02*
X147804094Y-118580819D01*
X147804094Y-118580819D02*
X147423142Y-118580819D01*
X147423142Y-118580819D02*
X147327904Y-118628438D01*
X147327904Y-118628438D02*
X147280285Y-118676057D01*
X147280285Y-118676057D02*
X147232666Y-118771295D01*
X147232666Y-118771295D02*
X147232666Y-118914152D01*
X147232666Y-118914152D02*
X147280285Y-119009390D01*
X147280285Y-119009390D02*
X147327904Y-119057009D01*
X147327904Y-119057009D02*
X147423142Y-119104628D01*
X147423142Y-119104628D02*
X147804094Y-119104628D01*
X146756475Y-119580819D02*
X146565999Y-119580819D01*
X146565999Y-119580819D02*
X146470761Y-119533200D01*
X146470761Y-119533200D02*
X146423142Y-119485580D01*
X146423142Y-119485580D02*
X146327904Y-119342723D01*
X146327904Y-119342723D02*
X146280285Y-119152247D01*
X146280285Y-119152247D02*
X146280285Y-118771295D01*
X146280285Y-118771295D02*
X146327904Y-118676057D01*
X146327904Y-118676057D02*
X146375523Y-118628438D01*
X146375523Y-118628438D02*
X146470761Y-118580819D01*
X146470761Y-118580819D02*
X146661237Y-118580819D01*
X146661237Y-118580819D02*
X146756475Y-118628438D01*
X146756475Y-118628438D02*
X146804094Y-118676057D01*
X146804094Y-118676057D02*
X146851713Y-118771295D01*
X146851713Y-118771295D02*
X146851713Y-119009390D01*
X146851713Y-119009390D02*
X146804094Y-119104628D01*
X146804094Y-119104628D02*
X146756475Y-119152247D01*
X146756475Y-119152247D02*
X146661237Y-119199866D01*
X146661237Y-119199866D02*
X146470761Y-119199866D01*
X146470761Y-119199866D02*
X146375523Y-119152247D01*
X146375523Y-119152247D02*
X146327904Y-119104628D01*
X146327904Y-119104628D02*
X146280285Y-119009390D01*
X152095580Y-104513142D02*
X152143200Y-104465523D01*
X152143200Y-104465523D02*
X152190819Y-104322666D01*
X152190819Y-104322666D02*
X152190819Y-104227428D01*
X152190819Y-104227428D02*
X152143200Y-104084571D01*
X152143200Y-104084571D02*
X152047961Y-103989333D01*
X152047961Y-103989333D02*
X151952723Y-103941714D01*
X151952723Y-103941714D02*
X151762247Y-103894095D01*
X151762247Y-103894095D02*
X151619390Y-103894095D01*
X151619390Y-103894095D02*
X151428914Y-103941714D01*
X151428914Y-103941714D02*
X151333676Y-103989333D01*
X151333676Y-103989333D02*
X151238438Y-104084571D01*
X151238438Y-104084571D02*
X151190819Y-104227428D01*
X151190819Y-104227428D02*
X151190819Y-104322666D01*
X151190819Y-104322666D02*
X151238438Y-104465523D01*
X151238438Y-104465523D02*
X151286057Y-104513142D01*
X152190819Y-105465523D02*
X152190819Y-104894095D01*
X152190819Y-105179809D02*
X151190819Y-105179809D01*
X151190819Y-105179809D02*
X151333676Y-105084571D01*
X151333676Y-105084571D02*
X151428914Y-104989333D01*
X151428914Y-104989333D02*
X151476533Y-104894095D01*
X151286057Y-105846476D02*
X151238438Y-105894095D01*
X151238438Y-105894095D02*
X151190819Y-105989333D01*
X151190819Y-105989333D02*
X151190819Y-106227428D01*
X151190819Y-106227428D02*
X151238438Y-106322666D01*
X151238438Y-106322666D02*
X151286057Y-106370285D01*
X151286057Y-106370285D02*
X151381295Y-106417904D01*
X151381295Y-106417904D02*
X151476533Y-106417904D01*
X151476533Y-106417904D02*
X151619390Y-106370285D01*
X151619390Y-106370285D02*
X152190819Y-105798857D01*
X152190819Y-105798857D02*
X152190819Y-106417904D01*
X129613819Y-126325333D02*
X129137628Y-125992000D01*
X129613819Y-125753905D02*
X128613819Y-125753905D01*
X128613819Y-125753905D02*
X128613819Y-126134857D01*
X128613819Y-126134857D02*
X128661438Y-126230095D01*
X128661438Y-126230095D02*
X128709057Y-126277714D01*
X128709057Y-126277714D02*
X128804295Y-126325333D01*
X128804295Y-126325333D02*
X128947152Y-126325333D01*
X128947152Y-126325333D02*
X129042390Y-126277714D01*
X129042390Y-126277714D02*
X129090009Y-126230095D01*
X129090009Y-126230095D02*
X129137628Y-126134857D01*
X129137628Y-126134857D02*
X129137628Y-125753905D01*
X129613819Y-127277714D02*
X129613819Y-126706286D01*
X129613819Y-126992000D02*
X128613819Y-126992000D01*
X128613819Y-126992000D02*
X128756676Y-126896762D01*
X128756676Y-126896762D02*
X128851914Y-126801524D01*
X128851914Y-126801524D02*
X128899533Y-126706286D01*
X114869166Y-98501580D02*
X114916785Y-98549200D01*
X114916785Y-98549200D02*
X115059642Y-98596819D01*
X115059642Y-98596819D02*
X115154880Y-98596819D01*
X115154880Y-98596819D02*
X115297737Y-98549200D01*
X115297737Y-98549200D02*
X115392975Y-98453961D01*
X115392975Y-98453961D02*
X115440594Y-98358723D01*
X115440594Y-98358723D02*
X115488213Y-98168247D01*
X115488213Y-98168247D02*
X115488213Y-98025390D01*
X115488213Y-98025390D02*
X115440594Y-97834914D01*
X115440594Y-97834914D02*
X115392975Y-97739676D01*
X115392975Y-97739676D02*
X115297737Y-97644438D01*
X115297737Y-97644438D02*
X115154880Y-97596819D01*
X115154880Y-97596819D02*
X115059642Y-97596819D01*
X115059642Y-97596819D02*
X114916785Y-97644438D01*
X114916785Y-97644438D02*
X114869166Y-97692057D01*
X114012023Y-97596819D02*
X114202499Y-97596819D01*
X114202499Y-97596819D02*
X114297737Y-97644438D01*
X114297737Y-97644438D02*
X114345356Y-97692057D01*
X114345356Y-97692057D02*
X114440594Y-97834914D01*
X114440594Y-97834914D02*
X114488213Y-98025390D01*
X114488213Y-98025390D02*
X114488213Y-98406342D01*
X114488213Y-98406342D02*
X114440594Y-98501580D01*
X114440594Y-98501580D02*
X114392975Y-98549200D01*
X114392975Y-98549200D02*
X114297737Y-98596819D01*
X114297737Y-98596819D02*
X114107261Y-98596819D01*
X114107261Y-98596819D02*
X114012023Y-98549200D01*
X114012023Y-98549200D02*
X113964404Y-98501580D01*
X113964404Y-98501580D02*
X113916785Y-98406342D01*
X113916785Y-98406342D02*
X113916785Y-98168247D01*
X113916785Y-98168247D02*
X113964404Y-98073009D01*
X113964404Y-98073009D02*
X114012023Y-98025390D01*
X114012023Y-98025390D02*
X114107261Y-97977771D01*
X114107261Y-97977771D02*
X114297737Y-97977771D01*
X114297737Y-97977771D02*
X114392975Y-98025390D01*
X114392975Y-98025390D02*
X114440594Y-98073009D01*
X114440594Y-98073009D02*
X114488213Y-98168247D01*
X98824166Y-122181580D02*
X98871785Y-122229200D01*
X98871785Y-122229200D02*
X99014642Y-122276819D01*
X99014642Y-122276819D02*
X99109880Y-122276819D01*
X99109880Y-122276819D02*
X99252737Y-122229200D01*
X99252737Y-122229200D02*
X99347975Y-122133961D01*
X99347975Y-122133961D02*
X99395594Y-122038723D01*
X99395594Y-122038723D02*
X99443213Y-121848247D01*
X99443213Y-121848247D02*
X99443213Y-121705390D01*
X99443213Y-121705390D02*
X99395594Y-121514914D01*
X99395594Y-121514914D02*
X99347975Y-121419676D01*
X99347975Y-121419676D02*
X99252737Y-121324438D01*
X99252737Y-121324438D02*
X99109880Y-121276819D01*
X99109880Y-121276819D02*
X99014642Y-121276819D01*
X99014642Y-121276819D02*
X98871785Y-121324438D01*
X98871785Y-121324438D02*
X98824166Y-121372057D01*
X97919404Y-121276819D02*
X98395594Y-121276819D01*
X98395594Y-121276819D02*
X98443213Y-121753009D01*
X98443213Y-121753009D02*
X98395594Y-121705390D01*
X98395594Y-121705390D02*
X98300356Y-121657771D01*
X98300356Y-121657771D02*
X98062261Y-121657771D01*
X98062261Y-121657771D02*
X97967023Y-121705390D01*
X97967023Y-121705390D02*
X97919404Y-121753009D01*
X97919404Y-121753009D02*
X97871785Y-121848247D01*
X97871785Y-121848247D02*
X97871785Y-122086342D01*
X97871785Y-122086342D02*
X97919404Y-122181580D01*
X97919404Y-122181580D02*
X97967023Y-122229200D01*
X97967023Y-122229200D02*
X98062261Y-122276819D01*
X98062261Y-122276819D02*
X98300356Y-122276819D01*
X98300356Y-122276819D02*
X98395594Y-122229200D01*
X98395594Y-122229200D02*
X98443213Y-122181580D01*
X174037523Y-85560819D02*
X174037523Y-86275104D01*
X174037523Y-86275104D02*
X174085142Y-86417961D01*
X174085142Y-86417961D02*
X174180380Y-86513200D01*
X174180380Y-86513200D02*
X174323237Y-86560819D01*
X174323237Y-86560819D02*
X174418475Y-86560819D01*
X173037523Y-86560819D02*
X173608951Y-86560819D01*
X173323237Y-86560819D02*
X173323237Y-85560819D01*
X173323237Y-85560819D02*
X173418475Y-85703676D01*
X173418475Y-85703676D02*
X173513713Y-85798914D01*
X173513713Y-85798914D02*
X173608951Y-85846533D01*
X172085142Y-86560819D02*
X172656570Y-86560819D01*
X172370856Y-86560819D02*
X172370856Y-85560819D01*
X172370856Y-85560819D02*
X172466094Y-85703676D01*
X172466094Y-85703676D02*
X172561332Y-85798914D01*
X172561332Y-85798914D02*
X172656570Y-85846533D01*
X163837580Y-121985833D02*
X163885200Y-121938214D01*
X163885200Y-121938214D02*
X163932819Y-121795357D01*
X163932819Y-121795357D02*
X163932819Y-121700119D01*
X163932819Y-121700119D02*
X163885200Y-121557262D01*
X163885200Y-121557262D02*
X163789961Y-121462024D01*
X163789961Y-121462024D02*
X163694723Y-121414405D01*
X163694723Y-121414405D02*
X163504247Y-121366786D01*
X163504247Y-121366786D02*
X163361390Y-121366786D01*
X163361390Y-121366786D02*
X163170914Y-121414405D01*
X163170914Y-121414405D02*
X163075676Y-121462024D01*
X163075676Y-121462024D02*
X162980438Y-121557262D01*
X162980438Y-121557262D02*
X162932819Y-121700119D01*
X162932819Y-121700119D02*
X162932819Y-121795357D01*
X162932819Y-121795357D02*
X162980438Y-121938214D01*
X162980438Y-121938214D02*
X163028057Y-121985833D01*
X163266152Y-122842976D02*
X163932819Y-122842976D01*
X162885200Y-122604881D02*
X163599485Y-122366786D01*
X163599485Y-122366786D02*
X163599485Y-122985833D01*
X150060819Y-130643333D02*
X149584628Y-130310000D01*
X150060819Y-130071905D02*
X149060819Y-130071905D01*
X149060819Y-130071905D02*
X149060819Y-130452857D01*
X149060819Y-130452857D02*
X149108438Y-130548095D01*
X149108438Y-130548095D02*
X149156057Y-130595714D01*
X149156057Y-130595714D02*
X149251295Y-130643333D01*
X149251295Y-130643333D02*
X149394152Y-130643333D01*
X149394152Y-130643333D02*
X149489390Y-130595714D01*
X149489390Y-130595714D02*
X149537009Y-130548095D01*
X149537009Y-130548095D02*
X149584628Y-130452857D01*
X149584628Y-130452857D02*
X149584628Y-130071905D01*
X149060819Y-130976667D02*
X149060819Y-131643333D01*
X149060819Y-131643333D02*
X150060819Y-131214762D01*
X105261580Y-117721142D02*
X105309200Y-117673523D01*
X105309200Y-117673523D02*
X105356819Y-117530666D01*
X105356819Y-117530666D02*
X105356819Y-117435428D01*
X105356819Y-117435428D02*
X105309200Y-117292571D01*
X105309200Y-117292571D02*
X105213961Y-117197333D01*
X105213961Y-117197333D02*
X105118723Y-117149714D01*
X105118723Y-117149714D02*
X104928247Y-117102095D01*
X104928247Y-117102095D02*
X104785390Y-117102095D01*
X104785390Y-117102095D02*
X104594914Y-117149714D01*
X104594914Y-117149714D02*
X104499676Y-117197333D01*
X104499676Y-117197333D02*
X104404438Y-117292571D01*
X104404438Y-117292571D02*
X104356819Y-117435428D01*
X104356819Y-117435428D02*
X104356819Y-117530666D01*
X104356819Y-117530666D02*
X104404438Y-117673523D01*
X104404438Y-117673523D02*
X104452057Y-117721142D01*
X105356819Y-118673523D02*
X105356819Y-118102095D01*
X105356819Y-118387809D02*
X104356819Y-118387809D01*
X104356819Y-118387809D02*
X104499676Y-118292571D01*
X104499676Y-118292571D02*
X104594914Y-118197333D01*
X104594914Y-118197333D02*
X104642533Y-118102095D01*
X105356819Y-119625904D02*
X105356819Y-119054476D01*
X105356819Y-119340190D02*
X104356819Y-119340190D01*
X104356819Y-119340190D02*
X104499676Y-119244952D01*
X104499676Y-119244952D02*
X104594914Y-119149714D01*
X104594914Y-119149714D02*
X104642533Y-119054476D01*
X166884819Y-95123095D02*
X167694342Y-95123095D01*
X167694342Y-95123095D02*
X167789580Y-95170714D01*
X167789580Y-95170714D02*
X167837200Y-95218333D01*
X167837200Y-95218333D02*
X167884819Y-95313571D01*
X167884819Y-95313571D02*
X167884819Y-95504047D01*
X167884819Y-95504047D02*
X167837200Y-95599285D01*
X167837200Y-95599285D02*
X167789580Y-95646904D01*
X167789580Y-95646904D02*
X167694342Y-95694523D01*
X167694342Y-95694523D02*
X166884819Y-95694523D01*
X167884819Y-96218333D02*
X167884819Y-96408809D01*
X167884819Y-96408809D02*
X167837200Y-96504047D01*
X167837200Y-96504047D02*
X167789580Y-96551666D01*
X167789580Y-96551666D02*
X167646723Y-96646904D01*
X167646723Y-96646904D02*
X167456247Y-96694523D01*
X167456247Y-96694523D02*
X167075295Y-96694523D01*
X167075295Y-96694523D02*
X166980057Y-96646904D01*
X166980057Y-96646904D02*
X166932438Y-96599285D01*
X166932438Y-96599285D02*
X166884819Y-96504047D01*
X166884819Y-96504047D02*
X166884819Y-96313571D01*
X166884819Y-96313571D02*
X166932438Y-96218333D01*
X166932438Y-96218333D02*
X166980057Y-96170714D01*
X166980057Y-96170714D02*
X167075295Y-96123095D01*
X167075295Y-96123095D02*
X167313390Y-96123095D01*
X167313390Y-96123095D02*
X167408628Y-96170714D01*
X167408628Y-96170714D02*
X167456247Y-96218333D01*
X167456247Y-96218333D02*
X167503866Y-96313571D01*
X167503866Y-96313571D02*
X167503866Y-96504047D01*
X167503866Y-96504047D02*
X167456247Y-96599285D01*
X167456247Y-96599285D02*
X167408628Y-96646904D01*
X167408628Y-96646904D02*
X167313390Y-96694523D01*
X154852666Y-119739580D02*
X154900285Y-119787200D01*
X154900285Y-119787200D02*
X155043142Y-119834819D01*
X155043142Y-119834819D02*
X155138380Y-119834819D01*
X155138380Y-119834819D02*
X155281237Y-119787200D01*
X155281237Y-119787200D02*
X155376475Y-119691961D01*
X155376475Y-119691961D02*
X155424094Y-119596723D01*
X155424094Y-119596723D02*
X155471713Y-119406247D01*
X155471713Y-119406247D02*
X155471713Y-119263390D01*
X155471713Y-119263390D02*
X155424094Y-119072914D01*
X155424094Y-119072914D02*
X155376475Y-118977676D01*
X155376475Y-118977676D02*
X155281237Y-118882438D01*
X155281237Y-118882438D02*
X155138380Y-118834819D01*
X155138380Y-118834819D02*
X155043142Y-118834819D01*
X155043142Y-118834819D02*
X154900285Y-118882438D01*
X154900285Y-118882438D02*
X154852666Y-118930057D01*
X154519332Y-118834819D02*
X153900285Y-118834819D01*
X153900285Y-118834819D02*
X154233618Y-119215771D01*
X154233618Y-119215771D02*
X154090761Y-119215771D01*
X154090761Y-119215771D02*
X153995523Y-119263390D01*
X153995523Y-119263390D02*
X153947904Y-119311009D01*
X153947904Y-119311009D02*
X153900285Y-119406247D01*
X153900285Y-119406247D02*
X153900285Y-119644342D01*
X153900285Y-119644342D02*
X153947904Y-119739580D01*
X153947904Y-119739580D02*
X153995523Y-119787200D01*
X153995523Y-119787200D02*
X154090761Y-119834819D01*
X154090761Y-119834819D02*
X154376475Y-119834819D01*
X154376475Y-119834819D02*
X154471713Y-119787200D01*
X154471713Y-119787200D02*
X154519332Y-119739580D01*
X144946666Y-126946819D02*
X145279999Y-126470628D01*
X145518094Y-126946819D02*
X145518094Y-125946819D01*
X145518094Y-125946819D02*
X145137142Y-125946819D01*
X145137142Y-125946819D02*
X145041904Y-125994438D01*
X145041904Y-125994438D02*
X144994285Y-126042057D01*
X144994285Y-126042057D02*
X144946666Y-126137295D01*
X144946666Y-126137295D02*
X144946666Y-126280152D01*
X144946666Y-126280152D02*
X144994285Y-126375390D01*
X144994285Y-126375390D02*
X145041904Y-126423009D01*
X145041904Y-126423009D02*
X145137142Y-126470628D01*
X145137142Y-126470628D02*
X145518094Y-126470628D01*
X144089523Y-126280152D02*
X144089523Y-126946819D01*
X144327618Y-125899200D02*
X144565713Y-126613485D01*
X144565713Y-126613485D02*
X143946666Y-126613485D01*
X96519904Y-118878819D02*
X96519904Y-119688342D01*
X96519904Y-119688342D02*
X96472285Y-119783580D01*
X96472285Y-119783580D02*
X96424666Y-119831200D01*
X96424666Y-119831200D02*
X96329428Y-119878819D01*
X96329428Y-119878819D02*
X96138952Y-119878819D01*
X96138952Y-119878819D02*
X96043714Y-119831200D01*
X96043714Y-119831200D02*
X95996095Y-119783580D01*
X95996095Y-119783580D02*
X95948476Y-119688342D01*
X95948476Y-119688342D02*
X95948476Y-118878819D01*
X94996095Y-118878819D02*
X95472285Y-118878819D01*
X95472285Y-118878819D02*
X95519904Y-119355009D01*
X95519904Y-119355009D02*
X95472285Y-119307390D01*
X95472285Y-119307390D02*
X95377047Y-119259771D01*
X95377047Y-119259771D02*
X95138952Y-119259771D01*
X95138952Y-119259771D02*
X95043714Y-119307390D01*
X95043714Y-119307390D02*
X94996095Y-119355009D01*
X94996095Y-119355009D02*
X94948476Y-119450247D01*
X94948476Y-119450247D02*
X94948476Y-119688342D01*
X94948476Y-119688342D02*
X94996095Y-119783580D01*
X94996095Y-119783580D02*
X95043714Y-119831200D01*
X95043714Y-119831200D02*
X95138952Y-119878819D01*
X95138952Y-119878819D02*
X95377047Y-119878819D01*
X95377047Y-119878819D02*
X95472285Y-119831200D01*
X95472285Y-119831200D02*
X95519904Y-119783580D01*
X139191904Y-120739819D02*
X139191904Y-121549342D01*
X139191904Y-121549342D02*
X139144285Y-121644580D01*
X139144285Y-121644580D02*
X139096666Y-121692200D01*
X139096666Y-121692200D02*
X139001428Y-121739819D01*
X139001428Y-121739819D02*
X138810952Y-121739819D01*
X138810952Y-121739819D02*
X138715714Y-121692200D01*
X138715714Y-121692200D02*
X138668095Y-121644580D01*
X138668095Y-121644580D02*
X138620476Y-121549342D01*
X138620476Y-121549342D02*
X138620476Y-120739819D01*
X138239523Y-120739819D02*
X137620476Y-120739819D01*
X137620476Y-120739819D02*
X137953809Y-121120771D01*
X137953809Y-121120771D02*
X137810952Y-121120771D01*
X137810952Y-121120771D02*
X137715714Y-121168390D01*
X137715714Y-121168390D02*
X137668095Y-121216009D01*
X137668095Y-121216009D02*
X137620476Y-121311247D01*
X137620476Y-121311247D02*
X137620476Y-121549342D01*
X137620476Y-121549342D02*
X137668095Y-121644580D01*
X137668095Y-121644580D02*
X137715714Y-121692200D01*
X137715714Y-121692200D02*
X137810952Y-121739819D01*
X137810952Y-121739819D02*
X138096666Y-121739819D01*
X138096666Y-121739819D02*
X138191904Y-121692200D01*
X138191904Y-121692200D02*
X138239523Y-121644580D01*
X88862819Y-124920476D02*
X89577104Y-124920476D01*
X89577104Y-124920476D02*
X89719961Y-124872857D01*
X89719961Y-124872857D02*
X89815200Y-124777619D01*
X89815200Y-124777619D02*
X89862819Y-124634762D01*
X89862819Y-124634762D02*
X89862819Y-124539524D01*
X89862819Y-125920476D02*
X89862819Y-125349048D01*
X89862819Y-125634762D02*
X88862819Y-125634762D01*
X88862819Y-125634762D02*
X89005676Y-125539524D01*
X89005676Y-125539524D02*
X89100914Y-125444286D01*
X89100914Y-125444286D02*
X89148533Y-125349048D01*
X88862819Y-126253810D02*
X88862819Y-126872857D01*
X88862819Y-126872857D02*
X89243771Y-126539524D01*
X89243771Y-126539524D02*
X89243771Y-126682381D01*
X89243771Y-126682381D02*
X89291390Y-126777619D01*
X89291390Y-126777619D02*
X89339009Y-126825238D01*
X89339009Y-126825238D02*
X89434247Y-126872857D01*
X89434247Y-126872857D02*
X89672342Y-126872857D01*
X89672342Y-126872857D02*
X89767580Y-126825238D01*
X89767580Y-126825238D02*
X89815200Y-126777619D01*
X89815200Y-126777619D02*
X89862819Y-126682381D01*
X89862819Y-126682381D02*
X89862819Y-126396667D01*
X89862819Y-126396667D02*
X89815200Y-126301429D01*
X89815200Y-126301429D02*
X89767580Y-126253810D01*
X125896666Y-101861580D02*
X125944285Y-101909200D01*
X125944285Y-101909200D02*
X126087142Y-101956819D01*
X126087142Y-101956819D02*
X126182380Y-101956819D01*
X126182380Y-101956819D02*
X126325237Y-101909200D01*
X126325237Y-101909200D02*
X126420475Y-101813961D01*
X126420475Y-101813961D02*
X126468094Y-101718723D01*
X126468094Y-101718723D02*
X126515713Y-101528247D01*
X126515713Y-101528247D02*
X126515713Y-101385390D01*
X126515713Y-101385390D02*
X126468094Y-101194914D01*
X126468094Y-101194914D02*
X126420475Y-101099676D01*
X126420475Y-101099676D02*
X126325237Y-101004438D01*
X126325237Y-101004438D02*
X126182380Y-100956819D01*
X126182380Y-100956819D02*
X126087142Y-100956819D01*
X126087142Y-100956819D02*
X125944285Y-101004438D01*
X125944285Y-101004438D02*
X125896666Y-101052057D01*
X125563332Y-100956819D02*
X124896666Y-100956819D01*
X124896666Y-100956819D02*
X125325237Y-101956819D01*
X147232666Y-121866819D02*
X147565999Y-121390628D01*
X147804094Y-121866819D02*
X147804094Y-120866819D01*
X147804094Y-120866819D02*
X147423142Y-120866819D01*
X147423142Y-120866819D02*
X147327904Y-120914438D01*
X147327904Y-120914438D02*
X147280285Y-120962057D01*
X147280285Y-120962057D02*
X147232666Y-121057295D01*
X147232666Y-121057295D02*
X147232666Y-121200152D01*
X147232666Y-121200152D02*
X147280285Y-121295390D01*
X147280285Y-121295390D02*
X147327904Y-121343009D01*
X147327904Y-121343009D02*
X147423142Y-121390628D01*
X147423142Y-121390628D02*
X147804094Y-121390628D01*
X146661237Y-121295390D02*
X146756475Y-121247771D01*
X146756475Y-121247771D02*
X146804094Y-121200152D01*
X146804094Y-121200152D02*
X146851713Y-121104914D01*
X146851713Y-121104914D02*
X146851713Y-121057295D01*
X146851713Y-121057295D02*
X146804094Y-120962057D01*
X146804094Y-120962057D02*
X146756475Y-120914438D01*
X146756475Y-120914438D02*
X146661237Y-120866819D01*
X146661237Y-120866819D02*
X146470761Y-120866819D01*
X146470761Y-120866819D02*
X146375523Y-120914438D01*
X146375523Y-120914438D02*
X146327904Y-120962057D01*
X146327904Y-120962057D02*
X146280285Y-121057295D01*
X146280285Y-121057295D02*
X146280285Y-121104914D01*
X146280285Y-121104914D02*
X146327904Y-121200152D01*
X146327904Y-121200152D02*
X146375523Y-121247771D01*
X146375523Y-121247771D02*
X146470761Y-121295390D01*
X146470761Y-121295390D02*
X146661237Y-121295390D01*
X146661237Y-121295390D02*
X146756475Y-121343009D01*
X146756475Y-121343009D02*
X146804094Y-121390628D01*
X146804094Y-121390628D02*
X146851713Y-121485866D01*
X146851713Y-121485866D02*
X146851713Y-121676342D01*
X146851713Y-121676342D02*
X146804094Y-121771580D01*
X146804094Y-121771580D02*
X146756475Y-121819200D01*
X146756475Y-121819200D02*
X146661237Y-121866819D01*
X146661237Y-121866819D02*
X146470761Y-121866819D01*
X146470761Y-121866819D02*
X146375523Y-121819200D01*
X146375523Y-121819200D02*
X146327904Y-121771580D01*
X146327904Y-121771580D02*
X146280285Y-121676342D01*
X146280285Y-121676342D02*
X146280285Y-121485866D01*
X146280285Y-121485866D02*
X146327904Y-121390628D01*
X146327904Y-121390628D02*
X146375523Y-121343009D01*
X146375523Y-121343009D02*
X146470761Y-121295390D01*
D11*
%TO.C,R10*%
X167936936Y-128043000D02*
X168391064Y-128043000D01*
X167936936Y-129513000D02*
X168391064Y-129513000D01*
%TO.C,R11*%
X103859000Y-114056936D02*
X103859000Y-114511064D01*
X102389000Y-114056936D02*
X102389000Y-114511064D01*
%TO.C,C8*%
X138711000Y-105184752D02*
X138711000Y-104662248D01*
X140181000Y-105184752D02*
X140181000Y-104662248D01*
%TO.C,R2*%
X126592000Y-129074936D02*
X126592000Y-129529064D01*
X125122000Y-129074936D02*
X125122000Y-129529064D01*
%TO.C,R9*%
X150357064Y-119861000D02*
X149902936Y-119861000D01*
X150357064Y-118391000D02*
X149902936Y-118391000D01*
%TO.C,C12*%
X154151000Y-104894748D02*
X154151000Y-105417252D01*
X152681000Y-104894748D02*
X152681000Y-105417252D01*
%TO.C,R1*%
X130021000Y-129074936D02*
X130021000Y-129529064D01*
X128551000Y-129074936D02*
X128551000Y-129529064D01*
%TO.C,C6*%
X114963752Y-100557000D02*
X114441248Y-100557000D01*
X114963752Y-99087000D02*
X114441248Y-99087000D01*
%TO.C,C5*%
X98396248Y-119407000D02*
X98918752Y-119407000D01*
X98396248Y-120877000D02*
X98918752Y-120877000D01*
%TO.C,J11*%
X162524000Y-83134000D02*
X169494000Y-83134000D01*
X162524000Y-83584000D02*
X162524000Y-83134000D01*
X162524000Y-87104000D02*
X162524000Y-87554000D01*
X162524000Y-87554000D02*
X163474000Y-87554000D01*
X163474000Y-87554000D02*
X163474000Y-89044000D01*
X169494000Y-83134000D02*
X169494000Y-83584000D01*
X169494000Y-87104000D02*
X169494000Y-87554000D01*
X169494000Y-87554000D02*
X168544000Y-87554000D01*
%TO.C,C4*%
X161063000Y-122413752D02*
X161063000Y-121891248D01*
X162533000Y-122413752D02*
X162533000Y-121891248D01*
%TO.C,R7*%
X150341000Y-127772936D02*
X150341000Y-128227064D01*
X148871000Y-127772936D02*
X148871000Y-128227064D01*
%TO.C,C11*%
X103859000Y-118378248D02*
X103859000Y-118900752D01*
X102389000Y-118378248D02*
X102389000Y-118900752D01*
%TO.C,U9*%
X135770000Y-101025000D02*
X135770000Y-90745000D01*
X166490000Y-101025000D02*
X135770000Y-101025000D01*
X135830000Y-98535000D02*
X135830000Y-93235000D01*
X166430000Y-98535000D02*
X135830000Y-98535000D01*
X166430000Y-96885000D02*
X166430000Y-98535000D01*
X135830000Y-93235000D02*
X166430000Y-93235000D01*
X166430000Y-93235000D02*
X166430000Y-94885000D01*
X135770000Y-90745000D02*
X166490000Y-90745000D01*
X166490000Y-90745000D02*
X166490000Y-101025000D01*
X166430000Y-94885000D02*
G75*
G03*
X166430000Y-96885000I0J-1000000D01*
G01*
%TO.C,C3*%
X154424748Y-120296000D02*
X154947252Y-120296000D01*
X154424748Y-121766000D02*
X154947252Y-121766000D01*
%TO.C,R4*%
X145314936Y-127535000D02*
X145769064Y-127535000D01*
X145314936Y-129005000D02*
X145769064Y-129005000D01*
%TO.C,U5*%
X90618000Y-87764000D02*
X100898000Y-87764000D01*
X90618000Y-118484000D02*
X90618000Y-87764000D01*
X93108000Y-87824000D02*
X98408000Y-87824000D01*
X93108000Y-118424000D02*
X93108000Y-87824000D01*
X94758000Y-118424000D02*
X93108000Y-118424000D01*
X98408000Y-87824000D02*
X98408000Y-118424000D01*
X98408000Y-118424000D02*
X96758000Y-118424000D01*
X100898000Y-87764000D02*
X100898000Y-118484000D01*
X100898000Y-118484000D02*
X90618000Y-118484000D01*
X96758000Y-118424000D02*
G75*
G03*
X94758000Y-118424000I-1000000J0D01*
G01*
%TO.C,U3*%
X133604000Y-125800000D02*
X135804000Y-125800000D01*
X133604000Y-125800000D02*
X131404000Y-125800000D01*
X133604000Y-120580000D02*
X137204000Y-120580000D01*
X133604000Y-120580000D02*
X131404000Y-120580000D01*
%TO.C,J13*%
X86690000Y-136728000D02*
X86690000Y-129758000D01*
X87140000Y-136728000D02*
X86690000Y-136728000D01*
X90660000Y-136728000D02*
X91110000Y-136728000D01*
X91110000Y-136728000D02*
X91110000Y-135778000D01*
X91110000Y-135778000D02*
X92600000Y-135778000D01*
X86690000Y-129758000D02*
X87140000Y-129758000D01*
X90660000Y-129758000D02*
X91110000Y-129758000D01*
X91110000Y-129758000D02*
X91110000Y-130708000D01*
%TO.C,C7*%
X125468748Y-99087000D02*
X125991252Y-99087000D01*
X125468748Y-100557000D02*
X125991252Y-100557000D01*
%TO.C,R8*%
X150357064Y-122147000D02*
X149902936Y-122147000D01*
X150357064Y-120677000D02*
X149902936Y-120677000D01*
%TD*%
M02*
