%TF.GenerationSoftware,KiCad,Pcbnew,7.0.10*%
%TF.CreationDate,2024-02-26T12:00:29-08:00*%
%TF.ProjectId,vgaterm-bottom,76676174-6572-46d2-9d62-6f74746f6d2e,rev?*%
%TF.SameCoordinates,Original*%
%TF.FileFunction,Paste,Bot*%
%TF.FilePolarity,Positive*%
%FSLAX46Y46*%
G04 Gerber Fmt 4.6, Leading zero omitted, Abs format (unit mm)*
G04 Created by KiCad (PCBNEW 7.0.10) date 2024-02-26 12:00:29*
%MOMM*%
%LPD*%
G01*
G04 APERTURE LIST*
G04 Aperture macros list*
%AMRoundRect*
0 Rectangle with rounded corners*
0 $1 Rounding radius*
0 $2 $3 $4 $5 $6 $7 $8 $9 X,Y pos of 4 corners*
0 Add a 4 corners polygon primitive as box body*
4,1,4,$2,$3,$4,$5,$6,$7,$8,$9,$2,$3,0*
0 Add four circle primitives for the rounded corners*
1,1,$1+$1,$2,$3*
1,1,$1+$1,$4,$5*
1,1,$1+$1,$6,$7*
1,1,$1+$1,$8,$9*
0 Add four rect primitives between the rounded corners*
20,1,$1+$1,$2,$3,$4,$5,0*
20,1,$1+$1,$4,$5,$6,$7,0*
20,1,$1+$1,$6,$7,$8,$9,0*
20,1,$1+$1,$8,$9,$2,$3,0*%
G04 Aperture macros list end*
%ADD10RoundRect,0.250000X-0.350000X-0.450000X0.350000X-0.450000X0.350000X0.450000X-0.350000X0.450000X0*%
%ADD11RoundRect,0.250000X-0.450000X0.350000X-0.450000X-0.350000X0.450000X-0.350000X0.450000X0.350000X0*%
%ADD12RoundRect,0.250000X0.475000X-0.337500X0.475000X0.337500X-0.475000X0.337500X-0.475000X-0.337500X0*%
%ADD13RoundRect,0.250000X0.350000X0.450000X-0.350000X0.450000X-0.350000X-0.450000X0.350000X-0.450000X0*%
%ADD14RoundRect,0.250000X-0.475000X0.337500X-0.475000X-0.337500X0.475000X-0.337500X0.475000X0.337500X0*%
%ADD15RoundRect,0.250000X0.337500X0.475000X-0.337500X0.475000X-0.337500X-0.475000X0.337500X-0.475000X0*%
%ADD16RoundRect,0.250000X-0.337500X-0.475000X0.337500X-0.475000X0.337500X0.475000X-0.337500X0.475000X0*%
%ADD17RoundRect,0.200000X-0.200000X-0.600000X0.200000X-0.600000X0.200000X0.600000X-0.200000X0.600000X0*%
%ADD18RoundRect,0.250001X-0.799999X-1.249999X0.799999X-1.249999X0.799999X1.249999X-0.799999X1.249999X0*%
%ADD19RoundRect,0.100000X0.637500X0.100000X-0.637500X0.100000X-0.637500X-0.100000X0.637500X-0.100000X0*%
%ADD20RoundRect,0.200000X0.600000X-0.200000X0.600000X0.200000X-0.600000X0.200000X-0.600000X-0.200000X0*%
%ADD21RoundRect,0.250001X1.249999X-0.799999X1.249999X0.799999X-1.249999X0.799999X-1.249999X-0.799999X0*%
G04 APERTURE END LIST*
D10*
%TO.C,R10*%
X167164000Y-128778000D03*
X169164000Y-128778000D03*
%TD*%
D11*
%TO.C,R11*%
X103124000Y-113284000D03*
X103124000Y-115284000D03*
%TD*%
D12*
%TO.C,C8*%
X139446000Y-105961000D03*
X139446000Y-103886000D03*
%TD*%
D11*
%TO.C,R2*%
X125857000Y-128302000D03*
X125857000Y-130302000D03*
%TD*%
D13*
%TO.C,R9*%
X151130000Y-119126000D03*
X149130000Y-119126000D03*
%TD*%
D14*
%TO.C,C12*%
X153416000Y-104118500D03*
X153416000Y-106193500D03*
%TD*%
D11*
%TO.C,R1*%
X129286000Y-128302000D03*
X129286000Y-130302000D03*
%TD*%
D15*
%TO.C,C6*%
X115740000Y-99822000D03*
X113665000Y-99822000D03*
%TD*%
D16*
%TO.C,C5*%
X97620000Y-120142000D03*
X99695000Y-120142000D03*
%TD*%
D17*
%TO.C,J11*%
X164134000Y-88244000D03*
X165384000Y-88244000D03*
X166634000Y-88244000D03*
X167884000Y-88244000D03*
D18*
X161584000Y-85344000D03*
X170434000Y-85344000D03*
%TD*%
D12*
%TO.C,C4*%
X161798000Y-123190000D03*
X161798000Y-121115000D03*
%TD*%
D11*
%TO.C,R7*%
X149606000Y-127000000D03*
X149606000Y-129000000D03*
%TD*%
D14*
%TO.C,C11*%
X103124000Y-117602000D03*
X103124000Y-119677000D03*
%TD*%
D16*
%TO.C,C3*%
X153648500Y-121031000D03*
X155723500Y-121031000D03*
%TD*%
D10*
%TO.C,R4*%
X144542000Y-128270000D03*
X146542000Y-128270000D03*
%TD*%
D19*
%TO.C,U3*%
X136466500Y-121240000D03*
X136466500Y-121890000D03*
X136466500Y-122540000D03*
X136466500Y-123190000D03*
X136466500Y-123840000D03*
X136466500Y-124490000D03*
X136466500Y-125140000D03*
X130741500Y-125140000D03*
X130741500Y-124490000D03*
X130741500Y-123840000D03*
X130741500Y-123190000D03*
X130741500Y-122540000D03*
X130741500Y-121890000D03*
X130741500Y-121240000D03*
%TD*%
D20*
%TO.C,J13*%
X91800000Y-135118000D03*
X91800000Y-133868000D03*
X91800000Y-132618000D03*
X91800000Y-131368000D03*
D21*
X88900000Y-137668000D03*
X88900000Y-128818000D03*
%TD*%
D16*
%TO.C,C7*%
X124692500Y-99822000D03*
X126767500Y-99822000D03*
%TD*%
D13*
%TO.C,R8*%
X151130000Y-121412000D03*
X149130000Y-121412000D03*
%TD*%
M02*
