%TF.GenerationSoftware,KiCad,Pcbnew,7.0.10*%
%TF.CreationDate,2024-02-26T12:25:31-08:00*%
%TF.ProjectId,vgaterm-top,76676174-6572-46d2-9d74-6f702e6b6963,rev?*%
%TF.SameCoordinates,Original*%
%TF.FileFunction,Paste,Top*%
%TF.FilePolarity,Positive*%
%FSLAX46Y46*%
G04 Gerber Fmt 4.6, Leading zero omitted, Abs format (unit mm)*
G04 Created by KiCad (PCBNEW 7.0.10) date 2024-02-26 12:25:31*
%MOMM*%
%LPD*%
G01*
G04 APERTURE LIST*
G04 Aperture macros list*
%AMRoundRect*
0 Rectangle with rounded corners*
0 $1 Rounding radius*
0 $2 $3 $4 $5 $6 $7 $8 $9 X,Y pos of 4 corners*
0 Add a 4 corners polygon primitive as box body*
4,1,4,$2,$3,$4,$5,$6,$7,$8,$9,$2,$3,0*
0 Add four circle primitives for the rounded corners*
1,1,$1+$1,$2,$3*
1,1,$1+$1,$4,$5*
1,1,$1+$1,$6,$7*
1,1,$1+$1,$8,$9*
0 Add four rect primitives between the rounded corners*
20,1,$1+$1,$2,$3,$4,$5,0*
20,1,$1+$1,$4,$5,$6,$7,0*
20,1,$1+$1,$6,$7,$8,$9,0*
20,1,$1+$1,$8,$9,$2,$3,0*%
G04 Aperture macros list end*
%ADD10RoundRect,0.250000X0.475000X-0.337500X0.475000X0.337500X-0.475000X0.337500X-0.475000X-0.337500X0*%
%ADD11RoundRect,0.250000X0.337500X0.475000X-0.337500X0.475000X-0.337500X-0.475000X0.337500X-0.475000X0*%
%ADD12RoundRect,0.150000X-0.150000X0.825000X-0.150000X-0.825000X0.150000X-0.825000X0.150000X0.825000X0*%
%ADD13RoundRect,0.150000X0.150000X-0.875000X0.150000X0.875000X-0.150000X0.875000X-0.150000X-0.875000X0*%
%ADD14R,0.400000X1.500000*%
G04 APERTURE END LIST*
D10*
%TO.C,C11*%
X67564000Y-57679500D03*
X67564000Y-55604500D03*
%TD*%
D11*
%TO.C,C14*%
X68115000Y-75184000D03*
X66040000Y-75184000D03*
%TD*%
D12*
%TO.C,U1*%
X70176700Y-77535000D03*
X68906700Y-77535000D03*
X67636700Y-77535000D03*
X66366700Y-77535000D03*
X65096700Y-77535000D03*
X63826700Y-77535000D03*
X62556700Y-77535000D03*
X61286700Y-77535000D03*
X61286700Y-82485000D03*
X62556700Y-82485000D03*
X63826700Y-82485000D03*
X65096700Y-82485000D03*
X66366700Y-82485000D03*
X67636700Y-82485000D03*
X68906700Y-82485000D03*
X70176700Y-82485000D03*
%TD*%
D10*
%TO.C,C10*%
X67564000Y-63267500D03*
X67564000Y-61192500D03*
%TD*%
D13*
%TO.C,U8*%
X79502000Y-64164000D03*
X80772000Y-64164000D03*
X82042000Y-64164000D03*
X83312000Y-64164000D03*
X84582000Y-64164000D03*
X85852000Y-64164000D03*
X87122000Y-64164000D03*
X88392000Y-64164000D03*
X89662000Y-64164000D03*
X90932000Y-64164000D03*
X90932000Y-54864000D03*
X89662000Y-54864000D03*
X88392000Y-54864000D03*
X87122000Y-54864000D03*
X85852000Y-54864000D03*
X84582000Y-54864000D03*
X83312000Y-54864000D03*
X82042000Y-54864000D03*
X80772000Y-54864000D03*
X79502000Y-54864000D03*
%TD*%
D10*
%TO.C,C7*%
X70049700Y-69385000D03*
X70049700Y-67310000D03*
%TD*%
D14*
%TO.C,U10*%
X69962000Y-63786500D03*
X70612000Y-63786500D03*
X71262000Y-63786500D03*
X71262000Y-61126500D03*
X69962000Y-61126500D03*
%TD*%
%TO.C,U9*%
X69962000Y-57950500D03*
X70612000Y-57950500D03*
X71262000Y-57950500D03*
X71262000Y-55290500D03*
X69962000Y-55290500D03*
%TD*%
M02*
