%TF.GenerationSoftware,KiCad,Pcbnew,7.0.10*%
%TF.CreationDate,2024-02-26T12:25:31-08:00*%
%TF.ProjectId,vgaterm-top,76676174-6572-46d2-9d74-6f702e6b6963,rev?*%
%TF.SameCoordinates,Original*%
%TF.FileFunction,Soldermask,Top*%
%TF.FilePolarity,Negative*%
%FSLAX46Y46*%
G04 Gerber Fmt 4.6, Leading zero omitted, Abs format (unit mm)*
G04 Created by KiCad (PCBNEW 7.0.10) date 2024-02-26 12:25:31*
%MOMM*%
%LPD*%
G01*
G04 APERTURE LIST*
G04 Aperture macros list*
%AMRoundRect*
0 Rectangle with rounded corners*
0 $1 Rounding radius*
0 $2 $3 $4 $5 $6 $7 $8 $9 X,Y pos of 4 corners*
0 Add a 4 corners polygon primitive as box body*
4,1,4,$2,$3,$4,$5,$6,$7,$8,$9,$2,$3,0*
0 Add four circle primitives for the rounded corners*
1,1,$1+$1,$2,$3*
1,1,$1+$1,$4,$5*
1,1,$1+$1,$6,$7*
1,1,$1+$1,$8,$9*
0 Add four rect primitives between the rounded corners*
20,1,$1+$1,$2,$3,$4,$5,0*
20,1,$1+$1,$4,$5,$6,$7,0*
20,1,$1+$1,$6,$7,$8,$9,0*
20,1,$1+$1,$8,$9,$2,$3,0*%
%AMFreePoly0*
4,1,19,0.550000,-0.750000,0.000000,-0.750000,0.000000,-0.744911,-0.071157,-0.744911,-0.207708,-0.704816,-0.327430,-0.627875,-0.420627,-0.520320,-0.479746,-0.390866,-0.500000,-0.250000,-0.500000,0.250000,-0.479746,0.390866,-0.420627,0.520320,-0.327430,0.627875,-0.207708,0.704816,-0.071157,0.744911,0.000000,0.744911,0.000000,0.750000,0.550000,0.750000,0.550000,-0.750000,0.550000,-0.750000,
$1*%
%AMFreePoly1*
4,1,19,0.000000,0.744911,0.071157,0.744911,0.207708,0.704816,0.327430,0.627875,0.420627,0.520320,0.479746,0.390866,0.500000,0.250000,0.500000,-0.250000,0.479746,-0.390866,0.420627,-0.520320,0.327430,-0.627875,0.207708,-0.704816,0.071157,-0.744911,0.000000,-0.744911,0.000000,-0.750000,-0.550000,-0.750000,-0.550000,0.750000,0.000000,0.750000,0.000000,0.744911,0.000000,0.744911,
$1*%
%AMFreePoly2*
4,1,19,0.500000,-0.750000,0.000000,-0.750000,0.000000,-0.744911,-0.071157,-0.744911,-0.207708,-0.704816,-0.327430,-0.627875,-0.420627,-0.520320,-0.479746,-0.390866,-0.500000,-0.250000,-0.500000,0.250000,-0.479746,0.390866,-0.420627,0.520320,-0.327430,0.627875,-0.207708,0.704816,-0.071157,0.744911,0.000000,0.744911,0.000000,0.750000,0.500000,0.750000,0.500000,-0.750000,0.500000,-0.750000,
$1*%
%AMFreePoly3*
4,1,19,0.000000,0.744911,0.071157,0.744911,0.207708,0.704816,0.327430,0.627875,0.420627,0.520320,0.479746,0.390866,0.500000,0.250000,0.500000,-0.250000,0.479746,-0.390866,0.420627,-0.520320,0.327430,-0.627875,0.207708,-0.704816,0.071157,-0.744911,0.000000,-0.744911,0.000000,-0.750000,-0.500000,-0.750000,-0.500000,0.750000,0.000000,0.750000,0.000000,0.744911,0.000000,0.744911,
$1*%
G04 Aperture macros list end*
%ADD10FreePoly0,180.000000*%
%ADD11R,1.000000X1.500000*%
%ADD12FreePoly1,180.000000*%
%ADD13FreePoly2,0.000000*%
%ADD14FreePoly3,0.000000*%
%ADD15R,1.500000X1.500000*%
%ADD16FreePoly0,0.000000*%
%ADD17FreePoly1,0.000000*%
%ADD18RoundRect,0.250000X0.475000X-0.337500X0.475000X0.337500X-0.475000X0.337500X-0.475000X-0.337500X0*%
%ADD19RoundRect,0.250000X0.337500X0.475000X-0.337500X0.475000X-0.337500X-0.475000X0.337500X-0.475000X0*%
%ADD20RoundRect,0.150000X-0.150000X0.825000X-0.150000X-0.825000X0.150000X-0.825000X0.150000X0.825000X0*%
%ADD21R,1.600000X1.600000*%
%ADD22O,1.600000X1.600000*%
%ADD23RoundRect,0.150000X0.150000X-0.875000X0.150000X0.875000X-0.150000X0.875000X-0.150000X-0.875000X0*%
%ADD24FreePoly0,90.000000*%
%ADD25R,1.500000X1.000000*%
%ADD26FreePoly1,90.000000*%
%ADD27R,0.400000X1.500000*%
%ADD28R,1.700000X1.700000*%
%ADD29O,1.700000X1.700000*%
G04 APERTURE END LIST*
D10*
%TO.C,JP1*%
X77373000Y-58293000D03*
D11*
X76073000Y-58293000D03*
D12*
X74773000Y-58293000D03*
%TD*%
D13*
%TO.C,JP2*%
X94487999Y-64008000D03*
D14*
X95787999Y-64008000D03*
%TD*%
D15*
%TO.C,TP3*%
X75946000Y-64262000D03*
%TD*%
D16*
%TO.C,JP3*%
X74676000Y-61595000D03*
D11*
X75976000Y-61595000D03*
D17*
X77276000Y-61595000D03*
%TD*%
D18*
%TO.C,C11*%
X67564000Y-57679500D03*
X67564000Y-55604500D03*
%TD*%
D19*
%TO.C,C14*%
X68115000Y-75184000D03*
X66040000Y-75184000D03*
%TD*%
D13*
%TO.C,JP10*%
X98679000Y-55372000D03*
D14*
X99979000Y-55372000D03*
%TD*%
D20*
%TO.C,U1*%
X70176700Y-77535000D03*
X68906700Y-77535000D03*
X67636700Y-77535000D03*
X66366700Y-77535000D03*
X65096700Y-77535000D03*
X63826700Y-77535000D03*
X62556700Y-77535000D03*
X61286700Y-77535000D03*
X61286700Y-82485000D03*
X62556700Y-82485000D03*
X63826700Y-82485000D03*
X65096700Y-82485000D03*
X66366700Y-82485000D03*
X67636700Y-82485000D03*
X68906700Y-82485000D03*
X70176700Y-82485000D03*
%TD*%
D18*
%TO.C,C10*%
X67564000Y-63267500D03*
X67564000Y-61192500D03*
%TD*%
D21*
%TO.C,U4*%
X73097700Y-82426000D03*
D22*
X75637700Y-82426000D03*
X78177700Y-82426000D03*
X80717700Y-82426000D03*
X83257700Y-82426000D03*
X85797700Y-82426000D03*
X88337700Y-82426000D03*
X90877700Y-82426000D03*
X93417700Y-82426000D03*
X95957700Y-82426000D03*
X98497700Y-82426000D03*
X101037700Y-82426000D03*
X103577700Y-82426000D03*
X106117700Y-82426000D03*
X106117700Y-67186000D03*
X103577700Y-67186000D03*
X101037700Y-67186000D03*
X98497700Y-67186000D03*
X95957700Y-67186000D03*
X93417700Y-67186000D03*
X90877700Y-67186000D03*
X88337700Y-67186000D03*
X85797700Y-67186000D03*
X83257700Y-67186000D03*
X80717700Y-67186000D03*
X78177700Y-67186000D03*
X75637700Y-67186000D03*
X73097700Y-67186000D03*
%TD*%
D13*
%TO.C,JP5*%
X94488000Y-60960000D03*
D14*
X95788000Y-60960000D03*
%TD*%
D23*
%TO.C,U8*%
X79502000Y-64164000D03*
X80772000Y-64164000D03*
X82042000Y-64164000D03*
X83312000Y-64164000D03*
X84582000Y-64164000D03*
X85852000Y-64164000D03*
X87122000Y-64164000D03*
X88392000Y-64164000D03*
X89662000Y-64164000D03*
X90932000Y-64164000D03*
X90932000Y-54864000D03*
X89662000Y-54864000D03*
X88392000Y-54864000D03*
X87122000Y-54864000D03*
X85852000Y-54864000D03*
X84582000Y-54864000D03*
X83312000Y-54864000D03*
X82042000Y-54864000D03*
X80772000Y-54864000D03*
X79502000Y-54864000D03*
%TD*%
D13*
%TO.C,JP9*%
X94458000Y-55372000D03*
D14*
X95758000Y-55372000D03*
%TD*%
D13*
%TO.C,JP6*%
X98679000Y-61087000D03*
D14*
X99979000Y-61087000D03*
%TD*%
D24*
%TO.C,JP12*%
X60325000Y-68386000D03*
D25*
X60325000Y-67086000D03*
D26*
X60325000Y-65786000D03*
%TD*%
D21*
%TO.C,X1*%
X56134000Y-54864000D03*
D22*
X56134000Y-57404000D03*
X56134000Y-59944000D03*
X56134000Y-62484000D03*
X63754000Y-62484000D03*
X63754000Y-59944000D03*
X63754000Y-57404000D03*
X63754000Y-54864000D03*
%TD*%
D13*
%TO.C,JP4*%
X98679000Y-64008000D03*
D14*
X99979000Y-64008000D03*
%TD*%
D18*
%TO.C,C7*%
X70049700Y-69385000D03*
X70049700Y-67310000D03*
%TD*%
D15*
%TO.C,TP2*%
X65786000Y-65405000D03*
%TD*%
D27*
%TO.C,U10*%
X69962000Y-63786500D03*
X70612000Y-63786500D03*
X71262000Y-63786500D03*
X71262000Y-61126500D03*
X69962000Y-61126500D03*
%TD*%
D13*
%TO.C,JP7*%
X94488000Y-58166000D03*
D14*
X95788000Y-58166000D03*
%TD*%
D15*
%TO.C,TP1*%
X58928000Y-82804000D03*
%TD*%
D16*
%TO.C,JP11*%
X74870000Y-54737000D03*
D11*
X76170000Y-54737000D03*
D17*
X77470000Y-54737000D03*
%TD*%
D13*
%TO.C,JP8*%
X98679000Y-58166000D03*
D14*
X99979000Y-58166000D03*
%TD*%
D27*
%TO.C,U9*%
X69962000Y-57950500D03*
X70612000Y-57950500D03*
X71262000Y-57950500D03*
X71262000Y-55290500D03*
X69962000Y-55290500D03*
%TD*%
D28*
%TO.C,J2*%
X109728000Y-67564000D03*
D29*
X109728000Y-70104000D03*
X109728000Y-72644000D03*
X109728000Y-75184000D03*
X109728000Y-77724000D03*
X109728000Y-80264000D03*
X109728000Y-82804000D03*
%TD*%
D28*
%TO.C,J1*%
X56388000Y-82804000D03*
D29*
X56388000Y-80264000D03*
X56388000Y-77724000D03*
X56388000Y-75184000D03*
X56388000Y-72644000D03*
X56388000Y-70104000D03*
X56388000Y-67564000D03*
%TD*%
M02*
