%TF.GenerationSoftware,KiCad,Pcbnew,7.0.10*%
%TF.CreationDate,2024-02-26T12:25:31-08:00*%
%TF.ProjectId,vgaterm-top,76676174-6572-46d2-9d74-6f702e6b6963,rev?*%
%TF.SameCoordinates,Original*%
%TF.FileFunction,Paste,Bot*%
%TF.FilePolarity,Positive*%
%FSLAX46Y46*%
G04 Gerber Fmt 4.6, Leading zero omitted, Abs format (unit mm)*
G04 Created by KiCad (PCBNEW 7.0.10) date 2024-02-26 12:25:31*
%MOMM*%
%LPD*%
G01*
G04 APERTURE LIST*
G04 Aperture macros list*
%AMRoundRect*
0 Rectangle with rounded corners*
0 $1 Rounding radius*
0 $2 $3 $4 $5 $6 $7 $8 $9 X,Y pos of 4 corners*
0 Add a 4 corners polygon primitive as box body*
4,1,4,$2,$3,$4,$5,$6,$7,$8,$9,$2,$3,0*
0 Add four circle primitives for the rounded corners*
1,1,$1+$1,$2,$3*
1,1,$1+$1,$4,$5*
1,1,$1+$1,$6,$7*
1,1,$1+$1,$8,$9*
0 Add four rect primitives between the rounded corners*
20,1,$1+$1,$2,$3,$4,$5,0*
20,1,$1+$1,$4,$5,$6,$7,0*
20,1,$1+$1,$6,$7,$8,$9,0*
20,1,$1+$1,$8,$9,$2,$3,0*%
G04 Aperture macros list end*
%ADD10RoundRect,0.250000X-0.337500X-0.475000X0.337500X-0.475000X0.337500X0.475000X-0.337500X0.475000X0*%
%ADD11RoundRect,0.250000X0.475000X-0.337500X0.475000X0.337500X-0.475000X0.337500X-0.475000X-0.337500X0*%
%ADD12RoundRect,0.150000X-0.150000X0.825000X-0.150000X-0.825000X0.150000X-0.825000X0.150000X0.825000X0*%
%ADD13RoundRect,0.250000X0.337500X0.475000X-0.337500X0.475000X-0.337500X-0.475000X0.337500X-0.475000X0*%
%ADD14RoundRect,0.150000X0.150000X-0.825000X0.150000X0.825000X-0.150000X0.825000X-0.150000X-0.825000X0*%
%ADD15RoundRect,0.150000X0.150000X-0.875000X0.150000X0.875000X-0.150000X0.875000X-0.150000X-0.875000X0*%
%ADD16RoundRect,0.250000X-0.475000X0.337500X-0.475000X-0.337500X0.475000X-0.337500X0.475000X0.337500X0*%
G04 APERTURE END LIST*
D10*
%TO.C,C2*%
X82982200Y-80010000D03*
X85057200Y-80010000D03*
%TD*%
%TO.C,C16*%
X71098500Y-54864000D03*
X73173500Y-54864000D03*
%TD*%
D11*
%TO.C,C12*%
X58166000Y-64516000D03*
X58166000Y-62441000D03*
%TD*%
D12*
%TO.C,U2*%
X74367700Y-72650000D03*
X75637700Y-72650000D03*
X76907700Y-72650000D03*
X78177700Y-72650000D03*
X79447700Y-72650000D03*
X80717700Y-72650000D03*
X81987700Y-72650000D03*
X83257700Y-72650000D03*
X83257700Y-77600000D03*
X81987700Y-77600000D03*
X80717700Y-77600000D03*
X79447700Y-77600000D03*
X78177700Y-77600000D03*
X76907700Y-77600000D03*
X75637700Y-77600000D03*
X74367700Y-77600000D03*
%TD*%
D13*
%TO.C,C5*%
X106160700Y-69850000D03*
X104085700Y-69850000D03*
%TD*%
D14*
%TO.C,U7*%
X70303700Y-74292000D03*
X69033700Y-74292000D03*
X67763700Y-74292000D03*
X66493700Y-74292000D03*
X65223700Y-74292000D03*
X63953700Y-74292000D03*
X62683700Y-74292000D03*
X61413700Y-74292000D03*
X61413700Y-69342000D03*
X62683700Y-69342000D03*
X63953700Y-69342000D03*
X65223700Y-69342000D03*
X66493700Y-69342000D03*
X67763700Y-69342000D03*
X69033700Y-69342000D03*
X70303700Y-69342000D03*
%TD*%
%TO.C,U5*%
X106117700Y-77470000D03*
X104847700Y-77470000D03*
X103577700Y-77470000D03*
X102307700Y-77470000D03*
X101037700Y-77470000D03*
X99767700Y-77470000D03*
X98497700Y-77470000D03*
X97227700Y-77470000D03*
X97227700Y-72520000D03*
X98497700Y-72520000D03*
X99767700Y-72520000D03*
X101037700Y-72520000D03*
X102307700Y-72520000D03*
X103577700Y-72520000D03*
X104847700Y-72520000D03*
X106117700Y-72520000D03*
%TD*%
D13*
%TO.C,C15*%
X72687000Y-60960000D03*
X70612000Y-60960000D03*
%TD*%
D10*
%TO.C,C3*%
X86262700Y-69850000D03*
X88337700Y-69850000D03*
%TD*%
D15*
%TO.C,U6*%
X106371700Y-64164000D03*
X105101700Y-64164000D03*
X103831700Y-64164000D03*
X102561700Y-64164000D03*
X101291700Y-64164000D03*
X100021700Y-64164000D03*
X98751700Y-64164000D03*
X97481700Y-64164000D03*
X96211700Y-64164000D03*
X94941700Y-64164000D03*
X94941700Y-54864000D03*
X96211700Y-54864000D03*
X97481700Y-54864000D03*
X98751700Y-54864000D03*
X100021700Y-54864000D03*
X101291700Y-54864000D03*
X102561700Y-54864000D03*
X103831700Y-54864000D03*
X105101700Y-54864000D03*
X106371700Y-54864000D03*
%TD*%
D16*
%TO.C,C6*%
X109419700Y-57128500D03*
X109419700Y-59203500D03*
%TD*%
D11*
%TO.C,C13*%
X113229700Y-68369000D03*
X113229700Y-66294000D03*
%TD*%
D16*
%TO.C,C9*%
X58928000Y-55626000D03*
X58928000Y-57701000D03*
%TD*%
D10*
%TO.C,C4*%
X73130500Y-69342000D03*
X75205500Y-69342000D03*
%TD*%
D11*
%TO.C,C8*%
X79248000Y-57785000D03*
X79248000Y-55710000D03*
%TD*%
D13*
%TO.C,C1*%
X61456700Y-80264000D03*
X59381700Y-80264000D03*
%TD*%
D14*
%TO.C,U3*%
X94941700Y-77470000D03*
X93671700Y-77470000D03*
X92401700Y-77470000D03*
X91131700Y-77470000D03*
X89861700Y-77470000D03*
X88591700Y-77470000D03*
X87321700Y-77470000D03*
X86051700Y-77470000D03*
X86051700Y-72520000D03*
X87321700Y-72520000D03*
X88591700Y-72520000D03*
X89861700Y-72520000D03*
X91131700Y-72520000D03*
X92401700Y-72520000D03*
X93671700Y-72520000D03*
X94941700Y-72520000D03*
%TD*%
M02*
