%TF.GenerationSoftware,KiCad,Pcbnew,7.0.10*%
%TF.CreationDate,2024-02-26T12:25:31-08:00*%
%TF.ProjectId,vgaterm-top,76676174-6572-46d2-9d74-6f702e6b6963,rev?*%
%TF.SameCoordinates,Original*%
%TF.FileFunction,Soldermask,Bot*%
%TF.FilePolarity,Negative*%
%FSLAX46Y46*%
G04 Gerber Fmt 4.6, Leading zero omitted, Abs format (unit mm)*
G04 Created by KiCad (PCBNEW 7.0.10) date 2024-02-26 12:25:31*
%MOMM*%
%LPD*%
G01*
G04 APERTURE LIST*
G04 Aperture macros list*
%AMRoundRect*
0 Rectangle with rounded corners*
0 $1 Rounding radius*
0 $2 $3 $4 $5 $6 $7 $8 $9 X,Y pos of 4 corners*
0 Add a 4 corners polygon primitive as box body*
4,1,4,$2,$3,$4,$5,$6,$7,$8,$9,$2,$3,0*
0 Add four circle primitives for the rounded corners*
1,1,$1+$1,$2,$3*
1,1,$1+$1,$4,$5*
1,1,$1+$1,$6,$7*
1,1,$1+$1,$8,$9*
0 Add four rect primitives between the rounded corners*
20,1,$1+$1,$2,$3,$4,$5,0*
20,1,$1+$1,$4,$5,$6,$7,0*
20,1,$1+$1,$6,$7,$8,$9,0*
20,1,$1+$1,$8,$9,$2,$3,0*%
G04 Aperture macros list end*
%ADD10R,1.500000X1.500000*%
%ADD11R,1.600000X1.600000*%
%ADD12O,1.600000X1.600000*%
%ADD13R,1.700000X1.700000*%
%ADD14O,1.700000X1.700000*%
%ADD15RoundRect,0.250000X-0.337500X-0.475000X0.337500X-0.475000X0.337500X0.475000X-0.337500X0.475000X0*%
%ADD16RoundRect,0.250000X0.475000X-0.337500X0.475000X0.337500X-0.475000X0.337500X-0.475000X-0.337500X0*%
%ADD17RoundRect,0.150000X-0.150000X0.825000X-0.150000X-0.825000X0.150000X-0.825000X0.150000X0.825000X0*%
%ADD18RoundRect,0.250000X0.337500X0.475000X-0.337500X0.475000X-0.337500X-0.475000X0.337500X-0.475000X0*%
%ADD19RoundRect,0.150000X0.150000X-0.825000X0.150000X0.825000X-0.150000X0.825000X-0.150000X-0.825000X0*%
%ADD20RoundRect,0.150000X0.150000X-0.875000X0.150000X0.875000X-0.150000X0.875000X-0.150000X-0.875000X0*%
%ADD21RoundRect,0.250000X-0.475000X0.337500X-0.475000X-0.337500X0.475000X-0.337500X0.475000X0.337500X0*%
G04 APERTURE END LIST*
D10*
%TO.C,TP3*%
X75946000Y-64262000D03*
%TD*%
D11*
%TO.C,U4*%
X73097700Y-82426000D03*
D12*
X75637700Y-82426000D03*
X78177700Y-82426000D03*
X80717700Y-82426000D03*
X83257700Y-82426000D03*
X85797700Y-82426000D03*
X88337700Y-82426000D03*
X90877700Y-82426000D03*
X93417700Y-82426000D03*
X95957700Y-82426000D03*
X98497700Y-82426000D03*
X101037700Y-82426000D03*
X103577700Y-82426000D03*
X106117700Y-82426000D03*
X106117700Y-67186000D03*
X103577700Y-67186000D03*
X101037700Y-67186000D03*
X98497700Y-67186000D03*
X95957700Y-67186000D03*
X93417700Y-67186000D03*
X90877700Y-67186000D03*
X88337700Y-67186000D03*
X85797700Y-67186000D03*
X83257700Y-67186000D03*
X80717700Y-67186000D03*
X78177700Y-67186000D03*
X75637700Y-67186000D03*
X73097700Y-67186000D03*
%TD*%
D11*
%TO.C,X1*%
X56134000Y-54864000D03*
D12*
X56134000Y-57404000D03*
X56134000Y-59944000D03*
X56134000Y-62484000D03*
X63754000Y-62484000D03*
X63754000Y-59944000D03*
X63754000Y-57404000D03*
X63754000Y-54864000D03*
%TD*%
D10*
%TO.C,TP2*%
X65786000Y-65405000D03*
%TD*%
%TO.C,TP1*%
X58928000Y-82804000D03*
%TD*%
D13*
%TO.C,J2*%
X109728000Y-67564000D03*
D14*
X109728000Y-70104000D03*
X109728000Y-72644000D03*
X109728000Y-75184000D03*
X109728000Y-77724000D03*
X109728000Y-80264000D03*
X109728000Y-82804000D03*
%TD*%
D15*
%TO.C,C2*%
X82982200Y-80010000D03*
X85057200Y-80010000D03*
%TD*%
%TO.C,C16*%
X71098500Y-54864000D03*
X73173500Y-54864000D03*
%TD*%
D16*
%TO.C,C12*%
X58166000Y-64516000D03*
X58166000Y-62441000D03*
%TD*%
D17*
%TO.C,U2*%
X74367700Y-72650000D03*
X75637700Y-72650000D03*
X76907700Y-72650000D03*
X78177700Y-72650000D03*
X79447700Y-72650000D03*
X80717700Y-72650000D03*
X81987700Y-72650000D03*
X83257700Y-72650000D03*
X83257700Y-77600000D03*
X81987700Y-77600000D03*
X80717700Y-77600000D03*
X79447700Y-77600000D03*
X78177700Y-77600000D03*
X76907700Y-77600000D03*
X75637700Y-77600000D03*
X74367700Y-77600000D03*
%TD*%
D18*
%TO.C,C5*%
X106160700Y-69850000D03*
X104085700Y-69850000D03*
%TD*%
D19*
%TO.C,U7*%
X70303700Y-74292000D03*
X69033700Y-74292000D03*
X67763700Y-74292000D03*
X66493700Y-74292000D03*
X65223700Y-74292000D03*
X63953700Y-74292000D03*
X62683700Y-74292000D03*
X61413700Y-74292000D03*
X61413700Y-69342000D03*
X62683700Y-69342000D03*
X63953700Y-69342000D03*
X65223700Y-69342000D03*
X66493700Y-69342000D03*
X67763700Y-69342000D03*
X69033700Y-69342000D03*
X70303700Y-69342000D03*
%TD*%
D13*
%TO.C,J1*%
X56388000Y-82804000D03*
D14*
X56388000Y-80264000D03*
X56388000Y-77724000D03*
X56388000Y-75184000D03*
X56388000Y-72644000D03*
X56388000Y-70104000D03*
X56388000Y-67564000D03*
%TD*%
D19*
%TO.C,U5*%
X106117700Y-77470000D03*
X104847700Y-77470000D03*
X103577700Y-77470000D03*
X102307700Y-77470000D03*
X101037700Y-77470000D03*
X99767700Y-77470000D03*
X98497700Y-77470000D03*
X97227700Y-77470000D03*
X97227700Y-72520000D03*
X98497700Y-72520000D03*
X99767700Y-72520000D03*
X101037700Y-72520000D03*
X102307700Y-72520000D03*
X103577700Y-72520000D03*
X104847700Y-72520000D03*
X106117700Y-72520000D03*
%TD*%
D18*
%TO.C,C15*%
X72687000Y-60960000D03*
X70612000Y-60960000D03*
%TD*%
D15*
%TO.C,C3*%
X86262700Y-69850000D03*
X88337700Y-69850000D03*
%TD*%
D20*
%TO.C,U6*%
X106371700Y-64164000D03*
X105101700Y-64164000D03*
X103831700Y-64164000D03*
X102561700Y-64164000D03*
X101291700Y-64164000D03*
X100021700Y-64164000D03*
X98751700Y-64164000D03*
X97481700Y-64164000D03*
X96211700Y-64164000D03*
X94941700Y-64164000D03*
X94941700Y-54864000D03*
X96211700Y-54864000D03*
X97481700Y-54864000D03*
X98751700Y-54864000D03*
X100021700Y-54864000D03*
X101291700Y-54864000D03*
X102561700Y-54864000D03*
X103831700Y-54864000D03*
X105101700Y-54864000D03*
X106371700Y-54864000D03*
%TD*%
D21*
%TO.C,C6*%
X109419700Y-57128500D03*
X109419700Y-59203500D03*
%TD*%
D16*
%TO.C,C13*%
X113229700Y-68369000D03*
X113229700Y-66294000D03*
%TD*%
D21*
%TO.C,C9*%
X58928000Y-55626000D03*
X58928000Y-57701000D03*
%TD*%
D15*
%TO.C,C4*%
X73130500Y-69342000D03*
X75205500Y-69342000D03*
%TD*%
D16*
%TO.C,C8*%
X79248000Y-57785000D03*
X79248000Y-55710000D03*
%TD*%
D18*
%TO.C,C1*%
X61456700Y-80264000D03*
X59381700Y-80264000D03*
%TD*%
D19*
%TO.C,U3*%
X94941700Y-77470000D03*
X93671700Y-77470000D03*
X92401700Y-77470000D03*
X91131700Y-77470000D03*
X89861700Y-77470000D03*
X88591700Y-77470000D03*
X87321700Y-77470000D03*
X86051700Y-77470000D03*
X86051700Y-72520000D03*
X87321700Y-72520000D03*
X88591700Y-72520000D03*
X89861700Y-72520000D03*
X91131700Y-72520000D03*
X92401700Y-72520000D03*
X93671700Y-72520000D03*
X94941700Y-72520000D03*
%TD*%
M02*
