%TF.GenerationSoftware,KiCad,Pcbnew,7.0.10*%
%TF.CreationDate,2024-02-26T12:25:31-08:00*%
%TF.ProjectId,vgaterm-top,76676174-6572-46d2-9d74-6f702e6b6963,rev?*%
%TF.SameCoordinates,Original*%
%TF.FileFunction,Copper,L2,Bot*%
%TF.FilePolarity,Positive*%
%FSLAX46Y46*%
G04 Gerber Fmt 4.6, Leading zero omitted, Abs format (unit mm)*
G04 Created by KiCad (PCBNEW 7.0.10) date 2024-02-26 12:25:31*
%MOMM*%
%LPD*%
G01*
G04 APERTURE LIST*
G04 Aperture macros list*
%AMRoundRect*
0 Rectangle with rounded corners*
0 $1 Rounding radius*
0 $2 $3 $4 $5 $6 $7 $8 $9 X,Y pos of 4 corners*
0 Add a 4 corners polygon primitive as box body*
4,1,4,$2,$3,$4,$5,$6,$7,$8,$9,$2,$3,0*
0 Add four circle primitives for the rounded corners*
1,1,$1+$1,$2,$3*
1,1,$1+$1,$4,$5*
1,1,$1+$1,$6,$7*
1,1,$1+$1,$8,$9*
0 Add four rect primitives between the rounded corners*
20,1,$1+$1,$2,$3,$4,$5,0*
20,1,$1+$1,$4,$5,$6,$7,0*
20,1,$1+$1,$6,$7,$8,$9,0*
20,1,$1+$1,$8,$9,$2,$3,0*%
G04 Aperture macros list end*
%TA.AperFunction,ComponentPad*%
%ADD10R,1.500000X1.500000*%
%TD*%
%TA.AperFunction,ComponentPad*%
%ADD11R,1.600000X1.600000*%
%TD*%
%TA.AperFunction,ComponentPad*%
%ADD12O,1.600000X1.600000*%
%TD*%
%TA.AperFunction,ComponentPad*%
%ADD13R,1.700000X1.700000*%
%TD*%
%TA.AperFunction,ComponentPad*%
%ADD14O,1.700000X1.700000*%
%TD*%
%TA.AperFunction,SMDPad,CuDef*%
%ADD15RoundRect,0.250000X-0.337500X-0.475000X0.337500X-0.475000X0.337500X0.475000X-0.337500X0.475000X0*%
%TD*%
%TA.AperFunction,SMDPad,CuDef*%
%ADD16RoundRect,0.250000X0.475000X-0.337500X0.475000X0.337500X-0.475000X0.337500X-0.475000X-0.337500X0*%
%TD*%
%TA.AperFunction,SMDPad,CuDef*%
%ADD17RoundRect,0.150000X-0.150000X0.825000X-0.150000X-0.825000X0.150000X-0.825000X0.150000X0.825000X0*%
%TD*%
%TA.AperFunction,SMDPad,CuDef*%
%ADD18RoundRect,0.250000X0.337500X0.475000X-0.337500X0.475000X-0.337500X-0.475000X0.337500X-0.475000X0*%
%TD*%
%TA.AperFunction,SMDPad,CuDef*%
%ADD19RoundRect,0.150000X0.150000X-0.825000X0.150000X0.825000X-0.150000X0.825000X-0.150000X-0.825000X0*%
%TD*%
%TA.AperFunction,SMDPad,CuDef*%
%ADD20RoundRect,0.150000X0.150000X-0.875000X0.150000X0.875000X-0.150000X0.875000X-0.150000X-0.875000X0*%
%TD*%
%TA.AperFunction,SMDPad,CuDef*%
%ADD21RoundRect,0.250000X-0.475000X0.337500X-0.475000X-0.337500X0.475000X-0.337500X0.475000X0.337500X0*%
%TD*%
%TA.AperFunction,ViaPad*%
%ADD22C,0.800000*%
%TD*%
%TA.AperFunction,Conductor*%
%ADD23C,0.400000*%
%TD*%
%TA.AperFunction,Conductor*%
%ADD24C,0.250000*%
%TD*%
%TA.AperFunction,Conductor*%
%ADD25C,0.500000*%
%TD*%
G04 APERTURE END LIST*
D10*
%TO.P,TP3,1,1*%
%TO.N,Net-(JP3-C)*%
X75946000Y-64262000D03*
%TD*%
D11*
%TO.P,U4,1,A14*%
%TO.N,/A14*%
X73097700Y-82426000D03*
D12*
%TO.P,U4,2,A12*%
%TO.N,/A12*%
X75637700Y-82426000D03*
%TO.P,U4,3,A7*%
%TO.N,/A7*%
X78177700Y-82426000D03*
%TO.P,U4,4,A6*%
%TO.N,/A6*%
X80717700Y-82426000D03*
%TO.P,U4,5,A5*%
%TO.N,/A5*%
X83257700Y-82426000D03*
%TO.P,U4,6,A4*%
%TO.N,/A4*%
X85797700Y-82426000D03*
%TO.P,U4,7,A3*%
%TO.N,/A3*%
X88337700Y-82426000D03*
%TO.P,U4,8,A2*%
%TO.N,/A2*%
X90877700Y-82426000D03*
%TO.P,U4,9,A1*%
%TO.N,/A1*%
X93417700Y-82426000D03*
%TO.P,U4,10,A0*%
%TO.N,/A0*%
X95957700Y-82426000D03*
%TO.P,U4,11,D0*%
%TO.N,Net-(U4-D0)*%
X98497700Y-82426000D03*
%TO.P,U4,12,D1*%
%TO.N,Net-(U4-D1)*%
X101037700Y-82426000D03*
%TO.P,U4,13,D2*%
%TO.N,Net-(U4-D2)*%
X103577700Y-82426000D03*
%TO.P,U4,14,GND*%
%TO.N,GND*%
X106117700Y-82426000D03*
%TO.P,U4,15,D3*%
%TO.N,Net-(U4-D3)*%
X106117700Y-67186000D03*
%TO.P,U4,16,D4*%
%TO.N,Net-(U4-D4)*%
X103577700Y-67186000D03*
%TO.P,U4,17,D5*%
%TO.N,Net-(U4-D5)*%
X101037700Y-67186000D03*
%TO.P,U4,18,D6*%
%TO.N,Net-(U4-D6)*%
X98497700Y-67186000D03*
%TO.P,U4,19,D7*%
%TO.N,/~{RESET}*%
X95957700Y-67186000D03*
%TO.P,U4,20,~{CS}*%
%TO.N,GND*%
X93417700Y-67186000D03*
%TO.P,U4,21,A10*%
%TO.N,/A10*%
X90877700Y-67186000D03*
%TO.P,U4,22,~{OE}*%
%TO.N,GND*%
X88337700Y-67186000D03*
%TO.P,U4,23,A11*%
%TO.N,/A11*%
X85797700Y-67186000D03*
%TO.P,U4,24,A9*%
%TO.N,/A9*%
X83257700Y-67186000D03*
%TO.P,U4,25,A8*%
%TO.N,/A8*%
X80717700Y-67186000D03*
%TO.P,U4,26,A13*%
%TO.N,/A13*%
X78177700Y-67186000D03*
%TO.P,U4,27,~{WE}*%
%TO.N,VCC*%
X75637700Y-67186000D03*
%TO.P,U4,28,VCC*%
X73097700Y-67186000D03*
%TD*%
D11*
%TO.P,X1,1,EN*%
%TO.N,VCC*%
X56134000Y-54864000D03*
D12*
%TO.P,X1,2*%
%TO.N,N/C*%
X56134000Y-57404000D03*
%TO.P,X1,3*%
X56134000Y-59944000D03*
%TO.P,X1,4,GND*%
%TO.N,GND*%
X56134000Y-62484000D03*
%TO.P,X1,5,OUT*%
%TO.N,Net-(X1-OUT)*%
X63754000Y-62484000D03*
%TO.P,X1,6*%
%TO.N,N/C*%
X63754000Y-59944000D03*
%TO.P,X1,7*%
X63754000Y-57404000D03*
%TO.P,X1,8,Vcc*%
%TO.N,VCC*%
X63754000Y-54864000D03*
%TD*%
D10*
%TO.P,TP2,1,1*%
%TO.N,/Clk*%
X65786000Y-65405000D03*
%TD*%
%TO.P,TP1,1,1*%
%TO.N,Net-(J1-Pin_1)*%
X58928000Y-82804000D03*
%TD*%
D13*
%TO.P,J2,1,Pin_1*%
%TO.N,/HSYNC_{sel}*%
X109728000Y-67564000D03*
D14*
%TO.P,J2,2,Pin_2*%
%TO.N,/VSYNC_{sel}*%
X109728000Y-70104000D03*
%TO.P,J2,3,Pin_3*%
%TO.N,VCC*%
X109728000Y-72644000D03*
%TO.P,J2,4,Pin_4*%
%TO.N,/VertVis*%
X109728000Y-75184000D03*
%TO.P,J2,5,Pin_5*%
%TO.N,GND*%
X109728000Y-77724000D03*
%TO.P,J2,6,Pin_6*%
X109728000Y-80264000D03*
%TO.P,J2,7,Pin_7*%
%TO.N,/HVis*%
X109728000Y-82804000D03*
%TD*%
D15*
%TO.P,C2,1*%
%TO.N,VCC*%
X82982200Y-80010000D03*
%TO.P,C2,2*%
%TO.N,GND*%
X85057200Y-80010000D03*
%TD*%
%TO.P,C16,1*%
%TO.N,/~{Clk}*%
X71098500Y-54864000D03*
%TO.P,C16,2*%
%TO.N,GND*%
X73173500Y-54864000D03*
%TD*%
D16*
%TO.P,C12,1*%
%TO.N,VCC*%
X58166000Y-64516000D03*
%TO.P,C12,2*%
%TO.N,GND*%
X58166000Y-62441000D03*
%TD*%
D17*
%TO.P,U2,1,~{MR}*%
%TO.N,/~{RESET}*%
X74367700Y-72650000D03*
%TO.P,U2,2,CP*%
%TO.N,/CLK_{sync}*%
X75637700Y-72650000D03*
%TO.P,U2,3,D0*%
%TO.N,GND*%
X76907700Y-72650000D03*
%TO.P,U2,4,D1*%
X78177700Y-72650000D03*
%TO.P,U2,5,D2*%
X79447700Y-72650000D03*
%TO.P,U2,6,D3*%
X80717700Y-72650000D03*
%TO.P,U2,7,CEP*%
%TO.N,VCC*%
X81987700Y-72650000D03*
%TO.P,U2,8,GND*%
%TO.N,GND*%
X83257700Y-72650000D03*
%TO.P,U2,9,~{PE}*%
%TO.N,VCC*%
X83257700Y-77600000D03*
%TO.P,U2,10,CET*%
%TO.N,Net-(U2-CET)*%
X81987700Y-77600000D03*
%TO.P,U2,11,Q3*%
%TO.N,/A11*%
X80717700Y-77600000D03*
%TO.P,U2,12,Q2*%
%TO.N,/A10*%
X79447700Y-77600000D03*
%TO.P,U2,13,Q1*%
%TO.N,/A9*%
X78177700Y-77600000D03*
%TO.P,U2,14,Q0*%
%TO.N,/A8*%
X76907700Y-77600000D03*
%TO.P,U2,15,TC*%
%TO.N,Net-(U1-CET)*%
X75637700Y-77600000D03*
%TO.P,U2,16,VCC*%
%TO.N,VCC*%
X74367700Y-77600000D03*
%TD*%
D18*
%TO.P,C5,1*%
%TO.N,VCC*%
X106160700Y-69850000D03*
%TO.P,C5,2*%
%TO.N,GND*%
X104085700Y-69850000D03*
%TD*%
D19*
%TO.P,U7,1,~{MR}*%
%TO.N,VCC*%
X70303700Y-74292000D03*
%TO.P,U7,2,CP*%
%TO.N,/Clk*%
X69033700Y-74292000D03*
%TO.P,U7,3,D0*%
%TO.N,GND*%
X67763700Y-74292000D03*
%TO.P,U7,4,D1*%
X66493700Y-74292000D03*
%TO.P,U7,5,D2*%
X65223700Y-74292000D03*
%TO.P,U7,6,D3*%
X63953700Y-74292000D03*
%TO.P,U7,7,CEP*%
%TO.N,VCC*%
X62683700Y-74292000D03*
%TO.P,U7,8,GND*%
%TO.N,GND*%
X61413700Y-74292000D03*
%TO.P,U7,9,~{PE}*%
%TO.N,VCC*%
X61413700Y-69342000D03*
%TO.P,U7,10,CET*%
X62683700Y-69342000D03*
%TO.P,U7,11,Q3*%
%TO.N,/CLK_{sync}*%
X63953700Y-69342000D03*
%TO.P,U7,12,Q2*%
%TO.N,unconnected-(U7-Q2-Pad12)*%
X65223700Y-69342000D03*
%TO.P,U7,13,Q1*%
%TO.N,unconnected-(U7-Q1-Pad13)*%
X66493700Y-69342000D03*
%TO.P,U7,14,Q0*%
%TO.N,unconnected-(U7-Q0-Pad14)*%
X67763700Y-69342000D03*
%TO.P,U7,15,TC*%
%TO.N,unconnected-(U7-TC-Pad15)*%
X69033700Y-69342000D03*
%TO.P,U7,16,VCC*%
%TO.N,VCC*%
X70303700Y-69342000D03*
%TD*%
D13*
%TO.P,J1,1,Pin_1*%
%TO.N,Net-(J1-Pin_1)*%
X56388000Y-82804000D03*
D14*
%TO.P,J1,2,Pin_2*%
%TO.N,/Clk*%
X56388000Y-80264000D03*
%TO.P,J1,3,Pin_3*%
%TO.N,GND*%
X56388000Y-77724000D03*
%TO.P,J1,4,Pin_4*%
%TO.N,/Vis*%
X56388000Y-75184000D03*
%TO.P,J1,5,Pin_5*%
%TO.N,/~{Vis}*%
X56388000Y-72644000D03*
%TO.P,J1,6,Pin_6*%
%TO.N,/~{StartFrame}*%
X56388000Y-70104000D03*
%TO.P,J1,7,Pin_7*%
%TO.N,VCC*%
X56388000Y-67564000D03*
%TD*%
D19*
%TO.P,U5,1,~{MR}*%
%TO.N,/~{RESET}*%
X106117700Y-77470000D03*
%TO.P,U5,2,CP*%
%TO.N,/CLK_{sync}*%
X104847700Y-77470000D03*
%TO.P,U5,3,D0*%
%TO.N,GND*%
X103577700Y-77470000D03*
%TO.P,U5,4,D1*%
X102307700Y-77470000D03*
%TO.P,U5,5,D2*%
X101037700Y-77470000D03*
%TO.P,U5,6,D3*%
X99767700Y-77470000D03*
%TO.P,U5,7,CEP*%
%TO.N,VCC*%
X98497700Y-77470000D03*
%TO.P,U5,8,GND*%
%TO.N,GND*%
X97227700Y-77470000D03*
%TO.P,U5,9,~{PE}*%
%TO.N,VCC*%
X97227700Y-72520000D03*
%TO.P,U5,10,CET*%
X98497700Y-72520000D03*
%TO.P,U5,11,Q3*%
%TO.N,/A3*%
X99767700Y-72520000D03*
%TO.P,U5,12,Q2*%
%TO.N,/A2*%
X101037700Y-72520000D03*
%TO.P,U5,13,Q1*%
%TO.N,/A1*%
X102307700Y-72520000D03*
%TO.P,U5,14,Q0*%
%TO.N,/A0*%
X103577700Y-72520000D03*
%TO.P,U5,15,TC*%
%TO.N,Net-(U3-CET)*%
X104847700Y-72520000D03*
%TO.P,U5,16,VCC*%
%TO.N,VCC*%
X106117700Y-72520000D03*
%TD*%
D18*
%TO.P,C15,1*%
%TO.N,/Clk*%
X72687000Y-60960000D03*
%TO.P,C15,2*%
%TO.N,GND*%
X70612000Y-60960000D03*
%TD*%
D15*
%TO.P,C3,1*%
%TO.N,VCC*%
X86262700Y-69850000D03*
%TO.P,C3,2*%
%TO.N,GND*%
X88337700Y-69850000D03*
%TD*%
D20*
%TO.P,U6,1,OE*%
%TO.N,GND*%
X106371700Y-64164000D03*
%TO.P,U6,2,D0*%
%TO.N,Net-(U4-D0)*%
X105101700Y-64164000D03*
%TO.P,U6,3,D1*%
%TO.N,Net-(U4-D1)*%
X103831700Y-64164000D03*
%TO.P,U6,4,D2*%
%TO.N,Net-(U4-D2)*%
X102561700Y-64164000D03*
%TO.P,U6,5,D3*%
%TO.N,Net-(U4-D3)*%
X101291700Y-64164000D03*
%TO.P,U6,6,D4*%
%TO.N,Net-(U4-D4)*%
X100021700Y-64164000D03*
%TO.P,U6,7,D5*%
%TO.N,Net-(U4-D5)*%
X98751700Y-64164000D03*
%TO.P,U6,8,D6*%
%TO.N,Net-(U4-D6)*%
X97481700Y-64164000D03*
%TO.P,U6,9,D7*%
%TO.N,GND*%
X96211700Y-64164000D03*
%TO.P,U6,10,GND*%
X94941700Y-64164000D03*
%TO.P,U6,11,Cp*%
%TO.N,Net-(JP3-C)*%
X94941700Y-54864000D03*
%TO.P,U6,12,Q7*%
%TO.N,unconnected-(U6-Q7-Pad12)*%
X96211700Y-54864000D03*
%TO.P,U6,13,Q6*%
%TO.N,/~{StartFrame}*%
X97481700Y-54864000D03*
%TO.P,U6,14,Q5*%
%TO.N,/~{Vis}*%
X98751700Y-54864000D03*
%TO.P,U6,15,Q4*%
%TO.N,/Vis*%
X100021700Y-54864000D03*
%TO.P,U6,16,Q3*%
%TO.N,/Vsync*%
X101291700Y-54864000D03*
%TO.P,U6,17,Q2*%
%TO.N,/VertVis*%
X102561700Y-54864000D03*
%TO.P,U6,18,Q1*%
%TO.N,/HSync*%
X103831700Y-54864000D03*
%TO.P,U6,19,Q0*%
%TO.N,/HVis*%
X105101700Y-54864000D03*
%TO.P,U6,20,VCC*%
%TO.N,VCC*%
X106371700Y-54864000D03*
%TD*%
D21*
%TO.P,C6,1*%
%TO.N,VCC*%
X109419700Y-57128500D03*
%TO.P,C6,2*%
%TO.N,GND*%
X109419700Y-59203500D03*
%TD*%
D16*
%TO.P,C13,1*%
%TO.N,VCC*%
X113229700Y-68369000D03*
%TO.P,C13,2*%
%TO.N,GND*%
X113229700Y-66294000D03*
%TD*%
D21*
%TO.P,C9,1*%
%TO.N,VCC*%
X58928000Y-55626000D03*
%TO.P,C9,2*%
%TO.N,GND*%
X58928000Y-57701000D03*
%TD*%
D15*
%TO.P,C4,1*%
%TO.N,VCC*%
X73130500Y-69342000D03*
%TO.P,C4,2*%
%TO.N,GND*%
X75205500Y-69342000D03*
%TD*%
D16*
%TO.P,C8,1*%
%TO.N,VCC*%
X79248000Y-57785000D03*
%TO.P,C8,2*%
%TO.N,GND*%
X79248000Y-55710000D03*
%TD*%
D18*
%TO.P,C1,1*%
%TO.N,VCC*%
X61456700Y-80264000D03*
%TO.P,C1,2*%
%TO.N,GND*%
X59381700Y-80264000D03*
%TD*%
D19*
%TO.P,U3,1,~{MR}*%
%TO.N,/~{RESET}*%
X94941700Y-77470000D03*
%TO.P,U3,2,CP*%
%TO.N,/CLK_{sync}*%
X93671700Y-77470000D03*
%TO.P,U3,3,D0*%
%TO.N,GND*%
X92401700Y-77470000D03*
%TO.P,U3,4,D1*%
X91131700Y-77470000D03*
%TO.P,U3,5,D2*%
X89861700Y-77470000D03*
%TO.P,U3,6,D3*%
X88591700Y-77470000D03*
%TO.P,U3,7,CEP*%
%TO.N,VCC*%
X87321700Y-77470000D03*
%TO.P,U3,8,GND*%
%TO.N,GND*%
X86051700Y-77470000D03*
%TO.P,U3,9,~{PE}*%
%TO.N,VCC*%
X86051700Y-72520000D03*
%TO.P,U3,10,CET*%
%TO.N,Net-(U3-CET)*%
X87321700Y-72520000D03*
%TO.P,U3,11,Q3*%
%TO.N,/A7*%
X88591700Y-72520000D03*
%TO.P,U3,12,Q2*%
%TO.N,/A6*%
X89861700Y-72520000D03*
%TO.P,U3,13,Q1*%
%TO.N,/A5*%
X91131700Y-72520000D03*
%TO.P,U3,14,Q0*%
%TO.N,/A4*%
X92401700Y-72520000D03*
%TO.P,U3,15,TC*%
%TO.N,Net-(U2-CET)*%
X93671700Y-72520000D03*
%TO.P,U3,16,VCC*%
%TO.N,VCC*%
X94941700Y-72520000D03*
%TD*%
D22*
%TO.N,VCC*%
X62230000Y-79502000D03*
%TO.N,GND*%
X73152000Y-71628000D03*
X74930000Y-70522000D03*
%TO.N,VCC*%
X62107653Y-67441653D03*
%TO.N,GND*%
X67314653Y-67568653D03*
X68580000Y-71628000D03*
X66548000Y-72136000D03*
%TO.N,VCC*%
X69850000Y-72898000D03*
X73152000Y-73406000D03*
X107188000Y-69850000D03*
%TO.N,GND*%
X87952630Y-62967566D03*
X91694000Y-64262000D03*
%TO.N,VCC*%
X71065700Y-81534000D03*
X97989700Y-75692000D03*
X57912000Y-55626000D03*
X96973700Y-71120000D03*
X79629000Y-60960000D03*
X105355700Y-74676000D03*
X112776000Y-61722000D03*
X77978000Y-63754000D03*
X61468000Y-70612000D03*
X98497700Y-74168000D03*
X62683700Y-75692000D03*
X71827700Y-69342000D03*
X107133700Y-54864000D03*
X109419700Y-56134000D03*
X78359000Y-57150000D03*
X72335700Y-79502000D03*
X86051700Y-73660000D03*
X86813700Y-75438000D03*
X95021200Y-71120000D03*
X74113700Y-78740000D03*
X61595000Y-59436000D03*
X83257700Y-76454000D03*
%TO.N,GND*%
X67509700Y-79248000D03*
X69596000Y-57912000D03*
X66548000Y-63500000D03*
X96207401Y-77719701D03*
X103069700Y-80264000D03*
X70049700Y-66294000D03*
X69596000Y-64008000D03*
X66548000Y-57658000D03*
X71628000Y-57912000D03*
X84527700Y-73660000D03*
X65278000Y-75946000D03*
X92401700Y-78994000D03*
X84527700Y-76200000D03*
X60397700Y-77470000D03*
X63953700Y-79248000D03*
X71628000Y-64008000D03*
X78994000Y-64262000D03*
%TO.N,/~{Clk}*%
X71882000Y-55626000D03*
%TO.N,/Clk*%
X78486000Y-60611000D03*
X63500000Y-67183000D03*
X71882000Y-61976000D03*
%TO.N,/VertVis*%
X113134200Y-70612000D03*
X102561700Y-56134000D03*
%TO.N,/HVis*%
X105101700Y-56134000D03*
X113134200Y-77470000D03*
%TO.N,/~{RESET}*%
X74363401Y-74925701D03*
X96442650Y-74915550D03*
%TO.N,/CLK_{sync}*%
X75125401Y-74163701D03*
X64389000Y-67691000D03*
%TO.N,Net-(U1-CET)*%
X63944827Y-80910500D03*
X75895999Y-78989701D03*
X75506401Y-80649299D03*
%TO.N,Net-(U2-CET)*%
X91639700Y-70866000D03*
X82171036Y-78829806D03*
%TO.N,/A11*%
X80717700Y-74930000D03*
%TO.N,/A10*%
X79955700Y-75692000D03*
%TO.N,/A9*%
X78177700Y-74930000D03*
%TO.N,/A8*%
X76907700Y-74930000D03*
%TO.N,/A7*%
X88591700Y-74676000D03*
%TO.N,/A6*%
X89861700Y-74676000D03*
%TO.N,/A5*%
X91131700Y-74676000D03*
%TO.N,/A4*%
X92401700Y-74676000D03*
%TO.N,/A3*%
X99767700Y-74676000D03*
%TO.N,/A2*%
X101033401Y-74671701D03*
%TO.N,/A1*%
X102053700Y-74676000D03*
%TO.N,/A0*%
X103577700Y-74676000D03*
%TO.N,Net-(U4-D0)*%
X105609700Y-62230000D03*
%TO.N,Net-(U4-D1)*%
X104847700Y-61468000D03*
%TO.N,Net-(U4-D2)*%
X104016064Y-60913576D03*
%TO.N,/Vsync*%
X101064850Y-57630850D03*
X82042000Y-61468000D03*
%TO.N,/HSync*%
X80772000Y-62738000D03*
%TO.N,/HSYNC_{1}*%
X91821000Y-62230000D03*
X83321305Y-62239306D03*
%TO.N,/VSYNC_{1}*%
X97155000Y-61087000D03*
X85083777Y-61346186D03*
%TO.N,/HSYNC_{2}*%
X85852000Y-60706000D03*
X92456000Y-59733000D03*
%TO.N,/VSYNC_{2}*%
X87376000Y-60458000D03*
X97155000Y-59733000D03*
%TO.N,Net-(JP3-C)*%
X80645000Y-56767000D03*
%TD*%
D23*
%TO.N,GND*%
X59381700Y-80463700D02*
X60452000Y-81534000D01*
D24*
X59381700Y-80264000D02*
X59381700Y-80463700D01*
%TO.N,VCC*%
X61468000Y-80264000D02*
X62230000Y-79502000D01*
X61456700Y-80264000D02*
X61468000Y-80264000D01*
D25*
%TO.N,GND*%
X75205500Y-70104000D02*
X75205500Y-70246500D01*
X75205500Y-70246500D02*
X74930000Y-70522000D01*
X75205500Y-69342000D02*
X75205500Y-70104000D01*
%TO.N,VCC*%
X61413700Y-68135606D02*
X62107653Y-67441653D01*
X61413700Y-69342000D02*
X61413700Y-68135606D01*
%TO.N,GND*%
X67056000Y-72517000D02*
X66929000Y-72517000D01*
X66929000Y-72517000D02*
X66548000Y-72136000D01*
D24*
%TO.N,VCC*%
X70303700Y-73351700D02*
X69850000Y-72898000D01*
X70303700Y-74292000D02*
X70303700Y-73351700D01*
D25*
X73406000Y-73660000D02*
X73152000Y-73406000D01*
X73406000Y-76454000D02*
X73406000Y-73660000D01*
X73406000Y-76638300D02*
X73406000Y-76454000D01*
X74367700Y-77600000D02*
X73406000Y-76638300D01*
%TO.N,GND*%
X105156000Y-68580000D02*
X106934000Y-68580000D01*
D24*
X104085700Y-68779700D02*
X104956300Y-68779700D01*
X104956300Y-68779700D02*
X105156000Y-68580000D01*
D25*
X103886000Y-68580000D02*
X103124000Y-68580000D01*
D24*
X104085700Y-69850000D02*
X104085700Y-68779700D01*
X104085700Y-68779700D02*
X103886000Y-68580000D01*
%TO.N,VCC*%
X107145000Y-69893000D02*
X107188000Y-69850000D01*
D25*
X106117700Y-69893000D02*
X107145000Y-69893000D01*
D24*
X98497700Y-76200000D02*
X97989700Y-75692000D01*
X84781700Y-74930000D02*
X82749700Y-74930000D01*
D25*
X95021200Y-71120000D02*
X96973700Y-71120000D01*
X112054700Y-67194000D02*
X112054700Y-64221300D01*
X77978000Y-62611000D02*
X77978000Y-63754000D01*
X61595000Y-57023000D02*
X63754000Y-54864000D01*
X113229700Y-68369000D02*
X112054700Y-67194000D01*
X106117700Y-72520000D02*
X106117700Y-69893000D01*
D23*
X87321700Y-75946000D02*
X86813700Y-75438000D01*
D24*
X109419700Y-57128500D02*
X109419700Y-56134000D01*
X74367700Y-77600000D02*
X74367700Y-78486000D01*
X86051700Y-72520000D02*
X86051700Y-73660000D01*
D25*
X71065700Y-80772000D02*
X72335700Y-79502000D01*
D24*
X81987700Y-74168000D02*
X81987700Y-72650000D01*
X106117700Y-69893000D02*
X106160700Y-69850000D01*
D25*
X61413700Y-69342000D02*
X61413700Y-70557700D01*
D24*
X83257700Y-78994000D02*
X83257700Y-77600000D01*
D25*
X71065700Y-81534000D02*
X71065700Y-80772000D01*
D24*
X106371700Y-54864000D02*
X107133700Y-54864000D01*
X82982200Y-79269500D02*
X82982200Y-80010000D01*
X83257700Y-77600000D02*
X83257700Y-76454000D01*
X78994000Y-57785000D02*
X78359000Y-57150000D01*
D25*
X106117700Y-72520000D02*
X106117700Y-73914000D01*
D24*
X58928000Y-55626000D02*
X57912000Y-55626000D01*
D25*
X112776000Y-63500000D02*
X112776000Y-61722000D01*
X79629000Y-60960000D02*
X77978000Y-62611000D01*
X112054700Y-64221300D02*
X112776000Y-63500000D01*
D24*
X56388000Y-67564000D02*
X56388000Y-66294000D01*
D23*
X86051700Y-70061000D02*
X86262700Y-69850000D01*
D25*
X71827700Y-69342000D02*
X73130500Y-69342000D01*
D24*
X97227700Y-72520000D02*
X97227700Y-71374000D01*
D25*
X106117700Y-73914000D02*
X105355700Y-74676000D01*
D24*
X82749700Y-74930000D02*
X81987700Y-74168000D01*
D25*
X70303700Y-69342000D02*
X71827700Y-69342000D01*
X61595000Y-57023000D02*
X61595000Y-59436000D01*
D24*
X94941700Y-71199500D02*
X95021200Y-71120000D01*
X97227700Y-71374000D02*
X96973700Y-71120000D01*
X97227700Y-72520000D02*
X98497700Y-72520000D01*
D23*
X87321700Y-77470000D02*
X87321700Y-75946000D01*
D24*
X86051700Y-73660000D02*
X84781700Y-74930000D01*
D25*
X113229700Y-69142300D02*
X113229700Y-68369000D01*
D24*
X56388000Y-66294000D02*
X58166000Y-64516000D01*
D25*
X109728000Y-72644000D02*
X113229700Y-69142300D01*
X61413700Y-70557700D02*
X61468000Y-70612000D01*
D24*
X94941700Y-72520000D02*
X94941700Y-71199500D01*
X83257700Y-78994000D02*
X82982200Y-79269500D01*
X98497700Y-72520000D02*
X98497700Y-74168000D01*
D25*
X61413700Y-69342000D02*
X62683700Y-69342000D01*
D24*
X79248000Y-57785000D02*
X78994000Y-57785000D01*
X98497700Y-77470000D02*
X98497700Y-76200000D01*
X62683700Y-74292000D02*
X62683700Y-75692000D01*
D23*
X86051700Y-72520000D02*
X86051700Y-70061000D01*
D24*
X74367700Y-78486000D02*
X74113700Y-78740000D01*
D25*
%TO.N,GND*%
X84925700Y-68436000D02*
X84781700Y-68580000D01*
D24*
X94054700Y-53465000D02*
X95578700Y-53465000D01*
D25*
X89099700Y-69850000D02*
X89607700Y-69342000D01*
X87087700Y-68436000D02*
X84925700Y-68436000D01*
X67763700Y-73224700D02*
X67056000Y-72517000D01*
D24*
X64645000Y-53465000D02*
X64770000Y-53465000D01*
X95578700Y-53465000D02*
X95703700Y-53465000D01*
D25*
X106371700Y-65532000D02*
X106879700Y-66040000D01*
X88337700Y-67186000D02*
X89662000Y-65861700D01*
X88337700Y-69850000D02*
X89099700Y-69850000D01*
X97227700Y-77470000D02*
X96457102Y-77470000D01*
X67763700Y-75492300D02*
X67310000Y-75946000D01*
D24*
X85035700Y-77470000D02*
X84527700Y-76962000D01*
D25*
X89662000Y-65861700D02*
X89662000Y-65786000D01*
X89731700Y-68580000D02*
X90115700Y-68580000D01*
D24*
X54993000Y-53465000D02*
X57785000Y-53465000D01*
D25*
X106371700Y-64164000D02*
X106371700Y-65532000D01*
X88337700Y-69850000D02*
X88337700Y-67186000D01*
D24*
X95703700Y-53465000D02*
X107258700Y-53465000D01*
X57785000Y-53465000D02*
X64645000Y-53465000D01*
D25*
X88337700Y-67186000D02*
X89731700Y-68580000D01*
D24*
X84527700Y-76962000D02*
X84527700Y-76200000D01*
D25*
X67763700Y-74292000D02*
X67763700Y-73224700D01*
D24*
X86051700Y-77470000D02*
X85035700Y-77470000D01*
X54991000Y-53467000D02*
X54993000Y-53465000D01*
D25*
X67763700Y-74292000D02*
X67763700Y-75492300D01*
X88337700Y-67186000D02*
X87087700Y-68436000D01*
D24*
X94054700Y-53465000D02*
X93671700Y-53848000D01*
X96457102Y-77470000D02*
X96207401Y-77719701D01*
%TO.N,/~{Clk}*%
X71098500Y-54864000D02*
X71120000Y-54864000D01*
X71120000Y-54864000D02*
X71882000Y-55626000D01*
%TO.N,/Clk*%
X66808699Y-71092000D02*
X63484608Y-71092000D01*
X67592699Y-76708000D02*
X69033700Y-75266999D01*
X69033700Y-75266999D02*
X69033700Y-74292000D01*
X63484608Y-71092000D02*
X63308700Y-70916092D01*
X63308700Y-70916092D02*
X63308700Y-67374300D01*
X59944000Y-76708000D02*
X67592699Y-76708000D01*
X78486000Y-60611000D02*
X77883000Y-61214000D01*
X77883000Y-61214000D02*
X73787000Y-61214000D01*
X69033700Y-74292000D02*
X69033700Y-73317001D01*
X73787000Y-61214000D02*
X73533000Y-60960000D01*
X71882000Y-61765000D02*
X72687000Y-60960000D01*
X73533000Y-60960000D02*
X72687000Y-60960000D01*
X56388000Y-80264000D02*
X59944000Y-76708000D01*
X71882000Y-61976000D02*
X71882000Y-61765000D01*
X69033700Y-73317001D02*
X66808699Y-71092000D01*
X63308700Y-67374300D02*
X63500000Y-67183000D01*
%TO.N,/Vis*%
X66040000Y-62484000D02*
X66040000Y-61468000D01*
X57912000Y-73660000D02*
X57912000Y-72781701D01*
X58674000Y-72019701D02*
X58674000Y-69850000D01*
X66040000Y-61468000D02*
X67622000Y-59886000D01*
X58674000Y-69850000D02*
X66040000Y-62484000D01*
X81974396Y-58108000D02*
X97802699Y-58108000D01*
X57912000Y-72781701D02*
X58674000Y-72019701D01*
X100021700Y-55888999D02*
X100021700Y-54864000D01*
X80196396Y-59886000D02*
X81974396Y-58108000D01*
X97802699Y-58108000D02*
X100021700Y-55888999D01*
X67622000Y-59886000D02*
X80196396Y-59886000D01*
X56388000Y-75184000D02*
X57912000Y-73660000D01*
%TO.N,/~{Vis}*%
X58202548Y-70829452D02*
X58202548Y-69632548D01*
X60452000Y-62738000D02*
X62121000Y-61069000D01*
X58202548Y-69632548D02*
X60452000Y-67383096D01*
X65356009Y-61069000D02*
X66989009Y-59436000D01*
X96982700Y-57658000D02*
X81788000Y-57658000D01*
X98751700Y-54864000D02*
X98751700Y-55888999D01*
X98751700Y-55888999D02*
X96982700Y-57658000D01*
X80010000Y-59436000D02*
X66989009Y-59436000D01*
X56388000Y-72644000D02*
X58202548Y-70829452D01*
X60452000Y-67383096D02*
X60452000Y-62738000D01*
X62121000Y-61069000D02*
X65356009Y-61069000D01*
X81788000Y-57658000D02*
X80010000Y-59436000D01*
%TO.N,/~{StartFrame}*%
X57094700Y-70104000D02*
X59888700Y-67310000D01*
X81659604Y-57150000D02*
X96221005Y-57150000D01*
X96221005Y-57150000D02*
X97481700Y-55889305D01*
X97481700Y-55889305D02*
X97481700Y-54864000D01*
X66860613Y-58928000D02*
X79881604Y-58928000D01*
X63288009Y-58819000D02*
X66751613Y-58819000D01*
X66751613Y-58819000D02*
X66860613Y-58928000D01*
X56388000Y-70104000D02*
X57094700Y-70104000D01*
X59888700Y-67310000D02*
X59888700Y-62218309D01*
X79881604Y-58928000D02*
X81659604Y-57150000D01*
X59888700Y-62218309D02*
X63288009Y-58819000D01*
%TO.N,/VertVis*%
X113134200Y-70612000D02*
X113134200Y-71777800D01*
X113134200Y-71777800D02*
X109728000Y-75184000D01*
X102561700Y-54864000D02*
X102561700Y-56134000D01*
%TO.N,/HVis*%
X105101700Y-54864000D02*
X105101700Y-56134000D01*
X113134200Y-79397800D02*
X109728000Y-82804000D01*
X113134200Y-77470000D02*
X113134200Y-79397800D01*
%TO.N,/~{RESET}*%
X96442650Y-74915550D02*
X94941700Y-76416500D01*
X74992700Y-79111000D02*
X74992700Y-75555000D01*
X74363401Y-74925701D02*
X74363401Y-72654299D01*
X74363401Y-72654299D02*
X74367700Y-72650000D01*
X76941700Y-81060000D02*
X74992700Y-79111000D01*
X106117700Y-78444999D02*
X106117700Y-77470000D01*
X76941700Y-81060000D02*
X94941700Y-81060000D01*
X94941700Y-81060000D02*
X103502699Y-81060000D01*
X103502699Y-81060000D02*
X106117700Y-78444999D01*
X94941700Y-77470000D02*
X94941700Y-81060000D01*
X74992700Y-75555000D02*
X74363401Y-74925701D01*
X94941700Y-76416500D02*
X94941700Y-77470000D01*
%TO.N,/CLK_{sync}*%
X75637700Y-72650000D02*
X75637700Y-73651402D01*
X95195700Y-74168000D02*
X93671700Y-75692000D01*
X103831700Y-75692000D02*
X104847700Y-76708000D01*
X64237700Y-70642000D02*
X73817000Y-70642000D01*
X74422000Y-71247000D02*
X75209699Y-71247000D01*
X75209699Y-71247000D02*
X75637700Y-71675001D01*
X63953700Y-68126300D02*
X64389000Y-67691000D01*
X63953700Y-70358000D02*
X64237700Y-70642000D01*
X75637700Y-73651402D02*
X75125401Y-74163701D01*
X95195700Y-74168000D02*
X96719700Y-74168000D01*
X75637700Y-71675001D02*
X75637700Y-72650000D01*
X75637700Y-73624999D02*
X75637700Y-72650000D01*
X82437700Y-75380000D02*
X81225700Y-74168000D01*
X73817000Y-70642000D02*
X74422000Y-71247000D01*
X63953700Y-69342000D02*
X63953700Y-70358000D01*
X88083700Y-75438000D02*
X87321700Y-74676000D01*
X96719700Y-74168000D02*
X97481700Y-74930000D01*
X92655700Y-75692000D02*
X92401700Y-75438000D01*
X84968096Y-75380000D02*
X82437700Y-75380000D01*
X81225700Y-74168000D02*
X76180701Y-74168000D01*
X85672096Y-74676000D02*
X84968096Y-75380000D01*
X104847700Y-76708000D02*
X104847700Y-77470000D01*
X93671700Y-77470000D02*
X93671700Y-75692000D01*
X63953700Y-69342000D02*
X63953700Y-68126300D01*
X97481700Y-74930000D02*
X98497700Y-74930000D01*
X98497700Y-74930000D02*
X99259700Y-75692000D01*
X76180701Y-74168000D02*
X75637700Y-73624999D01*
X92401700Y-75438000D02*
X88083700Y-75438000D01*
X87321700Y-74676000D02*
X85672096Y-74676000D01*
X99259700Y-75692000D02*
X103831700Y-75692000D01*
X93671700Y-75692000D02*
X92655700Y-75692000D01*
%TO.N,Net-(U1-CET)*%
X63944827Y-80910500D02*
X66585327Y-83551000D01*
X75637700Y-77600000D02*
X75637700Y-78731402D01*
X66585327Y-83551000D02*
X74222700Y-83551000D01*
X74367700Y-81788000D02*
X75506401Y-80649299D01*
X74222700Y-83551000D02*
X74367700Y-83406000D01*
X74367700Y-83406000D02*
X74367700Y-81788000D01*
X75637700Y-78731402D02*
X75895999Y-78989701D01*
%TO.N,Net-(U2-CET)*%
X91639700Y-70866000D02*
X92992699Y-70866000D01*
X81987700Y-77600000D02*
X81987700Y-78646470D01*
X81987700Y-78646470D02*
X82171036Y-78829806D01*
X92992699Y-70866000D02*
X93671700Y-71545001D01*
X93671700Y-71545001D02*
X93671700Y-72520000D01*
%TO.N,/A11*%
X80717700Y-74930000D02*
X80717700Y-77600000D01*
%TO.N,/A10*%
X79447700Y-76200000D02*
X79955700Y-75692000D01*
X79447700Y-77600000D02*
X79447700Y-76200000D01*
%TO.N,/A9*%
X78177700Y-74930000D02*
X78177700Y-77600000D01*
%TO.N,/A8*%
X76907700Y-74930000D02*
X76907700Y-77600000D01*
%TO.N,Net-(U3-CET)*%
X87321700Y-72520000D02*
X87321700Y-72139092D01*
X104847700Y-71545001D02*
X104847700Y-72520000D01*
X89970300Y-69850000D02*
X97989700Y-69850000D01*
X88240792Y-71220000D02*
X88600300Y-71220000D01*
X99039700Y-70900000D02*
X104202699Y-70900000D01*
X87321700Y-72139092D02*
X88240792Y-71220000D01*
X104202699Y-70900000D02*
X104847700Y-71545001D01*
X88600300Y-71220000D02*
X89970300Y-69850000D01*
X97989700Y-69850000D02*
X99039700Y-70900000D01*
%TO.N,/A7*%
X88591700Y-74676000D02*
X88591700Y-72520000D01*
%TO.N,/A6*%
X89861700Y-74676000D02*
X89861700Y-72520000D01*
%TO.N,/A5*%
X91131700Y-74676000D02*
X91131700Y-72520000D01*
%TO.N,/A4*%
X92401700Y-74676000D02*
X92401700Y-72520000D01*
%TO.N,/A3*%
X99767700Y-74676000D02*
X99767700Y-72520000D01*
%TO.N,/A2*%
X101033401Y-74671701D02*
X101033401Y-72524299D01*
X101033401Y-72524299D02*
X101037700Y-72520000D01*
%TO.N,/A1*%
X102307700Y-74422000D02*
X102053700Y-74676000D01*
X102307700Y-72520000D02*
X102307700Y-74422000D01*
%TO.N,/A0*%
X103577700Y-74676000D02*
X103577700Y-72520000D01*
%TO.N,Net-(U4-D0)*%
X105101700Y-62738000D02*
X105609700Y-62230000D01*
X105101700Y-64164000D02*
X105101700Y-62738000D01*
%TO.N,Net-(U4-D1)*%
X103831700Y-62484000D02*
X103831700Y-64164000D01*
X104847700Y-61468000D02*
X103831700Y-62484000D01*
%TO.N,Net-(U4-D2)*%
X102561700Y-64164000D02*
X102561700Y-62367940D01*
X102561700Y-62367940D02*
X104016064Y-60913576D01*
%TO.N,Net-(U4-D3)*%
X101291700Y-65188999D02*
X101692701Y-65590000D01*
X101291700Y-64164000D02*
X101291700Y-65188999D01*
X104521700Y-65590000D02*
X106117700Y-67186000D01*
X101692701Y-65590000D02*
X104521700Y-65590000D01*
%TO.N,Net-(U4-D4)*%
X100021700Y-64164000D02*
X100021700Y-65188999D01*
X100872701Y-66040000D02*
X102431700Y-66040000D01*
X100021700Y-65188999D02*
X100872701Y-66040000D01*
X102431700Y-66040000D02*
X103577700Y-67186000D01*
%TO.N,Net-(U4-D5)*%
X98751700Y-64164000D02*
X98751700Y-64900000D01*
X98751700Y-64900000D02*
X101037700Y-67186000D01*
%TO.N,Net-(U4-D6)*%
X97481700Y-66170000D02*
X97481700Y-64164000D01*
X98497700Y-67186000D02*
X97481700Y-66170000D01*
%TO.N,/Vsync*%
X84381102Y-58558000D02*
X98622699Y-58558000D01*
X82042000Y-61468000D02*
X82042000Y-60897102D01*
X98622699Y-58558000D02*
X101291700Y-55888999D01*
X101291700Y-57404000D02*
X101064850Y-57630850D01*
X82042000Y-60897102D02*
X84381102Y-58558000D01*
X101291700Y-54864000D02*
X101291700Y-57404000D01*
X101291700Y-55888999D02*
X101291700Y-54864000D01*
%TO.N,/HSync*%
X80772000Y-62738000D02*
X81280000Y-62230000D01*
X82305305Y-62230000D02*
X85527305Y-59008000D01*
X100713005Y-59008000D02*
X85598000Y-59008000D01*
X103831700Y-54864000D02*
X103831700Y-55889305D01*
X81280000Y-62230000D02*
X82305305Y-62230000D01*
X103831700Y-55889305D02*
X100713005Y-59008000D01*
X85527305Y-59008000D02*
X85598000Y-59008000D01*
%TO.N,/HSYNC_{1}*%
X91811694Y-62239306D02*
X91821000Y-62230000D01*
X83321305Y-62239306D02*
X91811694Y-62239306D01*
%TO.N,/VSYNC_{1}*%
X85168591Y-61431000D02*
X96811000Y-61431000D01*
X85083777Y-61346186D02*
X85168591Y-61431000D01*
X96811000Y-61431000D02*
X97155000Y-61087000D01*
%TO.N,/HSYNC_{2}*%
X85852000Y-60325000D02*
X86444000Y-59733000D01*
X85852000Y-60706000D02*
X85852000Y-60325000D01*
X86444000Y-59733000D02*
X92456000Y-59733000D01*
%TO.N,/VSYNC_{2}*%
X87376000Y-60458000D02*
X92756305Y-60458000D01*
X92756305Y-60458000D02*
X93524305Y-59690000D01*
X93524305Y-59690000D02*
X97112000Y-59690000D01*
X97112000Y-59690000D02*
X97155000Y-59733000D01*
%TO.N,Net-(JP3-C)*%
X81282000Y-56767000D02*
X81534000Y-56515000D01*
X93726000Y-54873306D02*
X93726000Y-54864000D01*
X81534000Y-56515000D02*
X92084306Y-56515000D01*
X80645000Y-56767000D02*
X81282000Y-56767000D01*
X93726000Y-54864000D02*
X94941700Y-54864000D01*
X92084306Y-56515000D02*
X93726000Y-54873306D01*
%TD*%
%TA.AperFunction,Conductor*%
%TO.N,GND*%
G36*
X109978000Y-79828498D02*
G01*
X109870315Y-79779320D01*
X109763763Y-79764000D01*
X109692237Y-79764000D01*
X109585685Y-79779320D01*
X109478000Y-79828498D01*
X109478000Y-78159501D01*
X109585685Y-78208680D01*
X109692237Y-78224000D01*
X109763763Y-78224000D01*
X109870315Y-78208680D01*
X109978000Y-78159501D01*
X109978000Y-79828498D01*
G37*
%TD.AperFunction*%
%TA.AperFunction,Conductor*%
G36*
X55221338Y-53360185D02*
G01*
X55267093Y-53412989D01*
X55277037Y-53482147D01*
X55248012Y-53545703D01*
X55197632Y-53580682D01*
X55091671Y-53620202D01*
X55091664Y-53620206D01*
X54976455Y-53706452D01*
X54976452Y-53706455D01*
X54890206Y-53821664D01*
X54890202Y-53821671D01*
X54839908Y-53956517D01*
X54833501Y-54016116D01*
X54833501Y-54016123D01*
X54833500Y-54016135D01*
X54833500Y-55711870D01*
X54833501Y-55711876D01*
X54839908Y-55771483D01*
X54890202Y-55906328D01*
X54890206Y-55906335D01*
X54976452Y-56021544D01*
X54976455Y-56021547D01*
X55091664Y-56107793D01*
X55091671Y-56107797D01*
X55123014Y-56119487D01*
X55226517Y-56158091D01*
X55261596Y-56161862D01*
X55326144Y-56188599D01*
X55365993Y-56245991D01*
X55368488Y-56315816D01*
X55332836Y-56375905D01*
X55319464Y-56386725D01*
X55294858Y-56403954D01*
X55133954Y-56564858D01*
X55003432Y-56751265D01*
X55003431Y-56751267D01*
X54907261Y-56957502D01*
X54907258Y-56957511D01*
X54848366Y-57177302D01*
X54848364Y-57177313D01*
X54828532Y-57403998D01*
X54828532Y-57404001D01*
X54848364Y-57630686D01*
X54848366Y-57630697D01*
X54907258Y-57850488D01*
X54907261Y-57850497D01*
X55003431Y-58056732D01*
X55003432Y-58056734D01*
X55133954Y-58243141D01*
X55294858Y-58404045D01*
X55294861Y-58404047D01*
X55481266Y-58534568D01*
X55539275Y-58561618D01*
X55591714Y-58607791D01*
X55610866Y-58674984D01*
X55590650Y-58741865D01*
X55539275Y-58786382D01*
X55481267Y-58813431D01*
X55481265Y-58813432D01*
X55294858Y-58943954D01*
X55133954Y-59104858D01*
X55003432Y-59291265D01*
X55003431Y-59291267D01*
X54907261Y-59497502D01*
X54907258Y-59497511D01*
X54848366Y-59717302D01*
X54848364Y-59717313D01*
X54828532Y-59943998D01*
X54828532Y-59944001D01*
X54848364Y-60170686D01*
X54848366Y-60170697D01*
X54907258Y-60390488D01*
X54907261Y-60390497D01*
X55003431Y-60596732D01*
X55003432Y-60596734D01*
X55133954Y-60783141D01*
X55294858Y-60944045D01*
X55294861Y-60944047D01*
X55481266Y-61074568D01*
X55539865Y-61101893D01*
X55592305Y-61148065D01*
X55611457Y-61215258D01*
X55591242Y-61282139D01*
X55539867Y-61326657D01*
X55481515Y-61353867D01*
X55295179Y-61484342D01*
X55134342Y-61645179D01*
X55003865Y-61831517D01*
X54907734Y-62037673D01*
X54907730Y-62037682D01*
X54855127Y-62233999D01*
X54855128Y-62234000D01*
X55818314Y-62234000D01*
X55806359Y-62245955D01*
X55748835Y-62358852D01*
X55729014Y-62484000D01*
X55748835Y-62609148D01*
X55806359Y-62722045D01*
X55818314Y-62734000D01*
X54855128Y-62734000D01*
X54907730Y-62930317D01*
X54907734Y-62930326D01*
X55003865Y-63136482D01*
X55134342Y-63322820D01*
X55295179Y-63483657D01*
X55481517Y-63614134D01*
X55687673Y-63710265D01*
X55687682Y-63710269D01*
X55883999Y-63762872D01*
X55884000Y-63762871D01*
X55884000Y-62799686D01*
X55895955Y-62811641D01*
X56008852Y-62869165D01*
X56102519Y-62884000D01*
X56165481Y-62884000D01*
X56259148Y-62869165D01*
X56372045Y-62811641D01*
X56384000Y-62799686D01*
X56384000Y-63762872D01*
X56580317Y-63710269D01*
X56580326Y-63710265D01*
X56786482Y-63614134D01*
X56972820Y-63483657D01*
X57068595Y-63387883D01*
X57129918Y-63354398D01*
X57199610Y-63359382D01*
X57221377Y-63370028D01*
X57225660Y-63372670D01*
X57272382Y-63424619D01*
X57283602Y-63493582D01*
X57255756Y-63557664D01*
X57225661Y-63583741D01*
X57222349Y-63585783D01*
X57222343Y-63585788D01*
X57098289Y-63709842D01*
X57006187Y-63859163D01*
X57006186Y-63859166D01*
X56951001Y-64025703D01*
X56951001Y-64025704D01*
X56951000Y-64025704D01*
X56940500Y-64128483D01*
X56940500Y-64805546D01*
X56920815Y-64872585D01*
X56904181Y-64893227D01*
X56004208Y-65793199D01*
X55991951Y-65803020D01*
X55992134Y-65803241D01*
X55986122Y-65808214D01*
X55940098Y-65857223D01*
X55937391Y-65860016D01*
X55917889Y-65879517D01*
X55917875Y-65879534D01*
X55915407Y-65882715D01*
X55907843Y-65891570D01*
X55877937Y-65923418D01*
X55877936Y-65923420D01*
X55868284Y-65940976D01*
X55857610Y-65957226D01*
X55845329Y-65973061D01*
X55845324Y-65973068D01*
X55827975Y-66013158D01*
X55822838Y-66023644D01*
X55801803Y-66061906D01*
X55796822Y-66081307D01*
X55790521Y-66099710D01*
X55782562Y-66118102D01*
X55782561Y-66118105D01*
X55775728Y-66161243D01*
X55773360Y-66172674D01*
X55762501Y-66214971D01*
X55762500Y-66214982D01*
X55762500Y-66235016D01*
X55760973Y-66254415D01*
X55757840Y-66274194D01*
X55757840Y-66274195D01*
X55758353Y-66279622D01*
X55745064Y-66348216D01*
X55706027Y-66392866D01*
X55516594Y-66525508D01*
X55349505Y-66692597D01*
X55213965Y-66886169D01*
X55213964Y-66886171D01*
X55114098Y-67100335D01*
X55114094Y-67100344D01*
X55052938Y-67328586D01*
X55052936Y-67328596D01*
X55032341Y-67563999D01*
X55032341Y-67564000D01*
X55052936Y-67799403D01*
X55052938Y-67799413D01*
X55114094Y-68027655D01*
X55114096Y-68027659D01*
X55114097Y-68027663D01*
X55182546Y-68174451D01*
X55213965Y-68241830D01*
X55213967Y-68241834D01*
X55349501Y-68435395D01*
X55349506Y-68435402D01*
X55516597Y-68602493D01*
X55516603Y-68602498D01*
X55702158Y-68732425D01*
X55745783Y-68787002D01*
X55752977Y-68856500D01*
X55721454Y-68918855D01*
X55702158Y-68935575D01*
X55516597Y-69065505D01*
X55349505Y-69232597D01*
X55213965Y-69426169D01*
X55213964Y-69426171D01*
X55114098Y-69640335D01*
X55114094Y-69640344D01*
X55052938Y-69868586D01*
X55052936Y-69868596D01*
X55032341Y-70103999D01*
X55032341Y-70104000D01*
X55052936Y-70339403D01*
X55052938Y-70339413D01*
X55114094Y-70567655D01*
X55114096Y-70567659D01*
X55114097Y-70567663D01*
X55195810Y-70742897D01*
X55213965Y-70781830D01*
X55213967Y-70781834D01*
X55314848Y-70925906D01*
X55335534Y-70955449D01*
X55349501Y-70975395D01*
X55349506Y-70975402D01*
X55516597Y-71142493D01*
X55516603Y-71142498D01*
X55702158Y-71272425D01*
X55745783Y-71327002D01*
X55752977Y-71396500D01*
X55721454Y-71458855D01*
X55702158Y-71475575D01*
X55516597Y-71605505D01*
X55349505Y-71772597D01*
X55213965Y-71966169D01*
X55213964Y-71966171D01*
X55114098Y-72180335D01*
X55114094Y-72180344D01*
X55052938Y-72408586D01*
X55052936Y-72408596D01*
X55032341Y-72643999D01*
X55032341Y-72644000D01*
X55052936Y-72879403D01*
X55052938Y-72879413D01*
X55114094Y-73107655D01*
X55114096Y-73107659D01*
X55114097Y-73107663D01*
X55191791Y-73274277D01*
X55213965Y-73321830D01*
X55213967Y-73321834D01*
X55349501Y-73515395D01*
X55349506Y-73515402D01*
X55516597Y-73682493D01*
X55516603Y-73682498D01*
X55702158Y-73812425D01*
X55745783Y-73867002D01*
X55752977Y-73936500D01*
X55721454Y-73998855D01*
X55702158Y-74015575D01*
X55516597Y-74145505D01*
X55349505Y-74312597D01*
X55213965Y-74506169D01*
X55213964Y-74506171D01*
X55114098Y-74720335D01*
X55114094Y-74720344D01*
X55052938Y-74948586D01*
X55052936Y-74948596D01*
X55032341Y-75183999D01*
X55032341Y-75184000D01*
X55052936Y-75419403D01*
X55052938Y-75419413D01*
X55114094Y-75647655D01*
X55114096Y-75647659D01*
X55114097Y-75647663D01*
X55198851Y-75829418D01*
X55213965Y-75861830D01*
X55213967Y-75861834D01*
X55349501Y-76055395D01*
X55349506Y-76055402D01*
X55516597Y-76222493D01*
X55516603Y-76222498D01*
X55578359Y-76265740D01*
X55684490Y-76340054D01*
X55702594Y-76352730D01*
X55746219Y-76407307D01*
X55753413Y-76476805D01*
X55721890Y-76539160D01*
X55702595Y-76555880D01*
X55516922Y-76685890D01*
X55516920Y-76685891D01*
X55349891Y-76852920D01*
X55349886Y-76852926D01*
X55214400Y-77046420D01*
X55214399Y-77046422D01*
X55114570Y-77260507D01*
X55114567Y-77260513D01*
X55057364Y-77473999D01*
X55057364Y-77474000D01*
X55954314Y-77474000D01*
X55928507Y-77514156D01*
X55888000Y-77652111D01*
X55888000Y-77795889D01*
X55928507Y-77933844D01*
X55954314Y-77974000D01*
X55057364Y-77974000D01*
X55114567Y-78187486D01*
X55114570Y-78187492D01*
X55214399Y-78401578D01*
X55349894Y-78595082D01*
X55516917Y-78762105D01*
X55702595Y-78892119D01*
X55746219Y-78946696D01*
X55753412Y-79016195D01*
X55721890Y-79078549D01*
X55702595Y-79095269D01*
X55516594Y-79225508D01*
X55349505Y-79392597D01*
X55213965Y-79586169D01*
X55213964Y-79586171D01*
X55114098Y-79800335D01*
X55114094Y-79800344D01*
X55052938Y-80028586D01*
X55052936Y-80028596D01*
X55032341Y-80263999D01*
X55032341Y-80264000D01*
X55052936Y-80499403D01*
X55052938Y-80499413D01*
X55114094Y-80727655D01*
X55114096Y-80727659D01*
X55114097Y-80727663D01*
X55189866Y-80890149D01*
X55213965Y-80941830D01*
X55213967Y-80941834D01*
X55295395Y-81058124D01*
X55349501Y-81135396D01*
X55349506Y-81135402D01*
X55471430Y-81257326D01*
X55504915Y-81318649D01*
X55499931Y-81388341D01*
X55458059Y-81444274D01*
X55427083Y-81461189D01*
X55295669Y-81510203D01*
X55295664Y-81510206D01*
X55180455Y-81596452D01*
X55180452Y-81596455D01*
X55094206Y-81711664D01*
X55094202Y-81711671D01*
X55043908Y-81846517D01*
X55037501Y-81906116D01*
X55037500Y-81906135D01*
X55037500Y-83701870D01*
X55037501Y-83701876D01*
X55043908Y-83761483D01*
X55094202Y-83896328D01*
X55094206Y-83896335D01*
X55180452Y-84011544D01*
X55180455Y-84011547D01*
X55295664Y-84097793D01*
X55295671Y-84097797D01*
X55430517Y-84148091D01*
X55430516Y-84148091D01*
X55437444Y-84148835D01*
X55490127Y-84154500D01*
X57285872Y-84154499D01*
X57345483Y-84148091D01*
X57480331Y-84097796D01*
X57595546Y-84011546D01*
X57649983Y-83938826D01*
X57705915Y-83896956D01*
X57775607Y-83891972D01*
X57823559Y-83913870D01*
X57907814Y-83976944D01*
X57935669Y-83997796D01*
X57935671Y-83997797D01*
X58070517Y-84048091D01*
X58070516Y-84048091D01*
X58077000Y-84048788D01*
X58130127Y-84054500D01*
X59725872Y-84054499D01*
X59785483Y-84048091D01*
X59920331Y-83997796D01*
X60035546Y-83911546D01*
X60121796Y-83796331D01*
X60172091Y-83661483D01*
X60178500Y-83601873D01*
X60178499Y-82006128D01*
X60172091Y-81946517D01*
X60166899Y-81932597D01*
X60121797Y-81811671D01*
X60121793Y-81811664D01*
X60035547Y-81696455D01*
X60033137Y-81694651D01*
X59978309Y-81653606D01*
X59973595Y-81650077D01*
X59931725Y-81594143D01*
X59926741Y-81524451D01*
X59960227Y-81463128D01*
X60008906Y-81433104D01*
X60038320Y-81423357D01*
X60038324Y-81423356D01*
X60187545Y-81331315D01*
X60311518Y-81207342D01*
X60313365Y-81204348D01*
X60315169Y-81202724D01*
X60315998Y-81201677D01*
X60316176Y-81201818D01*
X60365310Y-81157621D01*
X60434273Y-81146396D01*
X60498356Y-81174236D01*
X60524443Y-81204341D01*
X60526488Y-81207656D01*
X60650544Y-81331712D01*
X60799866Y-81423814D01*
X60966403Y-81478999D01*
X61069191Y-81489500D01*
X61844208Y-81489499D01*
X61844216Y-81489498D01*
X61844219Y-81489498D01*
X61900502Y-81483748D01*
X61946997Y-81478999D01*
X62113534Y-81423814D01*
X62262856Y-81331712D01*
X62386912Y-81207656D01*
X62479014Y-81058334D01*
X62534199Y-80891797D01*
X62544700Y-80789009D01*
X62544699Y-80428132D01*
X62564383Y-80361094D01*
X62617187Y-80315339D01*
X62618264Y-80314853D01*
X62682730Y-80286151D01*
X62682731Y-80286150D01*
X62682734Y-80286148D01*
X62835871Y-80174888D01*
X62962533Y-80034216D01*
X63057179Y-79870284D01*
X63115674Y-79690256D01*
X63135460Y-79502000D01*
X63115674Y-79313744D01*
X63057179Y-79133716D01*
X62962533Y-78969784D01*
X62835871Y-78829112D01*
X62835870Y-78829111D01*
X62682734Y-78717851D01*
X62682729Y-78717848D01*
X62509807Y-78640857D01*
X62509802Y-78640855D01*
X62364001Y-78609865D01*
X62324646Y-78601500D01*
X62135354Y-78601500D01*
X62102897Y-78608398D01*
X61950197Y-78640855D01*
X61950192Y-78640857D01*
X61777270Y-78717848D01*
X61777265Y-78717851D01*
X61624129Y-78829111D01*
X61497469Y-78969781D01*
X61497465Y-78969786D01*
X61493587Y-78976504D01*
X61443018Y-79024718D01*
X61386202Y-79038500D01*
X61069199Y-79038500D01*
X61069180Y-79038501D01*
X60966403Y-79049000D01*
X60966400Y-79049001D01*
X60799868Y-79104185D01*
X60799863Y-79104187D01*
X60650542Y-79196289D01*
X60526488Y-79320343D01*
X60526483Y-79320349D01*
X60524441Y-79323661D01*
X60522447Y-79325453D01*
X60522007Y-79326011D01*
X60521911Y-79325935D01*
X60472491Y-79370383D01*
X60403528Y-79381602D01*
X60339447Y-79353755D01*
X60313368Y-79323656D01*
X60311519Y-79320659D01*
X60311516Y-79320655D01*
X60187545Y-79196684D01*
X60038324Y-79104643D01*
X60038319Y-79104641D01*
X59871897Y-79049494D01*
X59871890Y-79049493D01*
X59769186Y-79039000D01*
X59631700Y-79039000D01*
X59631700Y-80390000D01*
X59612015Y-80457039D01*
X59559211Y-80502794D01*
X59507700Y-80514000D01*
X58294201Y-80514000D01*
X58294201Y-80788986D01*
X58304694Y-80891697D01*
X58359841Y-81058119D01*
X58359843Y-81058124D01*
X58451884Y-81207345D01*
X58575853Y-81331314D01*
X58577015Y-81332233D01*
X58577604Y-81333065D01*
X58580963Y-81336424D01*
X58580389Y-81336997D01*
X58617392Y-81389254D01*
X58620532Y-81459053D01*
X58585437Y-81519470D01*
X58523249Y-81551321D01*
X58500105Y-81553500D01*
X58130130Y-81553500D01*
X58130123Y-81553501D01*
X58070516Y-81559908D01*
X57935671Y-81610202D01*
X57935668Y-81610204D01*
X57823560Y-81694128D01*
X57758095Y-81718545D01*
X57689822Y-81703693D01*
X57649984Y-81669173D01*
X57595546Y-81596454D01*
X57572709Y-81579358D01*
X57480335Y-81510206D01*
X57480328Y-81510202D01*
X57348917Y-81461189D01*
X57292983Y-81419318D01*
X57268566Y-81353853D01*
X57283418Y-81285580D01*
X57304563Y-81257332D01*
X57426495Y-81135401D01*
X57562035Y-80941830D01*
X57661903Y-80727663D01*
X57723063Y-80499408D01*
X57743659Y-80264000D01*
X57723063Y-80028592D01*
X57696143Y-79928125D01*
X57697806Y-79858276D01*
X57728235Y-79808353D01*
X58135159Y-79401430D01*
X58196479Y-79367947D01*
X58266171Y-79372931D01*
X58322104Y-79414803D01*
X58346521Y-79480267D01*
X58340543Y-79528116D01*
X58304695Y-79636298D01*
X58304693Y-79636309D01*
X58294200Y-79739013D01*
X58294200Y-80014000D01*
X59131700Y-80014000D01*
X59131700Y-79039000D01*
X58994227Y-79039000D01*
X58994212Y-79039001D01*
X58891502Y-79049494D01*
X58783318Y-79085343D01*
X58713490Y-79087745D01*
X58653448Y-79052013D01*
X58622255Y-78989493D01*
X58629816Y-78920033D01*
X58656631Y-78879958D01*
X60166772Y-77369819D01*
X60228095Y-77336334D01*
X60254453Y-77333500D01*
X67509956Y-77333500D01*
X67525576Y-77335224D01*
X67525603Y-77334939D01*
X67533359Y-77335671D01*
X67533366Y-77335673D01*
X67600572Y-77333561D01*
X67604467Y-77333500D01*
X67632045Y-77333500D01*
X67632049Y-77333500D01*
X67636023Y-77332997D01*
X67647662Y-77332080D01*
X67691326Y-77330709D01*
X67710568Y-77325117D01*
X67729611Y-77321174D01*
X67749491Y-77318664D01*
X67790100Y-77302585D01*
X67801143Y-77298803D01*
X67843089Y-77286618D01*
X67860328Y-77276422D01*
X67877802Y-77267862D01*
X67896426Y-77260488D01*
X67896426Y-77260487D01*
X67896431Y-77260486D01*
X67931782Y-77234800D01*
X67941513Y-77228408D01*
X67979119Y-77206170D01*
X67993288Y-77191999D01*
X68008078Y-77179368D01*
X68024286Y-77167594D01*
X68052137Y-77133926D01*
X68059978Y-77125309D01*
X69417487Y-75767801D01*
X69429742Y-75757985D01*
X69429559Y-75757763D01*
X69435568Y-75752790D01*
X69435577Y-75752785D01*
X69481648Y-75703723D01*
X69484264Y-75701024D01*
X69487961Y-75697327D01*
X69512512Y-75678282D01*
X69585565Y-75635081D01*
X69585570Y-75635075D01*
X69591735Y-75630295D01*
X69593637Y-75632748D01*
X69642279Y-75606155D01*
X69711974Y-75611104D01*
X69744395Y-75631940D01*
X69745669Y-75630298D01*
X69751832Y-75635078D01*
X69751835Y-75635081D01*
X69893302Y-75718744D01*
X69934924Y-75730836D01*
X70051126Y-75764597D01*
X70051129Y-75764597D01*
X70051131Y-75764598D01*
X70088006Y-75767500D01*
X70088014Y-75767500D01*
X70519386Y-75767500D01*
X70519394Y-75767500D01*
X70556269Y-75764598D01*
X70556271Y-75764597D01*
X70556273Y-75764597D01*
X70597891Y-75752505D01*
X70714098Y-75718744D01*
X70855565Y-75635081D01*
X70971781Y-75518865D01*
X71055444Y-75377398D01*
X71101298Y-75219569D01*
X71104200Y-75182694D01*
X71104200Y-73401306D01*
X71101298Y-73364431D01*
X71088922Y-73321834D01*
X71055445Y-73206606D01*
X71055444Y-73206603D01*
X71055444Y-73206602D01*
X70971781Y-73065135D01*
X70971779Y-73065133D01*
X70971776Y-73065129D01*
X70855570Y-72948923D01*
X70855567Y-72948921D01*
X70855565Y-72948919D01*
X70808211Y-72920914D01*
X70760528Y-72869844D01*
X70748012Y-72827142D01*
X70747985Y-72826889D01*
X70735674Y-72709744D01*
X70677179Y-72529716D01*
X70582533Y-72365784D01*
X70455871Y-72225112D01*
X70455870Y-72225111D01*
X70302734Y-72113851D01*
X70302729Y-72113848D01*
X70129807Y-72036857D01*
X70129802Y-72036855D01*
X69984001Y-72005865D01*
X69944646Y-71997500D01*
X69755354Y-71997500D01*
X69722897Y-72004398D01*
X69570197Y-72036855D01*
X69570192Y-72036857D01*
X69397270Y-72113848D01*
X69397265Y-72113851D01*
X69244129Y-72225111D01*
X69244128Y-72225112D01*
X69133644Y-72347816D01*
X69074157Y-72384464D01*
X69004300Y-72383133D01*
X68953814Y-72352524D01*
X68080471Y-71479181D01*
X68046986Y-71417858D01*
X68051970Y-71348166D01*
X68093842Y-71292233D01*
X68159306Y-71267816D01*
X68168152Y-71267500D01*
X73506547Y-71267500D01*
X73573586Y-71287185D01*
X73594228Y-71303819D01*
X73636781Y-71346372D01*
X73670266Y-71407695D01*
X73665282Y-71477387D01*
X73655833Y-71497173D01*
X73615954Y-71564605D01*
X73615954Y-71564606D01*
X73570102Y-71722426D01*
X73570101Y-71722432D01*
X73567200Y-71759298D01*
X73567200Y-72420508D01*
X73547515Y-72487547D01*
X73494711Y-72533302D01*
X73425553Y-72543246D01*
X73417420Y-72541798D01*
X73246647Y-72505500D01*
X73246646Y-72505500D01*
X73057354Y-72505500D01*
X73024897Y-72512398D01*
X72872197Y-72544855D01*
X72872192Y-72544857D01*
X72699270Y-72621848D01*
X72699265Y-72621851D01*
X72546129Y-72733111D01*
X72419466Y-72873785D01*
X72324821Y-73037715D01*
X72324818Y-73037722D01*
X72266327Y-73217740D01*
X72266326Y-73217744D01*
X72246540Y-73406000D01*
X72266326Y-73594256D01*
X72266327Y-73594259D01*
X72324818Y-73774277D01*
X72324821Y-73774284D01*
X72419467Y-73938216D01*
X72546129Y-74078888D01*
X72604384Y-74121212D01*
X72647051Y-74176542D01*
X72655500Y-74221531D01*
X72655500Y-76574594D01*
X72654191Y-76592563D01*
X72650710Y-76616325D01*
X72655028Y-76665668D01*
X72655500Y-76676476D01*
X72655500Y-76682011D01*
X72659098Y-76712795D01*
X72659464Y-76716383D01*
X72666000Y-76791091D01*
X72667461Y-76798167D01*
X72667403Y-76798178D01*
X72669034Y-76805537D01*
X72669092Y-76805524D01*
X72670757Y-76812549D01*
X72670758Y-76812554D01*
X72670759Y-76812555D01*
X72685452Y-76852926D01*
X72696400Y-76883005D01*
X72697582Y-76886407D01*
X72721182Y-76957626D01*
X72724236Y-76964174D01*
X72724182Y-76964198D01*
X72727470Y-76970988D01*
X72727521Y-76970963D01*
X72730761Y-76977414D01*
X72771979Y-77040084D01*
X72773889Y-77043082D01*
X72804972Y-77093474D01*
X72813289Y-77106958D01*
X72817766Y-77112619D01*
X72817719Y-77112656D01*
X72822482Y-77118502D01*
X72822528Y-77118464D01*
X72827173Y-77123999D01*
X72881709Y-77175451D01*
X72884297Y-77177965D01*
X73220488Y-77514156D01*
X73530881Y-77824548D01*
X73564366Y-77885871D01*
X73567200Y-77912229D01*
X73567200Y-77960795D01*
X73547515Y-78027834D01*
X73516088Y-78061111D01*
X73507830Y-78067110D01*
X73507823Y-78067116D01*
X73381166Y-78207785D01*
X73286521Y-78371715D01*
X73286518Y-78371722D01*
X73228027Y-78551740D01*
X73228026Y-78551744D01*
X73212806Y-78696561D01*
X73208240Y-78740000D01*
X73214194Y-78796654D01*
X73201624Y-78865384D01*
X73153891Y-78916407D01*
X73086151Y-78933524D01*
X73019910Y-78911301D01*
X72998723Y-78892586D01*
X72989003Y-78881791D01*
X72941571Y-78829112D01*
X72941570Y-78829111D01*
X72788434Y-78717851D01*
X72788429Y-78717848D01*
X72615507Y-78640857D01*
X72615502Y-78640855D01*
X72469701Y-78609865D01*
X72430346Y-78601500D01*
X72241054Y-78601500D01*
X72208597Y-78608398D01*
X72055897Y-78640855D01*
X72055892Y-78640857D01*
X71882970Y-78717848D01*
X71882965Y-78717851D01*
X71729829Y-78829111D01*
X71603166Y-78969785D01*
X71508521Y-79133715D01*
X71508519Y-79133719D01*
X71453179Y-79304039D01*
X71422929Y-79353401D01*
X70580058Y-80196272D01*
X70566429Y-80208051D01*
X70547169Y-80222390D01*
X70515332Y-80260331D01*
X70508046Y-80268284D01*
X70504107Y-80272224D01*
X70484876Y-80296545D01*
X70482602Y-80299337D01*
X70434394Y-80356790D01*
X70430429Y-80362819D01*
X70430382Y-80362788D01*
X70426330Y-80369147D01*
X70426379Y-80369177D01*
X70422589Y-80375321D01*
X70390892Y-80443294D01*
X70389323Y-80446536D01*
X70355657Y-80513572D01*
X70353188Y-80520357D01*
X70353132Y-80520336D01*
X70350660Y-80527450D01*
X70350715Y-80527469D01*
X70348443Y-80534325D01*
X70333273Y-80607788D01*
X70332493Y-80611304D01*
X70315199Y-80684279D01*
X70314361Y-80691454D01*
X70314301Y-80691447D01*
X70313535Y-80698945D01*
X70313595Y-80698951D01*
X70312965Y-80706140D01*
X70315148Y-80781128D01*
X70315200Y-80784735D01*
X70315200Y-80999677D01*
X70298587Y-81061677D01*
X70238521Y-81165714D01*
X70183054Y-81336424D01*
X70180026Y-81345744D01*
X70160240Y-81534000D01*
X70180026Y-81722256D01*
X70180027Y-81722259D01*
X70238518Y-81902277D01*
X70238521Y-81902284D01*
X70333167Y-82066216D01*
X70432017Y-82176000D01*
X70459829Y-82206888D01*
X70612965Y-82318148D01*
X70612970Y-82318151D01*
X70785892Y-82395142D01*
X70785897Y-82395144D01*
X70971054Y-82434500D01*
X70971055Y-82434500D01*
X71160344Y-82434500D01*
X71160346Y-82434500D01*
X71345503Y-82395144D01*
X71518430Y-82318151D01*
X71600316Y-82258657D01*
X71666120Y-82235178D01*
X71734174Y-82251003D01*
X71782869Y-82301109D01*
X71797200Y-82358976D01*
X71797201Y-82801500D01*
X71777517Y-82868539D01*
X71724713Y-82914294D01*
X71673201Y-82925500D01*
X66895779Y-82925500D01*
X66828740Y-82905815D01*
X66808098Y-82889181D01*
X64883787Y-80964869D01*
X64850302Y-80903546D01*
X64848150Y-80890168D01*
X64830501Y-80722244D01*
X64772006Y-80542216D01*
X64677360Y-80378284D01*
X64550698Y-80237612D01*
X64510011Y-80208051D01*
X64397561Y-80126351D01*
X64397556Y-80126348D01*
X64224634Y-80049357D01*
X64224629Y-80049355D01*
X64078828Y-80018365D01*
X64039473Y-80010000D01*
X63850181Y-80010000D01*
X63817724Y-80016898D01*
X63665024Y-80049355D01*
X63665019Y-80049357D01*
X63492097Y-80126348D01*
X63492092Y-80126351D01*
X63338956Y-80237611D01*
X63212293Y-80378285D01*
X63117648Y-80542215D01*
X63117645Y-80542222D01*
X63064384Y-80706144D01*
X63059153Y-80722244D01*
X63039367Y-80910500D01*
X63059153Y-81098756D01*
X63059154Y-81098759D01*
X63117645Y-81278777D01*
X63117648Y-81278784D01*
X63212294Y-81442716D01*
X63317815Y-81559909D01*
X63338956Y-81583388D01*
X63492092Y-81694648D01*
X63492097Y-81694651D01*
X63665019Y-81771642D01*
X63665024Y-81771644D01*
X63850181Y-81811000D01*
X63909375Y-81811000D01*
X63976414Y-81830685D01*
X63997055Y-81847318D01*
X65055551Y-82905815D01*
X66084524Y-83934788D01*
X66094349Y-83947051D01*
X66094570Y-83946869D01*
X66099538Y-83952874D01*
X66099540Y-83952876D01*
X66099541Y-83952877D01*
X66148549Y-83998899D01*
X66151348Y-84001612D01*
X66170849Y-84021114D01*
X66170853Y-84021117D01*
X66170856Y-84021120D01*
X66174029Y-84023581D01*
X66182901Y-84031159D01*
X66214745Y-84061062D01*
X66232303Y-84070714D01*
X66248560Y-84081393D01*
X66264391Y-84093673D01*
X66294130Y-84106542D01*
X66304479Y-84111021D01*
X66314968Y-84116160D01*
X66338784Y-84129252D01*
X66353235Y-84137197D01*
X66365850Y-84140435D01*
X66372632Y-84142177D01*
X66391046Y-84148481D01*
X66409431Y-84156438D01*
X66452588Y-84163273D01*
X66463983Y-84165632D01*
X66506308Y-84176500D01*
X66526343Y-84176500D01*
X66545740Y-84178026D01*
X66565523Y-84181160D01*
X66609002Y-84177050D01*
X66620671Y-84176500D01*
X74139957Y-84176500D01*
X74155577Y-84178224D01*
X74155604Y-84177939D01*
X74163360Y-84178671D01*
X74163367Y-84178673D01*
X74230573Y-84176561D01*
X74234468Y-84176500D01*
X74262046Y-84176500D01*
X74262050Y-84176500D01*
X74266024Y-84175997D01*
X74277663Y-84175080D01*
X74321327Y-84173709D01*
X74340569Y-84168117D01*
X74359612Y-84164174D01*
X74379492Y-84161664D01*
X74420101Y-84145585D01*
X74431144Y-84141803D01*
X74473090Y-84129618D01*
X74490329Y-84119422D01*
X74507803Y-84110862D01*
X74526427Y-84103488D01*
X74526427Y-84103487D01*
X74526432Y-84103486D01*
X74561783Y-84077800D01*
X74571514Y-84071408D01*
X74609120Y-84049170D01*
X74623286Y-84035003D01*
X74638081Y-84022368D01*
X74652975Y-84011547D01*
X74654287Y-84010594D01*
X74682136Y-83976929D01*
X74689977Y-83968312D01*
X74751489Y-83906800D01*
X74763750Y-83896979D01*
X74763567Y-83896758D01*
X74769574Y-83891788D01*
X74769574Y-83891787D01*
X74769577Y-83891786D01*
X74815635Y-83842738D01*
X74818283Y-83840006D01*
X74837820Y-83820471D01*
X74840276Y-83817303D01*
X74847856Y-83808427D01*
X74877762Y-83776582D01*
X74887415Y-83759020D01*
X74898089Y-83742770D01*
X74910373Y-83726936D01*
X74927719Y-83686850D01*
X74932855Y-83676367D01*
X74940007Y-83663357D01*
X74989552Y-83614092D01*
X75057867Y-83599434D01*
X75101069Y-83610708D01*
X75191204Y-83652739D01*
X75411008Y-83711635D01*
X75572930Y-83725801D01*
X75637698Y-83731468D01*
X75637700Y-83731468D01*
X75637702Y-83731468D01*
X75694373Y-83726509D01*
X75864392Y-83711635D01*
X76084196Y-83652739D01*
X76290434Y-83556568D01*
X76476839Y-83426047D01*
X76637747Y-83265139D01*
X76768268Y-83078734D01*
X76795318Y-83020724D01*
X76841490Y-82968285D01*
X76908683Y-82949133D01*
X76975565Y-82969348D01*
X77020082Y-83020725D01*
X77047129Y-83078728D01*
X77047132Y-83078734D01*
X77177654Y-83265141D01*
X77338558Y-83426045D01*
X77338561Y-83426047D01*
X77524966Y-83556568D01*
X77731204Y-83652739D01*
X77951008Y-83711635D01*
X78112930Y-83725801D01*
X78177698Y-83731468D01*
X78177700Y-83731468D01*
X78177702Y-83731468D01*
X78234373Y-83726509D01*
X78404392Y-83711635D01*
X78624196Y-83652739D01*
X78830434Y-83556568D01*
X79016839Y-83426047D01*
X79177747Y-83265139D01*
X79308268Y-83078734D01*
X79335318Y-83020724D01*
X79381490Y-82968285D01*
X79448683Y-82949133D01*
X79515565Y-82969348D01*
X79560082Y-83020725D01*
X79587129Y-83078728D01*
X79587132Y-83078734D01*
X79717654Y-83265141D01*
X79878558Y-83426045D01*
X79878561Y-83426047D01*
X80064966Y-83556568D01*
X80271204Y-83652739D01*
X80491008Y-83711635D01*
X80652930Y-83725801D01*
X80717698Y-83731468D01*
X80717700Y-83731468D01*
X80717702Y-83731468D01*
X80774373Y-83726509D01*
X80944392Y-83711635D01*
X81164196Y-83652739D01*
X81370434Y-83556568D01*
X81556839Y-83426047D01*
X81717747Y-83265139D01*
X81848268Y-83078734D01*
X81875318Y-83020724D01*
X81921490Y-82968285D01*
X81988683Y-82949133D01*
X82055565Y-82969348D01*
X82100082Y-83020725D01*
X82127129Y-83078728D01*
X82127132Y-83078734D01*
X82257654Y-83265141D01*
X82418558Y-83426045D01*
X82418561Y-83426047D01*
X82604966Y-83556568D01*
X82811204Y-83652739D01*
X83031008Y-83711635D01*
X83192930Y-83725801D01*
X83257698Y-83731468D01*
X83257700Y-83731468D01*
X83257702Y-83731468D01*
X83314373Y-83726509D01*
X83484392Y-83711635D01*
X83704196Y-83652739D01*
X83910434Y-83556568D01*
X84096839Y-83426047D01*
X84257747Y-83265139D01*
X84388268Y-83078734D01*
X84415318Y-83020724D01*
X84461490Y-82968285D01*
X84528683Y-82949133D01*
X84595565Y-82969348D01*
X84640082Y-83020725D01*
X84667129Y-83078728D01*
X84667132Y-83078734D01*
X84797654Y-83265141D01*
X84958558Y-83426045D01*
X84958561Y-83426047D01*
X85144966Y-83556568D01*
X85351204Y-83652739D01*
X85571008Y-83711635D01*
X85732930Y-83725801D01*
X85797698Y-83731468D01*
X85797700Y-83731468D01*
X85797702Y-83731468D01*
X85854373Y-83726509D01*
X86024392Y-83711635D01*
X86244196Y-83652739D01*
X86450434Y-83556568D01*
X86636839Y-83426047D01*
X86797747Y-83265139D01*
X86928268Y-83078734D01*
X86955318Y-83020724D01*
X87001490Y-82968285D01*
X87068683Y-82949133D01*
X87135565Y-82969348D01*
X87180082Y-83020725D01*
X87207129Y-83078728D01*
X87207132Y-83078734D01*
X87337654Y-83265141D01*
X87498558Y-83426045D01*
X87498561Y-83426047D01*
X87684966Y-83556568D01*
X87891204Y-83652739D01*
X88111008Y-83711635D01*
X88272930Y-83725801D01*
X88337698Y-83731468D01*
X88337700Y-83731468D01*
X88337702Y-83731468D01*
X88394373Y-83726509D01*
X88564392Y-83711635D01*
X88784196Y-83652739D01*
X88990434Y-83556568D01*
X89176839Y-83426047D01*
X89337747Y-83265139D01*
X89468268Y-83078734D01*
X89495318Y-83020724D01*
X89541490Y-82968285D01*
X89608683Y-82949133D01*
X89675565Y-82969348D01*
X89720082Y-83020725D01*
X89747129Y-83078728D01*
X89747132Y-83078734D01*
X89877654Y-83265141D01*
X90038558Y-83426045D01*
X90038561Y-83426047D01*
X90224966Y-83556568D01*
X90431204Y-83652739D01*
X90651008Y-83711635D01*
X90812930Y-83725801D01*
X90877698Y-83731468D01*
X90877700Y-83731468D01*
X90877702Y-83731468D01*
X90934373Y-83726509D01*
X91104392Y-83711635D01*
X91324196Y-83652739D01*
X91530434Y-83556568D01*
X91716839Y-83426047D01*
X91877747Y-83265139D01*
X92008268Y-83078734D01*
X92035318Y-83020724D01*
X92081490Y-82968285D01*
X92148683Y-82949133D01*
X92215565Y-82969348D01*
X92260082Y-83020725D01*
X92287129Y-83078728D01*
X92287132Y-83078734D01*
X92417654Y-83265141D01*
X92578558Y-83426045D01*
X92578561Y-83426047D01*
X92764966Y-83556568D01*
X92971204Y-83652739D01*
X93191008Y-83711635D01*
X93352930Y-83725801D01*
X93417698Y-83731468D01*
X93417700Y-83731468D01*
X93417702Y-83731468D01*
X93474373Y-83726509D01*
X93644392Y-83711635D01*
X93864196Y-83652739D01*
X94070434Y-83556568D01*
X94256839Y-83426047D01*
X94417747Y-83265139D01*
X94548268Y-83078734D01*
X94575318Y-83020724D01*
X94621490Y-82968285D01*
X94688683Y-82949133D01*
X94755565Y-82969348D01*
X94800082Y-83020725D01*
X94827129Y-83078728D01*
X94827132Y-83078734D01*
X94957654Y-83265141D01*
X95118558Y-83426045D01*
X95118561Y-83426047D01*
X95304966Y-83556568D01*
X95511204Y-83652739D01*
X95731008Y-83711635D01*
X95892930Y-83725801D01*
X95957698Y-83731468D01*
X95957700Y-83731468D01*
X95957702Y-83731468D01*
X96014373Y-83726509D01*
X96184392Y-83711635D01*
X96404196Y-83652739D01*
X96610434Y-83556568D01*
X96796839Y-83426047D01*
X96957747Y-83265139D01*
X97088268Y-83078734D01*
X97115318Y-83020724D01*
X97161490Y-82968285D01*
X97228683Y-82949133D01*
X97295565Y-82969348D01*
X97340082Y-83020725D01*
X97367129Y-83078728D01*
X97367132Y-83078734D01*
X97497654Y-83265141D01*
X97658558Y-83426045D01*
X97658561Y-83426047D01*
X97844966Y-83556568D01*
X98051204Y-83652739D01*
X98271008Y-83711635D01*
X98432930Y-83725801D01*
X98497698Y-83731468D01*
X98497700Y-83731468D01*
X98497702Y-83731468D01*
X98554373Y-83726509D01*
X98724392Y-83711635D01*
X98944196Y-83652739D01*
X99150434Y-83556568D01*
X99336839Y-83426047D01*
X99497747Y-83265139D01*
X99628268Y-83078734D01*
X99655318Y-83020724D01*
X99701490Y-82968285D01*
X99768683Y-82949133D01*
X99835565Y-82969348D01*
X99880082Y-83020725D01*
X99907129Y-83078728D01*
X99907132Y-83078734D01*
X100037654Y-83265141D01*
X100198558Y-83426045D01*
X100198561Y-83426047D01*
X100384966Y-83556568D01*
X100591204Y-83652739D01*
X100811008Y-83711635D01*
X100972930Y-83725801D01*
X101037698Y-83731468D01*
X101037700Y-83731468D01*
X101037702Y-83731468D01*
X101094373Y-83726509D01*
X101264392Y-83711635D01*
X101484196Y-83652739D01*
X101690434Y-83556568D01*
X101876839Y-83426047D01*
X102037747Y-83265139D01*
X102168268Y-83078734D01*
X102195318Y-83020724D01*
X102241490Y-82968285D01*
X102308683Y-82949133D01*
X102375565Y-82969348D01*
X102420082Y-83020725D01*
X102447129Y-83078728D01*
X102447132Y-83078734D01*
X102577654Y-83265141D01*
X102738558Y-83426045D01*
X102738561Y-83426047D01*
X102924966Y-83556568D01*
X103131204Y-83652739D01*
X103351008Y-83711635D01*
X103512930Y-83725801D01*
X103577698Y-83731468D01*
X103577700Y-83731468D01*
X103577702Y-83731468D01*
X103634373Y-83726509D01*
X103804392Y-83711635D01*
X104024196Y-83652739D01*
X104230434Y-83556568D01*
X104416839Y-83426047D01*
X104577747Y-83265139D01*
X104708268Y-83078734D01*
X104735595Y-83020129D01*
X104781764Y-82967695D01*
X104848957Y-82948542D01*
X104915839Y-82968757D01*
X104960357Y-83020133D01*
X104987565Y-83078482D01*
X105118042Y-83264820D01*
X105278879Y-83425657D01*
X105465217Y-83556134D01*
X105671373Y-83652265D01*
X105671382Y-83652269D01*
X105867699Y-83704872D01*
X105867700Y-83704871D01*
X105867700Y-82741686D01*
X105879655Y-82753641D01*
X105992552Y-82811165D01*
X106086219Y-82826000D01*
X106149181Y-82826000D01*
X106242848Y-82811165D01*
X106355745Y-82753641D01*
X106367700Y-82741686D01*
X106367700Y-83704872D01*
X106564017Y-83652269D01*
X106564026Y-83652265D01*
X106770182Y-83556134D01*
X106956520Y-83425657D01*
X107117357Y-83264820D01*
X107247834Y-83078482D01*
X107343965Y-82872326D01*
X107343969Y-82872317D01*
X107362274Y-82804000D01*
X108372341Y-82804000D01*
X108392936Y-83039403D01*
X108392938Y-83039413D01*
X108454094Y-83267655D01*
X108454096Y-83267659D01*
X108454097Y-83267663D01*
X108527771Y-83425657D01*
X108553965Y-83481830D01*
X108553967Y-83481834D01*
X108644208Y-83610710D01*
X108689505Y-83675401D01*
X108856599Y-83842495D01*
X108948443Y-83906805D01*
X109050165Y-83978032D01*
X109050167Y-83978033D01*
X109050170Y-83978035D01*
X109264337Y-84077903D01*
X109492592Y-84139063D01*
X109669034Y-84154500D01*
X109727999Y-84159659D01*
X109728000Y-84159659D01*
X109728001Y-84159659D01*
X109786966Y-84154500D01*
X109963408Y-84139063D01*
X110191663Y-84077903D01*
X110405830Y-83978035D01*
X110599401Y-83842495D01*
X110766495Y-83675401D01*
X110902035Y-83481830D01*
X111001903Y-83267663D01*
X111063063Y-83039408D01*
X111083659Y-82804000D01*
X111063063Y-82568592D01*
X111036143Y-82468125D01*
X111037806Y-82398276D01*
X111068235Y-82348353D01*
X113517988Y-79898601D01*
X113530242Y-79888786D01*
X113530059Y-79888564D01*
X113536068Y-79883591D01*
X113536077Y-79883586D01*
X113582149Y-79834522D01*
X113584766Y-79831823D01*
X113604320Y-79812271D01*
X113606776Y-79809103D01*
X113614356Y-79800227D01*
X113644262Y-79768382D01*
X113653913Y-79750824D01*
X113664596Y-79734561D01*
X113676873Y-79718736D01*
X113694221Y-79678644D01*
X113699351Y-79668171D01*
X113720397Y-79629892D01*
X113725380Y-79610480D01*
X113731681Y-79592080D01*
X113739637Y-79573696D01*
X113746470Y-79530548D01*
X113748833Y-79519138D01*
X113759700Y-79476819D01*
X113759700Y-79456783D01*
X113761227Y-79437382D01*
X113764360Y-79417604D01*
X113760250Y-79374124D01*
X113759700Y-79362455D01*
X113759700Y-78168687D01*
X113779385Y-78101648D01*
X113791550Y-78085715D01*
X113819387Y-78054798D01*
X113866733Y-78002216D01*
X113961379Y-77838284D01*
X114019874Y-77658256D01*
X114039660Y-77470000D01*
X114019874Y-77281744D01*
X113961379Y-77101716D01*
X113866733Y-76937784D01*
X113740071Y-76797112D01*
X113731784Y-76791091D01*
X113586934Y-76685851D01*
X113586929Y-76685848D01*
X113414007Y-76608857D01*
X113414002Y-76608855D01*
X113268201Y-76577865D01*
X113228846Y-76569500D01*
X113039554Y-76569500D01*
X113007097Y-76576398D01*
X112854397Y-76608855D01*
X112854392Y-76608857D01*
X112681470Y-76685848D01*
X112681465Y-76685851D01*
X112528329Y-76797111D01*
X112401666Y-76937785D01*
X112307021Y-77101715D01*
X112307018Y-77101722D01*
X112250254Y-77276426D01*
X112248526Y-77281744D01*
X112228740Y-77470000D01*
X112248526Y-77658256D01*
X112248527Y-77658259D01*
X112307018Y-77838277D01*
X112307021Y-77838284D01*
X112401667Y-78002216D01*
X112421260Y-78023976D01*
X112476850Y-78085715D01*
X112507080Y-78148706D01*
X112508700Y-78168687D01*
X112508700Y-79087346D01*
X112489015Y-79154385D01*
X112472381Y-79175027D01*
X111169727Y-80477681D01*
X111108404Y-80511166D01*
X111082046Y-80514000D01*
X110161686Y-80514000D01*
X110187493Y-80473844D01*
X110228000Y-80335889D01*
X110228000Y-80192111D01*
X110187493Y-80054156D01*
X110161686Y-80014000D01*
X111058636Y-80014000D01*
X111058635Y-80013999D01*
X111001432Y-79800513D01*
X111001429Y-79800507D01*
X110901600Y-79586422D01*
X110901599Y-79586420D01*
X110766113Y-79392926D01*
X110766108Y-79392920D01*
X110599082Y-79225894D01*
X110412968Y-79095575D01*
X110369344Y-79040998D01*
X110362151Y-78971499D01*
X110393673Y-78909145D01*
X110412968Y-78892425D01*
X110599082Y-78762105D01*
X110766105Y-78595082D01*
X110901600Y-78401578D01*
X111001429Y-78187492D01*
X111001432Y-78187486D01*
X111058636Y-77974000D01*
X110161686Y-77974000D01*
X110187493Y-77933844D01*
X110228000Y-77795889D01*
X110228000Y-77652111D01*
X110187493Y-77514156D01*
X110161686Y-77474000D01*
X111058636Y-77474000D01*
X111058635Y-77473999D01*
X111001432Y-77260513D01*
X111001429Y-77260507D01*
X110901600Y-77046422D01*
X110901599Y-77046420D01*
X110766113Y-76852926D01*
X110766108Y-76852920D01*
X110599078Y-76685890D01*
X110413405Y-76555879D01*
X110369780Y-76501302D01*
X110362588Y-76431804D01*
X110394110Y-76369449D01*
X110413406Y-76352730D01*
X110599401Y-76222495D01*
X110766495Y-76055401D01*
X110902035Y-75861830D01*
X111001903Y-75647663D01*
X111063063Y-75419408D01*
X111083659Y-75184000D01*
X111063063Y-74948592D01*
X111041966Y-74869858D01*
X111036143Y-74848125D01*
X111037806Y-74778276D01*
X111068235Y-74728353D01*
X113517988Y-72278601D01*
X113530242Y-72268786D01*
X113530059Y-72268564D01*
X113536068Y-72263591D01*
X113536077Y-72263586D01*
X113582149Y-72214522D01*
X113584766Y-72211823D01*
X113604320Y-72192271D01*
X113606776Y-72189103D01*
X113614356Y-72180227D01*
X113644262Y-72148382D01*
X113653913Y-72130824D01*
X113664596Y-72114561D01*
X113676873Y-72098736D01*
X113694221Y-72058644D01*
X113699351Y-72048171D01*
X113720397Y-72009892D01*
X113725380Y-71990480D01*
X113731681Y-71972080D01*
X113739637Y-71953696D01*
X113746470Y-71910548D01*
X113748833Y-71899138D01*
X113759700Y-71856819D01*
X113759700Y-71836783D01*
X113761227Y-71817382D01*
X113764360Y-71797604D01*
X113760250Y-71754124D01*
X113759700Y-71742455D01*
X113759700Y-71310687D01*
X113779385Y-71243648D01*
X113791550Y-71227715D01*
X113823596Y-71192124D01*
X113866733Y-71144216D01*
X113961379Y-70980284D01*
X114019874Y-70800256D01*
X114039660Y-70612000D01*
X114019874Y-70423744D01*
X113961379Y-70243716D01*
X113866733Y-70079784D01*
X113809010Y-70015676D01*
X113740076Y-69939116D01*
X113740071Y-69939112D01*
X113715151Y-69921006D01*
X113672486Y-69865675D01*
X113666508Y-69796062D01*
X113699115Y-69734267D01*
X113700283Y-69733082D01*
X113715338Y-69718027D01*
X113728967Y-69706250D01*
X113748230Y-69691910D01*
X113780066Y-69653969D01*
X113787383Y-69645984D01*
X113788692Y-69644673D01*
X113791291Y-69642076D01*
X113810553Y-69617713D01*
X113812776Y-69614986D01*
X113861000Y-69557516D01*
X113861002Y-69557514D01*
X113861004Y-69557509D01*
X113864974Y-69551475D01*
X113865025Y-69551508D01*
X113869069Y-69545160D01*
X113869017Y-69545128D01*
X113872805Y-69538983D01*
X113872811Y-69538977D01*
X113904009Y-69472070D01*
X113950180Y-69419633D01*
X113977378Y-69406773D01*
X114024034Y-69391314D01*
X114173356Y-69299212D01*
X114297412Y-69175156D01*
X114389514Y-69025834D01*
X114444699Y-68859297D01*
X114455200Y-68756509D01*
X114455199Y-67981492D01*
X114444699Y-67878703D01*
X114389514Y-67712166D01*
X114297412Y-67562844D01*
X114173356Y-67438788D01*
X114170042Y-67436743D01*
X114168246Y-67434748D01*
X114167689Y-67434307D01*
X114167764Y-67434211D01*
X114123318Y-67384797D01*
X114112097Y-67315834D01*
X114139940Y-67251752D01*
X114170048Y-67225665D01*
X114173042Y-67223818D01*
X114297015Y-67099845D01*
X114389056Y-66950624D01*
X114389058Y-66950619D01*
X114444205Y-66784197D01*
X114444206Y-66784190D01*
X114454699Y-66681486D01*
X114454700Y-66681473D01*
X114454700Y-66544000D01*
X113103700Y-66544000D01*
X113036661Y-66524315D01*
X112990906Y-66471511D01*
X112979700Y-66420000D01*
X112979700Y-65206500D01*
X113479700Y-65206500D01*
X113479700Y-66044000D01*
X114454699Y-66044000D01*
X114454699Y-65906528D01*
X114454698Y-65906513D01*
X114444205Y-65803802D01*
X114389058Y-65637380D01*
X114389056Y-65637375D01*
X114297015Y-65488154D01*
X114173045Y-65364184D01*
X114023824Y-65272143D01*
X114023819Y-65272141D01*
X113857397Y-65216994D01*
X113857390Y-65216993D01*
X113754686Y-65206500D01*
X113479700Y-65206500D01*
X112979700Y-65206500D01*
X112929200Y-65206500D01*
X112862161Y-65186815D01*
X112816406Y-65134011D01*
X112805200Y-65082500D01*
X112805200Y-64583528D01*
X112824885Y-64516489D01*
X112841515Y-64495851D01*
X113261641Y-64075724D01*
X113275260Y-64063954D01*
X113294530Y-64049610D01*
X113326372Y-64011661D01*
X113333671Y-64003694D01*
X113337590Y-63999777D01*
X113349101Y-63985219D01*
X113356811Y-63975467D01*
X113359094Y-63972664D01*
X113407301Y-63915215D01*
X113411272Y-63909179D01*
X113411323Y-63909212D01*
X113415369Y-63902860D01*
X113415317Y-63902828D01*
X113419105Y-63896683D01*
X113419111Y-63896677D01*
X113450829Y-63828655D01*
X113452369Y-63825476D01*
X113486040Y-63758433D01*
X113486043Y-63758417D01*
X113488510Y-63751644D01*
X113488568Y-63751665D01*
X113491043Y-63744546D01*
X113490985Y-63744527D01*
X113493255Y-63737677D01*
X113496590Y-63721524D01*
X113508431Y-63664171D01*
X113509186Y-63660767D01*
X113526500Y-63587721D01*
X113526500Y-63587719D01*
X113526501Y-63587715D01*
X113527339Y-63580548D01*
X113527397Y-63580554D01*
X113528164Y-63573056D01*
X113528104Y-63573051D01*
X113528733Y-63565860D01*
X113526552Y-63490889D01*
X113526500Y-63487283D01*
X113526500Y-62256321D01*
X113543113Y-62194321D01*
X113544429Y-62192042D01*
X113603179Y-62090284D01*
X113661674Y-61910256D01*
X113681460Y-61722000D01*
X113661674Y-61533744D01*
X113603179Y-61353716D01*
X113508533Y-61189784D01*
X113381871Y-61049112D01*
X113381870Y-61049111D01*
X113228734Y-60937851D01*
X113228729Y-60937848D01*
X113055807Y-60860857D01*
X113055802Y-60860855D01*
X112910001Y-60829865D01*
X112870646Y-60821500D01*
X112681354Y-60821500D01*
X112648897Y-60828398D01*
X112496197Y-60860855D01*
X112496192Y-60860857D01*
X112323270Y-60937848D01*
X112323265Y-60937851D01*
X112170129Y-61049111D01*
X112043466Y-61189785D01*
X111948821Y-61353715D01*
X111948818Y-61353722D01*
X111897656Y-61511184D01*
X111890326Y-61533744D01*
X111870540Y-61722000D01*
X111890326Y-61910256D01*
X111890327Y-61910259D01*
X111948818Y-62090277D01*
X111948821Y-62090284D01*
X112006969Y-62191000D01*
X112008887Y-62194321D01*
X112025500Y-62256321D01*
X112025500Y-63137769D01*
X112005815Y-63204808D01*
X111989181Y-63225450D01*
X111569058Y-63645572D01*
X111555429Y-63657351D01*
X111536169Y-63671690D01*
X111504332Y-63709631D01*
X111497046Y-63717584D01*
X111493107Y-63721524D01*
X111473876Y-63745845D01*
X111471602Y-63748637D01*
X111423394Y-63806090D01*
X111419429Y-63812119D01*
X111419382Y-63812088D01*
X111415330Y-63818447D01*
X111415379Y-63818477D01*
X111411589Y-63824621D01*
X111379892Y-63892594D01*
X111378323Y-63895836D01*
X111344657Y-63962872D01*
X111342188Y-63969657D01*
X111342132Y-63969636D01*
X111339660Y-63976750D01*
X111339715Y-63976769D01*
X111337443Y-63983625D01*
X111322273Y-64057088D01*
X111321493Y-64060604D01*
X111304199Y-64133579D01*
X111303361Y-64140754D01*
X111303301Y-64140747D01*
X111302535Y-64148245D01*
X111302595Y-64148251D01*
X111301965Y-64155440D01*
X111304148Y-64230428D01*
X111304200Y-64234035D01*
X111304200Y-66541538D01*
X111284515Y-66608577D01*
X111231711Y-66654332D01*
X111162553Y-66664276D01*
X111098997Y-66635251D01*
X111064018Y-66584871D01*
X111021797Y-66471671D01*
X111021793Y-66471664D01*
X110935547Y-66356455D01*
X110935544Y-66356452D01*
X110820335Y-66270206D01*
X110820328Y-66270202D01*
X110685482Y-66219908D01*
X110685483Y-66219908D01*
X110625883Y-66213501D01*
X110625881Y-66213500D01*
X110625873Y-66213500D01*
X110625864Y-66213500D01*
X108830129Y-66213500D01*
X108830123Y-66213501D01*
X108770516Y-66219908D01*
X108635671Y-66270202D01*
X108635664Y-66270206D01*
X108520455Y-66356452D01*
X108520452Y-66356455D01*
X108434206Y-66471664D01*
X108434202Y-66471671D01*
X108383908Y-66606517D01*
X108377501Y-66666116D01*
X108377500Y-66666135D01*
X108377500Y-68461870D01*
X108377501Y-68461876D01*
X108383908Y-68521483D01*
X108434202Y-68656328D01*
X108434206Y-68656335D01*
X108520452Y-68771544D01*
X108520455Y-68771547D01*
X108635664Y-68857793D01*
X108635671Y-68857797D01*
X108767081Y-68906810D01*
X108823015Y-68948681D01*
X108847432Y-69014145D01*
X108832580Y-69082418D01*
X108811430Y-69110673D01*
X108689503Y-69232600D01*
X108553965Y-69426169D01*
X108553964Y-69426171D01*
X108454098Y-69640335D01*
X108454094Y-69640344D01*
X108392938Y-69868586D01*
X108392936Y-69868596D01*
X108372341Y-70103999D01*
X108372341Y-70104000D01*
X108392936Y-70339403D01*
X108392938Y-70339413D01*
X108454094Y-70567655D01*
X108454096Y-70567659D01*
X108454097Y-70567663D01*
X108535810Y-70742897D01*
X108553965Y-70781830D01*
X108553967Y-70781834D01*
X108654848Y-70925906D01*
X108675534Y-70955449D01*
X108689501Y-70975395D01*
X108689506Y-70975402D01*
X108856597Y-71142493D01*
X108856603Y-71142498D01*
X109042158Y-71272425D01*
X109085783Y-71327002D01*
X109092977Y-71396500D01*
X109061454Y-71458855D01*
X109042158Y-71475575D01*
X108856597Y-71605505D01*
X108689505Y-71772597D01*
X108553965Y-71966169D01*
X108553964Y-71966171D01*
X108454098Y-72180335D01*
X108454094Y-72180344D01*
X108392938Y-72408586D01*
X108392936Y-72408596D01*
X108372341Y-72643999D01*
X108372341Y-72644000D01*
X108392936Y-72879403D01*
X108392938Y-72879413D01*
X108454094Y-73107655D01*
X108454096Y-73107659D01*
X108454097Y-73107663D01*
X108531791Y-73274277D01*
X108553965Y-73321830D01*
X108553967Y-73321834D01*
X108689501Y-73515395D01*
X108689506Y-73515402D01*
X108856597Y-73682493D01*
X108856603Y-73682498D01*
X109042158Y-73812425D01*
X109085783Y-73867002D01*
X109092977Y-73936500D01*
X109061454Y-73998855D01*
X109042158Y-74015575D01*
X108856597Y-74145505D01*
X108689505Y-74312597D01*
X108553965Y-74506169D01*
X108553964Y-74506171D01*
X108454098Y-74720335D01*
X108454094Y-74720344D01*
X108392938Y-74948586D01*
X108392936Y-74948596D01*
X108372341Y-75183999D01*
X108372341Y-75184000D01*
X108392936Y-75419403D01*
X108392938Y-75419413D01*
X108454094Y-75647655D01*
X108454096Y-75647659D01*
X108454097Y-75647663D01*
X108538851Y-75829418D01*
X108553965Y-75861830D01*
X108553967Y-75861834D01*
X108689501Y-76055395D01*
X108689506Y-76055402D01*
X108856597Y-76222493D01*
X108856603Y-76222498D01*
X108918359Y-76265740D01*
X109024490Y-76340054D01*
X109042594Y-76352730D01*
X109086219Y-76407307D01*
X109093413Y-76476805D01*
X109061890Y-76539160D01*
X109042595Y-76555880D01*
X108856922Y-76685890D01*
X108856920Y-76685891D01*
X108689891Y-76852920D01*
X108689886Y-76852926D01*
X108554400Y-77046420D01*
X108554399Y-77046422D01*
X108454570Y-77260507D01*
X108454567Y-77260513D01*
X108397364Y-77473999D01*
X108397364Y-77474000D01*
X109294314Y-77474000D01*
X109268507Y-77514156D01*
X109228000Y-77652111D01*
X109228000Y-77795889D01*
X109268507Y-77933844D01*
X109294314Y-77974000D01*
X108397364Y-77974000D01*
X108454567Y-78187486D01*
X108454570Y-78187492D01*
X108554399Y-78401578D01*
X108689894Y-78595082D01*
X108856917Y-78762105D01*
X109043031Y-78892425D01*
X109086656Y-78947003D01*
X109093848Y-79016501D01*
X109062326Y-79078856D01*
X109043031Y-79095575D01*
X108856922Y-79225890D01*
X108856920Y-79225891D01*
X108689891Y-79392920D01*
X108689886Y-79392926D01*
X108554400Y-79586420D01*
X108554399Y-79586422D01*
X108454570Y-79800507D01*
X108454567Y-79800513D01*
X108397364Y-80013999D01*
X108397364Y-80014000D01*
X109294314Y-80014000D01*
X109268507Y-80054156D01*
X109228000Y-80192111D01*
X109228000Y-80335889D01*
X109268507Y-80473844D01*
X109294314Y-80514000D01*
X108397364Y-80514000D01*
X108454567Y-80727486D01*
X108454570Y-80727492D01*
X108554399Y-80941578D01*
X108689894Y-81135082D01*
X108856917Y-81302105D01*
X109042595Y-81432119D01*
X109086219Y-81486696D01*
X109093412Y-81556195D01*
X109061890Y-81618549D01*
X109042595Y-81635269D01*
X108856594Y-81765508D01*
X108689505Y-81932597D01*
X108553965Y-82126169D01*
X108553964Y-82126171D01*
X108454098Y-82340335D01*
X108454094Y-82340344D01*
X108392938Y-82568586D01*
X108392936Y-82568596D01*
X108372341Y-82803999D01*
X108372341Y-82804000D01*
X107362274Y-82804000D01*
X107396572Y-82676000D01*
X106433386Y-82676000D01*
X106445341Y-82664045D01*
X106502865Y-82551148D01*
X106522686Y-82426000D01*
X106502865Y-82300852D01*
X106445341Y-82187955D01*
X106433386Y-82176000D01*
X107396572Y-82176000D01*
X107396572Y-82175999D01*
X107343969Y-81979682D01*
X107343965Y-81979673D01*
X107247834Y-81773517D01*
X107117357Y-81587179D01*
X106956520Y-81426342D01*
X106770182Y-81295865D01*
X106564028Y-81199734D01*
X106367700Y-81147127D01*
X106367700Y-82110314D01*
X106355745Y-82098359D01*
X106242848Y-82040835D01*
X106149181Y-82026000D01*
X106086219Y-82026000D01*
X105992552Y-82040835D01*
X105879655Y-82098359D01*
X105867700Y-82110314D01*
X105867700Y-81147127D01*
X105671371Y-81199734D01*
X105465217Y-81295865D01*
X105278879Y-81426342D01*
X105118042Y-81587179D01*
X104987567Y-81773515D01*
X104960357Y-81831867D01*
X104914184Y-81884306D01*
X104846990Y-81903457D01*
X104780109Y-81883241D01*
X104735593Y-81831865D01*
X104726176Y-81811671D01*
X104708268Y-81773266D01*
X104577747Y-81586861D01*
X104577745Y-81586858D01*
X104416844Y-81425957D01*
X104416840Y-81425954D01*
X104416839Y-81425953D01*
X104305266Y-81347829D01*
X104261644Y-81293256D01*
X104254450Y-81223758D01*
X104285972Y-81161403D01*
X104288678Y-81158609D01*
X106501488Y-78945800D01*
X106513742Y-78935985D01*
X106513559Y-78935763D01*
X106519568Y-78930790D01*
X106519577Y-78930785D01*
X106565648Y-78881723D01*
X106568264Y-78879024D01*
X106571961Y-78875327D01*
X106596512Y-78856282D01*
X106669565Y-78813081D01*
X106785781Y-78696865D01*
X106869444Y-78555398D01*
X106915298Y-78397569D01*
X106918200Y-78360694D01*
X106918200Y-76579306D01*
X106915298Y-76542431D01*
X106901502Y-76494947D01*
X106869445Y-76384606D01*
X106869444Y-76384603D01*
X106869444Y-76384602D01*
X106785781Y-76243135D01*
X106785779Y-76243133D01*
X106785776Y-76243129D01*
X106669570Y-76126923D01*
X106669562Y-76126917D01*
X106576744Y-76072025D01*
X106528098Y-76043256D01*
X106528097Y-76043255D01*
X106528096Y-76043255D01*
X106528093Y-76043254D01*
X106370273Y-75997402D01*
X106370267Y-75997401D01*
X106333401Y-75994500D01*
X106333394Y-75994500D01*
X105902006Y-75994500D01*
X105901998Y-75994500D01*
X105865132Y-75997401D01*
X105865126Y-75997402D01*
X105707306Y-76043254D01*
X105707303Y-76043255D01*
X105565837Y-76126917D01*
X105559669Y-76131702D01*
X105557772Y-76129256D01*
X105509058Y-76155857D01*
X105439366Y-76150873D01*
X105406996Y-76130069D01*
X105405731Y-76131702D01*
X105399562Y-76126917D01*
X105306744Y-76072025D01*
X105258098Y-76043256D01*
X105258097Y-76043255D01*
X105258096Y-76043255D01*
X105258093Y-76043254D01*
X105100273Y-75997402D01*
X105100267Y-75997401D01*
X105060967Y-75994309D01*
X105061058Y-75993149D01*
X104999084Y-75972167D01*
X104982647Y-75958357D01*
X104349063Y-75324772D01*
X104315578Y-75263449D01*
X104320562Y-75193757D01*
X104329353Y-75175097D01*
X104359314Y-75123205D01*
X104409880Y-75074990D01*
X104478487Y-75061768D01*
X104543352Y-75087736D01*
X104574085Y-75123203D01*
X104609186Y-75184000D01*
X104623167Y-75208216D01*
X104749829Y-75348888D01*
X104902965Y-75460148D01*
X104902970Y-75460151D01*
X105075892Y-75537142D01*
X105075897Y-75537144D01*
X105261054Y-75576500D01*
X105261055Y-75576500D01*
X105450344Y-75576500D01*
X105450346Y-75576500D01*
X105635503Y-75537144D01*
X105808430Y-75460151D01*
X105961571Y-75348888D01*
X106088233Y-75208216D01*
X106182879Y-75044284D01*
X106238222Y-74873955D01*
X106268469Y-74824597D01*
X106603342Y-74489724D01*
X106616971Y-74477947D01*
X106636230Y-74463610D01*
X106668060Y-74425676D01*
X106675377Y-74417691D01*
X106679287Y-74413781D01*
X106679287Y-74413780D01*
X106679291Y-74413777D01*
X106698533Y-74389438D01*
X106700769Y-74386693D01*
X106749002Y-74329214D01*
X106749007Y-74329203D01*
X106752974Y-74323175D01*
X106753025Y-74323208D01*
X106757072Y-74316856D01*
X106757020Y-74316824D01*
X106760808Y-74310680D01*
X106760811Y-74310677D01*
X106792521Y-74242673D01*
X106794062Y-74239488D01*
X106827740Y-74172433D01*
X106827743Y-74172417D01*
X106830209Y-74165646D01*
X106830267Y-74165667D01*
X106832743Y-74158546D01*
X106832686Y-74158527D01*
X106834955Y-74151678D01*
X106834955Y-74151676D01*
X106834957Y-74151673D01*
X106850135Y-74078157D01*
X106850900Y-74074708D01*
X106868200Y-74001721D01*
X106868200Y-74001719D01*
X106868201Y-74001715D01*
X106869039Y-73994548D01*
X106869098Y-73994554D01*
X106869864Y-73987054D01*
X106869805Y-73987049D01*
X106870434Y-73979859D01*
X106869470Y-73946745D01*
X106868252Y-73904869D01*
X106868200Y-73901262D01*
X106868200Y-73627328D01*
X106873124Y-73592733D01*
X106915297Y-73447573D01*
X106915298Y-73447567D01*
X106918200Y-73410694D01*
X106918200Y-71629306D01*
X106915298Y-71592431D01*
X106909410Y-71572163D01*
X106873124Y-71447265D01*
X106868200Y-71412670D01*
X106868200Y-71047769D01*
X106887885Y-70980730D01*
X106927101Y-70942232D01*
X106966856Y-70917712D01*
X107090912Y-70793656D01*
X107090912Y-70793655D01*
X107096019Y-70788549D01*
X107097905Y-70790435D01*
X107144825Y-70757212D01*
X107185068Y-70750500D01*
X107282644Y-70750500D01*
X107282646Y-70750500D01*
X107467803Y-70711144D01*
X107640730Y-70634151D01*
X107793871Y-70522888D01*
X107920533Y-70382216D01*
X108015179Y-70218284D01*
X108073674Y-70038256D01*
X108093460Y-69850000D01*
X108073674Y-69661744D01*
X108015179Y-69481716D01*
X107920533Y-69317784D01*
X107793871Y-69177112D01*
X107793870Y-69177111D01*
X107640734Y-69065851D01*
X107640729Y-69065848D01*
X107467807Y-68988857D01*
X107467802Y-68988855D01*
X107322001Y-68957865D01*
X107282646Y-68949500D01*
X107282645Y-68949500D01*
X107185068Y-68949500D01*
X107118029Y-68929815D01*
X107096853Y-68910616D01*
X107096019Y-68911451D01*
X106966857Y-68782289D01*
X106966856Y-68782288D01*
X106874088Y-68725069D01*
X106817536Y-68690187D01*
X106817531Y-68690185D01*
X106801262Y-68684794D01*
X106650997Y-68635001D01*
X106646054Y-68634496D01*
X106636150Y-68633484D01*
X106571459Y-68607086D01*
X106531309Y-68549904D01*
X106528448Y-68480093D01*
X106563783Y-68419817D01*
X106596347Y-68397746D01*
X106770434Y-68316568D01*
X106956839Y-68186047D01*
X107117747Y-68025139D01*
X107248268Y-67838734D01*
X107344439Y-67632496D01*
X107403335Y-67412692D01*
X107423168Y-67186000D01*
X107403335Y-66959308D01*
X107350963Y-66763853D01*
X107344441Y-66739511D01*
X107344438Y-66739502D01*
X107322566Y-66692597D01*
X107248268Y-66533266D01*
X107117747Y-66346861D01*
X107117745Y-66346858D01*
X106956841Y-66185954D01*
X106770434Y-66055432D01*
X106770432Y-66055431D01*
X106564197Y-65959261D01*
X106564188Y-65959258D01*
X106465349Y-65932775D01*
X106405688Y-65896410D01*
X106375159Y-65833563D01*
X106383454Y-65764188D01*
X106427939Y-65710310D01*
X106494491Y-65689035D01*
X106497442Y-65689000D01*
X106587334Y-65689000D01*
X106587349Y-65688999D01*
X106624189Y-65686100D01*
X106624195Y-65686099D01*
X106781893Y-65640283D01*
X106781896Y-65640282D01*
X106923252Y-65556685D01*
X106923261Y-65556678D01*
X107039378Y-65440561D01*
X107039385Y-65440552D01*
X107122982Y-65299196D01*
X107122983Y-65299193D01*
X107168799Y-65141495D01*
X107168800Y-65141489D01*
X107171699Y-65104649D01*
X107171700Y-65104634D01*
X107171700Y-64414000D01*
X106245700Y-64414000D01*
X106178661Y-64394315D01*
X106132906Y-64341511D01*
X106121700Y-64290000D01*
X106121700Y-64038000D01*
X106141385Y-63970961D01*
X106194189Y-63925206D01*
X106245700Y-63914000D01*
X107171700Y-63914000D01*
X107171700Y-63223365D01*
X107171699Y-63223350D01*
X107168800Y-63186510D01*
X107168799Y-63186504D01*
X107122983Y-63028806D01*
X107122982Y-63028803D01*
X107039385Y-62887447D01*
X107039378Y-62887438D01*
X106923261Y-62771321D01*
X106923252Y-62771314D01*
X106781896Y-62687717D01*
X106781893Y-62687716D01*
X106624195Y-62641900D01*
X106624189Y-62641899D01*
X106584915Y-62638809D01*
X106585009Y-62637612D01*
X106523152Y-62616759D01*
X106479521Y-62562187D01*
X106472320Y-62492689D01*
X106476333Y-62476858D01*
X106483595Y-62454507D01*
X106495374Y-62418256D01*
X106515160Y-62230000D01*
X106495374Y-62041744D01*
X106436879Y-61861716D01*
X106342233Y-61697784D01*
X106215571Y-61557112D01*
X106185135Y-61534999D01*
X106062434Y-61445851D01*
X106062429Y-61445848D01*
X105889507Y-61368857D01*
X105889505Y-61368856D01*
X105822918Y-61354702D01*
X105761437Y-61321508D01*
X105730770Y-61271730D01*
X105674881Y-61099721D01*
X105674878Y-61099715D01*
X105660361Y-61074570D01*
X105580233Y-60935784D01*
X105453571Y-60795112D01*
X105453570Y-60795111D01*
X105300434Y-60683851D01*
X105300429Y-60683848D01*
X105127507Y-60606857D01*
X105127502Y-60606855D01*
X104981701Y-60575865D01*
X104942346Y-60567500D01*
X104942345Y-60567500D01*
X104927656Y-60567500D01*
X104860617Y-60547815D01*
X104820269Y-60505500D01*
X104748597Y-60381360D01*
X104621935Y-60240688D01*
X104600835Y-60225358D01*
X104468798Y-60129427D01*
X104468793Y-60129424D01*
X104295871Y-60052433D01*
X104295866Y-60052431D01*
X104150065Y-60021441D01*
X104110710Y-60013076D01*
X103921418Y-60013076D01*
X103888961Y-60019974D01*
X103736261Y-60052431D01*
X103736256Y-60052433D01*
X103563334Y-60129424D01*
X103563329Y-60129427D01*
X103410193Y-60240687D01*
X103283530Y-60381361D01*
X103188885Y-60545291D01*
X103188882Y-60545298D01*
X103130391Y-60725316D01*
X103130390Y-60725320D01*
X103118968Y-60834000D01*
X103112743Y-60893225D01*
X103086158Y-60957839D01*
X103077103Y-60967944D01*
X102177908Y-61867139D01*
X102165651Y-61876960D01*
X102165834Y-61877181D01*
X102159822Y-61882154D01*
X102113798Y-61931163D01*
X102111091Y-61933956D01*
X102091589Y-61953457D01*
X102091575Y-61953474D01*
X102089107Y-61956655D01*
X102081543Y-61965510D01*
X102051637Y-61997358D01*
X102051636Y-61997360D01*
X102041984Y-62014916D01*
X102031310Y-62031166D01*
X102019029Y-62047001D01*
X102019024Y-62047008D01*
X102001675Y-62087098D01*
X101996538Y-62097584D01*
X101975503Y-62135846D01*
X101970522Y-62155247D01*
X101964221Y-62173650D01*
X101956262Y-62192042D01*
X101956261Y-62192045D01*
X101949428Y-62235183D01*
X101947060Y-62246614D01*
X101936201Y-62288911D01*
X101936200Y-62288922D01*
X101936200Y-62308956D01*
X101934673Y-62328355D01*
X101931540Y-62348134D01*
X101931540Y-62348135D01*
X101935650Y-62391614D01*
X101936200Y-62403283D01*
X101936200Y-62608308D01*
X101916515Y-62675347D01*
X101863711Y-62721102D01*
X101794553Y-62731046D01*
X101749080Y-62715041D01*
X101741716Y-62710686D01*
X101702098Y-62687256D01*
X101702096Y-62687255D01*
X101702094Y-62687254D01*
X101544273Y-62641402D01*
X101544267Y-62641401D01*
X101507401Y-62638500D01*
X101507394Y-62638500D01*
X101076006Y-62638500D01*
X101075998Y-62638500D01*
X101039132Y-62641401D01*
X101039126Y-62641402D01*
X100881306Y-62687254D01*
X100881303Y-62687255D01*
X100739837Y-62770917D01*
X100733669Y-62775702D01*
X100731772Y-62773256D01*
X100683058Y-62799857D01*
X100613366Y-62794873D01*
X100580996Y-62774069D01*
X100579731Y-62775702D01*
X100573562Y-62770917D01*
X100438429Y-62691000D01*
X100432098Y-62687256D01*
X100432097Y-62687255D01*
X100432096Y-62687255D01*
X100432093Y-62687254D01*
X100274273Y-62641402D01*
X100274267Y-62641401D01*
X100237401Y-62638500D01*
X100237394Y-62638500D01*
X99806006Y-62638500D01*
X99805998Y-62638500D01*
X99769132Y-62641401D01*
X99769126Y-62641402D01*
X99611306Y-62687254D01*
X99611303Y-62687255D01*
X99469837Y-62770917D01*
X99463669Y-62775702D01*
X99461772Y-62773256D01*
X99413058Y-62799857D01*
X99343366Y-62794873D01*
X99310996Y-62774069D01*
X99309731Y-62775702D01*
X99303562Y-62770917D01*
X99168429Y-62691000D01*
X99162098Y-62687256D01*
X99162097Y-62687255D01*
X99162096Y-62687255D01*
X99162093Y-62687254D01*
X99004273Y-62641402D01*
X99004267Y-62641401D01*
X98967401Y-62638500D01*
X98967394Y-62638500D01*
X98536006Y-62638500D01*
X98535998Y-62638500D01*
X98499132Y-62641401D01*
X98499126Y-62641402D01*
X98341306Y-62687254D01*
X98341303Y-62687255D01*
X98199837Y-62770917D01*
X98193669Y-62775702D01*
X98191772Y-62773256D01*
X98143058Y-62799857D01*
X98073366Y-62794873D01*
X98040996Y-62774069D01*
X98039731Y-62775702D01*
X98033562Y-62770917D01*
X97898429Y-62691000D01*
X97892098Y-62687256D01*
X97892097Y-62687255D01*
X97892096Y-62687255D01*
X97892093Y-62687254D01*
X97734273Y-62641402D01*
X97734267Y-62641401D01*
X97697401Y-62638500D01*
X97697394Y-62638500D01*
X97266006Y-62638500D01*
X97265998Y-62638500D01*
X97229132Y-62641401D01*
X97229126Y-62641402D01*
X97071306Y-62687254D01*
X97071303Y-62687255D01*
X96929840Y-62770915D01*
X96923674Y-62775699D01*
X96921874Y-62773379D01*
X96872613Y-62800230D01*
X96802925Y-62795193D01*
X96770692Y-62774461D01*
X96769422Y-62776100D01*
X96763252Y-62771314D01*
X96621896Y-62687717D01*
X96621893Y-62687716D01*
X96464194Y-62641900D01*
X96464197Y-62641900D01*
X96461700Y-62641703D01*
X96461700Y-64290000D01*
X96442015Y-64357039D01*
X96389211Y-64402794D01*
X96337700Y-64414000D01*
X95191700Y-64414000D01*
X95191700Y-65686295D01*
X95191701Y-65686295D01*
X95194186Y-65686100D01*
X95351898Y-65640281D01*
X95493252Y-65556685D01*
X95499422Y-65551900D01*
X95501246Y-65554252D01*
X95550295Y-65527445D01*
X95619988Y-65532402D01*
X95652763Y-65553465D01*
X95653978Y-65551900D01*
X95660147Y-65556685D01*
X95801501Y-65640281D01*
X95836929Y-65650574D01*
X95895814Y-65688181D01*
X95925021Y-65751653D01*
X95915275Y-65820840D01*
X95869671Y-65873774D01*
X95813142Y-65893179D01*
X95731012Y-65900364D01*
X95731002Y-65900366D01*
X95511211Y-65959258D01*
X95511202Y-65959261D01*
X95304967Y-66055431D01*
X95304965Y-66055432D01*
X95118558Y-66185954D01*
X94957654Y-66346858D01*
X94832566Y-66525505D01*
X94827132Y-66533266D01*
X94813776Y-66561909D01*
X94799806Y-66591867D01*
X94753633Y-66644306D01*
X94686439Y-66663457D01*
X94619558Y-66643241D01*
X94575042Y-66591865D01*
X94547835Y-66533520D01*
X94547834Y-66533518D01*
X94417357Y-66347179D01*
X94256520Y-66186342D01*
X94070182Y-66055865D01*
X93864028Y-65959734D01*
X93667700Y-65907127D01*
X93667700Y-66870314D01*
X93655745Y-66858359D01*
X93542848Y-66800835D01*
X93449181Y-66786000D01*
X93386219Y-66786000D01*
X93292552Y-66800835D01*
X93179655Y-66858359D01*
X93167700Y-66870314D01*
X93167700Y-65907127D01*
X92971371Y-65959734D01*
X92765217Y-66055865D01*
X92578879Y-66186342D01*
X92418042Y-66347179D01*
X92287567Y-66533515D01*
X92260357Y-66591867D01*
X92214184Y-66644306D01*
X92146990Y-66663457D01*
X92080109Y-66643241D01*
X92035593Y-66591865D01*
X92021624Y-66561909D01*
X92008268Y-66533266D01*
X91877747Y-66346861D01*
X91877745Y-66346858D01*
X91716841Y-66185954D01*
X91530434Y-66055432D01*
X91530432Y-66055431D01*
X91324197Y-65959261D01*
X91324188Y-65959258D01*
X91104397Y-65900366D01*
X91104393Y-65900365D01*
X91104392Y-65900365D01*
X91104391Y-65900364D01*
X91104386Y-65900364D01*
X90877702Y-65880532D01*
X90877698Y-65880532D01*
X90651013Y-65900364D01*
X90651002Y-65900366D01*
X90431211Y-65959258D01*
X90431202Y-65959261D01*
X90224967Y-66055431D01*
X90224965Y-66055432D01*
X90038558Y-66185954D01*
X89877654Y-66346858D01*
X89752566Y-66525505D01*
X89747132Y-66533266D01*
X89733776Y-66561909D01*
X89719806Y-66591867D01*
X89673633Y-66644306D01*
X89606439Y-66663457D01*
X89539558Y-66643241D01*
X89495042Y-66591865D01*
X89467835Y-66533520D01*
X89467834Y-66533518D01*
X89337357Y-66347179D01*
X89176520Y-66186342D01*
X88990182Y-66055865D01*
X88784028Y-65959734D01*
X88587700Y-65907127D01*
X88587700Y-66870314D01*
X88575745Y-66858359D01*
X88462848Y-66800835D01*
X88369181Y-66786000D01*
X88306219Y-66786000D01*
X88212552Y-66800835D01*
X88099655Y-66858359D01*
X88087700Y-66870314D01*
X88087700Y-65907127D01*
X87891371Y-65959734D01*
X87685217Y-66055865D01*
X87498879Y-66186342D01*
X87338042Y-66347179D01*
X87207567Y-66533515D01*
X87180357Y-66591867D01*
X87134184Y-66644306D01*
X87066990Y-66663457D01*
X87000109Y-66643241D01*
X86955593Y-66591865D01*
X86941624Y-66561909D01*
X86928268Y-66533266D01*
X86797747Y-66346861D01*
X86797745Y-66346858D01*
X86636841Y-66185954D01*
X86450434Y-66055432D01*
X86450432Y-66055431D01*
X86244197Y-65959261D01*
X86244188Y-65959258D01*
X86024397Y-65900366D01*
X86024393Y-65900365D01*
X86024392Y-65900365D01*
X86024391Y-65900364D01*
X86024386Y-65900364D01*
X85797702Y-65880532D01*
X85797698Y-65880532D01*
X85571013Y-65900364D01*
X85571002Y-65900366D01*
X85351211Y-65959258D01*
X85351202Y-65959261D01*
X85144967Y-66055431D01*
X85144965Y-66055432D01*
X84958558Y-66185954D01*
X84797654Y-66346858D01*
X84667132Y-66533265D01*
X84667131Y-66533267D01*
X84640082Y-66591275D01*
X84593909Y-66643714D01*
X84526716Y-66662866D01*
X84459835Y-66642650D01*
X84415318Y-66591275D01*
X84412332Y-66584871D01*
X84388268Y-66533266D01*
X84257747Y-66346861D01*
X84257745Y-66346858D01*
X84096841Y-66185954D01*
X83910434Y-66055432D01*
X83910432Y-66055431D01*
X83704197Y-65959261D01*
X83704188Y-65959258D01*
X83484397Y-65900366D01*
X83484393Y-65900365D01*
X83484392Y-65900365D01*
X83484391Y-65900364D01*
X83484386Y-65900364D01*
X83257702Y-65880532D01*
X83257698Y-65880532D01*
X83031013Y-65900364D01*
X83031002Y-65900366D01*
X82811211Y-65959258D01*
X82811202Y-65959261D01*
X82604967Y-66055431D01*
X82604965Y-66055432D01*
X82418558Y-66185954D01*
X82257654Y-66346858D01*
X82127132Y-66533265D01*
X82127131Y-66533267D01*
X82100082Y-66591275D01*
X82053909Y-66643714D01*
X81986716Y-66662866D01*
X81919835Y-66642650D01*
X81875318Y-66591275D01*
X81872332Y-66584871D01*
X81848268Y-66533266D01*
X81717747Y-66346861D01*
X81717745Y-66346858D01*
X81556841Y-66185954D01*
X81370434Y-66055432D01*
X81370432Y-66055431D01*
X81164197Y-65959261D01*
X81164188Y-65959258D01*
X80944397Y-65900366D01*
X80944393Y-65900365D01*
X80944392Y-65900365D01*
X80944391Y-65900364D01*
X80944386Y-65900364D01*
X80717702Y-65880532D01*
X80717698Y-65880532D01*
X80491013Y-65900364D01*
X80491002Y-65900366D01*
X80271211Y-65959258D01*
X80271202Y-65959261D01*
X80064967Y-66055431D01*
X80064965Y-66055432D01*
X79878558Y-66185954D01*
X79717654Y-66346858D01*
X79587132Y-66533265D01*
X79587131Y-66533267D01*
X79560082Y-66591275D01*
X79513909Y-66643714D01*
X79446716Y-66662866D01*
X79379835Y-66642650D01*
X79335318Y-66591275D01*
X79332332Y-66584871D01*
X79308268Y-66533266D01*
X79177747Y-66346861D01*
X79177745Y-66346858D01*
X79016841Y-66185954D01*
X78830434Y-66055432D01*
X78830432Y-66055431D01*
X78624197Y-65959261D01*
X78624188Y-65959258D01*
X78404397Y-65900366D01*
X78404393Y-65900365D01*
X78404392Y-65900365D01*
X78404391Y-65900364D01*
X78404386Y-65900364D01*
X78177702Y-65880532D01*
X78177698Y-65880532D01*
X77951013Y-65900364D01*
X77951002Y-65900366D01*
X77731211Y-65959258D01*
X77731202Y-65959261D01*
X77524967Y-66055431D01*
X77524965Y-66055432D01*
X77338558Y-66185954D01*
X77177654Y-66346858D01*
X77047132Y-66533265D01*
X77047131Y-66533267D01*
X77020082Y-66591275D01*
X76973909Y-66643714D01*
X76906716Y-66662866D01*
X76839835Y-66642650D01*
X76795318Y-66591275D01*
X76792332Y-66584871D01*
X76768268Y-66533266D01*
X76637747Y-66346861D01*
X76637745Y-66346858D01*
X76476841Y-66185954D01*
X76290434Y-66055432D01*
X76290432Y-66055431D01*
X76084197Y-65959261D01*
X76084188Y-65959258D01*
X75864397Y-65900366D01*
X75864393Y-65900365D01*
X75864392Y-65900365D01*
X75864391Y-65900364D01*
X75864386Y-65900364D01*
X75637702Y-65880532D01*
X75637698Y-65880532D01*
X75411013Y-65900364D01*
X75411002Y-65900366D01*
X75191211Y-65959258D01*
X75191202Y-65959261D01*
X74984967Y-66055431D01*
X74984965Y-66055432D01*
X74798558Y-66185954D01*
X74637654Y-66346858D01*
X74507132Y-66533265D01*
X74507131Y-66533267D01*
X74480082Y-66591275D01*
X74433909Y-66643714D01*
X74366716Y-66662866D01*
X74299835Y-66642650D01*
X74255318Y-66591275D01*
X74252332Y-66584871D01*
X74228268Y-66533266D01*
X74097747Y-66346861D01*
X74097745Y-66346858D01*
X73936841Y-66185954D01*
X73750434Y-66055432D01*
X73750432Y-66055431D01*
X73544197Y-65959261D01*
X73544188Y-65959258D01*
X73324397Y-65900366D01*
X73324393Y-65900365D01*
X73324392Y-65900365D01*
X73324391Y-65900364D01*
X73324386Y-65900364D01*
X73097702Y-65880532D01*
X73097698Y-65880532D01*
X72871013Y-65900364D01*
X72871002Y-65900366D01*
X72651211Y-65959258D01*
X72651202Y-65959261D01*
X72444967Y-66055431D01*
X72444965Y-66055432D01*
X72258558Y-66185954D01*
X72097654Y-66346858D01*
X71967132Y-66533265D01*
X71967131Y-66533267D01*
X71870961Y-66739502D01*
X71870958Y-66739511D01*
X71812066Y-66959302D01*
X71812064Y-66959313D01*
X71792232Y-67185998D01*
X71792232Y-67186001D01*
X71812064Y-67412686D01*
X71812066Y-67412697D01*
X71870958Y-67632488D01*
X71870961Y-67632497D01*
X71967131Y-67838732D01*
X71967132Y-67838734D01*
X72097654Y-68025141D01*
X72247891Y-68175378D01*
X72281376Y-68236701D01*
X72276392Y-68306393D01*
X72247891Y-68350740D01*
X72200289Y-68398341D01*
X72190400Y-68414374D01*
X72138450Y-68461097D01*
X72069487Y-68472317D01*
X72059084Y-68470564D01*
X71922346Y-68441500D01*
X71733054Y-68441500D01*
X71700662Y-68448385D01*
X71547897Y-68480855D01*
X71547892Y-68480857D01*
X71374970Y-68557848D01*
X71374965Y-68557851D01*
X71361248Y-68567818D01*
X71295442Y-68591298D01*
X71288363Y-68591500D01*
X71228200Y-68591500D01*
X71161161Y-68571815D01*
X71115406Y-68519011D01*
X71104200Y-68467500D01*
X71104200Y-68451313D01*
X71104199Y-68451298D01*
X71103998Y-68448749D01*
X71101298Y-68414431D01*
X71101281Y-68414374D01*
X71055445Y-68256606D01*
X71055444Y-68256603D01*
X71055444Y-68256602D01*
X70971781Y-68115135D01*
X70971779Y-68115133D01*
X70971776Y-68115129D01*
X70855570Y-67998923D01*
X70855562Y-67998917D01*
X70714096Y-67915255D01*
X70714093Y-67915254D01*
X70556273Y-67869402D01*
X70556267Y-67869401D01*
X70519401Y-67866500D01*
X70519394Y-67866500D01*
X70088006Y-67866500D01*
X70087998Y-67866500D01*
X70051132Y-67869401D01*
X70051126Y-67869402D01*
X69893306Y-67915254D01*
X69893303Y-67915255D01*
X69751837Y-67998917D01*
X69745669Y-68003702D01*
X69743772Y-68001256D01*
X69695058Y-68027857D01*
X69625366Y-68022873D01*
X69592996Y-68002069D01*
X69591731Y-68003702D01*
X69585562Y-67998917D01*
X69444096Y-67915255D01*
X69444093Y-67915254D01*
X69286273Y-67869402D01*
X69286267Y-67869401D01*
X69249401Y-67866500D01*
X69249394Y-67866500D01*
X68818006Y-67866500D01*
X68817998Y-67866500D01*
X68781132Y-67869401D01*
X68781126Y-67869402D01*
X68623306Y-67915254D01*
X68623303Y-67915255D01*
X68481837Y-67998917D01*
X68475669Y-68003702D01*
X68473772Y-68001256D01*
X68425058Y-68027857D01*
X68355366Y-68022873D01*
X68322996Y-68002069D01*
X68321731Y-68003702D01*
X68315562Y-67998917D01*
X68174096Y-67915255D01*
X68174093Y-67915254D01*
X68016273Y-67869402D01*
X68016267Y-67869401D01*
X67979401Y-67866500D01*
X67979394Y-67866500D01*
X67548006Y-67866500D01*
X67547998Y-67866500D01*
X67511132Y-67869401D01*
X67511126Y-67869402D01*
X67353306Y-67915254D01*
X67353303Y-67915255D01*
X67211837Y-67998917D01*
X67205669Y-68003702D01*
X67203772Y-68001256D01*
X67155058Y-68027857D01*
X67085366Y-68022873D01*
X67052996Y-68002069D01*
X67051731Y-68003702D01*
X67045562Y-67998917D01*
X66904096Y-67915255D01*
X66904093Y-67915254D01*
X66746273Y-67869402D01*
X66746267Y-67869401D01*
X66709401Y-67866500D01*
X66709394Y-67866500D01*
X66278006Y-67866500D01*
X66277998Y-67866500D01*
X66241132Y-67869401D01*
X66241126Y-67869402D01*
X66083306Y-67915254D01*
X66083303Y-67915255D01*
X65941837Y-67998917D01*
X65935669Y-68003702D01*
X65933772Y-68001256D01*
X65885058Y-68027857D01*
X65815366Y-68022873D01*
X65782996Y-68002069D01*
X65781731Y-68003702D01*
X65775562Y-67998917D01*
X65634096Y-67915255D01*
X65634093Y-67915254D01*
X65476273Y-67869402D01*
X65476267Y-67869401D01*
X65439401Y-67866500D01*
X65439394Y-67866500D01*
X65413730Y-67866500D01*
X65346691Y-67846815D01*
X65300936Y-67794011D01*
X65290409Y-67729540D01*
X65294460Y-67691000D01*
X65274674Y-67502744D01*
X65216179Y-67322716D01*
X65121533Y-67158784D01*
X64994871Y-67018112D01*
X64994870Y-67018111D01*
X64841734Y-66906851D01*
X64841729Y-66906848D01*
X64668807Y-66829857D01*
X64668802Y-66829855D01*
X64523001Y-66798865D01*
X64483646Y-66790500D01*
X64483645Y-66790500D01*
X64384789Y-66790500D01*
X64317750Y-66770815D01*
X64277402Y-66728500D01*
X64232533Y-66650784D01*
X64105871Y-66510112D01*
X64105870Y-66510111D01*
X63952734Y-66398851D01*
X63952729Y-66398848D01*
X63779807Y-66321857D01*
X63779802Y-66321855D01*
X63634001Y-66290865D01*
X63594646Y-66282500D01*
X63425452Y-66282500D01*
X63358413Y-66262815D01*
X63312658Y-66210011D01*
X63302714Y-66140853D01*
X63331739Y-66077297D01*
X63337771Y-66070819D01*
X63828760Y-65579830D01*
X64323821Y-65084768D01*
X64385142Y-65051285D01*
X64454833Y-65056269D01*
X64510767Y-65098141D01*
X64535184Y-65163605D01*
X64535500Y-65172451D01*
X64535500Y-66202870D01*
X64535501Y-66202876D01*
X64541908Y-66262483D01*
X64592202Y-66397328D01*
X64592206Y-66397335D01*
X64678452Y-66512544D01*
X64678455Y-66512547D01*
X64793664Y-66598793D01*
X64793671Y-66598797D01*
X64928517Y-66649091D01*
X64928516Y-66649091D01*
X64935444Y-66649835D01*
X64988127Y-66655500D01*
X66583872Y-66655499D01*
X66643483Y-66649091D01*
X66778331Y-66598796D01*
X66893546Y-66512546D01*
X66979796Y-66397331D01*
X67030091Y-66262483D01*
X67036500Y-66202873D01*
X67036499Y-64607128D01*
X67030091Y-64547517D01*
X67028275Y-64542649D01*
X66979797Y-64412671D01*
X66979793Y-64412664D01*
X66893547Y-64297455D01*
X66893544Y-64297452D01*
X66778335Y-64211206D01*
X66778328Y-64211202D01*
X66643482Y-64160908D01*
X66643483Y-64160908D01*
X66583883Y-64154501D01*
X66583881Y-64154500D01*
X66583873Y-64154500D01*
X66583865Y-64154500D01*
X65553451Y-64154500D01*
X65486412Y-64134815D01*
X65440657Y-64082011D01*
X65430713Y-64012853D01*
X65459738Y-63949297D01*
X65465770Y-63942819D01*
X65842849Y-63565740D01*
X66423787Y-62984802D01*
X66436042Y-62974986D01*
X66435859Y-62974764D01*
X66441868Y-62969791D01*
X66441877Y-62969786D01*
X66487949Y-62920722D01*
X66490566Y-62918023D01*
X66510120Y-62898471D01*
X66512576Y-62895303D01*
X66520156Y-62886427D01*
X66550062Y-62854582D01*
X66559713Y-62837024D01*
X66570396Y-62820761D01*
X66582673Y-62804936D01*
X66600021Y-62764844D01*
X66605151Y-62754371D01*
X66626197Y-62716092D01*
X66631180Y-62696680D01*
X66637481Y-62678280D01*
X66645437Y-62659896D01*
X66652270Y-62616748D01*
X66654633Y-62605338D01*
X66665500Y-62563019D01*
X66665500Y-62542983D01*
X66667027Y-62523582D01*
X66667075Y-62523279D01*
X66670160Y-62503804D01*
X66666050Y-62460324D01*
X66665500Y-62448655D01*
X66665500Y-61778452D01*
X66685185Y-61711413D01*
X66701819Y-61690771D01*
X67182590Y-61210000D01*
X69524501Y-61210000D01*
X69524501Y-61484986D01*
X69534994Y-61587697D01*
X69590141Y-61754119D01*
X69590143Y-61754124D01*
X69682184Y-61903345D01*
X69806154Y-62027315D01*
X69955375Y-62119356D01*
X69955380Y-62119358D01*
X70121802Y-62174505D01*
X70121809Y-62174506D01*
X70224519Y-62184999D01*
X70361999Y-62184999D01*
X70362000Y-62184998D01*
X70362000Y-61210000D01*
X69524501Y-61210000D01*
X67182590Y-61210000D01*
X67844772Y-60547819D01*
X67906095Y-60514334D01*
X67932453Y-60511500D01*
X69400500Y-60511500D01*
X69467539Y-60531185D01*
X69513294Y-60583989D01*
X69524500Y-60635500D01*
X69524500Y-60710000D01*
X70738000Y-60710000D01*
X70805039Y-60729685D01*
X70850794Y-60782489D01*
X70862000Y-60834000D01*
X70862000Y-62184999D01*
X70912974Y-62184999D01*
X70980013Y-62204684D01*
X71025768Y-62257488D01*
X71030905Y-62270680D01*
X71054819Y-62344280D01*
X71054821Y-62344284D01*
X71149467Y-62508216D01*
X71240347Y-62609148D01*
X71276129Y-62648888D01*
X71429265Y-62760148D01*
X71429270Y-62760151D01*
X71602192Y-62837142D01*
X71602197Y-62837144D01*
X71787354Y-62876500D01*
X71787355Y-62876500D01*
X71976644Y-62876500D01*
X71976646Y-62876500D01*
X72161803Y-62837144D01*
X72334730Y-62760151D01*
X72487871Y-62648888D01*
X72614533Y-62508216D01*
X72709179Y-62344284D01*
X72732931Y-62271181D01*
X72772368Y-62213506D01*
X72836726Y-62186307D01*
X72850862Y-62185499D01*
X73074502Y-62185499D01*
X73074508Y-62185499D01*
X73177297Y-62174999D01*
X73343834Y-62119814D01*
X73493156Y-62027712D01*
X73617212Y-61903656D01*
X73620452Y-61898402D01*
X73672400Y-61851678D01*
X73725991Y-61839500D01*
X73728016Y-61839500D01*
X73747414Y-61841026D01*
X73767194Y-61844159D01*
X73767195Y-61844160D01*
X73767195Y-61844159D01*
X73767196Y-61844160D01*
X73810675Y-61840050D01*
X73822344Y-61839500D01*
X77383310Y-61839500D01*
X77450349Y-61859185D01*
X77496104Y-61911989D01*
X77506048Y-61981147D01*
X77477023Y-62044703D01*
X77464561Y-62056273D01*
X77464718Y-62056439D01*
X77459469Y-62061390D01*
X77427632Y-62099331D01*
X77420346Y-62107284D01*
X77416407Y-62111224D01*
X77397176Y-62135545D01*
X77394902Y-62138337D01*
X77346694Y-62195790D01*
X77342729Y-62201819D01*
X77342682Y-62201788D01*
X77338630Y-62208147D01*
X77338679Y-62208177D01*
X77334889Y-62214321D01*
X77303192Y-62282294D01*
X77301623Y-62285536D01*
X77267957Y-62352572D01*
X77265488Y-62359357D01*
X77265432Y-62359336D01*
X77262960Y-62366450D01*
X77263015Y-62366469D01*
X77260743Y-62373325D01*
X77245573Y-62446788D01*
X77244793Y-62450304D01*
X77227499Y-62523279D01*
X77226661Y-62530454D01*
X77226601Y-62530447D01*
X77225835Y-62537945D01*
X77225895Y-62537951D01*
X77225265Y-62545140D01*
X77227448Y-62620128D01*
X77227500Y-62623735D01*
X77227500Y-63036953D01*
X77207815Y-63103992D01*
X77155011Y-63149747D01*
X77085853Y-63159691D01*
X77029189Y-63136220D01*
X76938331Y-63068204D01*
X76938328Y-63068202D01*
X76803482Y-63017908D01*
X76803483Y-63017908D01*
X76743883Y-63011501D01*
X76743881Y-63011500D01*
X76743873Y-63011500D01*
X76743864Y-63011500D01*
X75148129Y-63011500D01*
X75148123Y-63011501D01*
X75088516Y-63017908D01*
X74953671Y-63068202D01*
X74953664Y-63068206D01*
X74838455Y-63154452D01*
X74838452Y-63154455D01*
X74752206Y-63269664D01*
X74752202Y-63269671D01*
X74701908Y-63404517D01*
X74695501Y-63464116D01*
X74695500Y-63464135D01*
X74695500Y-65059870D01*
X74695501Y-65059876D01*
X74701908Y-65119483D01*
X74752202Y-65254328D01*
X74752206Y-65254335D01*
X74838452Y-65369544D01*
X74838455Y-65369547D01*
X74953664Y-65455793D01*
X74953671Y-65455797D01*
X75088517Y-65506091D01*
X75088516Y-65506091D01*
X75095444Y-65506835D01*
X75148127Y-65512500D01*
X76743872Y-65512499D01*
X76803483Y-65506091D01*
X76938331Y-65455796D01*
X77053546Y-65369546D01*
X77139796Y-65254331D01*
X77190091Y-65119483D01*
X77196500Y-65059873D01*
X77196499Y-64542647D01*
X77216183Y-64475610D01*
X77268987Y-64429855D01*
X77338146Y-64419911D01*
X77393384Y-64442331D01*
X77525265Y-64538148D01*
X77525270Y-64538151D01*
X77698192Y-64615142D01*
X77698197Y-64615144D01*
X77883354Y-64654500D01*
X77883355Y-64654500D01*
X78072644Y-64654500D01*
X78072646Y-64654500D01*
X78257803Y-64615144D01*
X78430730Y-64538151D01*
X78583871Y-64426888D01*
X78595475Y-64414000D01*
X94141700Y-64414000D01*
X94141700Y-65104649D01*
X94144599Y-65141489D01*
X94144600Y-65141495D01*
X94190416Y-65299193D01*
X94190417Y-65299196D01*
X94274014Y-65440552D01*
X94274021Y-65440561D01*
X94390138Y-65556678D01*
X94390147Y-65556685D01*
X94531501Y-65640281D01*
X94689214Y-65686100D01*
X94689211Y-65686100D01*
X94691698Y-65686295D01*
X94691700Y-65686295D01*
X94691700Y-64414000D01*
X94141700Y-64414000D01*
X78595475Y-64414000D01*
X78710533Y-64286216D01*
X78805179Y-64122284D01*
X78863674Y-63942256D01*
X78866644Y-63914000D01*
X94141700Y-63914000D01*
X94691700Y-63914000D01*
X95191700Y-63914000D01*
X95961700Y-63914000D01*
X95961700Y-62641703D01*
X95959203Y-62641900D01*
X95801506Y-62687716D01*
X95801503Y-62687717D01*
X95660147Y-62771314D01*
X95653978Y-62776100D01*
X95652157Y-62773753D01*
X95603058Y-62800564D01*
X95533366Y-62795580D01*
X95500630Y-62774541D01*
X95499422Y-62776100D01*
X95493252Y-62771314D01*
X95351896Y-62687717D01*
X95351893Y-62687716D01*
X95194194Y-62641900D01*
X95194197Y-62641900D01*
X95191700Y-62641703D01*
X95191700Y-63914000D01*
X94691700Y-63914000D01*
X94691700Y-62641703D01*
X94689203Y-62641900D01*
X94531506Y-62687716D01*
X94531503Y-62687717D01*
X94390147Y-62771314D01*
X94390138Y-62771321D01*
X94274021Y-62887438D01*
X94274014Y-62887447D01*
X94190417Y-63028803D01*
X94190416Y-63028806D01*
X94144600Y-63186504D01*
X94144599Y-63186510D01*
X94141700Y-63223350D01*
X94141700Y-63914000D01*
X78866644Y-63914000D01*
X78883460Y-63754000D01*
X78863674Y-63565744D01*
X78805179Y-63385716D01*
X78769052Y-63323141D01*
X78745113Y-63281677D01*
X78728500Y-63219677D01*
X78728500Y-62973228D01*
X78748185Y-62906189D01*
X78764814Y-62885551D01*
X79781770Y-61868595D01*
X79843091Y-61835112D01*
X79843427Y-61835039D01*
X79908803Y-61821144D01*
X80081730Y-61744151D01*
X80234871Y-61632888D01*
X80361533Y-61492216D01*
X80456179Y-61328284D01*
X80514674Y-61148256D01*
X80534460Y-60960000D01*
X80514674Y-60771744D01*
X80461099Y-60606857D01*
X80454171Y-60585535D01*
X80455325Y-60585159D01*
X80446929Y-60522550D01*
X80476555Y-60459273D01*
X80496607Y-60441043D01*
X80500124Y-60438487D01*
X80500128Y-60438486D01*
X80535475Y-60412803D01*
X80545210Y-60406408D01*
X80582816Y-60384170D01*
X80596985Y-60369999D01*
X80611775Y-60357368D01*
X80627983Y-60345594D01*
X80655834Y-60311926D01*
X80663675Y-60303309D01*
X82197167Y-58769819D01*
X82258490Y-58736334D01*
X82284848Y-58733500D01*
X83021650Y-58733500D01*
X83088689Y-58753185D01*
X83134444Y-58805989D01*
X83144388Y-58875147D01*
X83115363Y-58938703D01*
X83109331Y-58945181D01*
X81658208Y-60396301D01*
X81645951Y-60406122D01*
X81646134Y-60406343D01*
X81640122Y-60411316D01*
X81594098Y-60460325D01*
X81591391Y-60463118D01*
X81571889Y-60482619D01*
X81571875Y-60482636D01*
X81569407Y-60485817D01*
X81561843Y-60494672D01*
X81531937Y-60526520D01*
X81531936Y-60526522D01*
X81522284Y-60544078D01*
X81511610Y-60560328D01*
X81499329Y-60576163D01*
X81499324Y-60576170D01*
X81481975Y-60616260D01*
X81476838Y-60626746D01*
X81455803Y-60665008D01*
X81450822Y-60684409D01*
X81444521Y-60702812D01*
X81436562Y-60721204D01*
X81436561Y-60721208D01*
X81429727Y-60764351D01*
X81427359Y-60775784D01*
X81424495Y-60786940D01*
X81396541Y-60839077D01*
X81309466Y-60935785D01*
X81214821Y-61099715D01*
X81214818Y-61099722D01*
X81166163Y-61249468D01*
X81156326Y-61279744D01*
X81136540Y-61468000D01*
X81141237Y-61512692D01*
X81128667Y-61581421D01*
X81080934Y-61632445D01*
X81052517Y-61644727D01*
X81029607Y-61651384D01*
X81029604Y-61651385D01*
X81012365Y-61661580D01*
X80994898Y-61670137D01*
X80976269Y-61677512D01*
X80976267Y-61677514D01*
X80940926Y-61703189D01*
X80931168Y-61709599D01*
X80893580Y-61731828D01*
X80879408Y-61746000D01*
X80864623Y-61758628D01*
X80848412Y-61770407D01*
X80830098Y-61792544D01*
X80772197Y-61831649D01*
X80734557Y-61837500D01*
X80677354Y-61837500D01*
X80646026Y-61844159D01*
X80492197Y-61876855D01*
X80492192Y-61876857D01*
X80319270Y-61953848D01*
X80319265Y-61953851D01*
X80166129Y-62065111D01*
X80039466Y-62205785D01*
X79944821Y-62369715D01*
X79944818Y-62369722D01*
X79886327Y-62549740D01*
X79886326Y-62549744D01*
X79866540Y-62738000D01*
X79886326Y-62926256D01*
X79886327Y-62926259D01*
X79944818Y-63106277D01*
X79944821Y-63106284D01*
X80039467Y-63270216D01*
X80131717Y-63372670D01*
X80166129Y-63410888D01*
X80319265Y-63522148D01*
X80319270Y-63522151D01*
X80492192Y-63599142D01*
X80492197Y-63599144D01*
X80677354Y-63638500D01*
X80677355Y-63638500D01*
X80866644Y-63638500D01*
X80866646Y-63638500D01*
X81051803Y-63599144D01*
X81224730Y-63522151D01*
X81377871Y-63410888D01*
X81504533Y-63270216D01*
X81599179Y-63106284D01*
X81652824Y-62941181D01*
X81692261Y-62883507D01*
X81756620Y-62856308D01*
X81770755Y-62855500D01*
X82222562Y-62855500D01*
X82238182Y-62857224D01*
X82238209Y-62856939D01*
X82245965Y-62857671D01*
X82245972Y-62857673D01*
X82313178Y-62855561D01*
X82317073Y-62855500D01*
X82344651Y-62855500D01*
X82344655Y-62855500D01*
X82348629Y-62854997D01*
X82360268Y-62854080D01*
X82403932Y-62852709D01*
X82423174Y-62847117D01*
X82442217Y-62843174D01*
X82462097Y-62840664D01*
X82502706Y-62824585D01*
X82513748Y-62820804D01*
X82533692Y-62815010D01*
X82603560Y-62815209D01*
X82660437Y-62851114D01*
X82715434Y-62912194D01*
X82868570Y-63023454D01*
X82868575Y-63023457D01*
X83041497Y-63100448D01*
X83041502Y-63100450D01*
X83226659Y-63139806D01*
X83226660Y-63139806D01*
X83415949Y-63139806D01*
X83415951Y-63139806D01*
X83601108Y-63100450D01*
X83774035Y-63023457D01*
X83927176Y-62912194D01*
X83932583Y-62906189D01*
X83932905Y-62905832D01*
X83992392Y-62869185D01*
X84025053Y-62864806D01*
X91125632Y-62864806D01*
X91192671Y-62884491D01*
X91209821Y-62899069D01*
X91210299Y-62898539D01*
X91215130Y-62902889D01*
X91368265Y-63014148D01*
X91368270Y-63014151D01*
X91541192Y-63091142D01*
X91541197Y-63091144D01*
X91726354Y-63130500D01*
X91726355Y-63130500D01*
X91915644Y-63130500D01*
X91915646Y-63130500D01*
X92100803Y-63091144D01*
X92273730Y-63014151D01*
X92426871Y-62902888D01*
X92553533Y-62762216D01*
X92648179Y-62598284D01*
X92706674Y-62418256D01*
X92726460Y-62230000D01*
X92723150Y-62198505D01*
X92722620Y-62193460D01*
X92735190Y-62124730D01*
X92782923Y-62073707D01*
X92845941Y-62056500D01*
X96728257Y-62056500D01*
X96743877Y-62058224D01*
X96743904Y-62057939D01*
X96751660Y-62058671D01*
X96751667Y-62058673D01*
X96818873Y-62056561D01*
X96822768Y-62056500D01*
X96850346Y-62056500D01*
X96850350Y-62056500D01*
X96854324Y-62055997D01*
X96865963Y-62055080D01*
X96909627Y-62053709D01*
X96928869Y-62048117D01*
X96947912Y-62044174D01*
X96967792Y-62041664D01*
X97008401Y-62025585D01*
X97019444Y-62021803D01*
X97061390Y-62009618D01*
X97069589Y-62004768D01*
X97132712Y-61987500D01*
X97249644Y-61987500D01*
X97249646Y-61987500D01*
X97434803Y-61948144D01*
X97607730Y-61871151D01*
X97760871Y-61759888D01*
X97887533Y-61619216D01*
X97982179Y-61455284D01*
X98040674Y-61275256D01*
X98060460Y-61087000D01*
X98040674Y-60898744D01*
X97984325Y-60725320D01*
X97982181Y-60718722D01*
X97982180Y-60718721D01*
X97982179Y-60718716D01*
X97887533Y-60554784D01*
X97831876Y-60492971D01*
X97801647Y-60429981D01*
X97810272Y-60360646D01*
X97831877Y-60327028D01*
X97842257Y-60315500D01*
X97887533Y-60265216D01*
X97982179Y-60101284D01*
X98040674Y-59921256D01*
X98059247Y-59744536D01*
X98085832Y-59679924D01*
X98143129Y-59639939D01*
X98182568Y-59633500D01*
X100630262Y-59633500D01*
X100645882Y-59635224D01*
X100645909Y-59634939D01*
X100653665Y-59635671D01*
X100653672Y-59635673D01*
X100720878Y-59633561D01*
X100724773Y-59633500D01*
X100752351Y-59633500D01*
X100752355Y-59633500D01*
X100756329Y-59632997D01*
X100767968Y-59632080D01*
X100811632Y-59630709D01*
X100830874Y-59625117D01*
X100849917Y-59621174D01*
X100869797Y-59618664D01*
X100910406Y-59602585D01*
X100921449Y-59598803D01*
X100963395Y-59586618D01*
X100980634Y-59576422D01*
X100998108Y-59567862D01*
X101016732Y-59560488D01*
X101016732Y-59560487D01*
X101016737Y-59560486D01*
X101052088Y-59534800D01*
X101061819Y-59528408D01*
X101099425Y-59506170D01*
X101113594Y-59491999D01*
X101128384Y-59479368D01*
X101144592Y-59467594D01*
X101156251Y-59453500D01*
X108194701Y-59453500D01*
X108194701Y-59590986D01*
X108205194Y-59693697D01*
X108260341Y-59860119D01*
X108260343Y-59860124D01*
X108352384Y-60009345D01*
X108476354Y-60133315D01*
X108625575Y-60225356D01*
X108625580Y-60225358D01*
X108792002Y-60280505D01*
X108792009Y-60280506D01*
X108894719Y-60290999D01*
X109169699Y-60290999D01*
X109169700Y-60290998D01*
X109169700Y-59453500D01*
X109669700Y-59453500D01*
X109669700Y-60290999D01*
X109944672Y-60290999D01*
X109944686Y-60290998D01*
X110047397Y-60280505D01*
X110213819Y-60225358D01*
X110213824Y-60225356D01*
X110363045Y-60133315D01*
X110487015Y-60009345D01*
X110579056Y-59860124D01*
X110579058Y-59860119D01*
X110634205Y-59693697D01*
X110634206Y-59693690D01*
X110644699Y-59590986D01*
X110644700Y-59590973D01*
X110644700Y-59453500D01*
X109669700Y-59453500D01*
X109169700Y-59453500D01*
X108194701Y-59453500D01*
X101156251Y-59453500D01*
X101172443Y-59433926D01*
X101180284Y-59425309D01*
X103089592Y-57516001D01*
X108194200Y-57516001D01*
X108194201Y-57516019D01*
X108204700Y-57618796D01*
X108204701Y-57618799D01*
X108208644Y-57630697D01*
X108259886Y-57785334D01*
X108351988Y-57934656D01*
X108476044Y-58058712D01*
X108479328Y-58060737D01*
X108479353Y-58060753D01*
X108481145Y-58062746D01*
X108481711Y-58063193D01*
X108481634Y-58063289D01*
X108526079Y-58112699D01*
X108537303Y-58181661D01*
X108509461Y-58245744D01*
X108479365Y-58271826D01*
X108476360Y-58273679D01*
X108476355Y-58273683D01*
X108352384Y-58397654D01*
X108260343Y-58546875D01*
X108260341Y-58546880D01*
X108205194Y-58713302D01*
X108205193Y-58713309D01*
X108194700Y-58816013D01*
X108194700Y-58953500D01*
X110644699Y-58953500D01*
X110644699Y-58816028D01*
X110644698Y-58816013D01*
X110634205Y-58713302D01*
X110579058Y-58546880D01*
X110579056Y-58546875D01*
X110487015Y-58397654D01*
X110363044Y-58273683D01*
X110363041Y-58273681D01*
X110360039Y-58271829D01*
X110358413Y-58270021D01*
X110357377Y-58269202D01*
X110357517Y-58269024D01*
X110313317Y-58219880D01*
X110302097Y-58150917D01*
X110329943Y-58086836D01*
X110360044Y-58060754D01*
X110363356Y-58058712D01*
X110487412Y-57934656D01*
X110579514Y-57785334D01*
X110634699Y-57618797D01*
X110645200Y-57516009D01*
X110645199Y-56740992D01*
X110634699Y-56638203D01*
X110579514Y-56471666D01*
X110487412Y-56322344D01*
X110363356Y-56198288D01*
X110359274Y-56194206D01*
X110325789Y-56132883D01*
X110323635Y-56119495D01*
X110305374Y-55945744D01*
X110246879Y-55765716D01*
X110152233Y-55601784D01*
X110025571Y-55461112D01*
X110025570Y-55461111D01*
X109872434Y-55349851D01*
X109872429Y-55349848D01*
X109699507Y-55272857D01*
X109699502Y-55272855D01*
X109537860Y-55238498D01*
X109514346Y-55233500D01*
X109325054Y-55233500D01*
X109301540Y-55238498D01*
X109139897Y-55272855D01*
X109139892Y-55272857D01*
X108966970Y-55349848D01*
X108966965Y-55349851D01*
X108813829Y-55461111D01*
X108687166Y-55601785D01*
X108592521Y-55765715D01*
X108592518Y-55765722D01*
X108541557Y-55922566D01*
X108534026Y-55945744D01*
X108528387Y-55999396D01*
X108515765Y-56119487D01*
X108489180Y-56184102D01*
X108480126Y-56194206D01*
X108351987Y-56322345D01*
X108259887Y-56471663D01*
X108259885Y-56471668D01*
X108235193Y-56546185D01*
X108204701Y-56638203D01*
X108204701Y-56638204D01*
X108204700Y-56638204D01*
X108194200Y-56740983D01*
X108194200Y-57516001D01*
X103089592Y-57516001D01*
X104097587Y-56508006D01*
X104158908Y-56474523D01*
X104228600Y-56479507D01*
X104284533Y-56521379D01*
X104292650Y-56533684D01*
X104369167Y-56666216D01*
X104476414Y-56785325D01*
X104495829Y-56806888D01*
X104648965Y-56918148D01*
X104648970Y-56918151D01*
X104821892Y-56995142D01*
X104821897Y-56995144D01*
X105007054Y-57034500D01*
X105007055Y-57034500D01*
X105196344Y-57034500D01*
X105196346Y-57034500D01*
X105381503Y-56995144D01*
X105554430Y-56918151D01*
X105707571Y-56806888D01*
X105834233Y-56666216D01*
X105928879Y-56502284D01*
X105942503Y-56460354D01*
X105981939Y-56402678D01*
X106046298Y-56375479D01*
X106095029Y-56379595D01*
X106119131Y-56386598D01*
X106156006Y-56389500D01*
X106156014Y-56389500D01*
X106587386Y-56389500D01*
X106587394Y-56389500D01*
X106624269Y-56386598D01*
X106624271Y-56386597D01*
X106624273Y-56386597D01*
X106695683Y-56365850D01*
X106782098Y-56340744D01*
X106923565Y-56257081D01*
X107039781Y-56140865D01*
X107123444Y-55999398D01*
X107168572Y-55844066D01*
X107206176Y-55785184D01*
X107261860Y-55757376D01*
X107413503Y-55725144D01*
X107413507Y-55725142D01*
X107413508Y-55725142D01*
X107563554Y-55658336D01*
X107586430Y-55648151D01*
X107739571Y-55536888D01*
X107866233Y-55396216D01*
X107960879Y-55232284D01*
X108019374Y-55052256D01*
X108039160Y-54864000D01*
X108019374Y-54675744D01*
X107960879Y-54495716D01*
X107866233Y-54331784D01*
X107739571Y-54191112D01*
X107726395Y-54181539D01*
X107586434Y-54079851D01*
X107586429Y-54079848D01*
X107413507Y-54002857D01*
X107413502Y-54002855D01*
X107288102Y-53976201D01*
X107261865Y-53970624D01*
X107200384Y-53937433D01*
X107168572Y-53883934D01*
X107123444Y-53728602D01*
X107039781Y-53587135D01*
X107039779Y-53587133D01*
X107039776Y-53587129D01*
X107004828Y-53552181D01*
X106971343Y-53490858D01*
X106976327Y-53421166D01*
X107018199Y-53365233D01*
X107083663Y-53340816D01*
X107092509Y-53340500D01*
X114248430Y-53340500D01*
X114315469Y-53360185D01*
X114336111Y-53376819D01*
X114771181Y-53811888D01*
X114804666Y-53873211D01*
X114807500Y-53899569D01*
X114807500Y-84022430D01*
X114787815Y-84089469D01*
X114771181Y-84110111D01*
X114336111Y-84545181D01*
X114274788Y-84578666D01*
X114248430Y-84581500D01*
X53899569Y-84581500D01*
X53832530Y-84561815D01*
X53811888Y-84545181D01*
X53376819Y-84110111D01*
X53343334Y-84048788D01*
X53340500Y-84022430D01*
X53340500Y-53899569D01*
X53360185Y-53832530D01*
X53376819Y-53811888D01*
X53811888Y-53376819D01*
X53873211Y-53343334D01*
X53899569Y-53340500D01*
X55154299Y-53340500D01*
X55221338Y-53360185D01*
G37*
%TD.AperFunction*%
%TA.AperFunction,Conductor*%
G36*
X85844627Y-75490571D02*
G01*
X85900560Y-75532443D01*
X85924613Y-75593789D01*
X85928026Y-75626256D01*
X85928027Y-75626259D01*
X85986518Y-75806277D01*
X85986523Y-75806288D01*
X85988091Y-75809004D01*
X85988519Y-75810771D01*
X85989162Y-75812214D01*
X85988898Y-75812331D01*
X86004561Y-75876905D01*
X85981707Y-75942931D01*
X85926784Y-75986119D01*
X85880702Y-75995000D01*
X85836050Y-75995000D01*
X85799210Y-75997899D01*
X85799204Y-75997900D01*
X85641506Y-76043716D01*
X85641503Y-76043717D01*
X85500147Y-76127314D01*
X85500138Y-76127321D01*
X85384021Y-76243438D01*
X85384014Y-76243447D01*
X85300417Y-76384803D01*
X85300416Y-76384806D01*
X85254600Y-76542504D01*
X85254599Y-76542510D01*
X85251700Y-76579350D01*
X85251700Y-77220000D01*
X86177700Y-77220000D01*
X86244739Y-77239685D01*
X86290494Y-77292489D01*
X86301700Y-77344000D01*
X86301700Y-78942295D01*
X86301701Y-78942295D01*
X86304186Y-78942100D01*
X86461898Y-78896281D01*
X86603250Y-78812686D01*
X86609417Y-78807903D01*
X86611330Y-78810369D01*
X86659922Y-78783802D01*
X86729617Y-78788749D01*
X86762462Y-78809853D01*
X86763669Y-78808298D01*
X86769832Y-78813078D01*
X86769835Y-78813081D01*
X86911302Y-78896744D01*
X86911309Y-78896746D01*
X87069126Y-78942597D01*
X87069129Y-78942597D01*
X87069131Y-78942598D01*
X87106006Y-78945500D01*
X87106014Y-78945500D01*
X87537386Y-78945500D01*
X87537394Y-78945500D01*
X87574269Y-78942598D01*
X87574271Y-78942597D01*
X87574273Y-78942597D01*
X87664418Y-78916407D01*
X87732098Y-78896744D01*
X87873565Y-78813081D01*
X87873568Y-78813077D01*
X87879726Y-78808301D01*
X87881539Y-78810638D01*
X87930649Y-78783798D01*
X88000343Y-78788756D01*
X88032696Y-78809551D01*
X88033978Y-78807900D01*
X88040147Y-78812685D01*
X88181501Y-78896281D01*
X88339214Y-78942100D01*
X88339211Y-78942100D01*
X88341698Y-78942295D01*
X88341700Y-78942295D01*
X88341700Y-77720000D01*
X88841700Y-77720000D01*
X88841700Y-78942295D01*
X88841701Y-78942295D01*
X88844186Y-78942100D01*
X89001898Y-78896281D01*
X89143252Y-78812685D01*
X89149422Y-78807900D01*
X89151246Y-78810252D01*
X89200295Y-78783445D01*
X89269988Y-78788402D01*
X89302763Y-78809465D01*
X89303978Y-78807900D01*
X89310147Y-78812685D01*
X89451501Y-78896281D01*
X89609214Y-78942100D01*
X89609211Y-78942100D01*
X89611698Y-78942295D01*
X89611700Y-78942295D01*
X89611700Y-77720000D01*
X90111700Y-77720000D01*
X90111700Y-78942295D01*
X90111701Y-78942295D01*
X90114186Y-78942100D01*
X90271898Y-78896281D01*
X90413252Y-78812685D01*
X90419422Y-78807900D01*
X90421246Y-78810252D01*
X90470295Y-78783445D01*
X90539988Y-78788402D01*
X90572763Y-78809465D01*
X90573978Y-78807900D01*
X90580147Y-78812685D01*
X90721501Y-78896281D01*
X90879214Y-78942100D01*
X90879211Y-78942100D01*
X90881698Y-78942295D01*
X90881700Y-78942295D01*
X90881700Y-77720000D01*
X91381700Y-77720000D01*
X91381700Y-78942295D01*
X91381701Y-78942295D01*
X91384186Y-78942100D01*
X91541898Y-78896281D01*
X91683252Y-78812685D01*
X91689422Y-78807900D01*
X91691246Y-78810252D01*
X91740295Y-78783445D01*
X91809988Y-78788402D01*
X91842763Y-78809465D01*
X91843978Y-78807900D01*
X91850147Y-78812685D01*
X91991501Y-78896281D01*
X92149214Y-78942100D01*
X92149211Y-78942100D01*
X92151698Y-78942295D01*
X92151700Y-78942295D01*
X92151700Y-77720000D01*
X91381700Y-77720000D01*
X90881700Y-77720000D01*
X90111700Y-77720000D01*
X89611700Y-77720000D01*
X88841700Y-77720000D01*
X88341700Y-77720000D01*
X88341700Y-77344000D01*
X88361385Y-77276961D01*
X88414189Y-77231206D01*
X88465700Y-77220000D01*
X92527700Y-77220000D01*
X92594739Y-77239685D01*
X92640494Y-77292489D01*
X92651700Y-77344000D01*
X92651700Y-78942295D01*
X92651701Y-78942295D01*
X92654186Y-78942100D01*
X92811898Y-78896281D01*
X92953250Y-78812686D01*
X92959417Y-78807903D01*
X92961330Y-78810369D01*
X93009922Y-78783802D01*
X93079617Y-78788749D01*
X93112462Y-78809853D01*
X93113669Y-78808298D01*
X93119832Y-78813078D01*
X93119835Y-78813081D01*
X93261302Y-78896744D01*
X93261309Y-78896746D01*
X93419126Y-78942597D01*
X93419129Y-78942597D01*
X93419131Y-78942598D01*
X93456006Y-78945500D01*
X93456014Y-78945500D01*
X93887386Y-78945500D01*
X93887394Y-78945500D01*
X93924269Y-78942598D01*
X93924271Y-78942597D01*
X93924273Y-78942597D01*
X94082093Y-78896746D01*
X94082094Y-78896744D01*
X94082098Y-78896744D01*
X94129081Y-78868958D01*
X94196802Y-78851776D01*
X94263065Y-78873936D01*
X94306829Y-78928401D01*
X94316200Y-78975691D01*
X94316200Y-80310500D01*
X94296515Y-80377539D01*
X94243711Y-80423294D01*
X94192200Y-80434500D01*
X86268700Y-80434500D01*
X86201661Y-80414815D01*
X86155906Y-80362011D01*
X86144700Y-80310500D01*
X86144700Y-80260000D01*
X84931200Y-80260000D01*
X84864161Y-80240315D01*
X84818406Y-80187511D01*
X84807200Y-80136000D01*
X84807200Y-78785000D01*
X84669727Y-78785000D01*
X84669712Y-78785001D01*
X84567002Y-78795494D01*
X84400580Y-78850641D01*
X84400575Y-78850643D01*
X84251354Y-78942684D01*
X84127383Y-79066655D01*
X84127379Y-79066660D01*
X84125526Y-79069665D01*
X84123718Y-79071290D01*
X84122902Y-79072323D01*
X84122725Y-79072183D01*
X84073574Y-79116385D01*
X84004611Y-79127601D01*
X83940531Y-79099752D01*
X83914453Y-79069653D01*
X83908619Y-79060194D01*
X83909862Y-79059427D01*
X83886761Y-79002174D01*
X83886742Y-79001983D01*
X83883750Y-78970321D01*
X83883200Y-78958655D01*
X83883200Y-78920808D01*
X83902885Y-78853769D01*
X83919517Y-78833128D01*
X83925781Y-78826865D01*
X84009444Y-78685398D01*
X84047272Y-78555193D01*
X84055297Y-78527573D01*
X84055298Y-78527567D01*
X84058199Y-78490701D01*
X84058200Y-78490694D01*
X84058200Y-77720000D01*
X85251700Y-77720000D01*
X85251700Y-78360649D01*
X85254599Y-78397489D01*
X85254600Y-78397495D01*
X85300416Y-78555193D01*
X85300417Y-78555196D01*
X85339376Y-78621072D01*
X85356559Y-78688796D01*
X85334399Y-78755058D01*
X85320326Y-78771873D01*
X85307200Y-78784999D01*
X85307200Y-79760000D01*
X86144699Y-79760000D01*
X86144699Y-79485028D01*
X86144698Y-79485013D01*
X86134205Y-79382302D01*
X86079058Y-79215880D01*
X86079056Y-79215875D01*
X85987015Y-79066654D01*
X85908361Y-78988000D01*
X85885573Y-78978561D01*
X85886438Y-78976471D01*
X85858661Y-78968315D01*
X85812906Y-78915511D01*
X85801700Y-78864000D01*
X85801700Y-77720000D01*
X85251700Y-77720000D01*
X84058200Y-77720000D01*
X84058200Y-76901718D01*
X84074812Y-76839720D01*
X84084879Y-76822284D01*
X84143374Y-76642256D01*
X84163160Y-76454000D01*
X84143374Y-76265744D01*
X84111556Y-76167818D01*
X84109561Y-76097977D01*
X84145641Y-76038144D01*
X84208342Y-76007316D01*
X84229487Y-76005500D01*
X84885353Y-76005500D01*
X84900973Y-76007224D01*
X84901000Y-76006939D01*
X84908756Y-76007671D01*
X84908763Y-76007673D01*
X84975969Y-76005561D01*
X84979864Y-76005500D01*
X85007442Y-76005500D01*
X85007446Y-76005500D01*
X85011420Y-76004997D01*
X85023059Y-76004080D01*
X85066723Y-76002709D01*
X85085965Y-75997117D01*
X85105008Y-75993174D01*
X85124888Y-75990664D01*
X85165497Y-75974585D01*
X85176540Y-75970803D01*
X85218486Y-75958618D01*
X85235725Y-75948422D01*
X85253199Y-75939862D01*
X85271823Y-75932488D01*
X85271823Y-75932487D01*
X85271828Y-75932486D01*
X85307179Y-75906800D01*
X85316910Y-75900408D01*
X85354516Y-75878170D01*
X85368685Y-75863999D01*
X85383475Y-75851368D01*
X85399683Y-75839594D01*
X85427534Y-75805926D01*
X85435375Y-75797309D01*
X85713615Y-75519070D01*
X85774935Y-75485587D01*
X85844627Y-75490571D01*
G37*
%TD.AperFunction*%
%TA.AperFunction,Conductor*%
G36*
X97031684Y-75690253D02*
G01*
X97080385Y-75740353D01*
X97094043Y-75785272D01*
X97101927Y-75860287D01*
X97089357Y-75929017D01*
X97041625Y-75980040D01*
X96988340Y-75996865D01*
X96975218Y-75997898D01*
X96975204Y-75997900D01*
X96817506Y-76043716D01*
X96817503Y-76043717D01*
X96676147Y-76127314D01*
X96676138Y-76127321D01*
X96560021Y-76243438D01*
X96560014Y-76243447D01*
X96476417Y-76384803D01*
X96476416Y-76384806D01*
X96430600Y-76542504D01*
X96430599Y-76542510D01*
X96427700Y-76579350D01*
X96427700Y-77220000D01*
X97353700Y-77220000D01*
X97420739Y-77239685D01*
X97466494Y-77292489D01*
X97477700Y-77344000D01*
X97477700Y-78942295D01*
X97477701Y-78942295D01*
X97480186Y-78942100D01*
X97637898Y-78896281D01*
X97779250Y-78812686D01*
X97785417Y-78807903D01*
X97787330Y-78810369D01*
X97835922Y-78783802D01*
X97905617Y-78788749D01*
X97938462Y-78809853D01*
X97939669Y-78808298D01*
X97945832Y-78813078D01*
X97945835Y-78813081D01*
X98087302Y-78896744D01*
X98087309Y-78896746D01*
X98245126Y-78942597D01*
X98245129Y-78942597D01*
X98245131Y-78942598D01*
X98282006Y-78945500D01*
X98282014Y-78945500D01*
X98713386Y-78945500D01*
X98713394Y-78945500D01*
X98750269Y-78942598D01*
X98750271Y-78942597D01*
X98750273Y-78942597D01*
X98840418Y-78916407D01*
X98908098Y-78896744D01*
X99049565Y-78813081D01*
X99049568Y-78813077D01*
X99055726Y-78808301D01*
X99057539Y-78810638D01*
X99106649Y-78783798D01*
X99176343Y-78788756D01*
X99208696Y-78809551D01*
X99209978Y-78807900D01*
X99216147Y-78812685D01*
X99357501Y-78896281D01*
X99515214Y-78942100D01*
X99515211Y-78942100D01*
X99517698Y-78942295D01*
X99517700Y-78942295D01*
X99517700Y-77720000D01*
X100017700Y-77720000D01*
X100017700Y-78942295D01*
X100017701Y-78942295D01*
X100020186Y-78942100D01*
X100177898Y-78896281D01*
X100319252Y-78812685D01*
X100325422Y-78807900D01*
X100327246Y-78810252D01*
X100376295Y-78783445D01*
X100445988Y-78788402D01*
X100478763Y-78809465D01*
X100479978Y-78807900D01*
X100486147Y-78812685D01*
X100627501Y-78896281D01*
X100785214Y-78942100D01*
X100785211Y-78942100D01*
X100787698Y-78942295D01*
X100787700Y-78942295D01*
X100787700Y-77720000D01*
X101287700Y-77720000D01*
X101287700Y-78942295D01*
X101287701Y-78942295D01*
X101290186Y-78942100D01*
X101447898Y-78896281D01*
X101589252Y-78812685D01*
X101595422Y-78807900D01*
X101597246Y-78810252D01*
X101646295Y-78783445D01*
X101715988Y-78788402D01*
X101748763Y-78809465D01*
X101749978Y-78807900D01*
X101756147Y-78812685D01*
X101897501Y-78896281D01*
X102055214Y-78942100D01*
X102055211Y-78942100D01*
X102057698Y-78942295D01*
X102057700Y-78942295D01*
X102057700Y-77720000D01*
X102557700Y-77720000D01*
X102557700Y-78942295D01*
X102557701Y-78942295D01*
X102560186Y-78942100D01*
X102717898Y-78896281D01*
X102859252Y-78812685D01*
X102865422Y-78807900D01*
X102867246Y-78810252D01*
X102916295Y-78783445D01*
X102985988Y-78788402D01*
X103018763Y-78809465D01*
X103019978Y-78807900D01*
X103026147Y-78812685D01*
X103167501Y-78896281D01*
X103325214Y-78942100D01*
X103325211Y-78942100D01*
X103327698Y-78942295D01*
X103327700Y-78942295D01*
X103327700Y-77720000D01*
X102557700Y-77720000D01*
X102057700Y-77720000D01*
X101287700Y-77720000D01*
X100787700Y-77720000D01*
X100017700Y-77720000D01*
X99517700Y-77720000D01*
X99517700Y-77344000D01*
X99537385Y-77276961D01*
X99590189Y-77231206D01*
X99641700Y-77220000D01*
X103703700Y-77220000D01*
X103770739Y-77239685D01*
X103816494Y-77292489D01*
X103827700Y-77344000D01*
X103827700Y-78942295D01*
X103827701Y-78942295D01*
X103830186Y-78942100D01*
X103987898Y-78896281D01*
X104129250Y-78812686D01*
X104135417Y-78807903D01*
X104137330Y-78810369D01*
X104185922Y-78783802D01*
X104255617Y-78788749D01*
X104288462Y-78809853D01*
X104289669Y-78808298D01*
X104295832Y-78813078D01*
X104295835Y-78813081D01*
X104437302Y-78896744D01*
X104437309Y-78896746D01*
X104502561Y-78915704D01*
X104561447Y-78953310D01*
X104590653Y-79016782D01*
X104580907Y-79085969D01*
X104555647Y-79122461D01*
X103279927Y-80398181D01*
X103218604Y-80431666D01*
X103192246Y-80434500D01*
X95691200Y-80434500D01*
X95624161Y-80414815D01*
X95578406Y-80362011D01*
X95567200Y-80310500D01*
X95567200Y-78790808D01*
X95586885Y-78723769D01*
X95603517Y-78703128D01*
X95609781Y-78696865D01*
X95693444Y-78555398D01*
X95739298Y-78397569D01*
X95742200Y-78360694D01*
X95742200Y-77720000D01*
X96427700Y-77720000D01*
X96427700Y-78360649D01*
X96430599Y-78397489D01*
X96430600Y-78397495D01*
X96476416Y-78555193D01*
X96476417Y-78555196D01*
X96560014Y-78696552D01*
X96560021Y-78696561D01*
X96676138Y-78812678D01*
X96676147Y-78812685D01*
X96817501Y-78896281D01*
X96975214Y-78942100D01*
X96975211Y-78942100D01*
X96977698Y-78942295D01*
X96977700Y-78942295D01*
X96977700Y-77720000D01*
X96427700Y-77720000D01*
X95742200Y-77720000D01*
X95742200Y-76579306D01*
X95740942Y-76563323D01*
X95755303Y-76494947D01*
X95776874Y-76465914D01*
X96390422Y-75852369D01*
X96451745Y-75818884D01*
X96478103Y-75816050D01*
X96537294Y-75816050D01*
X96537296Y-75816050D01*
X96722453Y-75776694D01*
X96895380Y-75699701D01*
X96897827Y-75697922D01*
X96899484Y-75697331D01*
X96901013Y-75696449D01*
X96901174Y-75696728D01*
X96963628Y-75674436D01*
X97031684Y-75690253D01*
G37*
%TD.AperFunction*%
%TA.AperFunction,Conductor*%
G36*
X60532534Y-68978570D02*
G01*
X60588467Y-69020442D01*
X60612884Y-69085906D01*
X60613200Y-69094752D01*
X60613200Y-70232701D01*
X60616102Y-70269573D01*
X60616347Y-70270914D01*
X60616283Y-70271870D01*
X60616599Y-70275886D01*
X60616011Y-70275932D01*
X60612295Y-70331505D01*
X60582328Y-70423737D01*
X60582326Y-70423743D01*
X60574817Y-70495185D01*
X60562540Y-70612000D01*
X60582326Y-70800256D01*
X60582327Y-70800259D01*
X60640818Y-70980277D01*
X60640821Y-70980284D01*
X60735467Y-71144216D01*
X60810650Y-71227715D01*
X60862129Y-71284888D01*
X61015265Y-71396148D01*
X61015270Y-71396151D01*
X61188192Y-71473142D01*
X61188197Y-71473144D01*
X61373354Y-71512500D01*
X61373355Y-71512500D01*
X61562644Y-71512500D01*
X61562646Y-71512500D01*
X61747803Y-71473144D01*
X61920730Y-71396151D01*
X62073871Y-71284888D01*
X62200533Y-71144216D01*
X62295179Y-70980284D01*
X62320854Y-70901264D01*
X62360289Y-70843590D01*
X62424648Y-70816391D01*
X62448514Y-70815966D01*
X62468006Y-70817500D01*
X62559200Y-70817500D01*
X62626239Y-70837185D01*
X62671994Y-70889989D01*
X62683200Y-70941500D01*
X62683200Y-70955449D01*
X62683703Y-70959427D01*
X62684618Y-70971059D01*
X62685990Y-71014716D01*
X62685991Y-71014719D01*
X62691580Y-71033959D01*
X62695524Y-71053003D01*
X62695683Y-71054256D01*
X62698036Y-71072884D01*
X62714114Y-71113495D01*
X62717897Y-71124544D01*
X62723612Y-71144216D01*
X62730082Y-71166482D01*
X62739326Y-71182114D01*
X62740280Y-71183726D01*
X62748838Y-71201195D01*
X62756214Y-71219824D01*
X62781881Y-71255152D01*
X62788293Y-71264913D01*
X62810528Y-71302509D01*
X62810533Y-71302516D01*
X62824690Y-71316672D01*
X62837327Y-71331467D01*
X62849106Y-71347679D01*
X62849695Y-71348166D01*
X62882751Y-71375513D01*
X62891391Y-71383375D01*
X62983808Y-71475792D01*
X62993629Y-71488050D01*
X62993851Y-71487868D01*
X62998821Y-71493876D01*
X63047832Y-71539901D01*
X63050630Y-71542613D01*
X63070130Y-71562114D01*
X63070134Y-71562117D01*
X63070137Y-71562120D01*
X63073310Y-71564581D01*
X63082182Y-71572159D01*
X63114026Y-71602062D01*
X63131584Y-71611714D01*
X63147843Y-71622395D01*
X63163672Y-71634673D01*
X63203763Y-71652021D01*
X63214234Y-71657151D01*
X63236788Y-71669550D01*
X63252510Y-71678194D01*
X63252512Y-71678195D01*
X63252516Y-71678197D01*
X63271924Y-71683180D01*
X63290327Y-71689481D01*
X63308709Y-71697436D01*
X63308710Y-71697436D01*
X63308712Y-71697437D01*
X63351858Y-71704270D01*
X63363280Y-71706636D01*
X63405589Y-71717500D01*
X63425624Y-71717500D01*
X63445022Y-71719026D01*
X63464802Y-71722159D01*
X63464803Y-71722160D01*
X63464803Y-71722159D01*
X63464804Y-71722160D01*
X63508283Y-71718050D01*
X63519952Y-71717500D01*
X66498247Y-71717500D01*
X66565286Y-71737185D01*
X66585928Y-71753819D01*
X67472050Y-72639941D01*
X67505535Y-72701264D01*
X67500551Y-72770956D01*
X67458679Y-72826889D01*
X67418965Y-72846698D01*
X67353505Y-72865716D01*
X67353503Y-72865717D01*
X67212147Y-72949314D01*
X67205978Y-72954100D01*
X67204157Y-72951753D01*
X67155058Y-72978564D01*
X67085366Y-72973580D01*
X67052630Y-72952541D01*
X67051422Y-72954100D01*
X67045252Y-72949314D01*
X66903896Y-72865717D01*
X66903893Y-72865716D01*
X66746194Y-72819900D01*
X66746197Y-72819900D01*
X66743700Y-72819703D01*
X66743700Y-74042000D01*
X67889700Y-74042000D01*
X67956739Y-74061685D01*
X68002494Y-74114489D01*
X68013700Y-74166000D01*
X68013700Y-74418000D01*
X67994015Y-74485039D01*
X67941211Y-74530794D01*
X67889700Y-74542000D01*
X66743700Y-74542000D01*
X66743700Y-75764295D01*
X66743701Y-75764295D01*
X66746186Y-75764100D01*
X66903898Y-75718281D01*
X67045252Y-75634685D01*
X67051422Y-75629900D01*
X67053246Y-75632252D01*
X67102295Y-75605445D01*
X67171988Y-75610402D01*
X67204763Y-75631465D01*
X67205978Y-75629900D01*
X67212147Y-75634685D01*
X67353503Y-75718282D01*
X67353502Y-75718282D01*
X67418962Y-75737299D01*
X67477849Y-75774905D01*
X67507056Y-75838377D01*
X67497311Y-75907564D01*
X67472051Y-75944056D01*
X67369925Y-76046182D01*
X67308605Y-76079666D01*
X67282246Y-76082500D01*
X63674332Y-76082500D01*
X63607293Y-76062815D01*
X63561538Y-76010011D01*
X63551594Y-75940853D01*
X63556399Y-75920186D01*
X63569374Y-75880256D01*
X63569500Y-75879064D01*
X63569937Y-75874902D01*
X63596517Y-75810286D01*
X63653813Y-75770298D01*
X63702985Y-75764239D01*
X63703700Y-75764295D01*
X63703700Y-74542000D01*
X64203700Y-74542000D01*
X64203700Y-75764295D01*
X64203701Y-75764295D01*
X64206186Y-75764100D01*
X64363898Y-75718281D01*
X64505252Y-75634685D01*
X64511422Y-75629900D01*
X64513246Y-75632252D01*
X64562295Y-75605445D01*
X64631988Y-75610402D01*
X64664763Y-75631465D01*
X64665978Y-75629900D01*
X64672147Y-75634685D01*
X64813501Y-75718281D01*
X64971214Y-75764100D01*
X64971211Y-75764100D01*
X64973698Y-75764295D01*
X64973700Y-75764295D01*
X64973700Y-74542000D01*
X65473700Y-74542000D01*
X65473700Y-75764295D01*
X65473701Y-75764295D01*
X65476186Y-75764100D01*
X65633898Y-75718281D01*
X65775252Y-75634685D01*
X65781422Y-75629900D01*
X65783246Y-75632252D01*
X65832295Y-75605445D01*
X65901988Y-75610402D01*
X65934763Y-75631465D01*
X65935978Y-75629900D01*
X65942147Y-75634685D01*
X66083501Y-75718281D01*
X66241214Y-75764100D01*
X66241211Y-75764100D01*
X66243698Y-75764295D01*
X66243700Y-75764295D01*
X66243700Y-74542000D01*
X65473700Y-74542000D01*
X64973700Y-74542000D01*
X64203700Y-74542000D01*
X63703700Y-74542000D01*
X63703700Y-74042000D01*
X64203700Y-74042000D01*
X64973700Y-74042000D01*
X65473700Y-74042000D01*
X66243700Y-74042000D01*
X66243700Y-72819703D01*
X66241203Y-72819900D01*
X66083506Y-72865716D01*
X66083503Y-72865717D01*
X65942147Y-72949314D01*
X65935978Y-72954100D01*
X65934157Y-72951753D01*
X65885058Y-72978564D01*
X65815366Y-72973580D01*
X65782630Y-72952541D01*
X65781422Y-72954100D01*
X65775252Y-72949314D01*
X65633896Y-72865717D01*
X65633893Y-72865716D01*
X65476194Y-72819900D01*
X65476197Y-72819900D01*
X65473700Y-72819703D01*
X65473700Y-74042000D01*
X64973700Y-74042000D01*
X64973700Y-72819703D01*
X64971203Y-72819900D01*
X64813506Y-72865716D01*
X64813503Y-72865717D01*
X64672147Y-72949314D01*
X64665978Y-72954100D01*
X64664157Y-72951753D01*
X64615058Y-72978564D01*
X64545366Y-72973580D01*
X64512630Y-72952541D01*
X64511422Y-72954100D01*
X64505252Y-72949314D01*
X64363896Y-72865717D01*
X64363893Y-72865716D01*
X64206194Y-72819900D01*
X64206197Y-72819900D01*
X64203700Y-72819703D01*
X64203700Y-74042000D01*
X63703700Y-74042000D01*
X63703700Y-72819703D01*
X63701203Y-72819900D01*
X63543506Y-72865716D01*
X63543503Y-72865717D01*
X63402149Y-72949313D01*
X63395983Y-72954097D01*
X63394089Y-72951655D01*
X63345280Y-72978239D01*
X63275594Y-72973179D01*
X63242927Y-72952159D01*
X63241731Y-72953702D01*
X63235562Y-72948917D01*
X63101856Y-72869844D01*
X63094098Y-72865256D01*
X63094097Y-72865255D01*
X63094096Y-72865255D01*
X63094093Y-72865254D01*
X62936273Y-72819402D01*
X62936267Y-72819401D01*
X62899401Y-72816500D01*
X62899394Y-72816500D01*
X62468006Y-72816500D01*
X62467998Y-72816500D01*
X62431132Y-72819401D01*
X62431126Y-72819402D01*
X62273306Y-72865254D01*
X62273303Y-72865255D01*
X62131840Y-72948915D01*
X62125674Y-72953699D01*
X62123874Y-72951379D01*
X62074613Y-72978230D01*
X62004925Y-72973193D01*
X61972692Y-72952461D01*
X61971422Y-72954100D01*
X61965252Y-72949314D01*
X61823896Y-72865717D01*
X61823893Y-72865716D01*
X61666194Y-72819900D01*
X61666197Y-72819900D01*
X61663700Y-72819703D01*
X61663700Y-75764295D01*
X61664415Y-75764239D01*
X61732792Y-75778604D01*
X61782548Y-75827656D01*
X61797462Y-75874892D01*
X61798025Y-75880254D01*
X61802457Y-75893893D01*
X61810999Y-75920182D01*
X61812994Y-75990022D01*
X61776914Y-76049855D01*
X61714213Y-76080684D01*
X61693068Y-76082500D01*
X60026737Y-76082500D01*
X60011120Y-76080776D01*
X60011093Y-76081062D01*
X60003331Y-76080327D01*
X59936144Y-76082439D01*
X59932250Y-76082500D01*
X59904650Y-76082500D01*
X59900962Y-76082965D01*
X59900649Y-76083005D01*
X59889031Y-76083918D01*
X59845372Y-76085290D01*
X59845369Y-76085291D01*
X59826126Y-76090881D01*
X59807083Y-76094825D01*
X59787204Y-76097336D01*
X59787203Y-76097337D01*
X59746593Y-76113415D01*
X59735548Y-76117197D01*
X59693608Y-76129383D01*
X59693604Y-76129385D01*
X59676365Y-76139580D01*
X59658898Y-76148137D01*
X59640269Y-76155512D01*
X59640267Y-76155514D01*
X59604926Y-76181189D01*
X59595168Y-76187599D01*
X59557580Y-76209828D01*
X59543408Y-76224000D01*
X59528623Y-76236628D01*
X59512412Y-76248407D01*
X59484571Y-76282059D01*
X59476711Y-76290696D01*
X57829726Y-77937681D01*
X57768403Y-77971166D01*
X57742045Y-77974000D01*
X56821686Y-77974000D01*
X56847493Y-77933844D01*
X56888000Y-77795889D01*
X56888000Y-77652111D01*
X56847493Y-77514156D01*
X56821686Y-77474000D01*
X57718636Y-77474000D01*
X57718635Y-77473999D01*
X57661432Y-77260513D01*
X57661429Y-77260507D01*
X57561600Y-77046422D01*
X57561599Y-77046420D01*
X57426113Y-76852926D01*
X57426108Y-76852920D01*
X57259078Y-76685890D01*
X57073405Y-76555879D01*
X57029780Y-76501302D01*
X57022588Y-76431804D01*
X57054110Y-76369449D01*
X57073406Y-76352730D01*
X57259401Y-76222495D01*
X57426495Y-76055401D01*
X57562035Y-75861830D01*
X57661903Y-75647663D01*
X57723063Y-75419408D01*
X57743659Y-75184000D01*
X57723063Y-74948592D01*
X57701966Y-74869858D01*
X57696143Y-74848125D01*
X57697806Y-74778276D01*
X57728235Y-74728353D01*
X57914588Y-74542000D01*
X60613700Y-74542000D01*
X60613700Y-75182649D01*
X60616599Y-75219489D01*
X60616600Y-75219495D01*
X60662416Y-75377193D01*
X60662417Y-75377196D01*
X60746014Y-75518552D01*
X60746021Y-75518561D01*
X60862138Y-75634678D01*
X60862147Y-75634685D01*
X61003501Y-75718281D01*
X61161214Y-75764100D01*
X61161211Y-75764100D01*
X61163698Y-75764295D01*
X61163700Y-75764295D01*
X61163700Y-74542000D01*
X60613700Y-74542000D01*
X57914588Y-74542000D01*
X58295787Y-74160802D01*
X58308042Y-74150986D01*
X58307859Y-74150764D01*
X58313868Y-74145791D01*
X58313877Y-74145786D01*
X58359949Y-74096722D01*
X58362566Y-74094023D01*
X58382120Y-74074471D01*
X58384576Y-74071303D01*
X58392156Y-74062427D01*
X58411339Y-74042000D01*
X60613700Y-74042000D01*
X61163700Y-74042000D01*
X61163700Y-72819703D01*
X61161203Y-72819900D01*
X61003506Y-72865716D01*
X61003503Y-72865717D01*
X60862147Y-72949314D01*
X60862138Y-72949321D01*
X60746021Y-73065438D01*
X60746014Y-73065447D01*
X60662417Y-73206803D01*
X60662416Y-73206806D01*
X60616600Y-73364504D01*
X60616599Y-73364510D01*
X60613700Y-73401350D01*
X60613700Y-74042000D01*
X58411339Y-74042000D01*
X58422062Y-74030582D01*
X58431713Y-74013024D01*
X58442396Y-73996761D01*
X58454673Y-73980936D01*
X58472021Y-73940844D01*
X58477151Y-73930371D01*
X58498197Y-73892092D01*
X58503180Y-73872680D01*
X58509481Y-73854280D01*
X58517437Y-73835896D01*
X58524270Y-73792748D01*
X58526633Y-73781338D01*
X58537500Y-73739019D01*
X58537500Y-73718983D01*
X58539027Y-73699582D01*
X58542160Y-73679804D01*
X58538050Y-73636324D01*
X58537500Y-73624655D01*
X58537500Y-73092152D01*
X58557185Y-73025113D01*
X58573815Y-73004475D01*
X59057786Y-72520503D01*
X59070048Y-72510681D01*
X59069865Y-72510460D01*
X59075868Y-72505492D01*
X59075877Y-72505487D01*
X59121934Y-72456440D01*
X59124582Y-72453707D01*
X59144120Y-72434171D01*
X59146570Y-72431011D01*
X59154154Y-72422130D01*
X59184062Y-72390283D01*
X59193714Y-72372724D01*
X59204389Y-72356473D01*
X59216674Y-72340637D01*
X59234030Y-72300526D01*
X59239161Y-72290055D01*
X59260194Y-72251799D01*
X59260194Y-72251798D01*
X59260197Y-72251793D01*
X59265180Y-72232381D01*
X59271477Y-72213992D01*
X59279438Y-72195596D01*
X59286270Y-72152449D01*
X59288639Y-72141017D01*
X59295615Y-72113848D01*
X59299500Y-72098720D01*
X59299500Y-72078684D01*
X59301027Y-72059283D01*
X59301127Y-72058653D01*
X59304160Y-72039505D01*
X59300050Y-71996025D01*
X59299500Y-71984356D01*
X59299500Y-70160452D01*
X59319185Y-70093413D01*
X59335819Y-70072771D01*
X60401519Y-69007071D01*
X60462842Y-68973586D01*
X60532534Y-68978570D01*
G37*
%TD.AperFunction*%
%TA.AperFunction,Conductor*%
G36*
X84595565Y-67729348D02*
G01*
X84640082Y-67780725D01*
X84667129Y-67838728D01*
X84667132Y-67838734D01*
X84797654Y-68025141D01*
X84958558Y-68186045D01*
X84958561Y-68186047D01*
X85144966Y-68316568D01*
X85351204Y-68412739D01*
X85351209Y-68412740D01*
X85351211Y-68412741D01*
X85419655Y-68431080D01*
X85564657Y-68469933D01*
X85624318Y-68506298D01*
X85654847Y-68569145D01*
X85646552Y-68638520D01*
X85602067Y-68692398D01*
X85597661Y-68695247D01*
X85456542Y-68782289D01*
X85332489Y-68906342D01*
X85240387Y-69055663D01*
X85240385Y-69055668D01*
X85231521Y-69082418D01*
X85185201Y-69222203D01*
X85185201Y-69222204D01*
X85185200Y-69222204D01*
X85174700Y-69324983D01*
X85174700Y-70375001D01*
X85174701Y-70375019D01*
X85185200Y-70477796D01*
X85185201Y-70477799D01*
X85234264Y-70625858D01*
X85240386Y-70644334D01*
X85332488Y-70793656D01*
X85332489Y-70793657D01*
X85332739Y-70794062D01*
X85351200Y-70859159D01*
X85351200Y-71314030D01*
X85333932Y-71377150D01*
X85299957Y-71434599D01*
X85299954Y-71434606D01*
X85254102Y-71592426D01*
X85254101Y-71592432D01*
X85251200Y-71629298D01*
X85251200Y-73212279D01*
X85234588Y-73274277D01*
X85224521Y-73291713D01*
X85166589Y-73470011D01*
X85166026Y-73471744D01*
X85151979Y-73605398D01*
X85148379Y-73639649D01*
X85121794Y-73704263D01*
X85112739Y-73714368D01*
X84558928Y-74268181D01*
X84497605Y-74301666D01*
X84471247Y-74304500D01*
X83735270Y-74304500D01*
X83668231Y-74284815D01*
X83622476Y-74232011D01*
X83612532Y-74162853D01*
X83641557Y-74099297D01*
X83672149Y-74073768D01*
X83809252Y-73992685D01*
X83809261Y-73992678D01*
X83925378Y-73876561D01*
X83925385Y-73876552D01*
X84008982Y-73735196D01*
X84008983Y-73735193D01*
X84054799Y-73577495D01*
X84054800Y-73577489D01*
X84057699Y-73540649D01*
X84057700Y-73540634D01*
X84057700Y-72900000D01*
X83131700Y-72900000D01*
X83064661Y-72880315D01*
X83018906Y-72827511D01*
X83007700Y-72776000D01*
X83007700Y-71177703D01*
X83507700Y-71177703D01*
X83507700Y-72400000D01*
X84057700Y-72400000D01*
X84057700Y-71759365D01*
X84057699Y-71759350D01*
X84054800Y-71722510D01*
X84054799Y-71722504D01*
X84008983Y-71564806D01*
X84008982Y-71564803D01*
X83925385Y-71423447D01*
X83925378Y-71423438D01*
X83809261Y-71307321D01*
X83809252Y-71307314D01*
X83667896Y-71223717D01*
X83667893Y-71223716D01*
X83510194Y-71177900D01*
X83510197Y-71177900D01*
X83507700Y-71177703D01*
X83007700Y-71177703D01*
X83005203Y-71177900D01*
X82847506Y-71223716D01*
X82847503Y-71223717D01*
X82706149Y-71307313D01*
X82699983Y-71312097D01*
X82698089Y-71309655D01*
X82649280Y-71336239D01*
X82579594Y-71331179D01*
X82546927Y-71310159D01*
X82545731Y-71311702D01*
X82539562Y-71306917D01*
X82405638Y-71227715D01*
X82398098Y-71223256D01*
X82398097Y-71223255D01*
X82398096Y-71223255D01*
X82398093Y-71223254D01*
X82240273Y-71177402D01*
X82240267Y-71177401D01*
X82203401Y-71174500D01*
X82203394Y-71174500D01*
X81772006Y-71174500D01*
X81771998Y-71174500D01*
X81735132Y-71177401D01*
X81735126Y-71177402D01*
X81577306Y-71223254D01*
X81577303Y-71223255D01*
X81435840Y-71306915D01*
X81429674Y-71311699D01*
X81427874Y-71309379D01*
X81378613Y-71336230D01*
X81308925Y-71331193D01*
X81276692Y-71310461D01*
X81275422Y-71312100D01*
X81269252Y-71307314D01*
X81127896Y-71223717D01*
X81127893Y-71223716D01*
X80970194Y-71177900D01*
X80970197Y-71177900D01*
X80967700Y-71177703D01*
X80967700Y-72776000D01*
X80948015Y-72843039D01*
X80895211Y-72888794D01*
X80843700Y-72900000D01*
X76781700Y-72900000D01*
X76714661Y-72880315D01*
X76668906Y-72827511D01*
X76657700Y-72776000D01*
X76657700Y-72400000D01*
X77157700Y-72400000D01*
X77927700Y-72400000D01*
X78427700Y-72400000D01*
X79197700Y-72400000D01*
X79697700Y-72400000D01*
X80467700Y-72400000D01*
X80467700Y-71177703D01*
X80465203Y-71177900D01*
X80307506Y-71223716D01*
X80307503Y-71223717D01*
X80166147Y-71307314D01*
X80159978Y-71312100D01*
X80158157Y-71309753D01*
X80109058Y-71336564D01*
X80039366Y-71331580D01*
X80006630Y-71310541D01*
X80005422Y-71312100D01*
X79999252Y-71307314D01*
X79857896Y-71223717D01*
X79857893Y-71223716D01*
X79700194Y-71177900D01*
X79700197Y-71177900D01*
X79697700Y-71177703D01*
X79697700Y-72400000D01*
X79197700Y-72400000D01*
X79197700Y-71177703D01*
X79195203Y-71177900D01*
X79037506Y-71223716D01*
X79037503Y-71223717D01*
X78896147Y-71307314D01*
X78889978Y-71312100D01*
X78888157Y-71309753D01*
X78839058Y-71336564D01*
X78769366Y-71331580D01*
X78736630Y-71310541D01*
X78735422Y-71312100D01*
X78729252Y-71307314D01*
X78587896Y-71223717D01*
X78587893Y-71223716D01*
X78430194Y-71177900D01*
X78430197Y-71177900D01*
X78427700Y-71177703D01*
X78427700Y-72400000D01*
X77927700Y-72400000D01*
X77927700Y-71177703D01*
X77925203Y-71177900D01*
X77767506Y-71223716D01*
X77767503Y-71223717D01*
X77626147Y-71307314D01*
X77619978Y-71312100D01*
X77618157Y-71309753D01*
X77569058Y-71336564D01*
X77499366Y-71331580D01*
X77466630Y-71310541D01*
X77465422Y-71312100D01*
X77459252Y-71307314D01*
X77317896Y-71223717D01*
X77317893Y-71223716D01*
X77160194Y-71177900D01*
X77160197Y-71177900D01*
X77157700Y-71177703D01*
X77157700Y-72400000D01*
X76657700Y-72400000D01*
X76657700Y-71177703D01*
X76655203Y-71177900D01*
X76497506Y-71223716D01*
X76497503Y-71223717D01*
X76356149Y-71307313D01*
X76349983Y-71312097D01*
X76348089Y-71309655D01*
X76299280Y-71336239D01*
X76229594Y-71331179D01*
X76196927Y-71310160D01*
X76195732Y-71311702D01*
X76189567Y-71306920D01*
X76130778Y-71272151D01*
X76104017Y-71247806D01*
X76102637Y-71249103D01*
X76097299Y-71243419D01*
X76097295Y-71243416D01*
X76097294Y-71243414D01*
X76063630Y-71215564D01*
X76055000Y-71207711D01*
X75710505Y-70863216D01*
X75700680Y-70850952D01*
X75700459Y-70851136D01*
X75695483Y-70845121D01*
X75646475Y-70799099D01*
X75643676Y-70796386D01*
X75624172Y-70776882D01*
X75621252Y-70774307D01*
X75622324Y-70773090D01*
X75585298Y-70721801D01*
X75581521Y-70652033D01*
X75616063Y-70591299D01*
X75677956Y-70558881D01*
X75689617Y-70557126D01*
X75695700Y-70556504D01*
X75862119Y-70501358D01*
X75862124Y-70501356D01*
X76011345Y-70409315D01*
X76135315Y-70285345D01*
X76227356Y-70136124D01*
X76227358Y-70136119D01*
X76282505Y-69969697D01*
X76282506Y-69969690D01*
X76292999Y-69866986D01*
X76293000Y-69866973D01*
X76293000Y-69592000D01*
X75079500Y-69592000D01*
X75012461Y-69572315D01*
X74966706Y-69519511D01*
X74955500Y-69468000D01*
X74955500Y-69216000D01*
X74975185Y-69148961D01*
X75027989Y-69103206D01*
X75079500Y-69092000D01*
X76292999Y-69092000D01*
X76292999Y-68817028D01*
X76292998Y-68817013D01*
X76282505Y-68714302D01*
X76227358Y-68547880D01*
X76227353Y-68547869D01*
X76203792Y-68509671D01*
X76185351Y-68442279D01*
X76206273Y-68375615D01*
X76256922Y-68332194D01*
X76290434Y-68316568D01*
X76476839Y-68186047D01*
X76637747Y-68025139D01*
X76768268Y-67838734D01*
X76795318Y-67780724D01*
X76841490Y-67728285D01*
X76908683Y-67709133D01*
X76975565Y-67729348D01*
X77020082Y-67780725D01*
X77047129Y-67838728D01*
X77047132Y-67838734D01*
X77177654Y-68025141D01*
X77338558Y-68186045D01*
X77338561Y-68186047D01*
X77524966Y-68316568D01*
X77731204Y-68412739D01*
X77731209Y-68412740D01*
X77731211Y-68412741D01*
X77784115Y-68426916D01*
X77951008Y-68471635D01*
X78112930Y-68485801D01*
X78177698Y-68491468D01*
X78177700Y-68491468D01*
X78177702Y-68491468D01*
X78234373Y-68486509D01*
X78404392Y-68471635D01*
X78624196Y-68412739D01*
X78830434Y-68316568D01*
X79016839Y-68186047D01*
X79177747Y-68025139D01*
X79308268Y-67838734D01*
X79335318Y-67780724D01*
X79381490Y-67728285D01*
X79448683Y-67709133D01*
X79515565Y-67729348D01*
X79560082Y-67780725D01*
X79587129Y-67838728D01*
X79587132Y-67838734D01*
X79717654Y-68025141D01*
X79878558Y-68186045D01*
X79878561Y-68186047D01*
X80064966Y-68316568D01*
X80271204Y-68412739D01*
X80271209Y-68412740D01*
X80271211Y-68412741D01*
X80324115Y-68426916D01*
X80491008Y-68471635D01*
X80652930Y-68485801D01*
X80717698Y-68491468D01*
X80717700Y-68491468D01*
X80717702Y-68491468D01*
X80774373Y-68486509D01*
X80944392Y-68471635D01*
X81164196Y-68412739D01*
X81370434Y-68316568D01*
X81556839Y-68186047D01*
X81717747Y-68025139D01*
X81848268Y-67838734D01*
X81875318Y-67780724D01*
X81921490Y-67728285D01*
X81988683Y-67709133D01*
X82055565Y-67729348D01*
X82100082Y-67780725D01*
X82127129Y-67838728D01*
X82127132Y-67838734D01*
X82257654Y-68025141D01*
X82418558Y-68186045D01*
X82418561Y-68186047D01*
X82604966Y-68316568D01*
X82811204Y-68412739D01*
X82811209Y-68412740D01*
X82811211Y-68412741D01*
X82864115Y-68426916D01*
X83031008Y-68471635D01*
X83192930Y-68485801D01*
X83257698Y-68491468D01*
X83257700Y-68491468D01*
X83257702Y-68491468D01*
X83314373Y-68486509D01*
X83484392Y-68471635D01*
X83704196Y-68412739D01*
X83910434Y-68316568D01*
X84096839Y-68186047D01*
X84257747Y-68025139D01*
X84388268Y-67838734D01*
X84415318Y-67780724D01*
X84461490Y-67728285D01*
X84528683Y-67709133D01*
X84595565Y-67729348D01*
G37*
%TD.AperFunction*%
%TA.AperFunction,Conductor*%
G36*
X93667700Y-68464872D02*
G01*
X93864017Y-68412269D01*
X93864026Y-68412265D01*
X94070182Y-68316134D01*
X94256520Y-68185657D01*
X94417357Y-68024820D01*
X94547832Y-67838484D01*
X94575041Y-67780134D01*
X94621213Y-67727695D01*
X94688407Y-67708542D01*
X94755288Y-67728757D01*
X94799806Y-67780133D01*
X94827131Y-67838732D01*
X94827132Y-67838734D01*
X94957654Y-68025141D01*
X95118558Y-68186045D01*
X95118561Y-68186047D01*
X95304966Y-68316568D01*
X95511204Y-68412739D01*
X95511209Y-68412740D01*
X95511211Y-68412741D01*
X95564115Y-68426916D01*
X95731008Y-68471635D01*
X95892930Y-68485801D01*
X95957698Y-68491468D01*
X95957700Y-68491468D01*
X95957702Y-68491468D01*
X96014373Y-68486509D01*
X96184392Y-68471635D01*
X96404196Y-68412739D01*
X96610434Y-68316568D01*
X96796839Y-68186047D01*
X96957747Y-68025139D01*
X97088268Y-67838734D01*
X97115318Y-67780724D01*
X97161490Y-67728285D01*
X97228683Y-67709133D01*
X97295565Y-67729348D01*
X97340082Y-67780725D01*
X97367129Y-67838728D01*
X97367132Y-67838734D01*
X97497654Y-68025141D01*
X97658558Y-68186045D01*
X97658561Y-68186047D01*
X97844966Y-68316568D01*
X98051204Y-68412739D01*
X98051209Y-68412740D01*
X98051211Y-68412741D01*
X98104115Y-68426916D01*
X98271008Y-68471635D01*
X98432930Y-68485801D01*
X98497698Y-68491468D01*
X98497700Y-68491468D01*
X98497702Y-68491468D01*
X98554373Y-68486509D01*
X98724392Y-68471635D01*
X98944196Y-68412739D01*
X99150434Y-68316568D01*
X99336839Y-68186047D01*
X99497747Y-68025139D01*
X99628268Y-67838734D01*
X99655318Y-67780724D01*
X99701490Y-67728285D01*
X99768683Y-67709133D01*
X99835565Y-67729348D01*
X99880082Y-67780725D01*
X99907129Y-67838728D01*
X99907132Y-67838734D01*
X100037654Y-68025141D01*
X100198558Y-68186045D01*
X100198561Y-68186047D01*
X100384966Y-68316568D01*
X100591204Y-68412739D01*
X100591209Y-68412740D01*
X100591211Y-68412741D01*
X100644115Y-68426916D01*
X100811008Y-68471635D01*
X100972930Y-68485801D01*
X101037698Y-68491468D01*
X101037700Y-68491468D01*
X101037702Y-68491468D01*
X101094373Y-68486509D01*
X101264392Y-68471635D01*
X101484196Y-68412739D01*
X101690434Y-68316568D01*
X101876839Y-68186047D01*
X102037747Y-68025139D01*
X102168268Y-67838734D01*
X102195318Y-67780724D01*
X102241490Y-67728285D01*
X102308683Y-67709133D01*
X102375565Y-67729348D01*
X102420082Y-67780725D01*
X102447129Y-67838728D01*
X102447132Y-67838734D01*
X102577654Y-68025141D01*
X102738558Y-68186045D01*
X102738561Y-68186047D01*
X102924966Y-68316568D01*
X103131204Y-68412739D01*
X103131209Y-68412740D01*
X103131211Y-68412741D01*
X103184115Y-68426916D01*
X103351008Y-68471635D01*
X103357548Y-68472207D01*
X103422617Y-68497657D01*
X103463597Y-68554247D01*
X103467478Y-68624009D01*
X103433026Y-68684794D01*
X103411841Y-68701273D01*
X103279859Y-68782680D01*
X103279855Y-68782683D01*
X103155884Y-68906654D01*
X103063843Y-69055875D01*
X103063841Y-69055880D01*
X103008694Y-69222302D01*
X103008693Y-69222309D01*
X102998200Y-69325013D01*
X102998200Y-69600000D01*
X103835700Y-69600000D01*
X103835700Y-68604799D01*
X103826512Y-68587973D01*
X103831496Y-68518281D01*
X103873368Y-68462348D01*
X103915582Y-68441841D01*
X103993435Y-68420981D01*
X104024186Y-68412742D01*
X104024189Y-68412740D01*
X104024196Y-68412739D01*
X104230434Y-68316568D01*
X104416839Y-68186047D01*
X104577747Y-68025139D01*
X104708268Y-67838734D01*
X104735318Y-67780724D01*
X104781490Y-67728285D01*
X104848683Y-67709133D01*
X104915565Y-67729348D01*
X104960082Y-67780725D01*
X104987129Y-67838728D01*
X104987132Y-67838734D01*
X105117654Y-68025141D01*
X105278558Y-68186045D01*
X105278561Y-68186047D01*
X105464966Y-68316568D01*
X105666628Y-68410605D01*
X105719066Y-68456776D01*
X105738218Y-68523970D01*
X105718002Y-68590851D01*
X105664837Y-68636186D01*
X105653227Y-68640692D01*
X105503866Y-68690186D01*
X105503863Y-68690187D01*
X105354542Y-68782289D01*
X105230488Y-68906343D01*
X105230483Y-68906349D01*
X105228441Y-68909661D01*
X105226447Y-68911453D01*
X105226007Y-68912011D01*
X105225911Y-68911935D01*
X105176491Y-68956383D01*
X105107528Y-68967602D01*
X105043447Y-68939755D01*
X105017368Y-68909656D01*
X105015519Y-68906659D01*
X105015516Y-68906655D01*
X104891545Y-68782684D01*
X104742324Y-68690643D01*
X104742319Y-68690641D01*
X104575897Y-68635494D01*
X104575890Y-68635493D01*
X104473186Y-68625000D01*
X104335700Y-68625000D01*
X104335700Y-69976000D01*
X104316015Y-70043039D01*
X104263211Y-70088794D01*
X104211700Y-70100000D01*
X102998201Y-70100000D01*
X102998201Y-70150500D01*
X102978516Y-70217539D01*
X102925712Y-70263294D01*
X102874201Y-70274500D01*
X99350153Y-70274500D01*
X99283114Y-70254815D01*
X99262472Y-70238181D01*
X98490503Y-69466212D01*
X98480680Y-69453950D01*
X98480459Y-69454134D01*
X98475486Y-69448122D01*
X98426476Y-69402099D01*
X98423677Y-69399386D01*
X98404177Y-69379885D01*
X98404171Y-69379880D01*
X98400986Y-69377409D01*
X98392134Y-69369848D01*
X98360282Y-69339938D01*
X98360280Y-69339936D01*
X98360277Y-69339935D01*
X98342729Y-69330288D01*
X98326463Y-69319604D01*
X98310632Y-69307324D01*
X98270549Y-69289978D01*
X98260063Y-69284841D01*
X98221794Y-69263803D01*
X98221792Y-69263802D01*
X98202393Y-69258822D01*
X98183981Y-69252518D01*
X98165598Y-69244562D01*
X98165592Y-69244560D01*
X98122460Y-69237729D01*
X98111022Y-69235361D01*
X98068720Y-69224500D01*
X98068719Y-69224500D01*
X98048684Y-69224500D01*
X98029286Y-69222973D01*
X98021862Y-69221797D01*
X98009505Y-69219840D01*
X98009504Y-69219840D01*
X97966025Y-69223950D01*
X97954356Y-69224500D01*
X90053043Y-69224500D01*
X90037422Y-69222775D01*
X90037395Y-69223061D01*
X90029633Y-69222326D01*
X89962413Y-69224439D01*
X89958519Y-69224500D01*
X89930950Y-69224500D01*
X89926973Y-69225002D01*
X89915342Y-69225917D01*
X89871674Y-69227289D01*
X89871668Y-69227290D01*
X89852426Y-69232880D01*
X89833387Y-69236823D01*
X89813517Y-69239334D01*
X89813503Y-69239337D01*
X89772898Y-69255413D01*
X89761854Y-69259194D01*
X89719914Y-69271379D01*
X89719910Y-69271381D01*
X89702666Y-69281579D01*
X89685205Y-69290133D01*
X89666574Y-69297510D01*
X89666562Y-69297517D01*
X89631233Y-69323185D01*
X89621468Y-69329599D01*
X89603606Y-69340162D01*
X89535881Y-69357343D01*
X89469619Y-69335182D01*
X89425857Y-69280715D01*
X89417129Y-69246027D01*
X89414706Y-69222303D01*
X89359558Y-69055880D01*
X89359556Y-69055875D01*
X89267515Y-68906654D01*
X89143545Y-68782684D01*
X88994324Y-68690643D01*
X88994319Y-68690641D01*
X88821470Y-68633365D01*
X88822157Y-68631291D01*
X88769796Y-68602909D01*
X88736123Y-68541688D01*
X88740894Y-68471982D01*
X88782594Y-68415920D01*
X88804804Y-68402577D01*
X88990179Y-68316135D01*
X88990181Y-68316134D01*
X89176520Y-68185657D01*
X89337357Y-68024820D01*
X89467832Y-67838484D01*
X89495041Y-67780134D01*
X89541213Y-67727695D01*
X89608407Y-67708542D01*
X89675288Y-67728757D01*
X89719806Y-67780133D01*
X89747131Y-67838732D01*
X89747132Y-67838734D01*
X89877654Y-68025141D01*
X90038558Y-68186045D01*
X90038561Y-68186047D01*
X90224966Y-68316568D01*
X90431204Y-68412739D01*
X90431209Y-68412740D01*
X90431211Y-68412741D01*
X90484115Y-68426916D01*
X90651008Y-68471635D01*
X90812930Y-68485801D01*
X90877698Y-68491468D01*
X90877700Y-68491468D01*
X90877702Y-68491468D01*
X90934373Y-68486509D01*
X91104392Y-68471635D01*
X91324196Y-68412739D01*
X91530434Y-68316568D01*
X91716839Y-68186047D01*
X91877747Y-68025139D01*
X92008268Y-67838734D01*
X92035595Y-67780129D01*
X92081764Y-67727695D01*
X92148957Y-67708542D01*
X92215839Y-67728757D01*
X92260357Y-67780133D01*
X92287565Y-67838482D01*
X92418042Y-68024820D01*
X92578879Y-68185657D01*
X92765217Y-68316134D01*
X92971373Y-68412265D01*
X92971382Y-68412269D01*
X93167699Y-68464872D01*
X93167700Y-68464871D01*
X93167700Y-67501686D01*
X93179655Y-67513641D01*
X93292552Y-67571165D01*
X93386219Y-67586000D01*
X93449181Y-67586000D01*
X93542848Y-67571165D01*
X93655745Y-67513641D01*
X93667700Y-67501686D01*
X93667700Y-68464872D01*
G37*
%TD.AperFunction*%
%TA.AperFunction,Conductor*%
G36*
X87135839Y-67728757D02*
G01*
X87180357Y-67780133D01*
X87207565Y-67838482D01*
X87338042Y-68024820D01*
X87498879Y-68185657D01*
X87685217Y-68316134D01*
X87870595Y-68402577D01*
X87923034Y-68448749D01*
X87942186Y-68515943D01*
X87921970Y-68582824D01*
X87868805Y-68628158D01*
X87853827Y-68633051D01*
X87853931Y-68633364D01*
X87681080Y-68690641D01*
X87681075Y-68690643D01*
X87531854Y-68782684D01*
X87407883Y-68906655D01*
X87407879Y-68906660D01*
X87406026Y-68909665D01*
X87404218Y-68911290D01*
X87403402Y-68912323D01*
X87403225Y-68912183D01*
X87354074Y-68956385D01*
X87285111Y-68967601D01*
X87221031Y-68939752D01*
X87194953Y-68909653D01*
X87194937Y-68909628D01*
X87192912Y-68906344D01*
X87068856Y-68782288D01*
X86976088Y-68725069D01*
X86919536Y-68690187D01*
X86919531Y-68690185D01*
X86903262Y-68684794D01*
X86752997Y-68635001D01*
X86752995Y-68635000D01*
X86650216Y-68624500D01*
X86349399Y-68624500D01*
X86282360Y-68604815D01*
X86236605Y-68552011D01*
X86226661Y-68482853D01*
X86255686Y-68419297D01*
X86296991Y-68388119D01*
X86450434Y-68316568D01*
X86636839Y-68186047D01*
X86797747Y-68025139D01*
X86928268Y-67838734D01*
X86955595Y-67780129D01*
X87001764Y-67727695D01*
X87068957Y-67708542D01*
X87135839Y-67728757D01*
G37*
%TD.AperFunction*%
%TA.AperFunction,Conductor*%
G36*
X63540198Y-53360185D02*
G01*
X63585953Y-53412989D01*
X63595897Y-53482147D01*
X63566872Y-53545703D01*
X63508094Y-53583477D01*
X63505263Y-53584271D01*
X63482920Y-53590258D01*
X63307511Y-53637258D01*
X63307502Y-53637261D01*
X63101267Y-53733431D01*
X63101265Y-53733432D01*
X62914858Y-53863954D01*
X62753954Y-54024858D01*
X62623432Y-54211265D01*
X62623431Y-54211267D01*
X62527261Y-54417502D01*
X62527258Y-54417511D01*
X62468366Y-54637302D01*
X62468364Y-54637313D01*
X62448532Y-54863998D01*
X62448532Y-54864003D01*
X62463129Y-55030861D01*
X62449362Y-55099360D01*
X62427282Y-55129348D01*
X61109358Y-56447272D01*
X61095729Y-56459051D01*
X61076469Y-56473390D01*
X61044632Y-56511331D01*
X61037346Y-56519284D01*
X61033407Y-56523224D01*
X61014176Y-56547545D01*
X61011902Y-56550337D01*
X60963694Y-56607790D01*
X60959729Y-56613819D01*
X60959682Y-56613788D01*
X60955630Y-56620147D01*
X60955679Y-56620177D01*
X60951889Y-56626321D01*
X60920192Y-56694294D01*
X60918623Y-56697536D01*
X60884957Y-56764572D01*
X60882488Y-56771357D01*
X60882432Y-56771336D01*
X60879960Y-56778450D01*
X60880015Y-56778469D01*
X60877743Y-56785325D01*
X60862573Y-56858788D01*
X60861793Y-56862304D01*
X60844499Y-56935279D01*
X60843661Y-56942454D01*
X60843601Y-56942447D01*
X60842835Y-56949945D01*
X60842895Y-56949951D01*
X60842265Y-56957140D01*
X60844448Y-57032128D01*
X60844500Y-57035735D01*
X60844500Y-58901677D01*
X60827887Y-58963677D01*
X60767821Y-59067714D01*
X60709327Y-59247740D01*
X60709326Y-59247744D01*
X60689540Y-59436000D01*
X60709326Y-59624256D01*
X60709327Y-59624259D01*
X60767818Y-59804277D01*
X60767821Y-59804284D01*
X60862467Y-59968216D01*
X60899500Y-60009345D01*
X60969331Y-60086901D01*
X60999561Y-60149893D01*
X60990936Y-60219228D01*
X60964862Y-60257554D01*
X59504908Y-61717508D01*
X59492651Y-61727329D01*
X59492834Y-61727550D01*
X59486820Y-61732525D01*
X59480949Y-61738777D01*
X59420706Y-61774168D01*
X59350892Y-61771371D01*
X59293674Y-61731274D01*
X59285024Y-61718985D01*
X59233319Y-61635159D01*
X59233316Y-61635155D01*
X59109345Y-61511184D01*
X58960124Y-61419143D01*
X58960119Y-61419141D01*
X58793697Y-61363994D01*
X58793690Y-61363993D01*
X58690986Y-61353500D01*
X58416000Y-61353500D01*
X58416000Y-62567000D01*
X58396315Y-62634039D01*
X58343511Y-62679794D01*
X58292000Y-62691000D01*
X57477000Y-62691000D01*
X57470319Y-62697681D01*
X57408996Y-62731166D01*
X57382638Y-62734000D01*
X56449686Y-62734000D01*
X56461641Y-62722045D01*
X56519165Y-62609148D01*
X56538986Y-62484000D01*
X56519165Y-62358852D01*
X56461641Y-62245955D01*
X56449686Y-62234000D01*
X56898000Y-62234000D01*
X56904681Y-62227319D01*
X56966004Y-62193834D01*
X56992362Y-62191000D01*
X57916000Y-62191000D01*
X57916000Y-61353500D01*
X57641029Y-61353500D01*
X57641012Y-61353501D01*
X57538302Y-61363994D01*
X57371880Y-61419141D01*
X57371875Y-61419143D01*
X57222656Y-61511182D01*
X57198838Y-61535001D01*
X57137514Y-61568485D01*
X57067822Y-61563499D01*
X57023477Y-61534999D01*
X56972820Y-61484342D01*
X56786482Y-61353865D01*
X56728133Y-61326657D01*
X56675694Y-61280484D01*
X56656542Y-61213291D01*
X56676758Y-61146410D01*
X56728129Y-61101895D01*
X56786734Y-61074568D01*
X56973139Y-60944047D01*
X57134047Y-60783139D01*
X57264568Y-60596734D01*
X57360739Y-60390496D01*
X57419635Y-60170692D01*
X57439468Y-59944000D01*
X57437478Y-59921259D01*
X57422017Y-59744538D01*
X57419635Y-59717308D01*
X57360739Y-59497504D01*
X57264568Y-59291266D01*
X57134047Y-59104861D01*
X57134045Y-59104858D01*
X56973141Y-58943954D01*
X56786734Y-58813432D01*
X56786728Y-58813429D01*
X56728725Y-58786382D01*
X56676285Y-58740210D01*
X56657133Y-58673017D01*
X56677348Y-58606135D01*
X56728725Y-58561618D01*
X56786734Y-58534568D01*
X56973139Y-58404047D01*
X57134047Y-58243139D01*
X57264568Y-58056734D01*
X57313873Y-57951000D01*
X57703001Y-57951000D01*
X57703001Y-58088486D01*
X57713494Y-58191197D01*
X57768641Y-58357619D01*
X57768643Y-58357624D01*
X57860684Y-58506845D01*
X57984654Y-58630815D01*
X58133875Y-58722856D01*
X58133880Y-58722858D01*
X58300302Y-58778005D01*
X58300309Y-58778006D01*
X58403019Y-58788499D01*
X58677999Y-58788499D01*
X58678000Y-58788498D01*
X58678000Y-57951000D01*
X59178000Y-57951000D01*
X59178000Y-58788499D01*
X59452972Y-58788499D01*
X59452986Y-58788498D01*
X59555697Y-58778005D01*
X59722119Y-58722858D01*
X59722124Y-58722856D01*
X59871345Y-58630815D01*
X59995315Y-58506845D01*
X60087356Y-58357624D01*
X60087358Y-58357619D01*
X60142505Y-58191197D01*
X60142506Y-58191190D01*
X60152999Y-58088486D01*
X60153000Y-58088473D01*
X60153000Y-57951000D01*
X59178000Y-57951000D01*
X58678000Y-57951000D01*
X57703001Y-57951000D01*
X57313873Y-57951000D01*
X57360739Y-57850496D01*
X57419635Y-57630692D01*
X57439468Y-57404000D01*
X57419635Y-57177308D01*
X57360739Y-56957504D01*
X57264568Y-56751266D01*
X57134047Y-56564861D01*
X57134045Y-56564858D01*
X56973143Y-56403956D01*
X56948536Y-56386726D01*
X56904912Y-56332149D01*
X56897719Y-56262650D01*
X56929241Y-56200296D01*
X56989471Y-56164882D01*
X57006404Y-56161861D01*
X57041483Y-56158091D01*
X57065656Y-56149074D01*
X57135347Y-56144091D01*
X57196670Y-56177575D01*
X57201136Y-56182282D01*
X57217279Y-56200210D01*
X57306129Y-56298888D01*
X57459265Y-56410148D01*
X57459270Y-56410151D01*
X57632192Y-56487142D01*
X57632197Y-56487144D01*
X57817354Y-56526500D01*
X57903667Y-56526500D01*
X57970706Y-56546185D01*
X57980578Y-56553234D01*
X57984340Y-56556208D01*
X57984344Y-56556212D01*
X57987628Y-56558237D01*
X57987653Y-56558253D01*
X57989445Y-56560246D01*
X57990011Y-56560693D01*
X57989934Y-56560789D01*
X58034379Y-56610199D01*
X58045603Y-56679161D01*
X58017761Y-56743244D01*
X57987665Y-56769326D01*
X57984660Y-56771179D01*
X57984655Y-56771183D01*
X57860684Y-56895154D01*
X57768643Y-57044375D01*
X57768641Y-57044380D01*
X57713494Y-57210802D01*
X57713493Y-57210809D01*
X57703000Y-57313513D01*
X57703000Y-57451000D01*
X60152999Y-57451000D01*
X60152999Y-57313528D01*
X60152998Y-57313513D01*
X60142505Y-57210802D01*
X60087358Y-57044380D01*
X60087356Y-57044375D01*
X59995315Y-56895154D01*
X59871344Y-56771183D01*
X59871341Y-56771181D01*
X59868339Y-56769329D01*
X59866713Y-56767521D01*
X59865677Y-56766702D01*
X59865817Y-56766524D01*
X59821617Y-56717380D01*
X59810397Y-56648417D01*
X59838243Y-56584336D01*
X59868344Y-56558254D01*
X59871656Y-56556212D01*
X59995712Y-56432156D01*
X60087814Y-56282834D01*
X60142999Y-56116297D01*
X60153500Y-56013509D01*
X60153499Y-55238492D01*
X60142999Y-55135703D01*
X60087814Y-54969166D01*
X59995712Y-54819844D01*
X59871656Y-54695788D01*
X59769850Y-54632994D01*
X59722336Y-54603687D01*
X59722331Y-54603685D01*
X59720862Y-54603198D01*
X59555797Y-54548501D01*
X59555795Y-54548500D01*
X59453010Y-54538000D01*
X58402998Y-54538000D01*
X58402980Y-54538001D01*
X58300203Y-54548500D01*
X58300200Y-54548501D01*
X58133668Y-54603685D01*
X58133663Y-54603687D01*
X57984341Y-54695790D01*
X57980578Y-54698766D01*
X57915783Y-54724907D01*
X57903667Y-54725500D01*
X57817354Y-54725500D01*
X57784897Y-54732398D01*
X57632197Y-54764855D01*
X57632196Y-54764855D01*
X57608934Y-54775213D01*
X57539684Y-54784497D01*
X57476407Y-54754868D01*
X57439194Y-54695733D01*
X57434499Y-54661933D01*
X57434499Y-54016129D01*
X57434498Y-54016123D01*
X57434497Y-54016116D01*
X57428091Y-53956517D01*
X57416829Y-53926323D01*
X57377797Y-53821671D01*
X57377793Y-53821664D01*
X57291547Y-53706455D01*
X57291544Y-53706452D01*
X57176335Y-53620206D01*
X57176328Y-53620202D01*
X57070368Y-53580682D01*
X57014434Y-53538811D01*
X56990017Y-53473347D01*
X57004869Y-53405074D01*
X57054274Y-53355668D01*
X57113701Y-53340500D01*
X63473159Y-53340500D01*
X63540198Y-53360185D01*
G37*
%TD.AperFunction*%
%TA.AperFunction,Conductor*%
G36*
X94287930Y-53360185D02*
G01*
X94333685Y-53412989D01*
X94343629Y-53482147D01*
X94314604Y-53545703D01*
X94308572Y-53552181D01*
X94273623Y-53587129D01*
X94273617Y-53587137D01*
X94189955Y-53728603D01*
X94189954Y-53728606D01*
X94144102Y-53886426D01*
X94144101Y-53886432D01*
X94141200Y-53923298D01*
X94141200Y-54114500D01*
X94121515Y-54181539D01*
X94068711Y-54227294D01*
X94017200Y-54238500D01*
X93796847Y-54238500D01*
X93773615Y-54236304D01*
X93765588Y-54234773D01*
X93765585Y-54234772D01*
X93710241Y-54238255D01*
X93702455Y-54238500D01*
X93686643Y-54238500D01*
X93670963Y-54240481D01*
X93663216Y-54241212D01*
X93654233Y-54241778D01*
X93607859Y-54244696D01*
X93600085Y-54247222D01*
X93577320Y-54252310D01*
X93569218Y-54253333D01*
X93569205Y-54253337D01*
X93517621Y-54273760D01*
X93510308Y-54276392D01*
X93457559Y-54293533D01*
X93457556Y-54293534D01*
X93450652Y-54297915D01*
X93429880Y-54308499D01*
X93422273Y-54311511D01*
X93422262Y-54311517D01*
X93377388Y-54344119D01*
X93370951Y-54348494D01*
X93324123Y-54378213D01*
X93324120Y-54378216D01*
X93318529Y-54384170D01*
X93301029Y-54399599D01*
X93294413Y-54404405D01*
X93294408Y-54404410D01*
X93259051Y-54447147D01*
X93253906Y-54452984D01*
X93215940Y-54493415D01*
X93211355Y-54499727D01*
X93210793Y-54499319D01*
X93196916Y-54517798D01*
X91861534Y-55853181D01*
X91800211Y-55886666D01*
X91773853Y-55889500D01*
X81616743Y-55889500D01*
X81601122Y-55887775D01*
X81601096Y-55888061D01*
X81593334Y-55887327D01*
X81593333Y-55887327D01*
X81531109Y-55889282D01*
X81526127Y-55889439D01*
X81522232Y-55889500D01*
X81494647Y-55889500D01*
X81490661Y-55890003D01*
X81479033Y-55890918D01*
X81435373Y-55892290D01*
X81416129Y-55897881D01*
X81397079Y-55901825D01*
X81377211Y-55904334D01*
X81377210Y-55904334D01*
X81336599Y-55920413D01*
X81325554Y-55924194D01*
X81283614Y-55936379D01*
X81283610Y-55936381D01*
X81266366Y-55946579D01*
X81248905Y-55955133D01*
X81230274Y-55962510D01*
X81230261Y-55962517D01*
X81220471Y-55969631D01*
X81154664Y-55993110D01*
X81097151Y-55982591D01*
X80924807Y-55905857D01*
X80924802Y-55905855D01*
X80779001Y-55874865D01*
X80739646Y-55866500D01*
X80550354Y-55866500D01*
X80517897Y-55873398D01*
X80365197Y-55905855D01*
X80365192Y-55905857D01*
X80267668Y-55949279D01*
X80217232Y-55960000D01*
X78023001Y-55960000D01*
X78023001Y-56097486D01*
X78033494Y-56200202D01*
X78033749Y-56201391D01*
X78033692Y-56202141D01*
X78034182Y-56206931D01*
X78033327Y-56207018D01*
X78028530Y-56271066D01*
X77986471Y-56326858D01*
X77962933Y-56340620D01*
X77906266Y-56365850D01*
X77753129Y-56477111D01*
X77626466Y-56617785D01*
X77531821Y-56781715D01*
X77531818Y-56781722D01*
X77474701Y-56957511D01*
X77473326Y-56961744D01*
X77453540Y-57150000D01*
X77473326Y-57338256D01*
X77473327Y-57338259D01*
X77531818Y-57518277D01*
X77531821Y-57518284D01*
X77626467Y-57682216D01*
X77719315Y-57785334D01*
X77753129Y-57822888D01*
X77906265Y-57934148D01*
X77906267Y-57934149D01*
X77906270Y-57934151D01*
X77948936Y-57953147D01*
X78002173Y-57998397D01*
X78022494Y-58065246D01*
X78022500Y-58066425D01*
X78022501Y-58175664D01*
X78021658Y-58175664D01*
X78006227Y-58240161D01*
X77955812Y-58288536D01*
X77898645Y-58302500D01*
X67148746Y-58302500D01*
X67081707Y-58282815D01*
X67072749Y-58276482D01*
X67072708Y-58276451D01*
X67072549Y-58276327D01*
X67072547Y-58276326D01*
X67072546Y-58276325D01*
X67032462Y-58258978D01*
X67021976Y-58253841D01*
X66983707Y-58232803D01*
X66983705Y-58232802D01*
X66964306Y-58227822D01*
X66945894Y-58221518D01*
X66927511Y-58213562D01*
X66927505Y-58213560D01*
X66884373Y-58206729D01*
X66872935Y-58204361D01*
X66830633Y-58193500D01*
X66830632Y-58193500D01*
X66810597Y-58193500D01*
X66791199Y-58191973D01*
X66783775Y-58190797D01*
X66771418Y-58188840D01*
X66771417Y-58188840D01*
X66727938Y-58192950D01*
X66716269Y-58193500D01*
X65015434Y-58193500D01*
X64948395Y-58173815D01*
X64902640Y-58121011D01*
X64892696Y-58051853D01*
X64903052Y-58017095D01*
X64908849Y-58004664D01*
X64980739Y-57850496D01*
X65039635Y-57630692D01*
X65059468Y-57404000D01*
X65039635Y-57177308D01*
X64980739Y-56957504D01*
X64884568Y-56751266D01*
X64754047Y-56564861D01*
X64754045Y-56564858D01*
X64593141Y-56403954D01*
X64406734Y-56273432D01*
X64406728Y-56273429D01*
X64371678Y-56257085D01*
X64348724Y-56246381D01*
X64296285Y-56200210D01*
X64277133Y-56133017D01*
X64297348Y-56066135D01*
X64348725Y-56021618D01*
X64406734Y-55994568D01*
X64593139Y-55864047D01*
X64754047Y-55703139D01*
X64884568Y-55516734D01*
X64944131Y-55389001D01*
X70010500Y-55389001D01*
X70010501Y-55389019D01*
X70021000Y-55491796D01*
X70021001Y-55491799D01*
X70067861Y-55633212D01*
X70076186Y-55658334D01*
X70168288Y-55807656D01*
X70292344Y-55931712D01*
X70441666Y-56023814D01*
X70608203Y-56078999D01*
X70710991Y-56089500D01*
X71038201Y-56089499D01*
X71105240Y-56109183D01*
X71145586Y-56151495D01*
X71148678Y-56156849D01*
X71149467Y-56158216D01*
X71243500Y-56262650D01*
X71276129Y-56298888D01*
X71429265Y-56410148D01*
X71429270Y-56410151D01*
X71602192Y-56487142D01*
X71602197Y-56487144D01*
X71787354Y-56526500D01*
X71787355Y-56526500D01*
X71976644Y-56526500D01*
X71976646Y-56526500D01*
X72161803Y-56487144D01*
X72334730Y-56410151D01*
X72487871Y-56298888D01*
X72614533Y-56158216D01*
X72621683Y-56145830D01*
X72672247Y-56097614D01*
X72740853Y-56084388D01*
X72741676Y-56084469D01*
X72786021Y-56088999D01*
X72923499Y-56088999D01*
X72923500Y-56088998D01*
X72923500Y-55114000D01*
X73423500Y-55114000D01*
X73423500Y-56088999D01*
X73560972Y-56088999D01*
X73560986Y-56088998D01*
X73663697Y-56078505D01*
X73830119Y-56023358D01*
X73830124Y-56023356D01*
X73979345Y-55931315D01*
X74103315Y-55807345D01*
X74195356Y-55658124D01*
X74195358Y-55658119D01*
X74250505Y-55491697D01*
X74250506Y-55491690D01*
X74253744Y-55460000D01*
X78023000Y-55460000D01*
X78998000Y-55460000D01*
X78998000Y-54622500D01*
X79498000Y-54622500D01*
X79498000Y-55460000D01*
X80472999Y-55460000D01*
X80472999Y-55322528D01*
X80472998Y-55322513D01*
X80462505Y-55219802D01*
X80407358Y-55053380D01*
X80407356Y-55053375D01*
X80315315Y-54904154D01*
X80191345Y-54780184D01*
X80042124Y-54688143D01*
X80042119Y-54688141D01*
X79875697Y-54632994D01*
X79875690Y-54632993D01*
X79772986Y-54622500D01*
X79498000Y-54622500D01*
X78998000Y-54622500D01*
X78723029Y-54622500D01*
X78723012Y-54622501D01*
X78620302Y-54632994D01*
X78453880Y-54688141D01*
X78453875Y-54688143D01*
X78304654Y-54780184D01*
X78180684Y-54904154D01*
X78088643Y-55053375D01*
X78088641Y-55053380D01*
X78033494Y-55219802D01*
X78033493Y-55219809D01*
X78023000Y-55322513D01*
X78023000Y-55460000D01*
X74253744Y-55460000D01*
X74260999Y-55388986D01*
X74261000Y-55388973D01*
X74261000Y-55114000D01*
X73423500Y-55114000D01*
X72923500Y-55114000D01*
X72923500Y-53639000D01*
X73423500Y-53639000D01*
X73423500Y-54614000D01*
X74260999Y-54614000D01*
X74260999Y-54339028D01*
X74260998Y-54339013D01*
X74250505Y-54236302D01*
X74195358Y-54069880D01*
X74195356Y-54069875D01*
X74103315Y-53920654D01*
X73979345Y-53796684D01*
X73830124Y-53704643D01*
X73830119Y-53704641D01*
X73663697Y-53649494D01*
X73663690Y-53649493D01*
X73560986Y-53639000D01*
X73423500Y-53639000D01*
X72923500Y-53639000D01*
X72786027Y-53639000D01*
X72786012Y-53639001D01*
X72683302Y-53649494D01*
X72516880Y-53704641D01*
X72516875Y-53704643D01*
X72367654Y-53796684D01*
X72243683Y-53920655D01*
X72243679Y-53920660D01*
X72241826Y-53923665D01*
X72240018Y-53925290D01*
X72239202Y-53926323D01*
X72239025Y-53926183D01*
X72189874Y-53970385D01*
X72120911Y-53981601D01*
X72056831Y-53953752D01*
X72030753Y-53923653D01*
X72030534Y-53923298D01*
X72028712Y-53920344D01*
X71904656Y-53796288D01*
X71794925Y-53728606D01*
X71755336Y-53704187D01*
X71755331Y-53704185D01*
X71753862Y-53703698D01*
X71588797Y-53649001D01*
X71588795Y-53649000D01*
X71486010Y-53638500D01*
X70710998Y-53638500D01*
X70710980Y-53638501D01*
X70608203Y-53649000D01*
X70608200Y-53649001D01*
X70441668Y-53704185D01*
X70441663Y-53704187D01*
X70292342Y-53796289D01*
X70168289Y-53920342D01*
X70076187Y-54069663D01*
X70076185Y-54069668D01*
X70072811Y-54079851D01*
X70021001Y-54236203D01*
X70021001Y-54236204D01*
X70021000Y-54236204D01*
X70010500Y-54338983D01*
X70010500Y-55389001D01*
X64944131Y-55389001D01*
X64980739Y-55310496D01*
X65039635Y-55090692D01*
X65059468Y-54864000D01*
X65059104Y-54859845D01*
X65045012Y-54698766D01*
X65039635Y-54637308D01*
X64980739Y-54417504D01*
X64884568Y-54211266D01*
X64754047Y-54024861D01*
X64754045Y-54024858D01*
X64593141Y-53863954D01*
X64406734Y-53733432D01*
X64406732Y-53733431D01*
X64200497Y-53637261D01*
X64200488Y-53637258D01*
X64031066Y-53591862D01*
X64002747Y-53584274D01*
X63943087Y-53547910D01*
X63912558Y-53485063D01*
X63920853Y-53415688D01*
X63965338Y-53361810D01*
X64031890Y-53340535D01*
X64034841Y-53340500D01*
X94220891Y-53340500D01*
X94287930Y-53360185D01*
G37*
%TD.AperFunction*%
%TD*%
M02*
